<?xml version="1.0" encoding="utf-8"?>
<!-- Generator: Adobe Illustrator 19.0.0, SVG Export Plug-In . SVG Version: 6.00 Build 0)  -->
<svg version="1.1" id="e2fa8441-c35a-40ac-9aab-e65345414818"
	 xmlns="http://www.w3.org/2000/svg" xmlns:xlink="http://www.w3.org/1999/xlink" x="0px" y="0px" viewBox="-112 114 24 24"
	 style="enable-background:new -112 114 24 24;" xml:space="preserve">
<style type="text/css">
	.st0{fill:#6FB353;}
	.st1{fill:#FFFFFF;}
</style>
<title>S</title>
<rect x="-110" y="116" class="st0" width="20" height="20"/>
<path class="st1" d="M-91.8,120.2c0-0.4-0.2-0.7-0.6-0.7c-0.1,0-0.1,0-0.2,0c-2,0-4,0-6,0v-1.7c0,0-6.9,1.2-9.8,1.7
	c0,4.3,0,8.7,0,13c2.9,0.5,9.8,1.7,9.8,1.7v-1.7c1.9,0,3.8,0,5.6,0c0.3,0,0.7,0,0.9-0.2c0.2-0.4,0.2-0.7,0.2-1.1
	C-91.8,127.6-91.8,123.9-91.8,120.2z M-107.7,126.4c0-0.2,0-0.3,0-0.5v-0.2c0-0.8,0.6-1.4,1.4-1.5l1.1-0.1c0,0,0,0,0,0.1
	c0,0.3,0,0.6,0,1c0,0.1,0,0.1,0,0.1c-0.4,0-0.8,0.1-1.2,0.1c-0.1,0-0.1,0-0.2,0c-0.1,0-0.1,0.1-0.2,0.2c-0.1,0.1-0.1,0.2-0.1,0.3
	c0,0.3,0,0.7,0,1c0,0.1,0,0.2,0.1,0.3c0,0.1,0.1,0.1,0.1,0.2c0.1,0,0.1,0.1,0.2,0.1c0.2,0,0.4,0,0.5,0v0c0.2,0,0.4,0,0.6,0
	c0,0,0,0,0,0.1c0,0.3,0,0.7,0,1c0,0.1,0,0.1,0,0.1l-1.1,0c-0.7,0-1.3-0.6-1.3-1.4L-107.7,126.4z M-102.3,124.9L-102.3,124.9
	C-102.3,125-102.3,125-102.3,124.9c-0.2,0.1-0.3,0.1-0.4,0.1c-0.3,0-0.7,0-1,0.1c-0.1,0-0.2,0.1-0.2,0.3c0,0.1,0.1,0.3,0.2,0.3
	c0.1,0,0.3,0,0.4,0c0.2,0,1-0.1,1.1,1.5c0.1,0.7-0.4,1.3-1.1,1.4c-0.1,0-0.2,0-0.3,0c-0.2,0-0.3,0-0.5,0l-0.7,0c0,0,0,0,0-0.1
	c0-0.3,0-0.7,0-1c0,0,0-0.1,0-0.1c0.5,0,1.4,0,1.5,0c0.1,0,0.2-0.1,0.2-0.3c0-0.4-0.3-0.4-0.5-0.4c-0.1,0-1.2,0-1.2-1.5
	c-0.1-0.6,0.3-1.1,0.8-1.3c0.1,0,0.2,0,0.3-0.1c0.5,0,0.9-0.1,1.3-0.1c0.1,0,0.1,0,0.1,0.1C-102.3,124.2-102.3,124.6-102.3,124.9z
	 M-99.4,123.6c0,0.1-0.8,5-0.8,5c0,0,0,0.1,0,0.1c0,0-0.1,0-0.1,0l-0.6,0c-0.1,0-0.1,0-0.1-0.1c0-0.2-0.8-4.7-0.8-4.7
	c0-0.1,0-0.1,0-0.1c0.3,0,0.5-0.1,0.8-0.1c0,0,0,0,0,0c0,0.1,0.4,2.3,0.4,2.3l0,0c0,0,0.4-2.3,0.4-2.4c0,0,0,0,0,0
	C-100.2,123.6-99.6,123.5-99.4,123.6C-99.3,123.5-99.3,123.5-99.4,123.6z M-92.3,132h-6.2v-1.5h4.9v-0.7h-4.9v-0.9h4.9v-0.7h-4.9
	v-0.8h4.9v-6.4h-0.8v6h-0.9v-4.5h-0.8v4.5h-0.9v-2.2h-0.8v2.2h-0.9v-6.9h6.2V132z"/>
</svg>
