<?xml version="1.0" encoding="utf-8"?>
<!-- Generator: Adobe Illustrator 19.0.0, SVG Export Plug-In . SVG Version: 6.00 Build 0)  -->
<svg version="1.1" id="a206b976-3381-420b-a188-e8cfa3e9cc2b"
	 xmlns="http://www.w3.org/2000/svg" xmlns:xlink="http://www.w3.org/1999/xlink" x="0px" y="0px" viewBox="-112 114 24 24"
	 style="enable-background:new -112 114 24 24;" xml:space="preserve">
<style type="text/css">
	.st0{fill:#979797;}
</style>
<title>S</title>
<path class="st0" d="M-100,119.2c-3.8,0-6.8,3-6.8,6.8c0,3.8,3,6.8,6.8,6.8c3.8,0,6.8-3,6.8-6.8C-93.2,122.3-96.2,119.2-100,119.2z
	 M-95.1,127l-0.7,0c-0.1,0.4-0.3,0.8-0.5,1.2l0.4,0.5c0.1,0.1,0.1,0.2,0,0.3l-1.1,1.1c-0.1,0.1-0.2,0.1-0.3,0l-0.5-0.4
	c-0.4,0.2-0.8,0.4-1.2,0.5l0,0.7c0,0.1-0.1,0.2-0.2,0.2h-1.6c-0.1,0-0.2-0.1-0.2-0.2l0-0.7c-0.4-0.1-0.8-0.3-1.2-0.5l-0.5,0.4
	c-0.1,0.1-0.2,0.1-0.3,0l-1.1-1.1c-0.1-0.1-0.1-0.2,0-0.3l0.4-0.5c-0.2-0.4-0.4-0.8-0.5-1.2l-0.7,0c-0.1,0-0.2-0.1-0.2-0.2v-1.6
	c0-0.1,0.1-0.2,0.2-0.2l0.7,0c0.1-0.4,0.3-0.8,0.5-1.2l-0.5-0.5c-0.1-0.1-0.1-0.2,0-0.3l1.1-1.1c0.1-0.1,0.2-0.1,0.3,0l0.5,0.5
	c0.4-0.2,0.8-0.4,1.2-0.5l0-0.7c0-0.1,0.1-0.2,0.2-0.2h1.6c0.1,0,0.2,0.1,0.2,0.2l0,0.7c0.4,0.1,0.8,0.3,1.2,0.5l0.5-0.5
	c0.1-0.1,0.2-0.1,0.3,0l1.1,1.1c0.1,0.1,0.1,0.2,0,0.3l-0.5,0.5c0.2,0.4,0.4,0.8,0.5,1.2l0.7,0c0.1,0,0.2,0.1,0.2,0.2v1.6
	C-94.9,126.9-95,127-95.1,127z"/>
<path class="st0" d="M-100,128.2c-1.2,0-2.2-1-2.2-2.2c0-1.2,1-2.2,2.2-2.2s2.2,1,2.2,2.2C-97.7,127.2-98.7,128.2-100,128.2
	C-100,128.2-100,128.2-100,128.2z"/>
</svg>
