<?xml version="1.0" encoding="utf-8"?>
<!-- Generator: Adobe Illustrator 19.0.0, SVG Export Plug-In . SVG Version: 6.00 Build 0)  -->
<svg version="1.1" id="a4b5d42b-526f-4ac5-b3e7-8345120bdc20"
	 xmlns="http://www.w3.org/2000/svg" xmlns:xlink="http://www.w3.org/1999/xlink" x="0px" y="0px" viewBox="-112 114 24 24"
	 style="enable-background:new -112 114 24 24;" xml:space="preserve">
<style type="text/css">
	.st0{fill:#6FB353;}
	.st1{fill:#FFFFFF;}
</style>
<title>S</title>
<rect x="-110" y="116" class="st0" width="20" height="20"/>
<path class="st1" d="M-92.5,119.4h-6V118l-9.8,1.5v13.3l9.8,1.7v-2.1h6c0.4,0,0.7-0.3,0.7-0.6v-11.7
	C-91.8,119.7-92.1,119.4-92.5,119.4z M-101.5,129.1l-1.3-0.1l-0.9-2.4l-0.9,2.3l-1.2-0.1l1.4-2.8l-1.3-2.9l1.3-0.1l0.8,2.2l0.9-2.3
	l1.3-0.1l-1.5,3.1L-101.5,129.1z M-92.4,131.9h-6.1l0-1.1h1.5v-1.3h-1.5l0-0.8h1.5v-1.3h-1.5l0-0.8h1.5v-1.3h-1.5v-0.8h1.5v-1.3
	h-1.5v-0.8h1.5v-1.3h-1.5V120h6.2L-92.4,131.9z"/>
<rect x="-96.2" y="121.2" class="st1" width="2.6" height="1.3"/>
<rect x="-96.2" y="123.3" class="st1" width="2.6" height="1.3"/>
<rect x="-96.2" y="125.4" class="st1" width="2.6" height="1.3"/>
<rect x="-96.2" y="127.4" class="st1" width="2.6" height="1.3"/>
<rect x="-96.2" y="129.5" class="st1" width="2.6" height="1.3"/>
</svg>
