<?xml version="1.0" encoding="utf-8"?>
<!-- Generator: Adobe Illustrator 19.0.0, SVG Export Plug-In . SVG Version: 6.00 Build 0)  -->
<svg version="1.1" id="a0be82a4-d65c-4508-b871-c15e80e22665"
	 xmlns="http://www.w3.org/2000/svg" xmlns:xlink="http://www.w3.org/1999/xlink" x="0px" y="0px" viewBox="-112 114 24 24"
	 style="enable-background:new -112 114 24 24;" xml:space="preserve">
<style type="text/css">
	.st0{fill:#6FB353;}
</style>
<title>S</title>
<path class="st0" d="M-91.3,128.5c0-0.1-0.1-0.2-0.1-0.3c-0.7-1.1-3.1-0.8-4.8-0.6c-0.2,0-0.4,0.1-0.6,0.1c-1.6-1.1-2.8-2.6-3.5-4.4
	c0.1-0.3,0.2-0.6,0.2-0.8c0.5-1.2,0.6-2.6,0.4-3.8c-0.2-0.7-0.7-1.2-1.3-1.1c-0.6,0.1-1.1,0.4-1.3,0.9c-0.4,0.8-0.1,2.6,0.7,5.4
	l0,0.1c-0.8,2.1-1.8,4.2-3,6.1l-0.5,0.3c-2.4,1.2-3.6,2.2-3.7,3.1c0,0.4,0.2,0.9,0.6,1.1c0.1,0.1,0.3,0.2,0.4,0.2
	c0.2,0.1,0.4,0.1,0.5,0.1c1.3,0,2.9-1.6,4.4-4.5c1.7-0.6,3.5-1.1,5.3-1.4c2.2,1.5,3.9,2,5.2,1.5c0.5-0.2,0.9-0.6,1-1.1
	C-91.3,129.1-91.3,128.8-91.3,128.5z M-92.5,128.8c0.5,0.2,0.6,0.3,0.6,0.4c-0.7,0.7-2.1,0.3-3.5-0.4
	C-94.4,128.6-93.4,128.6-92.5,128.8L-92.5,128.8z M-100.7,121.8c-0.3-1-0.3-2.1,0-3.1C-100,119.3-100.3,120.5-100.7,121.8
	L-100.7,121.8z M-100.9,125.1c0.6,1.1,1.3,2.1,2.2,3c-1.3,0.3-2.6,0.7-3.8,1.2C-101.9,128-101.3,126.5-100.9,125.1L-100.9,125.1z
	 M-105.4,131.3c-0.6,1-1.4,1.8-2.3,2.5C-107.5,133.3-107,132.4-105.4,131.3z"/>
</svg>
