<?xml version="1.0" encoding="utf-8"?>
<!-- Generator: Adobe Illustrator 19.0.0, SVG Export Plug-In . SVG Version: 6.00 Build 0)  -->
<svg version="1.1" id="b303e8c4-400c-4270-b94c-bc15f1ee90e1"
	 xmlns="http://www.w3.org/2000/svg" xmlns:xlink="http://www.w3.org/1999/xlink" x="0px" y="0px" viewBox="-112 114 24 24"
	 style="enable-background:new -112 114 24 24;" xml:space="preserve">
<style type="text/css">
	.st0{fill:#6FB353;}
</style>
<title>S</title>
<path class="st0" d="M-99.9,128c-3.3,0-6.3,2.1-7.3,5.3h14.7C-93.6,130.1-96.6,128-99.9,128z"/>
<path class="st0" d="M-99.9,127.5c1.9,0,3.5-1.6,3.5-3.5c0-1.9-1.6-3.5-3.5-3.5c-1.9,0-3.5,1.6-3.5,3.5
	C-103.4,125.9-101.8,127.5-99.9,127.5z M-99.9,121.8c1.2,0,2.2,1,2.2,2.2c0,1.2-1,2.2-2.2,2.2c-1.2,0-2.2-1-2.2-2.2
	C-102.1,122.8-101.1,121.8-99.9,121.8L-99.9,121.8z"/>
</svg>
