<?xml version="1.0" encoding="utf-8"?>
<!-- Generator: Adobe Illustrator 19.0.0, SVG Export Plug-In . SVG Version: 6.00 Build 0)  -->
<svg version="1.1" id="abbcc7ea-a511-4fc5-a421-250c1927786c"
	 xmlns="http://www.w3.org/2000/svg" xmlns:xlink="http://www.w3.org/1999/xlink" x="0px" y="0px" viewBox="-112 114 24 24"
	 style="enable-background:new -112 114 24 24;" xml:space="preserve">
<style type="text/css">
	.st0{fill:#FFFFFF;}
</style>
<title>S</title>
<path class="st0" d="M-107.2,133.7v-15.2h11.6v0.9c0.3,0.3,0.6,0.5,1,0.9c0.2,0.3,0.5,0.5,0.7,0.8v-3.3c0-0.5-0.4-0.9-0.9-0.9
	c0,0,0,0,0,0h-13c-0.5,0-0.9,0.4-0.9,0.9v16.7c0,0.5,0.4,0.9,0.9,0.9h12.6l-1.6-1.6L-107.2,133.7z"/>
<path class="st0" d="M-96.1,121.8c-2.2-2.2-5.9-2.2-8.1,0c-2.2,2.2-2.2,5.9,0,8.1c2.2,2.2,5.9,2.2,8.1,0c0,0,0,0,0,0
	C-93.9,127.6-93.9,124-96.1,121.8z M-97.6,128.4c-1.4,1.4-3.8,1.4-5.2,0c-1.4-1.4-1.4-3.8,0-5.2c1.4-1.4,3.8-1.4,5.2,0
	C-96.1,124.7-96.1,127-97.6,128.4C-97.6,128.4-97.6,128.4-97.6,128.4z"/>
<path class="st0" d="M-94,130.5c-0.2,0.3-0.4,0.7-0.6,0.9c-0.3,0.3-0.7,0.6-1,0.8l4.1,4.1l1.7-1.7L-94,130.5z"/>
</svg>
