<svg xmlns="http://www.w3.org/2000/svg" viewBox="0 0 23.97 23.97"><defs><style>.cls-1{fill:none;}.cls-2{fill:#39b54a;}.cls-3{fill:#fff;}</style></defs><title>CUPET_Pantallas_02_Configuración-</title><g id="Grafica_Pantallas"><rect class="cls-1" width="23.97" height="23.97"/><rect class="cls-2" x="2" y="2.05" width="19.96" height="19.96"/><path class="cls-3" d="M19.24,18.43V16.34l-6.09-6.09a4.24,4.24,0,0,0-1.09-4.16,4.32,4.32,0,1,0-2,7.2l1.22,1.22h1.95V16h1.44v1.48h1.5V19h2.54C19.1,18.94,19.24,18.81,19.24,18.43ZM6.89,8.61A1.15,1.15,0,0,1,6.9,7,1.14,1.14,0,0,1,8.51,8.6,1.15,1.15,0,0,1,6.89,8.61Z"/><polygon class="cls-3" points="19.25 5.83 18.07 5.83 18.07 4.65 16.85 4.65 16.85 5.83 15.67 5.83 15.67 7.05 16.85 7.05 16.85 8.23 18.07 8.23 18.07 7.05 19.25 7.05 19.25 5.83"/></g></svg>