<svg xmlns="http://www.w3.org/2000/svg" viewBox="0 0 24.01 24.01"><defs><style>.cls-1{fill:none;}.cls-2{fill:#006837;}</style></defs><title>CUPET_Pantallas_02_Configuración</title><g id="Grafica_Pantallas"><path class="cls-1" d="M0,0V24H24V0Z"/><path class="cls-2" d="M14.77,15.71l-.69-.35a4.36,4.36,0,0,0,0-1.25l.69-.35a.2.2,0,0,0,.13-.24L14.28,12a.2.2,0,0,0-.26-.08l-.73.25a4.32,4.32,0,0,0-.88-.88l.25-.75a.18.18,0,0,0-.08-.25l-1.5-.63a.18.18,0,0,0-.23.13l-.35.7a4.29,4.29,0,0,0-1.24,0l-.34-.7a.19.19,0,0,0-.23-.13l-1.5.63a.19.19,0,0,0-.08.25l.25.75a4.37,4.37,0,0,0-.88.89l-.73-.25a.19.19,0,0,0-.26.07l-.62,1.52a.19.19,0,0,0,.13.23l.7.35a4.43,4.43,0,0,0,0,1.26l-.7.35a.18.18,0,0,0-.12.23l.62,1.52a.18.18,0,0,0,.25.07l.74-.25a4.36,4.36,0,0,0,.88.89l-.25.74a.2.2,0,0,0,.07.26l1.5.62a.18.18,0,0,0,.23-.12L9.27,19a4,4,0,0,0,1.24,0l.35.71a.18.18,0,0,0,.23.12l1.5-.63a.18.18,0,0,0,.07-.25l-.25-.75a4.08,4.08,0,0,0,.88-.88l.74.25a.18.18,0,0,0,.25-.08l.62-1.52A.18.18,0,0,0,14.77,15.71Zm-6,1.87a3.1,3.1,0,0,1-1.65-4,3,3,0,0,1,4-1.67,3.1,3.1,0,0,1,1.65,4A3,3,0,0,1,8.72,17.58Z"/><path class="cls-2" d="M19,8.19l-.52,0a2.65,2.65,0,0,0-.31-.78l.34-.4a.13.13,0,0,0,0-.17L17.77,6a.13.13,0,0,0-.18,0l-.39.34a2.78,2.78,0,0,0-.77-.32l0-.52a.13.13,0,0,0-.11-.14H15.2a.13.13,0,0,0-.11.14l0,.52a2.78,2.78,0,0,0-.77.32l-.39-.34a.13.13,0,0,0-.18,0L13,6.81A.13.13,0,0,0,13,7l.34.4a2.65,2.65,0,0,0-.31.78l-.52,0a.13.13,0,0,0-.14.11V9.4a.13.13,0,0,0,.14.11l.52,0a2.49,2.49,0,0,0,.31.77l-.34.4a.14.14,0,0,0,0,.18l.77.77a.13.13,0,0,0,.18,0l.39-.35a2.78,2.78,0,0,0,.77.32l0,.53a.12.12,0,0,0,.11.13h1.09a.12.12,0,0,0,.11-.13l0-.53a2.78,2.78,0,0,0,.77-.32l.39.35a.13.13,0,0,0,.18,0l.77-.77a.14.14,0,0,0,0-.18l-.34-.4a2.49,2.49,0,0,0,.31-.77l.52,0a.13.13,0,0,0,.14-.11V8.3A.13.13,0,0,0,19,8.19Zm-3.26,2.28a1.62,1.62,0,1,1,1.6-1.62A1.61,1.61,0,0,1,15.75,10.47Z"/></g></svg>