<svg xmlns="http://www.w3.org/2000/svg" viewBox="0 0 23.97 23.97"><defs><style>.cls-1{fill:none;}.cls-2{fill:#b3b3b3;}.cls-3{fill:#fff;}</style></defs><title>CUPET_Pantallas_02_Configuración-</title><g id="Grafica_Pantallas"><rect class="cls-1" width="23.97" height="23.97"/><rect class="cls-2" x="2" y="2.05" width="19.96" height="19.96"/><path class="cls-3" d="M5.77,18.81V5.45H15.94v.8c.27.22.54.47.85.77s.38.47.57.7V4.79A.79.79,0,0,0,16.57,4H5.15a.79.79,0,0,0-.79.79V19.44a.79.79,0,0,0,.79.79h11L14.8,18.81Z"/><path class="cls-3" d="M15.46,8.35a5,5,0,1,0,0,7.1A5,5,0,0,0,15.46,8.35ZM14.2,14.19a3.24,3.24,0,1,1,0-4.58A3.25,3.25,0,0,1,14.2,14.19Z"/><path class="cls-3" d="M17.35,16a3.17,3.17,0,0,1-.56.81,3.84,3.84,0,0,1-.91.66L19.46,21l1.47-1.47Z"/></g></svg>