<svg xmlns="http://www.w3.org/2000/svg" viewBox="0 0 23.95 23.95"><defs><style>.cls-1{fill:#39b54a;}.cls-2{fill:none;}.cls-3{fill:#fff;}</style></defs><title>SVG__</title><g id="Grafica_Pantallas"><polyline class="cls-1" points="21.95 21.95 1.99 21.95 1.99 1.99 21.95 1.99 21.95 21.95"/><path class="cls-2" d="M24,24V0H0V24Z"/><path class="cls-3" d="M12,6.56a3.5,3.5,0,1,0,3.5,3.5A3.5,3.5,0,0,0,12,6.56Zm0,5.72a2.23,2.23,0,1,1,2.23-2.22A2.21,2.21,0,0,1,12,12.28Z"/><path class="cls-3" d="M19.33,19.36a7.74,7.74,0,0,0-14.71,0Z"/><polygon class="cls-3" points="19.14 5.98 17.96 5.98 17.96 4.8 16.74 4.8 16.74 5.98 15.56 5.98 15.56 7.2 16.74 7.2 16.74 8.38 17.96 8.38 17.96 7.2 19.14 7.2 19.14 5.98"/></g></svg>