<svg xmlns="http://www.w3.org/2000/svg" viewBox="0 0 1023.9999 768"><defs><style>.b196c353-585a-4106-afde-12e093090187{fill:#ccc;}.f981231a-0b08-4466-a441-ae1d3f0f0626{fill:#979797;}.bdf165c5-58bb-4cfb-9568-6be5d6b8a440{fill:#39b34a;}.aebd6922-e468-424d-bf59-03952edb4170,.aef36d6a-8b22-40fb-8291-fcfb3ffa1c02,.bd0e0082-355d-4637-a0d3-7ae9f0ebb0ed,.bf063b99-b551-4001-b38f-8fa59b01401a{fill:#006837;}.ef0359fa-af1d-4e35-a652-d3e47b0a43e0{fill:#fff;}.a3cf4e9f-8ec6-4c1c-bcf3-d7baf126d10f,.a7cffab6-ec4f-41f0-9c06-8e72047ebdf5,.e3f4a339-5a7f-46ff-ab1a-12bf0d22e241,.ea888628-e4fb-4351-9def-c117fe2662a3,.f4e787b8-9abf-434a-8627-63dc8c0f32d2{fill:none;}.f52d1990-74f2-4a69-bb19-ec3b8369b41d{fill:red;}.aebd6922-e468-424d-bf59-03952edb4170,.b9af48a3-2d0e-4a72-be30-913e5254d36a,.bf063b99-b551-4001-b38f-8fa59b01401a{font-size:12px;}.aebd6922-e468-424d-bf59-03952edb4170,.aef36d6a-8b22-40fb-8291-fcfb3ffa1c02,.bf063b99-b551-4001-b38f-8fa59b01401a{font-family:Calibri-Light, Calibri;font-weight:300;}.bf063b99-b551-4001-b38f-8fa59b01401a,.f468932c-ea29-4d66-8113-80d42f487fe3{letter-spacing:-0.0098em;}.eae5701d-2400-4455-80ba-673453ecfa55{letter-spacing:-0.0194em;}.f5adf7e5-ddb1-418a-ae09-575466719ca5{letter-spacing:-0.0001em;}.a297f9d9-51c0-44b6-9900-7fb967aa1e6b{letter-spacing:-0.0195em;}.acd6fd83-9abf-44d4-83f7-581eb248c45b{letter-spacing:0em;}.bd58be0c-ac23-48d9-b2f3-54761c315c8a{letter-spacing:-0.0146em;}.a4bd4b74-5562-450f-b0d9-abe2fdaada08{letter-spacing:-0.0097em;}.a5c0569e-19b3-41f7-addb-e8728c4b6d76{letter-spacing:-0.0098em;}.ed1d9685-d3c5-430d-af44-65768e881cfb{letter-spacing:-0.0147em;}.f4e787b8-9abf-434a-8627-63dc8c0f32d2{stroke:#fff;stroke-linecap:round;stroke-width:4px;}.a3cf4e9f-8ec6-4c1c-bcf3-d7baf126d10f,.e3f4a339-5a7f-46ff-ab1a-12bf0d22e241,.ea888628-e4fb-4351-9def-c117fe2662a3,.f4e787b8-9abf-434a-8627-63dc8c0f32d2{stroke-miterlimit:10;}.f5323deb-dcf0-4cb3-8be8-4fa569d41c7b{font-size:10px;}.a21aef39-abb3-474f-a42a-6ae6f5a67f69,.af425dd6-6820-43b4-879c-951577227f30,.f5323deb-dcf0-4cb3-8be8-4fa569d41c7b{fill:#999;}.a21aef39-abb3-474f-a42a-6ae6f5a67f69,.af425dd6-6820-43b4-879c-951577227f30,.b9af48a3-2d0e-4a72-be30-913e5254d36a,.f5323deb-dcf0-4cb3-8be8-4fa569d41c7b{font-family:Calibri-Italic, Calibri;font-style:italic;}.b2f28fa8-8695-4a52-9a67-989dfe145d7e{letter-spacing:0.0277em;}.a4a2a950-a9ee-4025-b915-8addb916b100{letter-spacing:0.0278em;}.efd87cb7-e11f-4ccc-a132-1fc56b02ba4b{letter-spacing:-0.001em;}.bcd045b0-d676-4861-80a4-fed104fcbd25{letter-spacing:-0.0107em;}.b8d7e4b5-6e1a-42d8-b33e-841beffb5194{letter-spacing:-0.0088em;}.b2b58e68-f351-4720-92ba-891d15667c85{letter-spacing:-0.0063em;}.a73fd4c5-1f4c-4311-9560-2533399b6def{letter-spacing:-0.0181em;}.b2c484d3-be6e-4fe7-bf0a-7e20ccb12012{letter-spacing:0.183em;}.b3c44436-b04f-40ac-8cbf-ff311fdd1bf5{letter-spacing:-0.0098em;}.ae8d6310-b2d1-4551-81ca-11e42caa1ec0{letter-spacing:0.1831em;}.b151b930-090b-405b-b6a4-780c446b442c{letter-spacing:-0.0205em;}.ba9f319a-03c6-4033-bc55-19cb3acab8ee{letter-spacing:0.0029em;}.fa7e485e-6fe5-4966-8a9d-7097c52f9275{letter-spacing:-0.0156em;}.b8ee933f-9e3e-4ed0-a22f-6f25d8fc72f7{letter-spacing:-0.0821em;}.ff8ace7f-1e3f-4d87-a192-36cf2d2d1a92{letter-spacing:0.2363em;}.bd4af44c-6d53-4408-af58-15cbc31c8465{letter-spacing:0.2362em;}.aa9557ec-42b7-40fe-a426-bf7e163e2282{letter-spacing:-0.0082em;}.f72dce8b-7a74-4c8f-b25e-5f8993843256{letter-spacing:-0.0137em;}.bca0f192-2f4e-4916-8d0e-7e5c9a6a27e0{letter-spacing:-0.0122em;}.ee092aab-e47c-467c-a796-bfe9d320d370{letter-spacing:-0.0106em;}.ef67eae5-1f37-4f1b-bf5e-3f5e3375d282{letter-spacing:-0.0083em;}.b9af48a3-2d0e-4a72-be30-913e5254d36a,.e5aad7e2-48c7-4df8-b139-7f26f32993ff{fill:#666;}.b19b786d-ba26-4b39-88cb-1be887789357{letter-spacing:-0.0137em;}.b062e688-8def-40bb-9cc7-3cf9f1f0c76b{letter-spacing:-0.0088em;}.a7be720c-c019-49bb-bf72-f034f1bfa3bb{letter-spacing:-0.0064em;}.b3c2d31e-ded7-48a2-9ff2-a9ea26d71c2c{letter-spacing:-0.0044em;}.e4aaef0d-c4de-43d2-bf84-073091d96873{letter-spacing:0.0001em;}.a695a610-2e61-4455-b8f1-9476d36c3a3f{letter-spacing:-0.044em;}.bfd8e827-e0c5-4b16-a765-89b43cf84177{letter-spacing:-0.044em;}.b031b361-40e4-43a4-8bfa-37595a9303b8{letter-spacing:0.2522em;}.af32abbf-196b-43e0-93f5-660adbf5d8e1{letter-spacing:0.2521em;}.b2149a66-b4f5-4016-8e28-72ab5d49e43b{letter-spacing:-0.0044em;}.a21aef39-abb3-474f-a42a-6ae6f5a67f69{font-size:9px;}.ade208d1-1106-46a3-bf9f-9712071bd27a{letter-spacing:-0.0137em;}.a3cf4e9f-8ec6-4c1c-bcf3-d7baf126d10f,.ea888628-e4fb-4351-9def-c117fe2662a3{stroke:#0071bc;}.e3da1cdc-8e94-4416-b5c2-ab0fdbac89a6,.e5c02613-a59c-41b6-aafa-ccb06b5cb107,.e5d1e8cd-96ad-4db3-8582-c0f62ebb4d08{fill:#0071bc;}.af2816fc-fb7d-4326-87af-4bacac25f895{letter-spacing:-0.0097em;}.fa6a3abf-b54b-4632-9faa-12b565972169{fill:#4d4d4d;}.e3f4a339-5a7f-46ff-ab1a-12bf0d22e241{stroke:gray;}.e3f4a339-5a7f-46ff-ab1a-12bf0d22e241,.ea888628-e4fb-4351-9def-c117fe2662a3{stroke-width:0.25px;}.f2967d67-92dd-4e37-b2bd-13b006e4585d{letter-spacing:-0.0043em;}.af425dd6-6820-43b4-879c-951577227f30{font-size:7px;}.b8740523-f930-42c5-81d1-041f03374565{letter-spacing:-0.0181em;}.b1a3bef3-f576-4878-b0a4-e236f1ee2e52{letter-spacing:-0.0136em;}.a4b0b453-5d5d-4d50-b56b-6a70059c7916{letter-spacing:-0.0064em;}.a9427c45-3bb5-4cb4-8831-e04cdcbafdce{letter-spacing:-0.0112em;}.e66c564d-feb6-49ac-ba17-dcc0889bddd9{letter-spacing:-0.0137em;}.a6332a10-866e-4d7a-9e67-8cfe55f48a0f{letter-spacing:-0.0089em;}.fc8aaf8f-0ecc-476d-b94e-43c686840a65{letter-spacing:-0.0062em;}.e3da1cdc-8e94-4416-b5c2-ab0fdbac89a6{font-size:15px;}.e3da1cdc-8e94-4416-b5c2-ab0fdbac89a6,.e5d1e8cd-96ad-4db3-8582-c0f62ebb4d08{font-family:MyriadPro-Regular, Myriad Pro;}.aef36d6a-8b22-40fb-8291-fcfb3ffa1c02{font-size:11px;}.b14b967b-1c2e-48ac-a07f-c5247c071384{letter-spacing:-0.0195em;}.a3d4ba68-b0a3-4c06-b8d8-174a2a596e03{letter-spacing:-0.0147em;}.e5d1e8cd-96ad-4db3-8582-c0f62ebb4d08{font-size:11.0395px;}.f0106ba3-5a99-45d7-be76-054980e102f9{opacity:0.5;}.a4e57663-5f44-4f2a-a8b5-5c63c3f04bc2{fill:#f7931e;}</style></defs><title>S</title><g id="ace06950-3ad9-4c47-b1e1-8edf4c6680e2" data-name="Grafica"><rect class="b196c353-585a-4106-afde-12e093090187" x="69.8479" y="364.604" width="23.8294" height="23.8294"/><path class="f981231a-0b08-4466-a441-ae1d3f0f0626" d="M87.0283,383.4881a2.4645,2.4645,0,0,1-2.0443-.1093,2.165,2.165,0,0,0-2.2293.06,2.3376,2.3376,0,0,1-2.007,0,2.1218,2.1218,0,0,0-2.2066-.06,2.4939,2.4939,0,0,1-2.0571.1093,2.243,2.243,0,0,0-2.4247-.12,1.8724,1.8724,0,0,1-1.0612.2464v1.7441a2.1133,2.1133,0,0,0,1.1294-.2742,2.0244,2.0244,0,0,1,1.9973-.0465,2.4166,2.4166,0,0,0,2.35.0568,1.9666,1.9666,0,0,1,2.0466-.0662,2.6524,2.6524,0,0,0,2.473.0167,1.9849,1.9849,0,0,1,2.0561.05,2.4162,2.4162,0,0,0,2.35-.0568,1.9858,1.9858,0,0,1,1.9746.0465,2.08,2.08,0,0,0,1.1521.2742v-1.7441a1.8113,1.8113,0,0,1-1.0612-.2464A2.2648,2.2648,0,0,0,87.0283,383.4881Z"/><path class="f981231a-0b08-4466-a441-ae1d3f0f0626" d="M89.4754,380.8231c-1.5084-.8067-2.1646.1756-2.9753.1756V377.066l1.2507-2.8248a.736.736,0,0,0-.4548-1.0236l-.758-.3034v-2.4455h-1.46V369.18H83.0322v-1.7258H80.493V369.18H78.4474v1.2885h-1.46v2.4455l-.758.3034a.736.736,0,0,0-.4549,1.0236l1.2507,2.8248v3.9326c-.81,0-1.5-.9667-2.9747-.16h0a2.5169,2.5169,0,0,1-1.0611.2464v1.6856a2.3117,2.3117,0,0,0,1.118-.3222,2.1171,2.1171,0,0,1,2.0087.0016,2.4165,2.4165,0,0,0,2.35.0569A2.132,2.132,0,0,1,80.54,382.45a2.4409,2.4409,0,0,0,2.4341.01,2.1213,2.1213,0,0,1,2.0855.0468,2.4165,2.4165,0,0,0,2.35-.0569,2.1358,2.1358,0,0,1,2.0087-.0016,2.4116,2.4116,0,0,0,1.1181.3222V381.07A2.4426,2.4426,0,0,1,89.4754,380.8231Zm-4.0176-8.3639-3.6952-1.4943-3.6953,1.4943v-.9864h1.4592v-1.2695h4.4721v1.2695h1.4592Z"/><rect class="bdf165c5-58bb-4cfb-9568-6be5d6b8a440" x="70.671" y="332.8434" width="23.8294" height="23.8294"/><path class="bd0e0082-355d-4637-a0d3-7ae9f0ebb0ed" d="M87.8515,351.833a2.4645,2.4645,0,0,1-2.0443-.1093,2.1651,2.1651,0,0,0-2.2294.06,2.3376,2.3376,0,0,1-2.007,0,2.1217,2.1217,0,0,0-2.2065-.06,2.4941,2.4941,0,0,1-2.0572.1093,2.2429,2.2429,0,0,0-2.4246-.12,1.8718,1.8718,0,0,1-1.0612.2465v1.744a2.1132,2.1132,0,0,0,1.1293-.2741,2.0244,2.0244,0,0,1,1.9974-.0465,2.4164,2.4164,0,0,0,2.35.0568,1.9666,1.9666,0,0,1,2.0466-.0663,2.6524,2.6524,0,0,0,2.473.0168,1.9849,1.9849,0,0,1,2.0561.05,2.4164,2.4164,0,0,0,2.35-.0568,1.9857,1.9857,0,0,1,1.9746.0465,2.08,2.08,0,0,0,1.1521.2741v-1.744a1.8109,1.8109,0,0,1-1.0613-.2465A2.2647,2.2647,0,0,0,87.8515,351.833Z"/><path class="bd0e0082-355d-4637-a0d3-7ae9f0ebb0ed" d="M90.2985,349.168c-1.5083-.8068-2.1645.1755-2.9752.1755v-3.9327l1.2507-2.8247a.7361.7361,0,0,0-.4549-1.0237l-.7579-.3033v-2.4455h-1.46v-1.2885H83.8553v-1.7259H81.3162v1.7259H79.2705v1.2885H77.81v2.4455l-.7581.3033a.7361.7361,0,0,0-.4548,1.0237l1.2507,2.8247v3.9327c-.81,0-1.5-.9668-2.9747-.16H74.873a2.5171,2.5171,0,0,1-1.0612.2464v1.6856a2.3114,2.3114,0,0,0,1.118-.3223,2.1174,2.1174,0,0,1,2.0087.0016,2.4164,2.4164,0,0,0,2.35.057,2.1321,2.1321,0,0,1,2.0751-.057,2.44,2.44,0,0,0,2.4341.01,2.1213,2.1213,0,0,1,2.0854.0469,2.4164,2.4164,0,0,0,2.35-.057,2.1364,2.1364,0,0,1,2.0087-.0016,2.4113,2.4113,0,0,0,1.1181.3223v-1.7009A2.4428,2.4428,0,0,1,90.2985,349.168Zm-4.0175-8.3639L82.5857,339.31l-3.6952,1.4944v-.9864H80.35v-1.2695h4.4721v1.2695H86.281Z"/><rect class="bd0e0082-355d-4637-a0d3-7ae9f0ebb0ed" x="70.671" y="300.786" width="23.8294" height="23.8294"/><rect class="bdf165c5-58bb-4cfb-9568-6be5d6b8a440" x="70.671" y="322.8944" width="23.8294" height="1.721"/><path class="ef0359fa-af1d-4e35-a652-d3e47b0a43e0" d="M87.8515,319.67a2.4641,2.4641,0,0,1-2.0443-.1093,2.1654,2.1654,0,0,0-2.2294.06,2.3376,2.3376,0,0,1-2.007,0,2.1217,2.1217,0,0,0-2.2065-.06,2.4937,2.4937,0,0,1-2.0572.1093,2.2429,2.2429,0,0,0-2.4246-.12,1.8724,1.8724,0,0,1-1.0612.2464V321.54a2.1123,2.1123,0,0,0,1.1293-.2742,2.0246,2.0246,0,0,1,1.9974-.0465,2.4161,2.4161,0,0,0,2.35.0569,1.9663,1.9663,0,0,1,2.0466-.0663,2.6527,2.6527,0,0,0,2.473.0168,1.9844,1.9844,0,0,1,2.0561.05,2.4161,2.4161,0,0,0,2.35-.0569,1.9862,1.9862,0,0,1,1.9746.0465,2.08,2.08,0,0,0,1.1521.2742v-1.7441a1.8115,1.8115,0,0,1-1.0613-.2464A2.2647,2.2647,0,0,0,87.8515,319.67Z"/><path class="ef0359fa-af1d-4e35-a652-d3e47b0a43e0" d="M90.2985,317.0052c-1.5083-.8068-2.1645.1755-2.9752.1755V313.248l1.2507-2.8247a.7361.7361,0,0,0-.4549-1.0237l-.7579-.3033v-2.4456h-1.46v-1.2884H83.8553v-1.7259H81.3162v1.7259H79.2705v1.2884H77.81v2.4456l-.7581.3033a.7361.7361,0,0,0-.4548,1.0237l1.2507,2.8247v3.9327c-.81,0-1.5-.9668-2.9747-.16H74.873a2.5171,2.5171,0,0,1-1.0612.2464v1.6857a2.3114,2.3114,0,0,0,1.118-.3223,2.1174,2.1174,0,0,1,2.0087.0016,2.4166,2.4166,0,0,0,2.35.0569,2.1323,2.1323,0,0,1,2.0751-.0569,2.4409,2.4409,0,0,0,2.4341.01,2.1213,2.1213,0,0,1,2.0854.0468,2.4166,2.4166,0,0,0,2.35-.0569,2.1362,2.1362,0,0,1,2.0087-.0016,2.4113,2.4113,0,0,0,1.1181.3223v-1.701A2.442,2.442,0,0,1,90.2985,317.0052Zm-4.0175-8.3639-3.6953-1.4944-3.6952,1.4944v-.9865H80.35v-1.2694h4.4721v1.2694H86.281Z"/><rect class="a7cffab6-ec4f-41f0-9c06-8e72047ebdf5" x="536.2367" y="592.6337" width="23.6898" height="23.6898"/><path class="f52d1990-74f2-4a69-bb19-ec3b8369b41d" d="M548.9629,609.0516l.0052-.6827a3.8948,3.8948,0,0,0,1.0089-.3749l.5281.5233a.3191.3191,0,0,0,.4522-.0008l.9647-.97a.32.32,0,0,0-.0016-.4538l-.4676-.4629a4.0378,4.0378,0,0,0,.4427-.9344l.7292.0131a.32.32,0,0,0,.3246-.3154l.0195-1.3676a.3192.3192,0,0,0-.3137-.3253l-.6484-.0126a3.9423,3.9423,0,0,0-.446-1.1907L552.079,602a.3211.3211,0,0,0-.0006-.4536l-.9691-.9646a.3231.3231,0,0,0-.4542.0009l-.4965.4752a4.0075,4.0075,0,0,0-1.0749-.4514l.0175-.6707a.3211.3211,0,0,0-.3156-.3256l-1.3684-.0207a.3212.3212,0,0,0-.3248.3164l-.0167.7067a3.99,3.99,0,0,0-1.16.512l-.47-.4639a.3205.3205,0,0,0-.4534.0021l-.9646.9691a.3219.3219,0,0,0,0,.4541l.5318.524a4.016,4.016,0,0,0-.3584.962l-.6613-.0073a.3209.3209,0,0,0-.3257.3162l-.02,1.367a.3214.3214,0,0,0,.3166.3262l.7451.0083a3.9391,3.9391,0,0,0,.4327.9789l-.4956.4714a.3215.3215,0,0,0,0,.454l.9692.9647a.3227.3227,0,0,0,.4552-.0013l.5155-.4949a4.0073,4.0073,0,0,0,.8288.3483l-.0074.7188a.3214.3214,0,0,0,.3156.3255l1.3666.02A.3208.3208,0,0,0,548.9629,609.0516Zm-3.5181-4.6166a2.6477,2.6477,0,1,1,2.6085,2.6859A2.649,2.649,0,0,1,545.4448,604.435Z"/><rect class="a7cffab6-ec4f-41f0-9c06-8e72047ebdf5" x="439.7504" y="655.072" width="23.6898" height="23.6898"/><path class="f981231a-0b08-4466-a441-ae1d3f0f0626" d="M452.4765,671.49l.0052-.6827a3.8921,3.8921,0,0,0,1.0089-.3749l.5282.5233a.3189.3189,0,0,0,.4521-.0008l.9647-.97a.32.32,0,0,0-.0015-.4538l-.4676-.4629a4.0375,4.0375,0,0,0,.4426-.9344l.7293.0131a.32.32,0,0,0,.3245-.3154l.02-1.3676a.3194.3194,0,0,0-.3138-.3253l-.6483-.0126a3.94,3.94,0,0,0-.4461-1.1907l.5183-.4973a.3211.3211,0,0,0,0-.4536l-.9692-.9646a.323.323,0,0,0-.4541.0009l-.4965.4752a4.0088,4.0088,0,0,0-1.0749-.4514l.0175-.6707a.3211.3211,0,0,0-.3157-.3256l-1.3684-.0207a.3212.3212,0,0,0-.3247.3164l-.0168.7067a3.99,3.99,0,0,0-1.1595.512l-.47-.4639a.3205.3205,0,0,0-.4534.0021l-.9646.9691a.3218.3218,0,0,0,0,.4541l.5317.524a4.016,4.016,0,0,0-.3584.962l-.6612-.0073a.3209.3209,0,0,0-.3257.3162l-.02,1.367a.3214.3214,0,0,0,.3166.3262l.7451.0083a3.9465,3.9465,0,0,0,.4327.9789l-.4955.4714a.3214.3214,0,0,0,0,.454l.9691.9647a.3227.3227,0,0,0,.4552-.0013l.5156-.4949a4.005,4.005,0,0,0,.8288.3483l-.0075.7188a.3215.3215,0,0,0,.3157.3255l1.3665.02A.3208.3208,0,0,0,452.4765,671.49Zm-3.518-4.6166a2.6477,2.6477,0,1,1,2.6084,2.6859A2.6489,2.6489,0,0,1,448.9585,666.8733Z"/><rect class="a7cffab6-ec4f-41f0-9c06-8e72047ebdf5" x="439.7504" y="625.9504" width="23.6898" height="23.6898"/><path class="bdf165c5-58bb-4cfb-9568-6be5d6b8a440" d="M452.4765,642.3682l.0052-.6826a3.8959,3.8959,0,0,0,1.0089-.375l.5282.5233a.3189.3189,0,0,0,.4521-.0007l.9647-.97a.32.32,0,0,0-.0015-.4538l-.4676-.4629a4.0356,4.0356,0,0,0,.4426-.9344l.7293.0131a.32.32,0,0,0,.3245-.3153l.02-1.3676a.3194.3194,0,0,0-.3138-.3253l-.6483-.0126a3.94,3.94,0,0,0-.4461-1.1907l.5183-.4973a.3211.3211,0,0,0,0-.4536l-.9692-.9646a.3229.3229,0,0,0-.4541.0009l-.4965.4752a4.0091,4.0091,0,0,0-1.0749-.4515l.0175-.6706a.3211.3211,0,0,0-.3157-.3256l-1.3684-.0207a.3211.3211,0,0,0-.3247.3163l-.0168.7068a3.9928,3.9928,0,0,0-1.1595.5119l-.47-.4638a.3205.3205,0,0,0-.4534.002l-.9646.9692a.3218.3218,0,0,0,0,.4541l.5317.524a4.0128,4.0128,0,0,0-.3584.962l-.6612-.0073a.3208.3208,0,0,0-.3257.3162l-.02,1.3669a.3215.3215,0,0,0,.3166.3263l.7451.0083a3.9442,3.9442,0,0,0,.4327.9788l-.4955.4714a.3215.3215,0,0,0,0,.4541l.9691.9646a.3227.3227,0,0,0,.4552-.0013l.5156-.4949a4,4,0,0,0,.8288.3484l-.0075.7187a.3215.3215,0,0,0,.3157.3256l1.3665.02A.3209.3209,0,0,0,452.4765,642.3682Zm-3.518-4.6165a2.6477,2.6477,0,1,1,2.6084,2.6859A2.649,2.649,0,0,1,448.9585,637.7517Z"/><rect class="a7cffab6-ec4f-41f0-9c06-8e72047ebdf5" x="439.7504" y="592.6337" width="23.6898" height="23.6898"/><path class="bd0e0082-355d-4637-a0d3-7ae9f0ebb0ed" d="M452.4765,609.0516l.0052-.6827a3.8921,3.8921,0,0,0,1.0089-.3749l.5282.5233a.3189.3189,0,0,0,.4521-.0008l.9647-.97a.32.32,0,0,0-.0015-.4538l-.4676-.4629a4.0375,4.0375,0,0,0,.4426-.9344l.7293.0131a.32.32,0,0,0,.3245-.3154l.02-1.3676a.3194.3194,0,0,0-.3138-.3253l-.6483-.0126a3.94,3.94,0,0,0-.4461-1.1907l.5183-.4973a.3211.3211,0,0,0,0-.4536l-.9692-.9646a.323.323,0,0,0-.4541.0009l-.4965.4752a4.0088,4.0088,0,0,0-1.0749-.4514l.0175-.6707a.3211.3211,0,0,0-.3157-.3256l-1.3684-.0207a.3212.3212,0,0,0-.3247.3164l-.0168.7067a3.99,3.99,0,0,0-1.1595.512l-.47-.4639a.3205.3205,0,0,0-.4534.0021l-.9646.9691a.3218.3218,0,0,0,0,.4541l.5317.524a4.016,4.016,0,0,0-.3584.962l-.6612-.0073a.3209.3209,0,0,0-.3257.3162l-.02,1.367a.3214.3214,0,0,0,.3166.3262l.7451.0083a3.9465,3.9465,0,0,0,.4327.9789l-.4955.4714a.3214.3214,0,0,0,0,.454l.9691.9647a.3227.3227,0,0,0,.4552-.0013l.5156-.4949a4.005,4.005,0,0,0,.8288.3483l-.0075.7188a.3215.3215,0,0,0,.3157.3255l1.3665.02A.3208.3208,0,0,0,452.4765,609.0516Zm-3.518-4.6166a2.6477,2.6477,0,1,1,2.6084,2.6859A2.6489,2.6489,0,0,1,448.9585,604.435Z"/><text class="aebd6922-e468-424d-bf59-03952edb4170" transform="translate(477.8299 187.4621) scale(1.0088 1)">me<tspan class="f468932c-ea29-4d66-8113-80d42f487fe3" x="15.4215" y="0">c</tspan><tspan x="20.4081" y="0">ani</tspan><tspan class="eae5701d-2400-4455-80ba-673453ecfa55" x="34.9391" y="0">z</tspan><tspan class="f5adf7e5-ddb1-418a-ae09-575466719ca5" x="39.428" y="0">ación</tspan></text><text class="aebd6922-e468-424d-bf59-03952edb4170" transform="translate(374.2942 187.4622) scale(1.0088 1)">ope<tspan class="a297f9d9-51c0-44b6-9900-7fb967aa1e6b" x="18.4216" y="0">r</tspan><tspan class="acd6fd83-9abf-44d4-83f7-581eb248c45b" x="22.324" y="0">aciones</tspan></text><text class="aebd6922-e468-424d-bf59-03952edb4170" transform="translate(477.1094 294.6649) scale(1.0088 1)"><tspan class="f468932c-ea29-4d66-8113-80d42f487fe3">c</tspan><tspan x="4.9866" y="0">o</tspan><tspan class="f468932c-ea29-4d66-8113-80d42f487fe3" x="11.2443" y="0">n</tspan><tspan class="bd58be0c-ac23-48d9-b2f3-54761c315c8a" x="17.3616" y="0">t</tspan><tspan class="f5adf7e5-ddb1-418a-ae09-575466719ca5" x="21.1294" y="0">abilidad</tspan></text><text class="aebd6922-e468-424d-bf59-03952edb4170" transform="translate(594.7124 401.039) scale(1.0088 1)">audi<tspan class="a4bd4b74-5562-450f-b0d9-abe2fdaada08" x="20.7654" y="0">t</tspan><tspan x="24.5922" y="0">oría</tspan></text><text class="aebd6922-e468-424d-bf59-03952edb4170" transform="translate(367.6631 294.6401) scale(1.0088 1)">asegu<tspan class="a297f9d9-51c0-44b6-9900-7fb967aa1e6b" x="28.0783" y="0">r</tspan><tspan x="31.9806" y="0">amie</tspan><tspan class="f468932c-ea29-4d66-8113-80d42f487fe3" x="55.6991" y="0">nt</tspan><tspan x="65.6427" y="0">o</tspan></text><text class="aebd6922-e468-424d-bf59-03952edb4170" transform="translate(593.002 187.4621) scale(1.0088 1)"><tspan class="f468932c-ea29-4d66-8113-80d42f487fe3">c</tspan><tspan x="4.9866" y="0">ome</tspan><tspan class="bd58be0c-ac23-48d9-b2f3-54761c315c8a" x="26.6658" y="0">r</tspan><tspan class="f5adf7e5-ddb1-418a-ae09-575466719ca5" x="30.6272" y="0">cial</tspan></text><text class="aebd6922-e468-424d-bf59-03952edb4170" transform="translate(386.6075 401.0392) scale(1.0088 1)"><tspan class="f468932c-ea29-4d66-8113-80d42f487fe3">t</tspan><tspan x="3.8263" y="0">écni</tspan><tspan class="a5c0569e-19b3-41f7-addb-e8728c4b6d76" x="23.7422" y="0">c</tspan><tspan class="acd6fd83-9abf-44d4-83f7-581eb248c45b" x="28.7283" y="0">a</tspan></text><text class="aebd6922-e468-424d-bf59-03952edb4170" transform="translate(479.7608 401.0384) scale(1.0088 1)"><tspan class="f468932c-ea29-4d66-8113-80d42f487fe3">c</tspan><tspan x="4.9866" y="0">o</tspan><tspan class="f468932c-ea29-4d66-8113-80d42f487fe3" x="11.2443" y="0">n</tspan><tspan x="17.3616" y="0">t</tspan><tspan class="a297f9d9-51c0-44b6-9900-7fb967aa1e6b" x="21.3046" y="0">r</tspan><tspan class="f468932c-ea29-4d66-8113-80d42f487fe3" x="25.2069" y="0">a</tspan><tspan class="ed1d9685-d3c5-430d-af44-65768e881cfb" x="30.7385" y="0">t</tspan><tspan x="34.5054" y="0">ación</tspan></text><text class="bf063b99-b551-4001-b38f-8fa59b01401a" transform="translate(578.9998 294.6649) scale(1.0088 1)">c<tspan class="f5adf7e5-ddb1-418a-ae09-575466719ca5" x="4.9866" y="0">api</tspan><tspan class="bd58be0c-ac23-48d9-b2f3-54761c315c8a" x="19.5175" y="0">t</tspan><tspan class="f5adf7e5-ddb1-418a-ae09-575466719ca5" x="23.2853" y="0">al humano</tspan></text><rect class="f52d1990-74f2-4a69-bb19-ec3b8369b41d" y="0.381" width="930.5466" height="42.1387"/><rect class="bd0e0082-355d-4637-a0d3-7ae9f0ebb0ed" y="37.1801" width="930.5466" height="5.3396"/><line class="f4e787b8-9abf-434a-8627-63dc8c0f32d2" x1="23.6289" y1="11.6108" x2="40.3991" y2="11.6108"/><line class="f4e787b8-9abf-434a-8627-63dc8c0f32d2" x1="23.6289" y1="19.6139" x2="40.3991" y2="19.6139"/><line class="f4e787b8-9abf-434a-8627-63dc8c0f32d2" x1="23.6289" y1="27.617" x2="40.3991" y2="27.617"/><path class="f52d1990-74f2-4a69-bb19-ec3b8369b41d" d="M941.7267,29.4514V23.482h19.9167V21.4893H941.7267v-3.984l1.9854-1.9927h23.9092V29.4514ZM945.7023,13.52,951.68,7.5421h15.9411V13.52Z"/><path class="f52d1990-74f2-4a69-bb19-ec3b8369b41d" d="M969.6139,27.4587V7.5421h5.9682V21.4905Z"/><polygon class="f52d1990-74f2-4a69-bb19-ec3b8369b41d" points="997.491 29.451 1002.52 29.427 1003.469 28.478 1003.469 28.443 1003.469 15.513 991.513 15.513 991.513 21.489 997.491 21.489 997.491 23.482 990.521 23.482 983.543 16.504 983.543 13.52 1003.469 13.52 997.501 7.542 977.575 7.542 977.575 19.498 987.528 29.451 997.491 29.451"/><polygon class="f52d1990-74f2-4a69-bb19-ec3b8369b41d" points="1011.42 31.212 1011.42 13.509 1005.451 7.571 1005.451 28.75 1003.016 31.212 941.727 31.212 947.705 37.18 1005.451 37.18 1011.43 31.212 1011.42 31.212"/><rect class="bd0e0082-355d-4637-a0d3-7ae9f0ebb0ed" x="361.4271" y="191.3551" width="85.0394" height="85.0394"/><rect class="bdf165c5-58bb-4cfb-9568-6be5d6b8a440" x="361.4271" y="270.2528" width="85.0394" height="6.1416"/><path class="ef0359fa-af1d-4e35-a652-d3e47b0a43e0" d="M422.7385,258.7463c-1.9672,1.0029-5.0869.7391-7.2955-.39-3.0433-1.5559-4.7662-1.1754-7.9558.2153a8.3426,8.3426,0,0,1-7.1624,0c-3.1874-1.3947-4.8311-1.7712-7.8744-.2153-2.2085,1.1291-5.3741,1.3929-7.3413.39-3.4491-1.7591-5.9138-2.0872-8.6528-.4294a6.6811,6.6811,0,0,1-3.7871.8794v6.224a7.5406,7.5406,0,0,0,4.03-.9783,7.2244,7.2244,0,0,1,7.1279-.166c3.111,1.556,5.7485,1.556,8.386.2028s4.0992-1.5969,7.3037-.2364a9.4661,9.4661,0,0,0,8.8253.06c3.2046-1.3605,4.7-1.1764,7.3377.1766s5.2745,1.3532,8.3858-.2028a7.087,7.087,0,0,1,7.0468.166,7.4232,7.4232,0,0,0,4.1115.9783v-6.224a6.4642,6.4642,0,0,1-3.7874-.8794C428.6982,256.6591,426.1876,256.9872,422.7385,258.7463Z"/><path class="ef0359fa-af1d-4e35-a652-d3e47b0a43e0" d="M431.4711,249.236c-5.3828-2.8791-7.7244.6264-10.6176.6264V235.8279l4.4633-10.0807a2.6267,2.6267,0,0,0-1.6231-3.6531l-2.705-1.0825v-8.7272h-5.211v-4.5982h-7.3v-6.159H399.416v6.159h-7.3v4.5982H386.905v8.7272L384.2,222.0941a2.6267,2.6267,0,0,0-1.6231,3.6531l4.4632,10.0807v14.0344c-2.892-.0011-5.3525-3.45-10.6157-.5716h-.0018a8.9819,8.9819,0,0,1-3.7869.8794v6.0155a8.2477,8.2477,0,0,0,3.99-1.15,7.5561,7.5561,0,0,1,7.1685.0059c3.1113,1.556,5.7486,1.556,8.3859.203a7.6084,7.6084,0,0,1,7.4053-.203,8.71,8.71,0,0,0,8.6865.036,7.57,7.57,0,0,1,7.4423.167c2.6375,1.353,5.275,1.353,8.3858-.203a7.6238,7.6238,0,0,1,7.1685-.0059,8.6041,8.6041,0,0,0,3.99,1.15v-6.07A8.7168,8.7168,0,0,1,431.4711,249.236Zm-14.3372-29.8481-13.1872-5.3329L390.76,219.3879v-3.52h5.2074v-4.53h15.9595v4.53h5.2074Z"/><rect class="bd0e0082-355d-4637-a0d3-7ae9f0ebb0ed" x="467.7462" y="191.3583" width="85" height="85"/><rect class="f52d1990-74f2-4a69-bb19-ec3b8369b41d" x="467.7462" y="270.2195" width="85" height="6.1388"/><path class="ef0359fa-af1d-4e35-a652-d3e47b0a43e0" d="M533.9439,243.5216a5.2257,5.2257,0,1,0,5.31,5.2251A5.2684,5.2684,0,0,0,533.9439,243.5216Z"/><path class="ef0359fa-af1d-4e35-a652-d3e47b0a43e0" d="M490.5244,243.5216a5.2257,5.2257,0,1,0,5.3093,5.2251A5.2689,5.2689,0,0,0,490.5244,243.5216Z"/><path class="ef0359fa-af1d-4e35-a652-d3e47b0a43e0" d="M535.9064,221.2862l-9.3583.0061c-.8937,0-1.6124,5.5679-1.6278,12.4788h-.39a4.05,4.05,0,0,0-.4807.0477c.1509-1.7973.2386-3.8775.2386-6.1027,0-6.7516-.7949-12.2247-1.7754-12.2247H506.51v-.9655a.7874.7874,0,0,0-.7939-.7809h-9.0644a.7876.7876,0,0,0-.7941.7809v.9655h-19.53c-.98,0-1.7754,5.4731-1.7754,12.2247s.7951,12.2248,1.7754,12.2248h3.5771c-1.7023.2182-2.9759,1.1248-2.9759,2.91a3.7966,3.7966,0,0,0,3.8253,3.7689h2.8938a7.2448,7.2448,0,0,1,13.75,0h29.6753a7.241,7.241,0,0,1,13.7442,0h3.5719c.9,0,1.6278-5.6706,1.6278-12.6616C546.0172,226.9584,536.8125,221.2862,535.9064,221.2862Zm-.5313,10.5391h-6.3822v-7.8065h6.3822Zm1.2285,0v-7.2764c1.8459,1.1,5.3288,3.8535,6.4437,7.2764Z"/><rect class="bd0e0082-355d-4637-a0d3-7ae9f0ebb0ed" x="574.0454" y="191.7476" width="85" height="85"/><rect class="f52d1990-74f2-4a69-bb19-ec3b8369b41d" x="574.0454" y="270.6089" width="85" height="6.1388"/><path class="ef0359fa-af1d-4e35-a652-d3e47b0a43e0" d="M629.3593,253.8341H595.2629a1.3546,1.3546,0,1,0,0,2.7088h34.0964a1.3546,1.3546,0,1,0,0-2.7088Z"/><path class="ef0359fa-af1d-4e35-a652-d3e47b0a43e0" d="M643.8012,242.7232l-7.3625-13.7852a5.16,5.16,0,0,1-.6077-2.4232v-4.5991a1.3781,1.3781,0,0,0-2.7557,0v4.5991a7.8466,7.8466,0,0,0,.9231,3.6823l7.3631,13.7863a2.8841,2.8841,0,0,1,.3406,1.3566,2.9507,2.9507,0,0,1-2.9719,2.9219h-3.3776A2.9509,2.9509,0,0,1,632.38,245.34V218.8651h-4.0072a1.3822,1.3822,0,0,0-.594.1373v-7.767a5.6708,5.6708,0,0,0-5.7121-5.6149h-19.102a5.6705,5.6705,0,0,0-5.7116,5.6149v40.9464h30.5257V221.4367a1.3851,1.3851,0,0,0,.594.1372h1.2513V245.34a5.6865,5.6865,0,0,0,5.7281,5.6307H638.73a5.6863,5.6863,0,0,0,5.7279-5.6307A5.5672,5.5672,0,0,0,643.8012,242.7232Zm-22.02-20.5377a3.4609,3.4609,0,0,1-3.4862,3.4267H606.3263a3.461,3.461,0,0,1-3.4861-3.4267v-7.228a3.4611,3.4611,0,0,1,3.4861-3.4269h11.9689a3.461,3.461,0,0,1,3.4862,3.4269Z"/><path class="ef0359fa-af1d-4e35-a652-d3e47b0a43e0" d="M632.4213,215.777a2.1627,2.1627,0,0,1,.654,1.5517v1.68a1.3781,1.3781,0,0,0,2.7558,0v-1.68a4.8283,4.8283,0,0,0-1.4613-3.4669l-3.8646-3.7992a1.3942,1.3942,0,0,0-1.9484,0,1.3375,1.3375,0,0,0,0,1.9152Z"/><path class="ef0359fa-af1d-4e35-a652-d3e47b0a43e0" d="M619.0256,222.1855a.7253.7253,0,0,1-.73.718H606.3264a.7253.7253,0,0,1-.73-.718v-7.228a.7253.7253,0,0,1,.73-.718h11.9688a.7253.7253,0,0,1,.73.718Z"/><rect class="bd0e0082-355d-4637-a0d3-7ae9f0ebb0ed" x="361.4293" y="297.6329" width="85" height="85"/><rect class="f52d1990-74f2-4a69-bb19-ec3b8369b41d" x="361.4293" y="376.4941" width="85" height="6.1388"/><path class="ef0359fa-af1d-4e35-a652-d3e47b0a43e0" d="M395.1347,325.3119h-5.8954A1.8337,1.8337,0,0,0,387.39,327.13v5.7947a1.8335,1.8335,0,0,0,1.8492,1.8176h5.8954a1.8338,1.8338,0,0,0,1.8495-1.8176V327.13A1.834,1.834,0,0,0,395.1347,325.3119Z"/><path class="ef0359fa-af1d-4e35-a652-d3e47b0a43e0" d="M406.3736,325.3119h-5.8955a1.8337,1.8337,0,0,0-1.8493,1.8178v5.7947a1.8335,1.8335,0,0,0,1.8493,1.8176h5.8955a1.8338,1.8338,0,0,0,1.8493-1.8176V327.13A1.8339,1.8339,0,0,0,406.3736,325.3119Z"/><path class="ef0359fa-af1d-4e35-a652-d3e47b0a43e0" d="M411.7168,334.742h5.8955a1.8336,1.8336,0,0,0,1.8493-1.8176V327.13a1.8338,1.8338,0,0,0-1.8493-1.8178h-5.8955a1.8337,1.8337,0,0,0-1.8493,1.8178v5.7947A1.8335,1.8335,0,0,0,411.7168,334.742Z"/><path class="ef0359fa-af1d-4e35-a652-d3e47b0a43e0" d="M395.1347,336.2688h-5.8954a1.8337,1.8337,0,0,0-1.8492,1.8178v5.7947a1.8335,1.8335,0,0,0,1.8492,1.8176h5.8954a1.8338,1.8338,0,0,0,1.8495-1.8176v-5.7947A1.834,1.834,0,0,0,395.1347,336.2688Z"/><path class="ef0359fa-af1d-4e35-a652-d3e47b0a43e0" d="M406.3736,336.2688h-5.8955a1.8337,1.8337,0,0,0-1.8493,1.8178v5.7947a1.8335,1.8335,0,0,0,1.8493,1.8176h5.8955a1.8338,1.8338,0,0,0,1.8493-1.8176v-5.7947A1.8339,1.8339,0,0,0,406.3736,336.2688Z"/><path class="ef0359fa-af1d-4e35-a652-d3e47b0a43e0" d="M411.7168,345.6989h5.8955a1.8336,1.8336,0,0,0,1.8493-1.8176v-5.7947a1.8338,1.8338,0,0,0-1.8493-1.8178h-5.8955a1.8337,1.8337,0,0,0-1.8493,1.8178v5.7947A1.8335,1.8335,0,0,0,411.7168,345.6989Z"/><path class="ef0359fa-af1d-4e35-a652-d3e47b0a43e0" d="M395.1347,347.2257h-5.8954a1.8337,1.8337,0,0,0-1.8492,1.8178v5.7947a1.8335,1.8335,0,0,0,1.8492,1.8176h5.8954a1.8338,1.8338,0,0,0,1.8495-1.8176v-5.7947A1.834,1.834,0,0,0,395.1347,347.2257Z"/><path class="ef0359fa-af1d-4e35-a652-d3e47b0a43e0" d="M406.3736,347.2257h-5.8955a1.8337,1.8337,0,0,0-1.8493,1.8178v5.7947a1.8335,1.8335,0,0,0,1.8493,1.8176h5.8955a1.8338,1.8338,0,0,0,1.8493-1.8176v-5.7947A1.8339,1.8339,0,0,0,406.3736,347.2257Z"/><path class="ef0359fa-af1d-4e35-a652-d3e47b0a43e0" d="M411.7168,356.6558h5.8955a1.8336,1.8336,0,0,0,1.8493-1.8176v-5.7947a1.8338,1.8338,0,0,0-1.8493-1.8178h-5.8955a1.8337,1.8337,0,0,0-1.8493,1.8178v5.7947A1.8335,1.8335,0,0,0,411.7168,356.6558Z"/><path class="ef0359fa-af1d-4e35-a652-d3e47b0a43e0" d="M429.8705,321.1267l-3.488-1.5317v0l-22.454-9.8608-22.4523,9.8608h0l-3.4881,1.5318a1.5648,1.5648,0,0,0-.809,2.0811,1.6185,1.6185,0,0,0,2.1172.7952l2.18-.9573V363.18h44.9063V323.0457l2.18.9573a1.6186,1.6186,0,0,0,2.1173-.7952A1.5649,1.5649,0,0,0,429.8705,321.1267ZM423.1777,360.03H384.681v-38.392l13.341-5.859,5.9065-2.5936,5.4371,2.3872,13.8121,6.0656Z"/><rect class="bd0e0082-355d-4637-a0d3-7ae9f0ebb0ed" x="467.7659" y="297.6575" width="85" height="85"/><rect class="f52d1990-74f2-4a69-bb19-ec3b8369b41d" x="467.7659" y="376.5187" width="85" height="6.1388"/><path class="ef0359fa-af1d-4e35-a652-d3e47b0a43e0" d="M510.45,352.6768a9.5552,9.5552,0,0,0,1.3351.0882c.0965,0,.192-.008.2878-.01v-5.8824l-1.6229-.3729Z"/><path class="ef0359fa-af1d-4e35-a652-d3e47b0a43e0" d="M510.45,336.5846v5.3226l1.6229.3919v-5.7047c-.2925-.0269-.5991-.0454-.9367-.0454A6.8256,6.8256,0,0,0,510.45,336.5846Z"/><path class="ef0359fa-af1d-4e35-a652-d3e47b0a43e0" d="M507.45,338.0014a2.1756,2.1756,0,0,0-.3737,1.2927,2.2185,2.2185,0,0,0,.2435,1.1017,2.0147,2.0147,0,0,0,.6168.686,2.8006,2.8006,0,0,0,.8125.3829c.1239.0364.223.0627.3372.0949v-4.6948a4.2447,4.2447,0,0,0-.6782.2908A2.7912,2.7912,0,0,0,507.45,338.0014Z"/><path class="ef0359fa-af1d-4e35-a652-d3e47b0a43e0" d="M515.4709,347.93a6.8921,6.8921,0,0,0-1.3472-.5269c-.22-.063-.4521-.126-.6872-.189v5.4338c.0287-.0041.0577-.0052.0865-.01a5.7628,5.7628,0,0,0,1.5585-.4474,2.9329,2.9329,0,0,0,1.1364-.8938,2.4021,2.4021,0,0,0,.4391-1.5,1.9163,1.9163,0,0,0-.3092-1.1172A2.43,2.43,0,0,0,515.4709,347.93Z"/><path class="ef0359fa-af1d-4e35-a652-d3e47b0a43e0" d="M515.75,321.3309a9.9793,9.9793,0,0,1,3.3581-6.16c2.7284-2.1473-1.8173-1.97-4.915-1.611-3.089.357-9.822-1.4313-11.274-.1776-1.4563,1.2483-.915,3.2183.726,4.289a13.0611,13.0611,0,0,1,2.8769,3.6674c-9.292,3.3008-16.2334,16.3109-16.2334,31.8725a50.9155,50.9155,0,0,0,.3333,5.8128c.3967,1.2956,1.6527,4.2949,4.8145,4.2949H526.322s4.4495-.14,5.2883-3.7525c.0521-.4456.1042-.8892.1483-1.3389a4.6,4.6,0,0,1,.0441-.5245c.1326-1.4689.2044-2.9675.2044-4.4918C532.0071,337.6378,525.0543,324.6161,515.75,321.3309Zm5.0474,30.8438a6.3506,6.3506,0,0,1-1.3959,2.06,7.1572,7.1572,0,0,1-1.9008,1.3244,10.9727,10.9727,0,0,1-2.0618.75,12.7046,12.7046,0,0,1-1.9.3353c-.0381.0035-.0658.0046-.1025.0077v3.4032h-1.3639v-3.3337c-.5724-.0017-1.11-.0263-1.6229-.0672v3.4009h-1.3636v-3.5674a10.066,10.066,0,0,1-2.0915-.5618,8.29,8.29,0,0,1-3.0362-1.9632,5.9612,5.9612,0,0,1-1.429-2.506,9.3736,9.3736,0,0,1-.3573-2.394h4.6763a4.2172,4.2172,0,0,0,.1786,1.1172,3.0387,3.0387,0,0,0,.6983,1.2133,3.9337,3.9337,0,0,0,1.3608.9122v-6.1263c-.6515-.1574-1.2933-.3217-1.9128-.5a7.8132,7.8132,0,0,1-2.3546-1.1013,5.4327,5.4327,0,0,1-1.6564-1.8834,6.3707,6.3707,0,0,1-.6329-3.0487,7.5124,7.5124,0,0,1,.1463-1.4044,6.7764,6.7764,0,0,1,.5026-1.5481,6.6974,6.6974,0,0,1,.9912-1.5323,5.7979,5.7979,0,0,1,1.64-1.309,9.9556,9.9556,0,0,1,2.4031-.91c.2752-.0693.57-.1249.8732-.1738v-3.8788H510.45v3.7335c.3352-.0195.68-.0321,1.0432-.0321.202,0,.386.0152.58.0218v-3.7232h1.3639v3.832a9.1974,9.1974,0,0,1,2.4735.6358,8.2783,8.2783,0,0,1,2.7928,1.883,6.5025,6.5025,0,0,1,1.4613,2.41,7.6486,7.6486,0,0,1,.4222,2.3463H515.91c-.0444-.2554-.1139-.58-.211-.9737a2.666,2.666,0,0,0-.6339-1.133,3.9934,3.9934,0,0,0-1.4129-.942c-.0661-.0284-.1449-.0492-.2157-.0745v5.7552l1.7913.4324a19.4516,19.4516,0,0,1,2.3062.7025,6.714,6.714,0,0,1,1.9482,1.1175,5.13,5.13,0,0,1,1.3482,1.7551,5.9815,5.9815,0,0,1,.5026,2.5862A7.3572,7.3572,0,0,1,520.7973,352.1747Z"/><rect class="bd0e0082-355d-4637-a0d3-7ae9f0ebb0ed" x="574.0257" y="297.6575" width="85" height="85"/><rect class="f52d1990-74f2-4a69-bb19-ec3b8369b41d" x="574.0257" y="376.5187" width="85" height="6.1388"/><path class="ef0359fa-af1d-4e35-a652-d3e47b0a43e0" d="M626.7149,320.1678a10.2507,10.2507,0,1,0,10.2769,10.25A10.2643,10.2643,0,0,0,626.7149,320.1678Zm0,16.777a6.5263,6.5263,0,1,1,6.5422-6.5264A6.5337,6.5337,0,0,1,626.7149,336.9448Z"/><path class="ef0359fa-af1d-4e35-a652-d3e47b0a43e0" d="M648.3286,357.6849a22.7595,22.7595,0,0,0-43.2261,0Z"/><path class="ef0359fa-af1d-4e35-a652-d3e47b0a43e0" d="M604.6222,324.7985a8.9855,8.9855,0,1,0,9.0084,8.985A8.9974,8.9974,0,0,0,604.6222,324.7985Zm0,14.7062a5.7208,5.7208,0,1,1,5.7347-5.7208A5.7272,5.7272,0,0,1,604.6222,339.5047Z"/><path class="ef0359fa-af1d-4e35-a652-d3e47b0a43e0" d="M609.99,344.7316a19.9105,19.9105,0,0,0-24.3122,12.9533h15.25A27.89,27.89,0,0,1,609.99,344.7316Z"/><rect class="bd0e0082-355d-4637-a0d3-7ae9f0ebb0ed" x="361.4473" y="403.9567" width="85" height="85"/><rect class="f52d1990-74f2-4a69-bb19-ec3b8369b41d" x="361.4473" y="482.8179" width="85" height="6.1388"/><path class="ef0359fa-af1d-4e35-a652-d3e47b0a43e0" d="M433.6263,424.6672l-3.2607-3.2607-5.455,5.455H380.2657v44.6454h44.6451V433.3826Zm-12.4318,43.1233H383.982V430.5778h37.2123l-22.5867,22.5867-3.26-3.26-3.2607-3.2607-3.2607,3.2607,3.2607,3.2607,3.2607,3.2607,3.2606,3.2607,3.2607-3.2607,0,0,19.3262-19.3262Z"/><rect class="bd0e0082-355d-4637-a0d3-7ae9f0ebb0ed" x="467.7265" y="403.9567" width="85" height="85"/><rect class="f52d1990-74f2-4a69-bb19-ec3b8369b41d" x="467.7265" y="482.8179" width="85" height="6.1388"/><path class="ef0359fa-af1d-4e35-a652-d3e47b0a43e0" d="M520.2022,427.4481l-4.4466-4.6748h-25.421v39.0739h29.8676Zm-14.2945,27.2754H495.816a.675.675,0,1,1,0-1.35h10.0917a.675.675,0,1,1,0,1.35Zm8.59-4.9979H495.816a.675.675,0,1,1,0-1.35h18.6814a.675.675,0,1,1,0,1.35Zm0-4.9971H495.816a.675.675,0,1,1,0-1.35h18.6814a.675.675,0,1,1,0,1.35Zm0-4.9971H495.816a.6751.6751,0,1,1,0-1.35h18.6814a.6751.6751,0,1,1,0,1.35Zm0-4.9979H495.816a.6751.6751,0,1,1,0-1.35h18.6814a.6751.6751,0,1,1,0,1.35Zm.7188-6.6721v-4.3893l4.1752,4.3893Z"/><path class="ef0359fa-af1d-4e35-a652-d3e47b0a43e0" d="M525.6719,429.0671H522.186V464.17H500.2508v3.971h29.8675V433.7419Zm-.5394,5.288v-4.3892l4.1748,4.3892Z"/><rect class="bd0e0082-355d-4637-a0d3-7ae9f0ebb0ed" x="574.0454" y="403.9567" width="85" height="85"/><rect class="f52d1990-74f2-4a69-bb19-ec3b8369b41d" x="574.0454" y="482.8179" width="85" height="6.1388"/><path class="ef0359fa-af1d-4e35-a652-d3e47b0a43e0" d="M616.5467,435.6169a8.6,8.6,0,1,0,8.756,8.5984A8.6758,8.6758,0,0,0,616.5467,435.6169Zm-.057,12.4223a3.9287,3.9287,0,1,1,4.0015-3.9285A3.9657,3.9657,0,0,1,616.49,448.0392Z"/><path class="ef0359fa-af1d-4e35-a652-d3e47b0a43e0" d="M616.699,430.9547c11.5737,0,17.1678,8.7027,19.0627,12.5151-2.146,4.1181-8.4092,14.006-19.0627,14.006-11.82,0-17.3345-9.7028-19.1123-13.7239,2.0162-3.8175,7.9458-12.7972,19.1123-12.7972m0-4.9977c-17.5829,0-24.5468,17.6016-24.5468,17.6016s5.9582,18.9149,24.5468,18.9149c17.06,0,24.5467-18.9149,24.5467-18.9149s-6.1463-17.6016-24.5467-17.6016Z"/><rect class="a7cffab6-ec4f-41f0-9c06-8e72047ebdf5" x="467.7462" y="510.2378" width="85" height="85"/><path class="bd0e0082-355d-4637-a0d3-7ae9f0ebb0ed" d="M513.4082,569.1457l.0187-2.4492a13.9792,13.9792,0,0,0,3.62-1.3455l1.895,1.8777a1.1448,1.1448,0,0,0,1.6224-.0028l3.4614-3.4791a1.15,1.15,0,0,0-.0055-1.6282l-1.6779-1.6609a14.4913,14.4913,0,0,0,1.5883-3.3527l2.6165.047a1.1469,1.1469,0,0,0,1.1646-1.1315l.07-4.907a1.1455,1.1455,0,0,0-1.1258-1.1671l-2.3263-.0454a14.1337,14.1337,0,0,0-1.6-4.2721l1.86-1.7845a1.152,1.152,0,0,0-.002-1.6274l-3.4773-3.461a1.1588,1.1588,0,0,0-1.63.0032l-1.7814,1.7049a14.3867,14.3867,0,0,0-3.857-1.62l.0629-2.4062a1.1519,1.1519,0,0,0-1.1325-1.1682l-4.91-.0744a1.1524,1.1524,0,0,0-1.1652,1.1351l-.06,2.5358a14.3248,14.3248,0,0,0-4.1606,1.8369l-1.6867-1.6644a1.15,1.15,0,0,0-1.6267.0075l-3.4611,3.4772a1.155,1.155,0,0,0,.0015,1.6294l1.9079,1.88a14.4037,14.4037,0,0,0-1.286,3.4517l-2.3725-.0262a1.1512,1.1512,0,0,0-1.1686,1.1345l-.0735,4.9046a1.1535,1.1535,0,0,0,1.136,1.1707l2.6735.03a14.1425,14.1425,0,0,0,1.5525,3.5121l-1.778,1.6914a1.1536,1.1536,0,0,0,.0017,1.6292l3.4774,3.4613a1.158,1.158,0,0,0,1.6333-.0047l1.85-1.7757a14.36,14.36,0,0,0,2.9737,1.25l-.0268,2.5788a1.1533,1.1533,0,0,0,1.1326,1.1681l4.9033.0714A1.1513,1.1513,0,0,0,513.4082,569.1457Zm-12.623-16.5644a9.5,9.5,0,1,1,9.3593,9.6371A9.5047,9.5047,0,0,1,500.7852,552.5813Z"/><text class="f5323deb-dcf0-4cb3-8be8-4fa569d41c7b" transform="translate(69.8482 256.3627) scale(1.0088 1)">Al<tspan class="b2f28fa8-8695-4a52-9a67-989dfe145d7e" x="8.0815" y="0"> </tspan><tspan x="10.6189" y="0">loguearse,</tspan><tspan class="b2f28fa8-8695-4a52-9a67-989dfe145d7e" x="52.836" y="0"> </tspan><tspan x="55.3733" y="0">se</tspan><tspan class="a4a2a950-a9ee-4025-b915-8addb916b100" x="64.0406" y="0"> </tspan><tspan x="66.5789" y="0">d</tspan><tspan class="efd87cb7-e11f-4ccc-a132-1fc56b02ba4b" x="71.7204" y="0">e</tspan><tspan x="76.4862" y="0">fine</tspan><tspan class="b2f28fa8-8695-4a52-9a67-989dfe145d7e" x="91.6958" y="0"> </tspan><tspan x="94.2331" y="0">a</tspan><tspan class="b2f28fa8-8695-4a52-9a67-989dfe145d7e" x="99.3746" y="0"> </tspan><tspan x="101.9119" y="0">qué</tspan><tspan class="b2f28fa8-8695-4a52-9a67-989dfe145d7e" x="116.9705" y="0"> </tspan><tspan x="119.5078" y="0">módulo</tspan><tspan class="a4a2a950-a9ee-4025-b915-8addb916b100" x="150.2599" y="0"> </tspan><tspan class="bcd045b0-d676-4861-80a4-fed104fcbd25" x="152.7982" y="0">t</tspan><tspan x="156.0403" y="0">endrá</tspan><tspan class="b2f28fa8-8695-4a52-9a67-989dfe145d7e" x="179.6683" y="0"> </tspan><tspan x="182.2056" y="0">a</tspan><tspan class="b8d7e4b5-6e1a-42d8-b33e-841beffb5194" x="187.3471" y="0">c</tspan><tspan class="b2b58e68-f351-4720-92ba-891d15667c85" x="191.4189" y="0">c</tspan><tspan x="195.5158" y="0">es</tspan><tspan class="a73fd4c5-1f4c-4311-9560-2533399b6def" x="204.183" y="0">o</tspan><tspan x="209.1338" y="0">,</tspan><tspan class="b2f28fa8-8695-4a52-9a67-989dfe145d7e" x="211.6286" y="0"> </tspan><tspan x="214.1659" y="0">lo</tspan><tspan class="b2f28fa8-8695-4a52-9a67-989dfe145d7e" x="221.593" y="0"> </tspan><tspan x="224.1304" y="0">cual </tspan><tspan x="0" y="12">se</tspan><tspan class="b2c484d3-be6e-4fe7-bf0a-7e20ccb12012" x="8.6672" y="12"> </tspan><tspan x="12.7574" y="12">ide</tspan><tspan class="b3c44436-b04f-40ac-8cbf-ff311fdd1bf5" x="24.9697" y="12">n</tspan><tspan x="30.0135" y="12">tifi</tspan><tspan class="b2b58e68-f351-4720-92ba-891d15667c85" x="40.8773" y="12">c</tspan><tspan x="44.9742" y="12">a</tspan><tspan class="ae8d6310-b2d1-4551-81ca-11e42caa1ec0" x="50.1157" y="12"> </tspan><tspan x="54.2068" y="12">por</tspan><tspan class="b2c484d3-be6e-4fe7-bf0a-7e20ccb12012" x="67.9081" y="12"> </tspan><tspan x="71.9982" y="12">una</tspan><tspan class="ae8d6310-b2d1-4551-81ca-11e42caa1ec0" x="87.4227" y="12"> </tspan><tspan x="91.5138" y="12">banda</tspan><tspan class="b2c484d3-be6e-4fe7-bf0a-7e20ccb12012" x="117.2212" y="12"> </tspan><tspan x="121.3113" y="12">verde</tspan><tspan class="b2c484d3-be6e-4fe7-bf0a-7e20ccb12012" x="143.8899" y="12"> </tspan><tspan x="147.9801" y="12">situada</tspan><tspan class="ae8d6310-b2d1-4551-81ca-11e42caa1ec0" x="178.0826" y="12"> </tspan><tspan x="182.1737" y="12">en</tspan><tspan class="b2c484d3-be6e-4fe7-bf0a-7e20ccb12012" x="192.0907" y="12"> </tspan><tspan x="196.1809" y="12">el</tspan><tspan class="ae8d6310-b2d1-4551-81ca-11e42caa1ec0" x="203.2517" y="12"> </tspan><tspan class="b151b930-090b-405b-b6a4-780c446b442c" x="207.3429" y="12">e</tspan><tspan class="ba9f319a-03c6-4033-bc55-19cb3acab8ee" x="211.9132" y="12">x</tspan><tspan x="216.2734" y="12">tremo </tspan><tspan x="0" y="24">in</tspan><tspan class="fa7e485e-6fe5-4966-8a9d-7097c52f9275" x="7.4368" y="24">f</tspan><tspan x="10.3323" y="24">erio</tspan><tspan class="b8ee933f-9e3e-4ed0-a22f-6f25d8fc72f7" x="25.963" y="24">r</tspan><tspan x="28.57" y="24">.</tspan><tspan class="ff8ace7f-1e3f-4d87-a192-36cf2d2d1a92" x="31.0948" y="24"> </tspan><tspan x="35.7184" y="24">El</tspan><tspan class="bd4af44c-6d53-4408-af58-15cbc31c8465" x="42.8967" y="24"> </tspan><tspan class="aa9557ec-42b7-40fe-a426-bf7e163e2282" x="47.5193" y="24">c</tspan><tspan x="51.5968" y="24">ompor</tspan><tspan class="f72dce8b-7a74-4c8f-b25e-5f8993843256" x="78.3401" y="24">t</tspan><tspan x="81.5522" y="24">amie</tspan><tspan class="b3c44436-b04f-40ac-8cbf-ff311fdd1bf5" x="101.6748" y="24">n</tspan><tspan class="bca0f192-2f4e-4916-8d0e-7e5c9a6a27e0" x="106.7185" y="24">t</tspan><tspan x="109.9461" y="24">o</tspan><tspan class="ff8ace7f-1e3f-4d87-a192-36cf2d2d1a92" x="115.0779" y="24"> </tspan><tspan x="119.7014" y="24">visual</tspan><tspan class="bd4af44c-6d53-4408-af58-15cbc31c8465" x="142.9247" y="24"> </tspan><tspan x="147.5473" y="24">dura</tspan><tspan class="b3c44436-b04f-40ac-8cbf-ff311fdd1bf5" x="166.3998" y="24">n</tspan><tspan class="ee092aab-e47c-467c-a796-bfe9d320d370" x="171.4435" y="24">t</tspan><tspan x="174.6865" y="24">e</tspan><tspan class="ff8ace7f-1e3f-4d87-a192-36cf2d2d1a92" x="179.4621" y="24"> </tspan><tspan x="184.0857" y="24">la</tspan><tspan class="bd4af44c-6d53-4408-af58-15cbc31c8465" x="191.5225" y="24"> </tspan><tspan x="196.1451" y="24">i</tspan><tspan class="b3c44436-b04f-40ac-8cbf-ff311fdd1bf5" x="198.4404" y="24">n</tspan><tspan class="bcd045b0-d676-4861-80a4-fed104fcbd25" x="203.4841" y="24">t</tspan><tspan x="206.7262" y="24">era</tspan><tspan class="b8d7e4b5-6e1a-42d8-b33e-841beffb5194" x="220.0712" y="24">c</tspan><tspan x="224.143" y="24">ción </tspan><tspan x="0" y="36">será el descri</tspan><tspan class="bca0f192-2f4e-4916-8d0e-7e5c9a6a27e0" x="52.5204" y="36">t</tspan><tspan x="55.748" y="36">o a </tspan><tspan class="ef67eae5-1f37-4f1b-bf5e-3f5e3375d282" x="70.5422" y="36">c</tspan><tspan x="74.6188" y="36">o</tspan><tspan class="b3c44436-b04f-40ac-8cbf-ff311fdd1bf5" x="79.7506" y="36">n</tspan><tspan x="84.7943" y="36">tinuación:</tspan></text><text class="b9af48a3-2d0e-4a72-be30-913e5254d36a" transform="translate(226.7216 241.9908) scale(1.0088 1)"><tspan class="b19b786d-ba26-4b39-88cb-1be887789357">B</tspan><tspan x="6.3632" y="0">tn A</tspan><tspan class="b062e688-8def-40bb-9cc7-3cf9f1f0c76b" x="26.2089" y="0">c</tspan><tspan class="a7be720c-c019-49bb-bf72-f034f1bfa3bb" x="31.0958" y="0">c</tspan><tspan x="36.0117" y="0">eso Acti</tspan><tspan class="b3c2d31e-ded7-48a2-9ff2-a9ea26d71c2c" x="73.9044" y="0">v</tspan><tspan class="e4aaef0d-c4de-43d2-bf84-073091d96873" x="79.2007" y="0">o</tspan></text><text class="f5323deb-dcf0-4cb3-8be8-4fa569d41c7b" transform="translate(692.4516 256.3627) scale(1.0088 1)">Al<tspan class="a695a610-2e61-4455-b8f1-9476d36c3a3f" x="8.0815" y="0"> </tspan><tspan x="9.9015" y="0">loguearse,</tspan><tspan class="bfd8e827-e0c5-4b16-a765-89b43cf84177" x="52.1186" y="0"> </tspan><tspan x="53.9396" y="0">los</tspan><tspan class="a695a610-2e61-4455-b8f1-9476d36c3a3f" x="65.2584" y="0"> </tspan><tspan x="67.0784" y="0">módulos</tspan><tspan class="bfd8e827-e0c5-4b16-a765-89b43cf84177" x="101.7222" y="0"> </tspan><tspan x="103.5432" y="0">a</tspan><tspan class="a695a610-2e61-4455-b8f1-9476d36c3a3f" x="108.6846" y="0"> </tspan><tspan x="110.5046" y="0">los</tspan><tspan class="a695a610-2e61-4455-b8f1-9476d36c3a3f" x="121.8235" y="0"> </tspan><tspan x="123.6434" y="0">que</tspan><tspan class="bfd8e827-e0c5-4b16-a765-89b43cf84177" x="138.702" y="0"> </tspan><tspan x="140.5229" y="0">tiene</tspan><tspan class="a695a610-2e61-4455-b8f1-9476d36c3a3f" x="160.7868" y="0"> </tspan><tspan x="162.6068" y="0">a</tspan><tspan class="b8d7e4b5-6e1a-42d8-b33e-841beffb5194" x="167.7483" y="0">c</tspan><tspan class="b2b58e68-f351-4720-92ba-891d15667c85" x="171.8201" y="0">c</tspan><tspan x="175.917" y="0">eso</tspan><tspan class="a695a610-2e61-4455-b8f1-9476d36c3a3f" x="189.716" y="0"> </tspan><tspan x="191.536" y="0">prohibido</tspan><tspan class="bfd8e827-e0c5-4b16-a765-89b43cf84177" x="230.3842" y="0"> </tspan><tspan x="232.2051" y="0">se </tspan><tspan x="0" y="12">ide</tspan><tspan class="b3c44436-b04f-40ac-8cbf-ff311fdd1bf5" x="12.2124" y="12">n</tspan><tspan x="17.2561" y="12">tifi</tspan><tspan class="b2b58e68-f351-4720-92ba-891d15667c85" x="28.1199" y="12">c</tspan><tspan x="32.2168" y="12">arán</tspan><tspan class="b031b361-40e4-43a4-8bfa-37595a9303b8" x="51.0692" y="12"> </tspan><tspan x="55.8516" y="12">por</tspan><tspan class="af32abbf-196b-43e0-93f5-660adbf5d8e1" x="69.5528" y="12"> </tspan><tspan x="74.3342" y="12">una</tspan><tspan class="b031b361-40e4-43a4-8bfa-37595a9303b8" x="89.7586" y="12"> </tspan><tspan x="94.541" y="12">banda</tspan><tspan class="af32abbf-196b-43e0-93f5-660adbf5d8e1" x="120.2484" y="12"> </tspan><tspan x="125.0297" y="12">roja</tspan><tspan class="b031b361-40e4-43a4-8bfa-37595a9303b8" x="141.1231" y="12"> </tspan><tspan x="145.9055" y="12">situada</tspan><tspan class="af32abbf-196b-43e0-93f5-660adbf5d8e1" x="176.008" y="12"> </tspan><tspan x="180.7893" y="12">en</tspan><tspan class="b031b361-40e4-43a4-8bfa-37595a9303b8" x="190.7064" y="12"> </tspan><tspan x="195.4887" y="12">el</tspan><tspan class="af32abbf-196b-43e0-93f5-660adbf5d8e1" x="202.5596" y="12"> </tspan><tspan class="b151b930-090b-405b-b6a4-780c446b442c" x="207.3409" y="12">e</tspan><tspan class="ba9f319a-03c6-4033-bc55-19cb3acab8ee" x="211.9112" y="12">x</tspan><tspan x="216.2715" y="12">tremo </tspan><tspan x="0" y="24">in</tspan><tspan class="fa7e485e-6fe5-4966-8a9d-7097c52f9275" x="7.4368" y="24">f</tspan><tspan x="10.3323" y="24">erio</tspan><tspan class="b8ee933f-9e3e-4ed0-a22f-6f25d8fc72f7" x="25.963" y="24">r</tspan><tspan x="28.57" y="24">.</tspan><tspan class="ff8ace7f-1e3f-4d87-a192-36cf2d2d1a92" x="31.0948" y="24"> </tspan><tspan x="35.7184" y="24">El</tspan><tspan class="bd4af44c-6d53-4408-af58-15cbc31c8465" x="42.8967" y="24"> </tspan><tspan class="aa9557ec-42b7-40fe-a426-bf7e163e2282" x="47.5193" y="24">c</tspan><tspan x="51.5968" y="24">ompor</tspan><tspan class="f72dce8b-7a74-4c8f-b25e-5f8993843256" x="78.3401" y="24">t</tspan><tspan x="81.5522" y="24">amie</tspan><tspan class="b3c44436-b04f-40ac-8cbf-ff311fdd1bf5" x="101.6748" y="24">n</tspan><tspan class="bca0f192-2f4e-4916-8d0e-7e5c9a6a27e0" x="106.7185" y="24">t</tspan><tspan x="109.9461" y="24">o</tspan><tspan class="ff8ace7f-1e3f-4d87-a192-36cf2d2d1a92" x="115.0779" y="24"> </tspan><tspan x="119.7014" y="24">visual</tspan><tspan class="bd4af44c-6d53-4408-af58-15cbc31c8465" x="142.9247" y="24"> </tspan><tspan x="147.5473" y="24">dura</tspan><tspan class="b3c44436-b04f-40ac-8cbf-ff311fdd1bf5" x="166.3998" y="24">n</tspan><tspan class="ee092aab-e47c-467c-a796-bfe9d320d370" x="171.4435" y="24">t</tspan><tspan x="174.6865" y="24">e</tspan><tspan class="ff8ace7f-1e3f-4d87-a192-36cf2d2d1a92" x="179.4621" y="24"> </tspan><tspan x="184.0857" y="24">la</tspan><tspan class="bd4af44c-6d53-4408-af58-15cbc31c8465" x="191.5225" y="24"> </tspan><tspan x="196.1451" y="24">i</tspan><tspan class="b3c44436-b04f-40ac-8cbf-ff311fdd1bf5" x="198.4404" y="24">n</tspan><tspan class="bcd045b0-d676-4861-80a4-fed104fcbd25" x="203.4841" y="24">t</tspan><tspan x="206.7262" y="24">era</tspan><tspan class="b8d7e4b5-6e1a-42d8-b33e-841beffb5194" x="220.0712" y="24">c</tspan><tspan x="224.143" y="24">ción </tspan><tspan x="0" y="36">será el descri</tspan><tspan class="bca0f192-2f4e-4916-8d0e-7e5c9a6a27e0" x="52.5204" y="36">t</tspan><tspan x="55.748" y="36">o a </tspan><tspan class="ef67eae5-1f37-4f1b-bf5e-3f5e3375d282" x="70.5422" y="36">c</tspan><tspan x="74.6188" y="36">o</tspan><tspan class="b3c44436-b04f-40ac-8cbf-ff311fdd1bf5" x="79.7506" y="36">n</tspan><tspan x="84.7943" y="36">tinuación:</tspan></text><text class="b9af48a3-2d0e-4a72-be30-913e5254d36a" transform="translate(692.4518 241.9908) scale(1.0088 1)"><tspan class="b19b786d-ba26-4b39-88cb-1be887789357">B</tspan><tspan x="6.3632" y="0">tn A</tspan><tspan class="b062e688-8def-40bb-9cc7-3cf9f1f0c76b" x="26.2089" y="0">c</tspan><tspan class="a7be720c-c019-49bb-bf72-f034f1bfa3bb" x="31.0958" y="0">c</tspan><tspan x="36.0117" y="0">eso Inacti</tspan><tspan class="b2149a66-b4f5-4016-8e28-72ab5d49e43b" x="82.3238" y="0">v</tspan><tspan x="87.6211" y="0">o</tspan></text><text class="a21aef39-abb3-474f-a42a-6ae6f5a67f69" transform="translate(124.6211 315.5164) scale(1.0088 1)">S<tspan class="ade208d1-1106-46a3-bf9f-9712071bd27a" x="4.0688" y="0">t</tspan><tspan x="6.9605" y="0">and</tspan><tspan class="ade208d1-1106-46a3-bf9f-9712071bd27a" x="20.8428" y="0">B</tspan><tspan x="25.6155" y="0">y</tspan></text><text class="a21aef39-abb3-474f-a42a-6ae6f5a67f69" transform="translate(124.6211 343.4642) scale(1.0088 1)">onMouseOver</text><text class="a21aef39-abb3-474f-a42a-6ae6f5a67f69" transform="translate(124.6209 353.6111) scale(1.0088 1)">onMouseClick</text><polyline class="a3cf4e9f-8ec6-4c1c-bcf3-d7baf126d10f" points="383.629 181.207 342.043 110.649 342.043 128.365"/><path class="ef0359fa-af1d-4e35-a652-d3e47b0a43e0" d="M385.2483,180.2525a1.88,1.88,0,1,1-2.574-.6649A1.88,1.88,0,0,1,385.2483,180.2525Z"/><path class="e5c02613-a59c-41b6-aafa-ccb06b5cb107" d="M385.4639,180.1255a2.13,2.13,0,1,0-.7534,2.9164,2.1327,2.1327,0,0,0,.7534-2.9164C384.8675,179.1139,386.06,181.1373,385.4639,180.1255Zm-3.239,1.9091a1.63,1.63,0,1,1,2.2317.5765,1.6313,1.6313,0,0,1-2.2317-.5765C381.7683,181.26,382.6812,182.8091,382.2249,182.0346Z"/><text class="f5323deb-dcf0-4cb3-8be8-4fa569d41c7b" transform="translate(244.8033 90.006) scale(1.0088 1)">12 <tspan class="b2149a66-b4f5-4016-8e28-72ab5d49e43b" x="12.3973" y="0">p</tspan><tspan x="17.4952" y="0">t</tspan></text><text class="f5323deb-dcf0-4cb3-8be8-4fa569d41c7b" transform="translate(271.2515 102.23) scale(1.0088 1)">Calibri Lig<tspan class="af2816fc-fb7d-4326-87af-4bacac25f895" x="39.7214" y="0">h</tspan><tspan x="44.7656" y="0">t</tspan></text><rect class="e5aad7e2-48c7-4df8-b139-7f26f32993ff" x="274.8976" y="82.6801" width="15.8418" height="2.3301"/><rect class="e5aad7e2-48c7-4df8-b139-7f26f32993ff" x="277.6935" y="85.9418" width="10.25" height="2.3301"/><rect class="e5aad7e2-48c7-4df8-b139-7f26f32993ff" x="279.5573" y="89.2025" width="6.5225" height="2.3301"/><path class="fa6a3abf-b54b-4632-9faa-12b565972169" d="M256.925,102.8852l-.0086.2285h-3.707l.0281-.2285a2.1772,2.1772,0,0,0,.7133-.0879.6122.6122,0,0,0,.35-.29,2.9156,2.9156,0,0,0,.1566-1.04l.1338-5.0645a3.346,3.346,0,0,0-.0707-.9531.5863.5863,0,0,0-.1641-.2724.7588.7588,0,0,0-.3111-.1709,2.8026,2.8026,0,0,0-.7041-.0586l.0153-.2286h3.4805l-.0075.2286a1.3834,1.3834,0,0,0-.6063.0869.6588.6588,0,0,0-.3552.3525,3.6866,3.6866,0,0,0-.1147,1.0156l-.126,5.0645a3.98,3.98,0,0,0,.0394.8906.5765.5765,0,0,0,.1567.2637.77.77,0,0,0,.3142.168A4.5,4.5,0,0,0,256.925,102.8852Z"/><rect class="a3cf4e9f-8ec6-4c1c-bcf3-d7baf126d10f" x="269.3066" y="80.4887" width="28.2637" height="13.0381"/><text class="f5323deb-dcf0-4cb3-8be8-4fa569d41c7b" transform="translate(297.5701 120.3455) scale(1.0088 1)">#026838</text><rect class="a3cf4e9f-8ec6-4c1c-bcf3-d7baf126d10f" x="241.4596" y="104.3891" width="47.9524" height="23.9762"/><rect class="bd0e0082-355d-4637-a0d3-7ae9f0ebb0ed" x="241.6128" y="104.8948" width="47.3005" height="22.9565"/><rect class="a3cf4e9f-8ec6-4c1c-bcf3-d7baf126d10f" x="241.041" y="80.4887" width="28.2656" height="13.0381"/><rect class="a3cf4e9f-8ec6-4c1c-bcf3-d7baf126d10f" x="297.5703" y="80.4887" width="27.5078" height="13.0381"/><rect class="a3cf4e9f-8ec6-4c1c-bcf3-d7baf126d10f" x="241.041" y="93.4399" width="28.2656" height="10.9492"/><rect class="a3cf4e9f-8ec6-4c1c-bcf3-d7baf126d10f" x="269.3066" y="93.4399" width="72.7359" height="10.9492"/><rect class="a3cf4e9f-8ec6-4c1c-bcf3-d7baf126d10f" x="241.041" y="104.3891" width="101.0015" height="23.9762"/><rect class="e5aad7e2-48c7-4df8-b139-7f26f32993ff" x="307.9931" y="82.6078" width="6.7256" height="2.3301"/><rect class="e5aad7e2-48c7-4df8-b139-7f26f32993ff" x="303.4726" y="85.8695" width="15.7657" height="2.3301"/><rect class="e5aad7e2-48c7-4df8-b139-7f26f32993ff" x="308.0937" y="89.1303" width="6.5235" height="2.3301"/><text class="f5323deb-dcf0-4cb3-8be8-4fa569d41c7b" transform="translate(72.7425 138.7652) scale(1.0088 1)">11 <tspan class="b2149a66-b4f5-4016-8e28-72ab5d49e43b" x="12.3973" y="0">p</tspan><tspan x="17.4952" y="0">t</tspan></text><text class="f5323deb-dcf0-4cb3-8be8-4fa569d41c7b" transform="translate(99.1907 150.9892) scale(1.0088 1)">Calibri Lig<tspan class="af2816fc-fb7d-4326-87af-4bacac25f895" x="39.7214" y="0">h</tspan><tspan x="44.7656" y="0">t</tspan></text><rect class="e5aad7e2-48c7-4df8-b139-7f26f32993ff" x="102.8368" y="131.4392" width="15.8418" height="2.3301"/><rect class="e5aad7e2-48c7-4df8-b139-7f26f32993ff" x="102.8368" y="134.7009" width="10.25" height="2.3301"/><rect class="e5aad7e2-48c7-4df8-b139-7f26f32993ff" x="102.8368" y="137.9616" width="6.5225" height="2.3301"/><path class="fa6a3abf-b54b-4632-9faa-12b565972169" d="M84.8641,151.6443l-.0086.2285h-3.707l.0281-.2285a2.1772,2.1772,0,0,0,.7133-.0879.6122.6122,0,0,0,.35-.29,2.9174,2.9174,0,0,0,.1567-1.04l.1337-5.0645a3.3423,3.3423,0,0,0-.0707-.9531.5863.5863,0,0,0-.1641-.2724.7582.7582,0,0,0-.3111-.1709,2.8026,2.8026,0,0,0-.7041-.0586l.0154-.2286h3.4805l-.0076.2286a1.3834,1.3834,0,0,0-.6063.0869.6583.6583,0,0,0-.3551.3525,3.6811,3.6811,0,0,0-.1148,1.0156l-.1259,5.0645a3.976,3.976,0,0,0,.0393.8906.5765.5765,0,0,0,.1567.2637.77.77,0,0,0,.3142.168A4.5,4.5,0,0,0,84.8641,151.6443Z"/><rect class="a3cf4e9f-8ec6-4c1c-bcf3-d7baf126d10f" x="97.2457" y="129.2478" width="28.2637" height="13.0381"/><text class="f5323deb-dcf0-4cb3-8be8-4fa569d41c7b" transform="translate(125.5092 169.1047) scale(1.0088 1)">#026838</text><rect class="a3cf4e9f-8ec6-4c1c-bcf3-d7baf126d10f" x="69.3988" y="153.1482" width="47.9524" height="23.9762"/><rect class="bd0e0082-355d-4637-a0d3-7ae9f0ebb0ed" x="69.5519" y="153.654" width="47.3005" height="22.9565"/><rect class="a3cf4e9f-8ec6-4c1c-bcf3-d7baf126d10f" x="68.9801" y="129.2478" width="28.2656" height="13.0381"/><rect class="a3cf4e9f-8ec6-4c1c-bcf3-d7baf126d10f" x="125.5094" y="129.2478" width="27.5078" height="13.0381"/><rect class="a3cf4e9f-8ec6-4c1c-bcf3-d7baf126d10f" x="68.9801" y="142.199" width="28.2656" height="10.9492"/><rect class="a3cf4e9f-8ec6-4c1c-bcf3-d7baf126d10f" x="97.2457" y="142.199" width="72.7359" height="10.9492"/><rect class="a3cf4e9f-8ec6-4c1c-bcf3-d7baf126d10f" x="68.9801" y="153.1482" width="101.0015" height="23.9762"/><rect class="e5aad7e2-48c7-4df8-b139-7f26f32993ff" x="135.9322" y="131.3669" width="6.7256" height="2.3301"/><rect class="e5aad7e2-48c7-4df8-b139-7f26f32993ff" x="131.4117" y="134.6286" width="15.7657" height="2.3301"/><rect class="e5aad7e2-48c7-4df8-b139-7f26f32993ff" x="136.0328" y="137.8894" width="6.5235" height="2.3301"/><polygon class="ef0359fa-af1d-4e35-a652-d3e47b0a43e0" points="89.36 351.504 99.716 355.868 96.251 357.484 99.584 360.817 98.618 361.785 95.337 358.505 93.704 361.914 89.36 351.504"/><path d="M89.5931,351.7376l9.8147,4.1366-3.3718,1.5717,3.3718,3.3716-.79.7905-3.3159-3.3157-1.59,3.3157-4.1187-9.87m-.466-.4678.2353.5641,4.1187,9.87.2148.515.2412-.5033,1.437-2.9973,3.0664,3.066.1768.1768.1768-.1768.79-.7905.1767-.1767-.1767-.1768-3.1194-3.1191,3.0483-1.4208.5108-.2381-.5193-.2188L89.69,351.5073l-.5632-.2375Z"/><line class="e3f4a339-5a7f-46ff-ab1a-12bf0d22e241" x1="121.4742" y1="312.7007" x2="99.4077" y2="312.7007"/><text class="a21aef39-abb3-474f-a42a-6ae6f5a67f69" transform="translate(124.6211 379.3344) scale(1.0088 1)">Inacti<tspan class="f2967d67-92dd-4e37-b2bd-13b006e4585d" x="20.2804" y="0">v</tspan><tspan x="24.2534" y="0">o</tspan></text><line class="e3f4a339-5a7f-46ff-ab1a-12bf0d22e241" x1="121.4742" y1="376.5187" x2="99.4077" y2="376.5187"/><line class="e3f4a339-5a7f-46ff-ab1a-12bf0d22e241" x1="115.3059" y1="347.2235" x2="99.4077" y2="347.2235"/><polyline class="e3f4a339-5a7f-46ff-ab1a-12bf0d22e241" points="121.474 341.745 115.306 341.745 115.306 351.738 121.474 351.738"/><text class="a21aef39-abb3-474f-a42a-6ae6f5a67f69" transform="translate(370.8491 607.2944) scale(1.0088 1)">S<tspan class="ade208d1-1106-46a3-bf9f-9712071bd27a" x="4.0688" y="0">t</tspan><tspan x="6.9605" y="0">and</tspan><tspan class="ade208d1-1106-46a3-bf9f-9712071bd27a" x="20.8428" y="0">B</tspan><tspan x="25.6155" y="0">y</tspan></text><text class="a21aef39-abb3-474f-a42a-6ae6f5a67f69" transform="translate(348.8706 635.2421) scale(1.0088 1)">onMouseOver</text><text class="a21aef39-abb3-474f-a42a-6ae6f5a67f69" transform="translate(349.6516 645.389) scale(1.0088 1)">onMouseClick</text><line class="e3f4a339-5a7f-46ff-ab1a-12bf0d22e241" x1="407.2118" y1="604.4786" x2="429.2782" y2="604.4786"/><text class="a21aef39-abb3-474f-a42a-6ae6f5a67f69" transform="translate(597.7631 607.2944) scale(1.0088 1)">S<tspan class="ade208d1-1106-46a3-bf9f-9712071bd27a" x="4.0688" y="0">t</tspan><tspan x="6.9605" y="0">and</tspan><tspan class="ade208d1-1106-46a3-bf9f-9712071bd27a" x="20.8428" y="0">B</tspan><tspan x="25.6155" y="0">y</tspan></text><text class="af425dd6-6820-43b4-879c-951577227f30" transform="translate(597.7631 618.4745) scale(1.0088 1)"><tspan class="b8740523-f930-42c5-81d1-041f03374565">E</tspan><tspan x="3.2915" y="0">do. del </tspan><tspan class="b1a3bef3-f576-4878-b0a4-e236f1ee2e52" x="23.9629" y="0">B</tspan><tspan x="27.6755" y="0">tn en </tspan><tspan class="a4b0b453-5d5d-4d50-b56b-6a70059c7916" x="43.7263" y="0">c</tspan><tspan x="46.5938" y="0">aso de e</tspan><tspan class="a9427c45-3bb5-4cb4-8831-e04cdcbafdce" x="69.9585" y="0">s</tspan><tspan class="e66c564d-feb6-49ac-ba17-dcc0889bddd9" x="72.6042" y="0">t</tspan><tspan x="74.8531" y="0">ar re</tspan><tspan class="a9427c45-3bb5-4cb4-8831-e04cdcbafdce" x="88.1768" y="0">s</tspan><tspan x="90.8226" y="0">tingido </tspan><tspan x="0" y="8.4004">el a</tspan><tspan class="a6332a10-866e-4d7a-9e67-8cfe55f48a0f" x="10.131" y="8.4004">c</tspan><tspan class="fc8aaf8f-0ecc-476d-b94e-43c686840a65" x="12.981" y="8.4004">c</tspan><tspan x="15.8494" y="8.4004">eso del usuario a “Configuración”</tspan></text><line class="e3f4a339-5a7f-46ff-ab1a-12bf0d22e241" x1="569.6328" y1="604.4786" x2="591.6993" y2="604.4786"/><text class="a21aef39-abb3-474f-a42a-6ae6f5a67f69" transform="translate(371.6949 671.1124) scale(1.0088 1)">Inacti<tspan class="f2967d67-92dd-4e37-b2bd-13b006e4585d" x="20.2804" y="0">v</tspan><tspan x="24.2534" y="0">o</tspan></text><line class="e3f4a339-5a7f-46ff-ab1a-12bf0d22e241" x1="407.2118" y1="668.2966" x2="429.2782" y2="668.2966"/><line class="e3f4a339-5a7f-46ff-ab1a-12bf0d22e241" x1="413.38" y1="639.0014" x2="429.2782" y2="639.0014"/><polyline class="e3f4a339-5a7f-46ff-ab1a-12bf0d22e241" points="407.212 633.523 413.38 633.523 413.38 643.515 407.212 643.515"/><text class="a21aef39-abb3-474f-a42a-6ae6f5a67f69" transform="translate(845.0384 315.2683) scale(1.0088 1)">S<tspan class="ade208d1-1106-46a3-bf9f-9712071bd27a" x="4.0688" y="0">t</tspan><tspan x="6.9605" y="0">and</tspan><tspan class="ade208d1-1106-46a3-bf9f-9712071bd27a" x="20.8428" y="0">B</tspan><tspan x="25.6155" y="0">y</tspan></text><text class="a21aef39-abb3-474f-a42a-6ae6f5a67f69" transform="translate(823.0599 343.2161) scale(1.0088 1)">onMouseOver</text><text class="a21aef39-abb3-474f-a42a-6ae6f5a67f69" transform="translate(823.8409 353.3629) scale(1.0088 1)">onMouseClick</text><line class="e3f4a339-5a7f-46ff-ab1a-12bf0d22e241" x1="881.401" y1="312.4525" x2="903.4674" y2="312.4525"/><text class="a21aef39-abb3-474f-a42a-6ae6f5a67f69" transform="translate(845.8841 379.0863) scale(1.0088 1)">Inacti<tspan class="f2967d67-92dd-4e37-b2bd-13b006e4585d" x="20.2804" y="0">v</tspan><tspan x="24.2534" y="0">o</tspan></text><line class="e3f4a339-5a7f-46ff-ab1a-12bf0d22e241" x1="881.401" y1="376.2705" x2="903.4674" y2="376.2705"/><line class="e3f4a339-5a7f-46ff-ab1a-12bf0d22e241" x1="887.5692" y1="346.9753" x2="903.4674" y2="346.9753"/><polyline class="e3f4a339-5a7f-46ff-ab1a-12bf0d22e241" points="881.401 341.497 887.569 341.497 887.569 351.489 881.401 351.489"/><rect class="b196c353-585a-4106-afde-12e093090187" x="910.8859" y="364.7093" width="23.724" height="23.724"/><path class="f981231a-0b08-4466-a441-ae1d3f0f0626" d="M926.3243,382.0381h-9.5165a.3781.3781,0,1,0,0,.756h9.5165a.3781.3781,0,1,0,0-.756Z"/><path class="f981231a-0b08-4466-a441-ae1d3f0f0626" d="M930.3552,378.937l-2.055-3.8476a1.4406,1.4406,0,0,1-.17-.6763v-1.2837a.3846.3846,0,0,0-.7691,0v1.2837a2.19,2.19,0,0,0,.2577,1.0278l2.055,3.8478a.8047.8047,0,0,1,.0951.3786.8236.8236,0,0,1-.83.8155h-.9427a.8236.8236,0,0,1-.83-.8155V372.278h-1.1185a.3864.3864,0,0,0-.1658.0383v-2.1678a1.5828,1.5828,0,0,0-1.5943-1.5672h-5.3314a1.5827,1.5827,0,0,0-1.5942,1.5672v11.4284h8.52v-8.5812a.3865.3865,0,0,0,.1658.0384h.3493v6.6332a1.5871,1.5871,0,0,0,1.5987,1.5716h.9427a1.5871,1.5871,0,0,0,1.5987-1.5716A1.5534,1.5534,0,0,0,930.3552,378.937Zm-6.1459-5.7322a.9659.9659,0,0,1-.973.9564h-3.3406a.966.966,0,0,1-.973-.9564v-2.0174a.966.966,0,0,1,.973-.9565h3.3406a.966.966,0,0,1,.973.9565Z"/><path class="f981231a-0b08-4466-a441-ae1d3f0f0626" d="M927.179,371.4161a.6038.6038,0,0,1,.1825.4331v.4688a.3847.3847,0,0,0,.7692,0v-.4688a1.348,1.348,0,0,0-.4079-.9677l-1.0786-1.06a.3891.3891,0,0,0-.5438,0,.3732.3732,0,0,0,0,.5345Z"/><path class="f981231a-0b08-4466-a441-ae1d3f0f0626" d="M919.8957,370.987h3.3406a.2039.2039,0,0,1,.2039.2039v2.0139a.2.2,0,0,1-.2.2h-3.3441a.2039.2039,0,0,1-.2039-.2039v-2.01A.2039.2039,0,0,1,919.8957,370.987Z"/><rect class="bd0e0082-355d-4637-a0d3-7ae9f0ebb0ed" x="911.709" y="332.9488" width="23.724" height="23.724"/><rect class="f52d1990-74f2-4a69-bb19-ec3b8369b41d" x="911.709" y="354.9594" width="23.724" height="1.7134"/><path class="f52d1990-74f2-4a69-bb19-ec3b8369b41d" d="M927.1475,350.2775H917.631a.3781.3781,0,1,0,0,.756h9.5165a.3781.3781,0,1,0,0-.756Z"/><path class="f52d1990-74f2-4a69-bb19-ec3b8369b41d" d="M931.1783,347.1764l-2.0549-3.8476a1.4394,1.4394,0,0,1-.17-.6763v-1.2836a.3847.3847,0,0,0-.7692,0v1.2836a2.1907,2.1907,0,0,0,.2577,1.0278l2.0551,3.8478a.8047.8047,0,0,1,.0951.3786.8237.8237,0,0,1-.8295.8156H928.82a.8237.8237,0,0,1-.83-.8156v-7.3893h-1.1184a.3861.3861,0,0,0-.1658.0383v-2.1678a1.5827,1.5827,0,0,0-1.5943-1.5671h-5.3315a1.5826,1.5826,0,0,0-1.5941,1.5671v11.4284h8.52v-8.5811a.3861.3861,0,0,0,.1658.0383h.3492v6.6332a1.5871,1.5871,0,0,0,1.5988,1.5716h.9427a1.5871,1.5871,0,0,0,1.5987-1.5716A1.5535,1.5535,0,0,0,931.1783,347.1764Zm-6.1459-5.7322a.9659.9659,0,0,1-.973.9564h-3.3406a.966.966,0,0,1-.973-.9564v-2.0174a.966.966,0,0,1,.973-.9565h3.3406a.966.966,0,0,1,.973.9565Z"/><path class="f52d1990-74f2-4a69-bb19-ec3b8369b41d" d="M928.0021,339.6555a.6035.6035,0,0,1,.1826.4331v.4688a.3846.3846,0,0,0,.7691,0v-.4688a1.3472,1.3472,0,0,0-.4079-.9676l-1.0786-1.06a.3891.3891,0,0,0-.5438,0,.3733.3733,0,0,0,0,.5345Z"/><path class="f52d1990-74f2-4a69-bb19-ec3b8369b41d" d="M920.7154,339.2264h3.3441a.2039.2039,0,0,1,.2039.2039v2.0139a.2.2,0,0,1-.2.2h-3.3441a.2039.2039,0,0,1-.2039-.2039v-2.0139A.2.2,0,0,1,920.7154,339.2264Z"/><rect class="bd0e0082-355d-4637-a0d3-7ae9f0ebb0ed" x="911.709" y="300.9642" width="23.724" height="23.724"/><rect class="f52d1990-74f2-4a69-bb19-ec3b8369b41d" x="911.709" y="322.9749" width="23.724" height="1.7134"/><path class="ef0359fa-af1d-4e35-a652-d3e47b0a43e0" d="M927.1475,318.2929H917.631a.3781.3781,0,1,0,0,.7561h9.5165a.3781.3781,0,1,0,0-.7561Z"/><path class="ef0359fa-af1d-4e35-a652-d3e47b0a43e0" d="M931.1783,315.1918l-2.0549-3.8475a1.44,1.44,0,0,1-.17-.6763v-1.2837a.3847.3847,0,0,0-.7692,0v1.2837a2.19,2.19,0,0,0,.2577,1.0277l2.0551,3.8479a.8047.8047,0,0,1,.0951.3786.8236.8236,0,0,1-.8295.8155H928.82a.8236.8236,0,0,1-.83-.8155v-7.3893h-1.1184a.3861.3861,0,0,0-.1658.0383v-2.1678a1.5828,1.5828,0,0,0-1.5943-1.5672h-5.3315a1.5827,1.5827,0,0,0-1.5941,1.5672v11.4284h8.52v-8.5812a.3861.3861,0,0,0,.1658.0383h.3492v6.6333a1.5872,1.5872,0,0,0,1.5988,1.5716h.9427a1.5871,1.5871,0,0,0,1.5987-1.5716A1.5542,1.5542,0,0,0,931.1783,315.1918Zm-6.1459-5.7322a.966.966,0,0,1-.973.9565h-3.3406a.9661.9661,0,0,1-.973-.9565v-2.0174a.966.966,0,0,1,.973-.9564h3.3406a.9659.9659,0,0,1,.973.9564Z"/><path class="ef0359fa-af1d-4e35-a652-d3e47b0a43e0" d="M928.0021,307.671a.6034.6034,0,0,1,.1826.4331v.4688a.3846.3846,0,0,0,.7691,0v-.4688a1.3475,1.3475,0,0,0-.4079-.9677l-1.0786-1.06a.3893.3893,0,0,0-.5438,0,.3735.3735,0,0,0,0,.5346Z"/><path class="ef0359fa-af1d-4e35-a652-d3e47b0a43e0" d="M920.7154,307.2418h3.3441a.2039.2039,0,0,1,.2039.2039V309.46a.2.2,0,0,1-.2.2h-3.3441a.2039.2039,0,0,1-.2039-.2039v-2.0139A.2.2,0,0,1,920.7154,307.2418Z"/><polygon class="ef0359fa-af1d-4e35-a652-d3e47b0a43e0" points="931.128 351.504 941.485 355.868 938.019 357.483 941.353 360.817 940.385 361.785 937.106 358.505 935.472 361.914 931.128 351.504"/><path d="M931.3616,351.7376l9.8147,4.1366-3.3718,1.5717,3.3718,3.3715-.79.7907-3.3159-3.3158-1.5894,3.3158-4.1189-9.87m-.4661-.4678.2354.5641,4.1189,9.87.2148.515.2412-.5033,1.4368-2.9974,3.0664,3.0661.1768.1768.1767-.1768.7906-.7906.1767-.1768-.1767-.1767-3.1194-3.1192,3.0483-1.4207.5108-.2381-.5193-.2189-9.8147-4.1365-.5633-.2375Z"/><polyline class="e3f4a339-5a7f-46ff-ab1a-12bf0d22e241" points="319.364 671.806 319.364 583.841 723.301 583.841 723.301 671.806"/><line class="e3f4a339-5a7f-46ff-ab1a-12bf0d22e241" x1="510.2251" y1="583.8406" x2="510.2251" y2="577.207"/><line class="ea888628-e4fb-4351-9def-c117fe2662a3" x1="358.8463" y1="255.1181" x2="346.5482" y2="255.1181"/><line class="ea888628-e4fb-4351-9def-c117fe2662a3" x1="358.8463" y1="286.8965" x2="346.5482" y2="286.8965"/><line class="ea888628-e4fb-4351-9def-c117fe2662a3" x1="358.8463" y1="297.6329" x2="346.5482" y2="297.6329"/><line class="ea888628-e4fb-4351-9def-c117fe2662a3" x1="358.8463" y1="276.3583" x2="327.3556" y2="276.3583"/><line class="ea888628-e4fb-4351-9def-c117fe2662a3" x1="358.8463" y1="191.3583" x2="327.3556" y2="191.3583"/><line class="ea888628-e4fb-4351-9def-c117fe2662a3" x1="349.7903" y1="286.8965" x2="349.7903" y2="297.633"/><path class="ef0359fa-af1d-4e35-a652-d3e47b0a43e0" d="M348.85,286.8965a.94.94,0,1,1,.94.94A.94.94,0,0,1,348.85,286.8965Z"/><path class="e5c02613-a59c-41b6-aafa-ccb06b5cb107" d="M348.7254,286.8965a1.065,1.065,0,1,0,1.0649-1.065,1.0662,1.0662,0,0,0-1.0649,1.065Zm1.88,0a.815.815,0,1,1-.815-.815.8158.8158,0,0,1,.815.815Z"/><circle class="ef0359fa-af1d-4e35-a652-d3e47b0a43e0" cx="349.7903" cy="297.633" r="0.9399"/><path class="e5c02613-a59c-41b6-aafa-ccb06b5cb107" d="M348.7254,297.633a1.065,1.065,0,1,1,1.0649,1.0649,1.0662,1.0662,0,0,1-1.0649-1.0649Zm1.88,0a.815.815,0,1,0-.815.8149.8158.8158,0,0,0,.815-.8149Z"/><line class="ea888628-e4fb-4351-9def-c117fe2662a3" x1="349.7903" y1="255.1181" x2="349.7903" y2="276.3583"/><circle class="ef0359fa-af1d-4e35-a652-d3e47b0a43e0" cx="349.7903" cy="255.1181" r="0.9399"/><path class="e5c02613-a59c-41b6-aafa-ccb06b5cb107" d="M348.7254,255.1181a1.065,1.065,0,1,0,1.0649-1.0649,1.0662,1.0662,0,0,0-1.0649,1.0649Zm1.88,0a.815.815,0,1,1-.815-.8149.8157.8157,0,0,1,.815.8149Z"/><circle class="ef0359fa-af1d-4e35-a652-d3e47b0a43e0" cx="349.7903" cy="276.3583" r="0.9399"/><path class="e5c02613-a59c-41b6-aafa-ccb06b5cb107" d="M348.7254,276.3583a1.065,1.065,0,1,1,1.0649,1.065,1.0662,1.0662,0,0,1-1.0649-1.065Zm1.88,0a.815.815,0,1,0-.815.815.8158.8158,0,0,0,.815-.815Z"/><line class="ea888628-e4fb-4351-9def-c117fe2662a3" x1="331.3098" y1="191.3583" x2="331.3098" y2="276.3583"/><path class="ef0359fa-af1d-4e35-a652-d3e47b0a43e0" d="M330.37,191.3583a.94.94,0,1,1,.94.94A.94.94,0,0,1,330.37,191.3583Z"/><path class="e5c02613-a59c-41b6-aafa-ccb06b5cb107" d="M330.2449,191.3583a1.065,1.065,0,1,0,1.0649-1.065,1.0661,1.0661,0,0,0-1.0649,1.065Zm1.88,0a.815.815,0,1,1-.815-.815.8157.8157,0,0,1,.815.815Z"/><circle class="ef0359fa-af1d-4e35-a652-d3e47b0a43e0" cx="331.3098" cy="276.3583" r="0.9399"/><path class="e5c02613-a59c-41b6-aafa-ccb06b5cb107" d="M330.2449,276.3583a1.065,1.065,0,1,1,1.0649,1.065,1.0662,1.0662,0,0,1-1.0649-1.065Zm1.88,0a.815.815,0,1,0-.815.815.8158.8158,0,0,0,.815-.815Z"/><text class="e3da1cdc-8e94-4416-b5c2-ab0fdbac89a6" transform="translate(345.5094 268.7618) rotate(-90)">a</text><line class="ea888628-e4fb-4351-9def-c117fe2662a3" x1="467.7066" y1="179.118" x2="467.7066" y2="166.8199"/><line class="ea888628-e4fb-4351-9def-c117fe2662a3" x1="446.4293" y1="179.118" x2="446.4293" y2="166.8199"/><line class="ea888628-e4fb-4351-9def-c117fe2662a3" x1="467.7067" y1="170.0621" x2="446.4664" y2="170.0621"/><circle class="ef0359fa-af1d-4e35-a652-d3e47b0a43e0" cx="467.7067" cy="170.0621" r="0.9399"/><path class="e5c02613-a59c-41b6-aafa-ccb06b5cb107" d="M467.7067,168.9972a1.065,1.065,0,1,0,1.0649,1.0649,1.0662,1.0662,0,0,0-1.0649-1.0649Zm0,1.88a.815.815,0,1,1,.8149-.815.8158.8158,0,0,1-.8149.815Z"/><circle class="ef0359fa-af1d-4e35-a652-d3e47b0a43e0" cx="446.4664" cy="170.0621" r="0.9399"/><path class="e5c02613-a59c-41b6-aafa-ccb06b5cb107" d="M446.4664,168.9972a1.065,1.065,0,1,1-1.0649,1.0649,1.0662,1.0662,0,0,1,1.0649-1.0649Zm0,1.88a.815.815,0,1,0-.8149-.815.8158.8158,0,0,0,.8149.815Z"/><text class="e3da1cdc-8e94-4416-b5c2-ab0fdbac89a6" transform="translate(454.0631 165.7812)">a</text><line class="ea888628-e4fb-4351-9def-c117fe2662a3" x1="574.0234" y1="179.118" x2="574.0234" y2="166.8199"/><line class="ea888628-e4fb-4351-9def-c117fe2662a3" x1="552.7462" y1="179.118" x2="552.7462" y2="166.8199"/><line class="ea888628-e4fb-4351-9def-c117fe2662a3" x1="574.0235" y1="170.0621" x2="552.7833" y2="170.0621"/><circle class="ef0359fa-af1d-4e35-a652-d3e47b0a43e0" cx="574.0235" cy="170.0621" r="0.9399"/><path class="e5c02613-a59c-41b6-aafa-ccb06b5cb107" d="M574.0235,168.9972a1.065,1.065,0,1,0,1.065,1.0649,1.0662,1.0662,0,0,0-1.065-1.0649Zm0,1.88a.815.815,0,1,1,.815-.815.8158.8158,0,0,1-.815.815Z"/><circle class="ef0359fa-af1d-4e35-a652-d3e47b0a43e0" cx="552.7833" cy="170.0621" r="0.9399"/><path class="e5c02613-a59c-41b6-aafa-ccb06b5cb107" d="M552.7833,168.9972a1.065,1.065,0,1,1-1.0649,1.0649,1.0662,1.0662,0,0,1,1.0649-1.0649Zm0,1.88a.815.815,0,1,0-.8149-.815.8157.8157,0,0,0,.8149.815Z"/><text class="e3da1cdc-8e94-4416-b5c2-ab0fdbac89a6" transform="translate(560.38 165.7812)">a</text><line class="ea888628-e4fb-4351-9def-c117fe2662a3" x1="666.978" y1="297.6329" x2="679.2761" y2="297.6329"/><line class="ea888628-e4fb-4351-9def-c117fe2662a3" x1="666.978" y1="276.3557" x2="679.2761" y2="276.3557"/><line class="ea888628-e4fb-4351-9def-c117fe2662a3" x1="676.034" y1="297.6329" x2="676.034" y2="276.3928"/><circle class="ef0359fa-af1d-4e35-a652-d3e47b0a43e0" cx="676.034" cy="297.6329" r="0.9399"/><path class="e5c02613-a59c-41b6-aafa-ccb06b5cb107" d="M677.0989,297.6329a1.065,1.065,0,1,0-1.0649,1.0649,1.0662,1.0662,0,0,0,1.0649-1.0649Zm-1.88,0a.815.815,0,1,1,.815.8149.8158.8158,0,0,1-.815-.8149Z"/><circle class="ef0359fa-af1d-4e35-a652-d3e47b0a43e0" cx="676.034" cy="276.3928" r="0.9399"/><path class="e5c02613-a59c-41b6-aafa-ccb06b5cb107" d="M677.0989,276.3928a1.065,1.065,0,1,1-1.0649-1.065,1.0662,1.0662,0,0,1,1.0649,1.065Zm-1.88,0a.815.815,0,1,0,.815-.815.8158.8158,0,0,0-.815.815Z"/><text class="e3da1cdc-8e94-4416-b5c2-ab0fdbac89a6" transform="translate(670.5106 291.2188) rotate(-90)">a</text><line class="ea888628-e4fb-4351-9def-c117fe2662a3" x1="666.978" y1="403.6933" x2="679.2761" y2="403.6933"/><line class="ea888628-e4fb-4351-9def-c117fe2662a3" x1="666.978" y1="382.4161" x2="679.2761" y2="382.4161"/><line class="ea888628-e4fb-4351-9def-c117fe2662a3" x1="676.034" y1="403.6933" x2="676.034" y2="382.4532"/><circle class="ef0359fa-af1d-4e35-a652-d3e47b0a43e0" cx="676.034" cy="403.6933" r="0.9399"/><path class="e5c02613-a59c-41b6-aafa-ccb06b5cb107" d="M677.0989,403.6933a1.065,1.065,0,1,0-1.0649,1.0649,1.0662,1.0662,0,0,0,1.0649-1.0649Zm-1.88,0a.815.815,0,1,1,.815.8149.8157.8157,0,0,1-.815-.8149Z"/><circle class="ef0359fa-af1d-4e35-a652-d3e47b0a43e0" cx="676.034" cy="382.4532" r="0.9399"/><path class="e5c02613-a59c-41b6-aafa-ccb06b5cb107" d="M677.0989,382.4532a1.065,1.065,0,1,1-1.0649-1.065,1.0662,1.0662,0,0,1,1.0649,1.065Zm-1.88,0a.815.815,0,1,0,.815-.815.8157.8157,0,0,0-.815.815Z"/><text class="e3da1cdc-8e94-4416-b5c2-ab0fdbac89a6" transform="translate(670.5106 397.2793) rotate(-90)">a</text><text class="e3da1cdc-8e94-4416-b5c2-ab0fdbac89a6" transform="translate(331.8395 325.3121) rotate(-90) scale(0.583)">1</text><text class="e3da1cdc-8e94-4416-b5c2-ab0fdbac89a6" transform="translate(335.8346 320.8258) rotate(-90)">/</text><text class="e3da1cdc-8e94-4416-b5c2-ab0fdbac89a6" transform="translate(335.8297 315.6812) rotate(-90) scale(0.583)">2</text><text class="e3da1cdc-8e94-4416-b5c2-ab0fdbac89a6" transform="translate(335.8346 311.1949) rotate(-90)"><tspan xml:space="preserve"> a</tspan></text><text class="e3da1cdc-8e94-4416-b5c2-ab0fdbac89a6" transform="translate(327.9193 220.0508) rotate(-90)">4a</text><polyline class="ea888628-e4fb-4351-9def-c117fe2662a3" points="338.685 325.312 338.685 293.665 349.652 290.623"/><line class="ea888628-e4fb-4351-9def-c117fe2662a3" x1="358.8463" y1="180.6259" x2="346.5482" y2="180.6259"/><line class="ea888628-e4fb-4351-9def-c117fe2662a3" x1="358.8463" y1="191.3623" x2="346.5482" y2="191.3623"/><line class="ea888628-e4fb-4351-9def-c117fe2662a3" x1="349.7903" y1="180.6259" x2="349.7903" y2="191.3624"/><path class="ef0359fa-af1d-4e35-a652-d3e47b0a43e0" d="M348.85,180.6259a.94.94,0,1,1,.94.94A.94.94,0,0,1,348.85,180.6259Z"/><path class="e5c02613-a59c-41b6-aafa-ccb06b5cb107" d="M348.7254,180.6259a1.065,1.065,0,1,0,1.0649-1.065,1.0661,1.0661,0,0,0-1.0649,1.065Zm1.88,0a.815.815,0,1,1-.815-.815.8157.8157,0,0,1,.815.815Z"/><circle class="ef0359fa-af1d-4e35-a652-d3e47b0a43e0" cx="349.7903" cy="191.3624" r="0.9399"/><path class="e5c02613-a59c-41b6-aafa-ccb06b5cb107" d="M348.7254,191.3624a1.065,1.065,0,1,1,1.0649,1.0649,1.0662,1.0662,0,0,1-1.0649-1.0649Zm1.88,0a.815.815,0,1,0-.815.8149.8158.8158,0,0,0,.815-.8149Z"/><text class="e3da1cdc-8e94-4416-b5c2-ab0fdbac89a6" transform="translate(331.8391 179.1182) rotate(-90) scale(0.583)">1</text><text class="e3da1cdc-8e94-4416-b5c2-ab0fdbac89a6" transform="translate(335.8342 174.6319) rotate(-90)">/</text><text class="e3da1cdc-8e94-4416-b5c2-ab0fdbac89a6" transform="translate(335.8293 169.4874) rotate(-90) scale(0.583)">2</text><text class="e3da1cdc-8e94-4416-b5c2-ab0fdbac89a6" transform="translate(335.8342 165.0011) rotate(-90)"><tspan xml:space="preserve"> a</tspan></text><polyline class="ea888628-e4fb-4351-9def-c117fe2662a3" points="338.685 153.017 338.685 178.546 349.652 184.353"/><polyline class="ea888628-e4fb-4351-9def-c117fe2662a3" points="54.933 93.257 29.289 93.257 23.413 104.354"/><text class="aef36d6a-8b22-40fb-8291-fcfb3ffa1c02" transform="translate(32.2252 57.005) scale(1.0088 1)">Desar<tspan class="b14b967b-1c2e-48ac-a07f-c5247c071384" x="25.3357" y="0">r</tspan><tspan x="28.9127" y="0">ollado por</tspan></text><text class="aef36d6a-8b22-40fb-8291-fcfb3ffa1c02" transform="translate(32.2252 77.987) scale(1.0088 1)">Ace<tspan class="a3d4ba68-b0a3-4c06-b8d8-174a2a596e03" x="16.3122" y="0">r</tspan><tspan class="a4bd4b74-5562-450f-b0d9-abe2fdaada08" x="19.9425" y="0">c</tspan><tspan x="24.5138" y="0">a de</tspan></text><rect class="bd0e0082-355d-4637-a0d3-7ae9f0ebb0ed" x="21.2598" y="47.8167" width="5.3056" height="10.6113"/><rect class="bd0e0082-355d-4637-a0d3-7ae9f0ebb0ed" x="21.2598" y="68.7983" width="5.3056" height="10.6113"/><line class="ea888628-e4fb-4351-9def-c117fe2662a3" x1="195.5067" y1="63.7795" x2="183.2086" y2="63.7795"/><line class="ea888628-e4fb-4351-9def-c117fe2662a3" x1="182.4259" y1="42.5023" x2="194.7241" y2="42.5023"/><line class="ea888628-e4fb-4351-9def-c117fe2662a3" x1="191.4819" y1="63.7795" x2="191.4819" y2="42.5394"/><path class="ef0359fa-af1d-4e35-a652-d3e47b0a43e0" d="M192.4218,63.78a.94.94,0,1,1-.94-.94A.94.94,0,0,1,192.4218,63.78Z"/><path class="e5c02613-a59c-41b6-aafa-ccb06b5cb107" d="M192.5468,63.78a1.065,1.065,0,1,0-1.0649,1.065,1.0661,1.0661,0,0,0,1.0649-1.065Zm-1.88,0a.815.815,0,1,1,.815.815.8157.8157,0,0,1-.815-.815Z"/><circle class="ef0359fa-af1d-4e35-a652-d3e47b0a43e0" cx="191.4819" cy="42.5394" r="0.9399"/><path class="e5c02613-a59c-41b6-aafa-ccb06b5cb107" d="M192.5468,42.5394a1.065,1.065,0,1,1-1.0649-1.065,1.0662,1.0662,0,0,1,1.0649,1.065Zm-1.88,0a.815.815,0,1,0,.815-.815.8158.8158,0,0,0-.815.815Z"/><text class="e3da1cdc-8e94-4416-b5c2-ab0fdbac89a6" transform="translate(196.5497 57.5645)">a</text><line class="ea888628-e4fb-4351-9def-c117fe2662a3" x1="150.7117" y1="58.428" x2="138.4135" y2="58.428"/><line class="ea888628-e4fb-4351-9def-c117fe2662a3" x1="150.7117" y1="47.8167" x2="138.4135" y2="47.8167"/><line class="ea888628-e4fb-4351-9def-c117fe2662a3" x1="147.5791" y1="58.428" x2="147.5791" y2="47.8167"/><circle class="ef0359fa-af1d-4e35-a652-d3e47b0a43e0" cx="147.5791" cy="58.428" r="0.9399"/><path class="e5c02613-a59c-41b6-aafa-ccb06b5cb107" d="M148.6441,58.428a1.065,1.065,0,1,0-1.065,1.0649,1.0663,1.0663,0,0,0,1.065-1.0649Zm-1.88,0a.815.815,0,1,1,.8149.8149.8158.8158,0,0,1-.8149-.8149Z"/><circle class="ef0359fa-af1d-4e35-a652-d3e47b0a43e0" cx="147.5791" cy="47.8167" r="0.9399"/><path class="e5c02613-a59c-41b6-aafa-ccb06b5cb107" d="M148.6441,47.8167a1.065,1.065,0,1,1-1.065-1.0649,1.0662,1.0662,0,0,1,1.065,1.0649Zm-1.88,0a.815.815,0,1,0,.8149-.8149.8157.8157,0,0,0-.8149.8149Z"/><line class="ea888628-e4fb-4351-9def-c117fe2662a3" x1="147.5791" y1="69.0646" x2="147.5791" y2="58.428"/><circle class="ef0359fa-af1d-4e35-a652-d3e47b0a43e0" cx="147.5791" cy="69.0646" r="0.9399"/><path class="e5c02613-a59c-41b6-aafa-ccb06b5cb107" d="M148.6441,69.0646a1.065,1.065,0,1,0-1.065,1.065,1.0662,1.0662,0,0,0,1.065-1.065Zm-1.88,0a.815.815,0,1,1,.8149.815.8157.8157,0,0,1-.8149-.815Z"/><circle class="ef0359fa-af1d-4e35-a652-d3e47b0a43e0" cx="147.5791" cy="58.428" r="0.9399"/><path class="e5c02613-a59c-41b6-aafa-ccb06b5cb107" d="M148.6441,58.428a1.065,1.065,0,1,1-1.065-1.065,1.0662,1.0662,0,0,1,1.065,1.065Zm-1.88,0a.815.815,0,1,0,.8149-.815.8157.8157,0,0,0-.8149.815Z"/><text class="e5d1e8cd-96ad-4db3-8582-c0f62ebb4d08" transform="translate(152.8574 75.0466) scale(0.583)">2</text><text class="e5d1e8cd-96ad-4db3-8582-c0f62ebb4d08" transform="translate(156.1592 77.987)">/</text><text class="e5d1e8cd-96ad-4db3-8582-c0f62ebb4d08" transform="translate(159.9453 77.9831) scale(0.583)">4</text><text class="e5d1e8cd-96ad-4db3-8582-c0f62ebb4d08" transform="translate(163.247 77.987)"><tspan xml:space="preserve"> a</tspan></text><text class="e5d1e8cd-96ad-4db3-8582-c0f62ebb4d08" transform="translate(37.5259 88.8354) scale(0.583)">1</text><text class="e5d1e8cd-96ad-4db3-8582-c0f62ebb4d08" transform="translate(40.8276 91.7758)">/</text><text class="e5d1e8cd-96ad-4db3-8582-c0f62ebb4d08" transform="translate(44.6138 91.7719) scale(0.583)">4</text><text class="e5d1e8cd-96ad-4db3-8582-c0f62ebb4d08" transform="translate(47.9155 91.7758)"><tspan xml:space="preserve"> a</tspan></text><polyline class="ea888628-e4fb-4351-9def-c117fe2662a3" points="155.927 94.719 136.218 94.719 124.621 82.137"/><text class="e5d1e8cd-96ad-4db3-8582-c0f62ebb4d08" transform="translate(138.4135 90.4998) scale(0.583)">1</text><text class="e5d1e8cd-96ad-4db3-8582-c0f62ebb4d08" transform="translate(141.7153 93.4402)">/</text><text class="e5d1e8cd-96ad-4db3-8582-c0f62ebb4d08" transform="translate(145.5014 93.4363) scale(0.583)">4</text><text class="e5d1e8cd-96ad-4db3-8582-c0f62ebb4d08" transform="translate(148.8032 93.4402)"><tspan xml:space="preserve"> a</tspan></text><text class="e5d1e8cd-96ad-4db3-8582-c0f62ebb4d08" transform="translate(158.522 64.7608) scale(0.583)">2</text><text class="e5d1e8cd-96ad-4db3-8582-c0f62ebb4d08" transform="translate(161.8238 67.7013)">/</text><text class="e5d1e8cd-96ad-4db3-8582-c0f62ebb4d08" transform="translate(165.6099 67.6974) scale(0.583)">4</text><text class="e5d1e8cd-96ad-4db3-8582-c0f62ebb4d08" transform="translate(168.9116 67.7013)"><tspan xml:space="preserve"> a</tspan></text><text class="e5d1e8cd-96ad-4db3-8582-c0f62ebb4d08" transform="translate(152.8574 54.0646) scale(0.583)">2</text><text class="e5d1e8cd-96ad-4db3-8582-c0f62ebb4d08" transform="translate(156.1592 57.005)">/</text><text class="e5d1e8cd-96ad-4db3-8582-c0f62ebb4d08" transform="translate(159.9453 57.0011) scale(0.583)">4</text><text class="e5d1e8cd-96ad-4db3-8582-c0f62ebb4d08" transform="translate(163.247 57.005)"><tspan xml:space="preserve"> a</tspan></text><line class="ea888628-e4fb-4351-9def-c117fe2662a3" x1="195.5067" y1="85.0274" x2="183.2086" y2="85.0274"/><line class="ea888628-e4fb-4351-9def-c117fe2662a3" x1="191.4819" y1="85.0273" x2="191.4819" y2="63.7872"/><path class="ef0359fa-af1d-4e35-a652-d3e47b0a43e0" d="M192.4218,85.0273a.94.94,0,1,1-.94-.94A.94.94,0,0,1,192.4218,85.0273Z"/><path class="e5c02613-a59c-41b6-aafa-ccb06b5cb107" d="M192.5468,85.0273a1.065,1.065,0,1,0-1.0649,1.0651,1.0662,1.0662,0,0,0,1.0649-1.0651Zm-1.88,0a.815.815,0,1,1,.815.8151.8157.8157,0,0,1-.815-.8151Z"/><circle class="ef0359fa-af1d-4e35-a652-d3e47b0a43e0" cx="191.4819" cy="63.7872" r="0.9399"/><path class="e5c02613-a59c-41b6-aafa-ccb06b5cb107" d="M192.5468,63.7872a1.065,1.065,0,1,1-1.0649-1.0649,1.0662,1.0662,0,0,1,1.0649,1.0649Zm-1.88,0a.815.815,0,1,0,.815-.8149.8158.8158,0,0,0-.815.8149Z"/><text class="e3da1cdc-8e94-4416-b5c2-ab0fdbac89a6" transform="translate(196.5497 78.8123)">a</text><line class="ea888628-e4fb-4351-9def-c117fe2662a3" x1="21.2598" y1="108.3791" x2="21.2598" y2="96.081"/><line class="ea888628-e4fb-4351-9def-c117fe2662a3" x1="26.5655" y1="108.3791" x2="26.5655" y2="100.3747"/><line class="ea888628-e4fb-4351-9def-c117fe2662a3" x1="0.012" y1="108.3791" x2="0.012" y2="96.081"/><line class="ea888628-e4fb-4351-9def-c117fe2662a3" x1="21.2598" y1="104.3543" x2="26.5655" y2="104.3543"/><circle class="ef0359fa-af1d-4e35-a652-d3e47b0a43e0" cx="21.2598" cy="104.3543" r="0.9399"/><path class="e5c02613-a59c-41b6-aafa-ccb06b5cb107" d="M21.26,105.4192a1.0649,1.0649,0,1,0-1.0649-1.0649,1.0661,1.0661,0,0,0,1.0649,1.0649Zm0-1.88a.8149.8149,0,1,1-.8149.8149.8156.8156,0,0,1,.8149-.8149Z"/><circle class="ef0359fa-af1d-4e35-a652-d3e47b0a43e0" cx="26.5655" cy="104.3543" r="0.9399"/><path class="e5c02613-a59c-41b6-aafa-ccb06b5cb107" d="M26.5655,105.4192a1.0649,1.0649,0,1,1,1.0649-1.0649,1.0662,1.0662,0,0,1-1.0649,1.0649Zm0-1.88a.8149.8149,0,1,0,.8149.8149.8157.8157,0,0,0-.8149-.8149Z"/><line class="ea888628-e4fb-4351-9def-c117fe2662a3" x1="0.012" y1="104.3543" x2="21.2598" y2="104.3543"/><circle class="ef0359fa-af1d-4e35-a652-d3e47b0a43e0" cx="0.012" cy="104.3543" r="0.9399"/><path class="e5c02613-a59c-41b6-aafa-ccb06b5cb107" d="M.012,105.4192a1.0649,1.0649,0,0,0,0-2.13,1.0649,1.0649,0,1,0,0,2.13Zm0-1.88a.8149.8149,0,0,1,0,1.63.8149.8149,0,1,1,0-1.63Z"/><path class="ef0359fa-af1d-4e35-a652-d3e47b0a43e0" d="M21.26,105.2942a.94.94,0,1,0-.94-.94A.94.94,0,0,0,21.26,105.2942Z"/><path class="e5c02613-a59c-41b6-aafa-ccb06b5cb107" d="M21.26,105.4192a1.0649,1.0649,0,1,1,1.0652-1.0649,1.0659,1.0659,0,0,1-1.0652,1.0649Zm0-1.88a.8149.8149,0,1,0,.8152.8149.8154.8154,0,0,0-.8152-.8149Z"/><text class="e3da1cdc-8e94-4416-b5c2-ab0fdbac89a6" transform="translate(7.0149 99.5409)">a</text><line class="ea888628-e4fb-4351-9def-c117fe2662a3" x1="150.7117" y1="79.6758" x2="115.8297" y2="79.6758"/><line class="ea888628-e4fb-4351-9def-c117fe2662a3" x1="128.1278" y1="84.9729" x2="115.8297" y2="84.9729"/><line class="ea888628-e4fb-4351-9def-c117fe2662a3" x1="150.7117" y1="69.0646" x2="138.4135" y2="69.0646"/><line class="ea888628-e4fb-4351-9def-c117fe2662a3" x1="147.5792" y1="79.6758" x2="147.5792" y2="69.0646"/><circle class="ef0359fa-af1d-4e35-a652-d3e47b0a43e0" cx="147.5792" cy="79.6758" r="0.9399"/><path class="e5c02613-a59c-41b6-aafa-ccb06b5cb107" d="M148.6442,79.6758a1.065,1.065,0,1,0-1.065,1.065,1.0662,1.0662,0,0,0,1.065-1.065Zm-1.88,0a.815.815,0,1,1,.8149.815.8157.8157,0,0,1-.8149-.815Z"/><circle class="ef0359fa-af1d-4e35-a652-d3e47b0a43e0" cx="147.5792" cy="69.0646" r="0.9399"/><path class="e5c02613-a59c-41b6-aafa-ccb06b5cb107" d="M148.6442,69.0646A1.065,1.065,0,1,1,147.5792,68a1.0662,1.0662,0,0,1,1.065,1.065Zm-1.88,0a.815.815,0,1,0,.8149-.815.8157.8157,0,0,0-.8149.815Z"/><line class="ea888628-e4fb-4351-9def-c117fe2662a3" x1="124.6211" y1="84.9728" x2="124.6211" y2="79.6758"/><circle class="ef0359fa-af1d-4e35-a652-d3e47b0a43e0" cx="124.6211" cy="84.9728" r="0.9399"/><path class="e5c02613-a59c-41b6-aafa-ccb06b5cb107" d="M125.6861,84.9728a1.065,1.065,0,1,0-1.065,1.065,1.0662,1.0662,0,0,0,1.065-1.065Zm-1.88,0a.815.815,0,1,1,.8149.815.8157.8157,0,0,1-.8149-.815Z"/><circle class="ef0359fa-af1d-4e35-a652-d3e47b0a43e0" cx="124.6211" cy="79.6758" r="0.9399"/><path class="e5c02613-a59c-41b6-aafa-ccb06b5cb107" d="M125.6861,79.6758a1.065,1.065,0,1,1-1.065-1.0649,1.0663,1.0663,0,0,1,1.065,1.0649Zm-1.88,0a.815.815,0,1,0,.8149-.8149.8158.8158,0,0,0-.8149.8149Z"/><polyline class="a3cf4e9f-8ec6-4c1c-bcf3-d7baf126d10f" points="99.191 57.005 68.98 129.248 68.98 142.286"/><path class="ef0359fa-af1d-4e35-a652-d3e47b0a43e0" d="M97.4563,56.28a1.88,1.88,0,1,1,1.0091,2.46A1.88,1.88,0,0,1,97.4563,56.28Z"/><path class="e5c02613-a59c-41b6-aafa-ccb06b5cb107" d="M97.2256,56.1833a2.13,2.13,0,1,0,2.7869-1.1433,2.1328,2.1328,0,0,0-2.7869,1.1433C96.7727,57.2667,97.6787,55.1,97.2256,56.1833Zm3.4688,1.45a1.63,1.63,0,1,1-.8748-2.1325,1.6316,1.6316,0,0,1,.8748,2.1325C100.3477,58.4631,101.0413,56.8044,100.6944,57.6338Z"/><rect class="ef0359fa-af1d-4e35-a652-d3e47b0a43e0" x="488.9764" y="63.7795" width="21.2598" height="21.2598"/><g class="f0106ba3-5a99-45d7-be76-054980e102f9"><rect class="a4e57663-5f44-4f2a-a8b5-5c63c3f04bc2" x="361.0756" y="276.3945" width="21.2385" height="21.2385"/></g><g class="f0106ba3-5a99-45d7-be76-054980e102f9"><rect class="a4e57663-5f44-4f2a-a8b5-5c63c3f04bc2" x="361.0756" y="287.0137" width="10.6192" height="10.6192"/></g></g></svg>