<svg xmlns="http://www.w3.org/2000/svg" viewBox="0 0 85 85"><defs><style>.b57c44c3-f341-4c73-8f91-e68c6ae78d4e{fill:#006837;}.b1812770-e728-4dc4-afb4-738cc035d5af{fill:#39b34a;}.b32e6ffe-a0a7-4ca5-a3b0-9dab14f32ab0{fill:#fff;}</style></defs><title>S</title><g id="a5435e4f-5b0e-4aa0-9686-41528f2322eb" data-name="Grafica"><rect class="b57c44c3-f341-4c73-8f91-e68c6ae78d4e" width="85" height="85"/><rect class="b1812770-e728-4dc4-afb4-738cc035d5af" y="78.8612" width="85" height="6.1388"/><path class="b32e6ffe-a0a7-4ca5-a3b0-9dab14f32ab0" d="M61.2831,67.36c-1.9663,1.0024-5.0846.7387-7.2921-.39-3.0419-1.5552-4.7641-1.1749-7.9521.2151a8.3383,8.3383,0,0,1-7.1592,0c-3.1859-1.394-4.8288-1.77-7.8707-.2151-2.2075,1.1286-5.3716,1.3923-7.3379.39-3.4475-1.7584-5.9111-2.0864-8.6488-.4293a6.678,6.678,0,0,1-3.7853.879v6.2211a7.5364,7.5364,0,0,0,4.0284-.9779,7.2216,7.2216,0,0,1,7.1246-.1659c3.11,1.5553,5.7459,1.5553,8.3822.2027s4.0973-1.5961,7.3-.2363a9.4615,9.4615,0,0,0,8.8213.06c3.203-1.36,4.6979-1.1758,7.3342.1765s5.2721,1.3526,8.382-.2027a7.0841,7.0841,0,0,1,7.0435.1659,7.4186,7.4186,0,0,0,4.11.9779V67.81a6.4612,6.4612,0,0,1-3.7856-.879C67.24,65.2737,64.7306,65.6017,61.2831,67.36Z"/><path class="b32e6ffe-a0a7-4ca5-a3b0-9dab14f32ab0" d="M70.0116,57.8541c-5.38-2.8778-7.7208.6261-10.6126.6261V44.4522L63.86,34.3762a2.6255,2.6255,0,0,0-1.6224-3.6514l-2.7037-1.082V20.92H54.3255v-4.596H47.0286V10.1674H37.9714v6.1562H30.6745V20.92H25.4662v8.7232l-2.704,1.082A2.6255,2.6255,0,0,0,21.14,34.3762l4.4612,10.076V58.48c-2.8907-.001-5.35-3.4485-10.6108-.5713h-.0018a8.9782,8.9782,0,0,1-3.7852.879v6.0127a8.246,8.246,0,0,0,3.988-1.15,7.5522,7.5522,0,0,1,7.1651.0058c3.11,1.5553,5.7459,1.5553,8.382.203a7.605,7.605,0,0,1,7.4019-.203,8.7064,8.7064,0,0,0,8.6825.036,7.5666,7.5666,0,0,1,7.4388.167c2.6363,1.3523,5.2726,1.3523,8.3819-.203a7.62,7.62,0,0,1,7.1652-.0058,8.6026,8.6026,0,0,0,3.9882,1.15V58.7332A8.7131,8.7131,0,0,1,70.0116,57.8541ZM55.681,28.02,42.5,22.6894,29.319,28.02V24.5012h5.2049V19.973H50.4761v4.5282H55.681Z"/></g></svg>