<svg xmlns="http://www.w3.org/2000/svg" viewBox="0 0 49.9505 15.8064"><defs><style>.ad774784-5c93-4c2d-8871-21047725b271{fill:red;}</style></defs><title>S</title><g id="a2e59a48-2d18-4178-9771-ef054e5f4f82" data-name="Grafica"><path class="ad774784-5c93-4c2d-8871-21047725b271" d="M0,11.6846V8.501H10.6219V7.4383H0V5.3135L1.0588,4.2508H13.81v7.4338ZM2.12,3.1881,5.3083,0H13.81V3.1881Z"/><path class="ad774784-5c93-4c2d-8871-21047725b271" d="M14.8727,10.6219V0h3.1829V7.4389Z"/><polygon class="ad774784-5c93-4c2d-8871-21047725b271" points="29.74 11.685 32.422 11.671 32.928 11.165 32.928 11.147 32.928 4.251 26.552 4.251 26.552 7.438 29.74 7.438 29.74 8.501 26.023 8.501 22.301 4.78 22.301 3.188 32.928 3.188 29.745 0 19.118 0 19.118 6.376 24.427 11.685 29.74 11.685"/><polygon class="ad774784-5c93-4c2d-8871-21047725b271" points="37.168 12.623 37.168 3.182 33.985 0.015 33.985 11.311 32.687 12.623 0 12.623 3.189 15.806 33.985 15.806 37.174 12.623 37.168 12.623"/><polygon class="ad774784-5c93-4c2d-8871-21047725b271" points="46.763 3.187 46.763 0 43.576 0 43.576 3.187 40.388 3.187 40.388 6.375 43.576 6.375 43.576 9.562 46.763 9.562 46.763 6.375 49.95 6.375 49.95 3.187 46.763 3.187"/></g></svg>