<svg xmlns="http://www.w3.org/2000/svg" viewBox="0 0 85 85"><defs><style>.f87290e9-3126-40a2-b394-388fdc0be161{fill:#ccc;}.ac6b0fc8-fcf1-46ad-b018-a02dcda57764{fill:#979797;}</style></defs><title>S</title><g id="e7872701-a69a-4d9c-a3d6-512cea5f385e" data-name="Grafica"><rect class="f87290e9-3126-40a2-b394-388fdc0be161" width="85" height="85"/><path class="ac6b0fc8-fcf1-46ad-b018-a02dcda57764" d="M42.5013,31.6552a8.6041,8.6041,0,1,0,8.76,8.6024A8.68,8.68,0,0,0,42.5013,31.6552Zm-.057,12.428a3.9305,3.9305,0,1,1,4.0033-3.93A3.9676,3.9676,0,0,1,42.4443,44.0832Z"/><path class="ac6b0fc8-fcf1-46ad-b018-a02dcda57764" d="M42.6537,26.9908c11.5791,0,17.1758,8.7067,19.0715,12.5209-2.147,4.12-8.4131,14.0125-19.0715,14.0125-11.8252,0-17.3425-9.7073-19.1211-13.73,2.0171-3.8192,7.95-12.8031,19.1211-12.8031m0-5c-17.5911,0-24.5581,17.61-24.5581,17.61s5.9609,18.9236,24.5581,18.9236c17.0674,0,24.5581-18.9236,24.5581-18.9236s-6.1492-17.61-24.5581-17.61Z"/></g></svg>