<svg xmlns="http://www.w3.org/2000/svg" viewBox="0 0 85 85"><defs><style>.a84c0fd4-9cf4-4194-bb85-db14add2519f{fill:#ccc;}.a88dc9e4-2e3a-4c0b-9fbd-8029faa9a1e3{fill:#979797;}</style></defs><title>S</title><g id="bbb5d827-6b4e-4d53-95db-4bad451d054b" data-name="Grafica"><rect class="a84c0fd4-9cf4-4194-bb85-db14add2519f" width="85" height="85"/><path class="a88dc9e4-2e3a-4c0b-9fbd-8029faa9a1e3" d="M66.1977,52.1634a5.2256,5.2256,0,1,0,5.31,5.225A5.2683,5.2683,0,0,0,66.1977,52.1634Z"/><path class="a88dc9e4-2e3a-4c0b-9fbd-8029faa9a1e3" d="M22.7782,52.1634a5.2256,5.2256,0,1,0,5.3094,5.225A5.2688,5.2688,0,0,0,22.7782,52.1634Z"/><path class="a88dc9e4-2e3a-4c0b-9fbd-8029faa9a1e3" d="M68.16,29.928l-9.3584.006c-.8937,0-1.6124,5.5679-1.6278,12.4788h-.39a4.05,4.05,0,0,0-.4807.0477c.1509-1.7973.2386-3.8774.2386-6.1027,0-6.7516-.7949-12.2247-1.7754-12.2247H38.7639v-.9654a.7874.7874,0,0,0-.794-.781H28.9055a.7876.7876,0,0,0-.7941.781v.9654H8.5818c-.98,0-1.7754,5.4731-1.7754,12.2247s.7951,12.2248,1.7754,12.2248h3.5771c-1.7022.2183-2.9759,1.1249-2.9759,2.91a3.7966,3.7966,0,0,0,3.8253,3.7688h2.8938a7.2448,7.2448,0,0,1,13.75,0H59.3271a7.241,7.241,0,0,1,13.7442,0h3.5719c.9,0,1.6278-5.6706,1.6278-12.6616C78.271,35.6,69.0663,29.928,68.16,29.928Zm-.5314,10.539H61.2467V32.6606h6.3822Zm1.2285,0V33.1907c1.8459,1.1,5.3288,3.8534,6.4437,7.2763Z"/></g></svg>