<svg xmlns="http://www.w3.org/2000/svg" viewBox="0 0 85 85"><defs><style>.a89c15ad-7e14-4e2b-a841-ad9aeb4a5fed{fill:red;}.ee070d55-c8ea-4443-bbf3-589dd610844a{fill:#006837;}</style></defs><title>S</title><g id="af63d2b3-5c71-40ba-b141-050fbcc3b3fc" data-name="Grafica"><rect class="a89c15ad-7e14-4e2b-a841-ad9aeb4a5fed" x="-0.0197" y="78.8781" width="85.0394" height="6.1416"/><rect class="ee070d55-c8ea-4443-bbf3-589dd610844a" x="-0.0197" y="-0.0197" width="85.0394" height="85.0394"/><path class="a89c15ad-7e14-4e2b-a841-ad9aeb4a5fed" d="M61.2918,67.3716c-1.9672,1.0029-5.0869.7391-7.2955-.39-3.0433-1.556-4.7663-1.1755-7.9558.2152a8.3426,8.3426,0,0,1-7.1624,0c-3.1875-1.3947-4.8311-1.7712-7.8744-.2152-2.2086,1.1291-5.3741,1.3929-7.3414.39-3.449-1.7592-5.9137-2.0873-8.6527-.4294a6.682,6.682,0,0,1-3.7871.8793v6.224a7.54,7.54,0,0,0,4.03-.9783,7.2244,7.2244,0,0,1,7.1279-.166c3.1111,1.556,5.7486,1.556,8.3861.2028s4.0991-1.5969,7.3037-.2364a9.4658,9.4658,0,0,0,8.8253.06c3.2046-1.3605,4.7-1.1764,7.3377.1766s5.2745,1.3532,8.3858-.2028a7.0867,7.0867,0,0,1,7.0467.166,7.4225,7.4225,0,0,0,4.1115.9783v-6.224a6.4647,6.4647,0,0,1-3.7874-.8793C67.2514,65.2843,64.7409,65.6124,61.2918,67.3716Z"/><path class="a89c15ad-7e14-4e2b-a841-ad9aeb4a5fed" d="M70.0244,57.8612c-5.3828-2.8791-7.7245.6264-10.6176.6264V44.4531L63.87,34.3725a2.6268,2.6268,0,0,0-1.6231-3.6532l-2.705-1.0824V20.91H54.3309V16.3114h-7.3v-6.159H37.9693v6.159h-7.3V20.91H25.4583v8.7273L22.753,30.7193A2.6268,2.6268,0,0,0,21.13,34.3725l4.4633,10.0806V58.4875c-2.8921-.001-5.3525-3.45-10.6157-.5715h-.0019a8.9821,8.9821,0,0,1-3.7868.8793v6.0155a8.2494,8.2494,0,0,0,3.99-1.15,7.5561,7.5561,0,0,1,7.1685.0058c3.1113,1.556,5.7486,1.556,8.3858.2031a7.6088,7.6088,0,0,1,7.4054-.2031,8.71,8.71,0,0,0,8.6865.036,7.57,7.57,0,0,1,7.4422.1671c2.6375,1.3529,5.2751,1.3529,8.3858-.2031a7.6234,7.6234,0,0,1,7.1685-.0058,8.606,8.606,0,0,0,3.99,1.15v-6.07A8.7161,8.7161,0,0,1,70.0244,57.8612ZM55.6871,28.0131,42.5,22.68,29.3129,28.0131v-3.52H34.52v-4.53H50.48v4.53h5.2073Z"/></g></svg>