<svg xmlns="http://www.w3.org/2000/svg" viewBox="0 0 85 85"><defs><style>.a2839aca-89f9-40f4-a3af-e9127317ce78{fill:#ccc;}.a247e920-20de-438d-81b4-6ff7bab5a910{fill:#979797;}</style></defs><title>S</title><g id="e9233c70-0b37-45fa-9f7d-cace33c19666" data-name="Grafica"><rect class="a2839aca-89f9-40f4-a3af-e9127317ce78" width="85" height="85"/><path class="a247e920-20de-438d-81b4-6ff7bab5a910" d="M52.4757,23.4914l-4.4466-4.6748H22.6082V57.8905H52.4757ZM38.1812,50.7668H28.09a.675.675,0,1,1,0-1.35H38.1812a.675.675,0,1,1,0,1.35Zm8.59-4.9979H28.09a.675.675,0,1,1,0-1.35H46.7709a.675.675,0,1,1,0,1.35Zm0-4.9971H28.09a.675.675,0,1,1,0-1.35H46.7709a.675.675,0,1,1,0,1.35Zm0-4.9971H28.09a.6751.6751,0,1,1,0-1.35H46.7709a.6751.6751,0,1,1,0,1.35Zm0-4.9979H28.09a.6751.6751,0,1,1,0-1.35H46.7709a.6751.6751,0,1,1,0,1.35Zm.7188-6.6721V19.7154l4.1752,4.3893Z"/><path class="a247e920-20de-438d-81b4-6ff7bab5a910" d="M57.9455,25.11H54.46V60.2133H32.5243v3.971H62.3918V29.7852Zm-.54,5.288V26.0092l4.1748,4.3892Z"/></g></svg>