<svg xmlns="http://www.w3.org/2000/svg" viewBox="0 0 85 85"><defs><style>.a96f7d2f-a418-477f-9f5e-89c5ee3395d8{fill:#39b34a;}.b4af0a53-4623-414d-9f60-ac7a2d114352{fill:#006837;}</style></defs><title>S</title><g id="b6904c42-5c16-4c9a-9dd7-c6d61db47b95" data-name="Grafica"><rect class="a96f7d2f-a418-477f-9f5e-89c5ee3395d8" width="85" height="85"/><path class="b4af0a53-4623-414d-9f60-ac7a2d114352" d="M42.6838,55.0193a9.5392,9.5392,0,0,0,1.3351.0883c.0965,0,.192-.0081.2879-.01V49.2148l-1.623-.3728Z"/><path class="b4af0a53-4623-414d-9f60-ac7a2d114352" d="M42.6838,38.9271V44.25l1.623.3919V38.937c-.2926-.0269-.5991-.0455-.9367-.0455A6.8557,6.8557,0,0,0,42.6838,38.9271Z"/><path class="b4af0a53-4623-414d-9f60-ac7a2d114352" d="M39.684,40.344a2.1746,2.1746,0,0,0-.3737,1.2926,2.22,2.22,0,0,0,.2434,1.1017,2.0157,2.0157,0,0,0,.6168.686,2.7981,2.7981,0,0,0,.8125.3829c.1239.0365.2231.0627.3373.0949V39.2073a4.2458,4.2458,0,0,0-.6783.2908A2.7922,2.7922,0,0,0,39.684,40.344Z"/><path class="b4af0a53-4623-414d-9f60-ac7a2d114352" d="M47.705,50.2721a6.8849,6.8849,0,0,0-1.3471-.5268c-.22-.0631-.4522-.1261-.6873-.1891V54.99c.0287-.0041.0578-.0053.0865-.01a5.7618,5.7618,0,0,0,1.5585-.4474,2.9322,2.9322,0,0,0,1.1364-.8938,2.4022,2.4022,0,0,0,.4392-1.5,1.917,1.917,0,0,0-.3092-1.1172A2.4318,2.4318,0,0,0,47.705,50.2721Z"/><path class="b4af0a53-4623-414d-9f60-ac7a2d114352" d="M47.984,23.6735a9.98,9.98,0,0,1,3.3582-6.16c2.7283-2.1473-1.8174-1.97-4.915-1.611-3.089.357-9.8221-1.4313-11.2741-.1775-1.4563,1.2482-.915,3.2182.726,4.2889a13.0645,13.0645,0,0,1,2.877,3.6674c-9.2921,3.3008-16.2335,16.311-16.2335,31.8725a50.9384,50.9384,0,0,0,.3333,5.8128c.3967,1.2956,1.6527,4.2949,4.8145,4.2949H58.5561s4.45-.14,5.2884-3.7525c.0521-.4455.1042-.8892.1482-1.3389a4.6251,4.6251,0,0,1,.0441-.5245c.1326-1.4689.2044-2.9674.2044-4.4918C64.2412,39.98,57.2884,26.9587,47.984,23.6735Zm5.0475,30.8437a6.3538,6.3538,0,0,1-1.3959,2.06,7.1554,7.1554,0,0,1-1.9009,1.3244,10.9752,10.9752,0,0,1-2.0618.75,12.713,12.713,0,0,1-1.9.3353c-.038.0034-.0658.0045-.1025.0077v3.4032H44.3068V59.0637c-.5724-.0017-1.11-.0263-1.623-.0671v3.4009H41.32V58.83a10.0643,10.0643,0,0,1-2.0915-.5618,8.29,8.29,0,0,1-3.0363-1.9632,5.96,5.96,0,0,1-1.4289-2.506,9.373,9.373,0,0,1-.3573-2.394h4.6762a4.2171,4.2171,0,0,0,.1787,1.1172,3.0357,3.0357,0,0,0,.6983,1.2133,3.9328,3.9328,0,0,0,1.3608.9122V48.5214c-.6515-.1574-1.2934-.3217-1.9129-.5A7.8143,7.8143,0,0,1,37.0528,46.92a5.4327,5.4327,0,0,1-1.6564-1.8834,6.3708,6.3708,0,0,1-.6328-3.0487,7.5048,7.5048,0,0,1,.1463-1.4044,6.7711,6.7711,0,0,1,.5025-1.5481,6.7007,6.7007,0,0,1,.9912-1.5323,5.7979,5.7979,0,0,1,1.64-1.309,9.9614,9.9614,0,0,1,2.4031-.91c.2752-.0693.57-.1249.8733-.1738V31.2317h1.3635v3.7336c.3353-.02.6806-.0322,1.0432-.0322.2021,0,.3861.0153.58.0218V31.2317h1.3638v3.832a9.1964,9.1964,0,0,1,2.4735.6358,8.2778,8.2778,0,0,1,2.7928,1.883,6.5023,6.5023,0,0,1,1.4614,2.41A7.65,7.65,0,0,1,52.82,42.339H48.1441c-.0444-.2554-.1138-.5795-.211-.9737a2.6659,2.6659,0,0,0-.6338-1.1329,3.9936,3.9936,0,0,0-1.413-.9421c-.0661-.0284-.1449-.0492-.2157-.0745V44.971l1.7913.4325a19.4272,19.4272,0,0,1,2.3062.7024,6.7182,6.7182,0,0,1,1.9483,1.1175,5.1308,5.1308,0,0,1,1.3481,1.7551,5.98,5.98,0,0,1,.5026,2.5862A7.3573,7.3573,0,0,1,53.0315,54.5172Z"/></g></svg>