<svg xmlns="http://www.w3.org/2000/svg" viewBox="0 0 71.2684 30.3034"><defs><style>.f715e35b-ae60-499b-af42-b303b8ac7562{fill:red;}</style></defs><title>S</title><g id="a6aed2c7-ddb2-43f1-a537-57d137b260f2" data-name="Grafica"><path class="f715e35b-ae60-499b-af42-b303b8ac7562" d="M0,22.4012V16.2977H20.3638V14.26H0V10.1869L2.03,8.15h24.446V22.4012ZM4.0648,6.1121,10.1769,0h16.299V6.1121Z"/><path class="f715e35b-ae60-499b-af42-b303b8ac7562" d="M28.5133,20.2184V0h6.1022V14.1162Z"/><polygon class="f715e35b-ae60-499b-af42-b303b8ac7562" points="57.017 22.401 62.158 22.376 63.129 21.405 63.129 21.37 63.129 8.149 50.905 8.149 50.905 14.26 57.017 14.26 57.017 16.298 49.89 16.298 42.755 9.163 42.755 6.112 63.129 6.112 57.027 0 36.653 0 36.653 12.224 46.83 22.401 57.017 22.401"/><polygon class="f715e35b-ae60-499b-af42-b303b8ac7562" points="71.258 24.201 71.258 6.101 65.155 0.03 65.155 21.684 62.666 24.201 0 24.201 6.113 30.303 65.155 30.303 71.268 24.201 71.258 24.201"/></g></svg>