<svg xmlns="http://www.w3.org/2000/svg" viewBox="0 0 85.0394 85.0394"><defs><style>.a485bb04-f3ba-45ec-8de7-0d7099ab4795{fill:#006837;}.ae215e7a-7e1d-4dc0-abd3-88cd94dbb865{fill:red;}.e022b77f-653d-4c4e-80f5-37b56abe068d{fill:#fff;}</style></defs><title>S</title><g id="fc451a9b-5a53-4216-98ef-e314ed07396d" data-name="Grafica"><rect class="a485bb04-f3ba-45ec-8de7-0d7099ab4795" x="0.0197" y="0.0197" width="85" height="85"/><rect class="ae215e7a-7e1d-4dc0-abd3-88cd94dbb865" x="0.0197" y="78.8809" width="85" height="6.1388"/><path class="e022b77f-653d-4c4e-80f5-37b56abe068d" d="M42.7035,55.039a9.5544,9.5544,0,0,0,1.3351.0883c.0965,0,.192-.0081.2879-.01V49.2345l-1.623-.3729Z"/><path class="e022b77f-653d-4c4e-80f5-37b56abe068d" d="M42.7035,38.9468v5.3226l1.623.3919V38.9567c-.2926-.027-.5991-.0455-.9368-.0455A6.8256,6.8256,0,0,0,42.7035,38.9468Z"/><path class="e022b77f-653d-4c4e-80f5-37b56abe068d" d="M39.7036,40.3637a2.1752,2.1752,0,0,0-.3736,1.2926,2.22,2.22,0,0,0,.2434,1.1017,2.0157,2.0157,0,0,0,.6168.686,2.8006,2.8006,0,0,0,.8125.3829c.1239.0365.2231.0627.3373.0949V39.227a4.2419,4.2419,0,0,0-.6783.2908A2.7914,2.7914,0,0,0,39.7036,40.3637Z"/><path class="e022b77f-653d-4c4e-80f5-37b56abe068d" d="M47.7247,50.2918a6.8849,6.8849,0,0,0-1.3471-.5268c-.22-.0631-.4522-.1261-.6873-.1891V55.01c.0287-.0041.0578-.0052.0865-.01a5.7618,5.7618,0,0,0,1.5585-.4474,2.9322,2.9322,0,0,0,1.1364-.8938,2.4022,2.4022,0,0,0,.4392-1.5,1.9163,1.9163,0,0,0-.3093-1.1172A2.43,2.43,0,0,0,47.7247,50.2918Z"/><path class="e022b77f-653d-4c4e-80f5-37b56abe068d" d="M48.0037,23.6931a9.9794,9.9794,0,0,1,3.3582-6.16c2.7283-2.1473-1.8174-1.97-4.9151-1.611-3.089.357-9.822-1.4313-11.274-.1776-1.4563,1.2483-.915,3.2183.726,4.289a13.0631,13.0631,0,0,1,2.877,3.6674c-9.2921,3.3008-16.2335,16.3109-16.2335,31.8725a50.9384,50.9384,0,0,0,.3333,5.8128c.3967,1.2956,1.6527,4.2949,4.8145,4.2949H58.5758s4.45-.14,5.2883-3.7525c.0521-.4456.1042-.8892.1483-1.3389a4.6251,4.6251,0,0,1,.0441-.5245c.1326-1.4689.2044-2.9675.2044-4.4918C64.2609,40,57.3081,26.9783,48.0037,23.6931Zm5.0474,30.8438a6.3506,6.3506,0,0,1-1.3959,2.06,7.1533,7.1533,0,0,1-1.9008,1.3244,10.97,10.97,0,0,1-2.0618.75,12.7024,12.7024,0,0,1-1.9.3353c-.0381.0035-.0658.0046-.1025.0077v3.4032H44.3265V59.0834c-.5724-.0017-1.11-.0263-1.623-.0672v3.4009H41.34V58.85a10.0643,10.0643,0,0,1-2.0915-.5618,8.29,8.29,0,0,1-3.0363-1.9632,5.96,5.96,0,0,1-1.4289-2.506,9.3736,9.3736,0,0,1-.3573-2.394h4.6762a4.2136,4.2136,0,0,0,.1787,1.1172,3.0366,3.0366,0,0,0,.6982,1.2133,3.9333,3.9333,0,0,0,1.3609.9122V48.5411c-.6516-.1574-1.2934-.3217-1.9129-.5A7.8143,7.8143,0,0,1,37.0725,46.94a5.4327,5.4327,0,0,1-1.6564-1.8834,6.3708,6.3708,0,0,1-.6328-3.0487,7.5117,7.5117,0,0,1,.1462-1.4044,6.7764,6.7764,0,0,1,.5026-1.5481,6.7007,6.7007,0,0,1,.9912-1.5323,5.7979,5.7979,0,0,1,1.64-1.309,9.9572,9.9572,0,0,1,2.4031-.91c.2752-.0693.57-.1249.8733-.1738V31.2514h1.3635v3.7335c.3353-.02.6806-.0321,1.0432-.0321.2021,0,.3861.0152.58.0218V31.2514H45.69v3.832a9.1964,9.1964,0,0,1,2.4735.6358,8.2788,8.2788,0,0,1,2.7928,1.883,6.5028,6.5028,0,0,1,1.4614,2.41,7.6512,7.6512,0,0,1,.4221,2.3463H48.1638c-.0444-.2554-.1138-.5795-.211-.9737a2.6651,2.6651,0,0,0-.6339-1.1329A3.9922,3.9922,0,0,0,45.906,39.31c-.0661-.0284-.1449-.0492-.2157-.0745v5.7552l1.7913.4325a19.4328,19.4328,0,0,1,2.3062.7024,6.7159,6.7159,0,0,1,1.9483,1.1175,5.1308,5.1308,0,0,1,1.3481,1.7551,5.9815,5.9815,0,0,1,.5026,2.5862A7.3555,7.3555,0,0,1,53.0511,54.5369Z"/></g></svg>