<svg xmlns="http://www.w3.org/2000/svg" viewBox="0 0 85 85"><defs><style>.beb1fe59-49e7-471a-a117-221a96b5a008{fill:#39b34a;}.fd9478b0-d436-4d7a-a76d-aaf74687876e{fill:#006837;}</style></defs><title>S</title><g id="a190eb5b-bd48-4f78-a6e3-d5806aa6ccfa" data-name="Grafica"><rect class="beb1fe59-49e7-471a-a117-221a96b5a008" width="85" height="85"/><path class="fd9478b0-d436-4d7a-a76d-aaf74687876e" d="M61.2831,67.7362c-1.9663,1.0024-5.0846.7388-7.2921-.39-3.0419-1.5552-4.7641-1.175-7.9521.2151a8.3386,8.3386,0,0,1-7.1592,0c-3.1859-1.3941-4.8288-1.77-7.8707-.2151-2.2075,1.1286-5.3716,1.3922-7.3379.39-3.4475-1.7583-5.9111-2.0863-8.6488-.4292a6.678,6.678,0,0,1-3.7853.879v6.2211a7.5364,7.5364,0,0,0,4.0284-.9779,7.2211,7.2211,0,0,1,7.1246-.1659c3.11,1.5553,5.7459,1.5553,8.3822.2027s4.0973-1.5962,7.3-.2363a9.4621,9.4621,0,0,0,8.8213.06c3.203-1.36,4.6979-1.1759,7.3342.1765s5.2721,1.3526,8.382-.2027a7.0836,7.0836,0,0,1,7.0435.1659,7.42,7.42,0,0,0,4.11.9779V68.186a6.4621,6.4621,0,0,1-3.7856-.879C67.24,65.65,64.7306,65.9779,61.2831,67.7362Z"/><path class="fd9478b0-d436-4d7a-a76d-aaf74687876e" d="M70.0116,58.23c-5.38-2.8777-7.7208.6262-10.6126.6262V44.8283L63.86,34.7524a2.6256,2.6256,0,0,0-1.6224-3.6515L59.5341,30.019V21.2958H54.3255V16.7H47.0286V10.5436H37.9714V16.7H30.6745v4.5961H25.4662V30.019l-2.704,1.0819A2.6256,2.6256,0,0,0,21.14,34.7524L25.601,44.8283V58.8562c-2.8907-.001-5.35-3.4484-10.6108-.5712h-.0018a8.98,8.98,0,0,1-3.7852.879v6.0126a8.2449,8.2449,0,0,0,3.988-1.15,7.5527,7.5527,0,0,1,7.1651.0058c3.11,1.5554,5.7459,1.5554,8.382.203a7.6052,7.6052,0,0,1,7.4019-.203,8.7064,8.7064,0,0,0,8.6825.0361,7.5664,7.5664,0,0,1,7.4388.1669c2.6363,1.3524,5.2726,1.3524,8.3819-.203a7.62,7.62,0,0,1,7.1652-.0058,8.6,8.6,0,0,0,3.9882,1.15V59.1093A8.7114,8.7114,0,0,1,70.0116,58.23ZM55.681,28.396,42.5,23.0656l-13.181,5.33V24.8774h5.2049V20.3491H50.4761v4.5283H55.681Z"/></g></svg>