<svg xmlns="http://www.w3.org/2000/svg" viewBox="0 0 44.4792 18.2294"><defs><style>.a1b5e991-bd3a-4b41-b3b2-f5adba94095a{fill:#0093df;}.adbe86f8-83f7-4ab7-9178-ab9f69407f4e{fill:#00923d;}.a5487e4b-96d1-4632-9af1-f71ff1efd764{fill:#ff151f;}</style></defs><title>S</title><g id="a2604297-4257-4962-b68b-6d10d01d080a" data-name="Grafica"><path class="a1b5e991-bd3a-4b41-b3b2-f5adba94095a" d="M1.542,4.2884c3.4091.0652,6.1237,3.561,6.1237,3.561l.0866.1089A51.5458,51.5458,0,0,1,8.7512,2.812C6.7105,2.2255,7.514.0759,7.514.0759S7.5552.0462,7.6253,0A9.2344,9.2344,0,0,0,1.3564,4.27Z"/><path class="a1b5e991-bd3a-4b41-b3b2-f5adba94095a" d="M11.162.0756a2.0808,2.0808,0,0,1-1.3248,2.736A28.0431,28.0431,0,0,1,10.9227,7.85c2.7262-3.2359,5.6281-3.5667,6.1659-3.6005A9.2411,9.2411,0,0,0,11.157.0616l.005.014"/><path class="adbe86f8-83f7-4ab7-9178-ab9f69407f4e" d="M7.7743,9.6525C5.1034,6.829.3687,7.1556.3687,7.1556L.2,7.1746A9.3124,9.3124,0,0,0,0,9.0874a9.19,9.19,0,0,0,.8084,3.7762c.0272-.0288.0536-.0552.0816-.0841a9.8379,9.8379,0,0,1,6.8843-3.127"/><path class="adbe86f8-83f7-4ab7-9178-ab9f69407f4e" d="M18.2531,7.1505C13.0968,7.0392,10.88,9.6746,10.88,9.6746a9.676,9.676,0,0,1,6.8365,3.0429,9.2447,9.2447,0,0,0,.537-5.567"/><path class="a5487e4b-96d1-4632-9af1-f71ff1efd764" d="M15.4365,15.9179C14.4738,12.8758,11.27,10.89,11.27,10.89a28.4358,28.4358,0,0,1-.5106,7.2984,9.1954,9.1954,0,0,0,4.677-2.27"/><path class="a5487e4b-96d1-4632-9af1-f71ff1efd764" d="M7.405,10.89a10.0738,10.0738,0,0,0-4.2341,5.1249l-.0115.0223a9.182,9.182,0,0,0,4.8147,2.1925,33.401,33.401,0,0,1-.5691-7.34"/><path d="M21.3389,13.5149V3.8673h2.6495a10.6707,10.6707,0,0,1,2.17.1476,2.7323,2.7323,0,0,1,1.0583.4974,2.6,2.6,0,0,1,.7721,1.0088,3.315,3.315,0,0,1,.27,1.35,2.9427,2.9427,0,0,1-.53,1.8222,2.5666,2.5666,0,0,1-1.5475.9329l2.5348,3.8884H25.85L23.7154,9.7386v3.7763Zm2.3765-5.0878h.47a1.9741,1.9741,0,0,0,1.1978-.29,1.0707,1.0707,0,0,0,.3777-.9089,1.304,1.304,0,0,0-.3522-1.0311A1.8055,1.8055,0,0,0,24.2235,5.89h-.5081Z"/><polygon points="30.346 13.515 30.346 6.146 28.262 6.146 28.262 3.867 34.965 3.867 34.965 6.146 32.882 6.146 32.882 13.515 30.346 13.515"/><path d="M38.6458,13.5148,34.7442,3.8672h2.694L39.3,9.2643c.0173.0569.0519.1939.1047.4116s.1221.5106.2071.8793c.0676-.2936.1311-.56.1905-.7976s.1039-.4009.1336-.4933l1.8494-5.3971h2.694l-3.9016,9.6476Z"/><path d="M23.4616,15.1669v.8959a1.181,1.181,0,0,0-.3242-.2739.7115.7115,0,0,0-.3456-.0882.6968.6968,0,0,0-.5511.2416.9208.9208,0,0,0-.2111.6294.8649.8649,0,0,0,.2145.6005.738.738,0,0,0,.8933.15,1.1509,1.1509,0,0,0,.3242-.2763v.8983a1.8433,1.8433,0,0,1-.3746.1418,1.523,1.523,0,0,1-.3761.0471,1.5753,1.5753,0,0,1-.4388-.0586,1.2354,1.2354,0,0,1-.3695-.1773,1.4974,1.4974,0,0,1-.495-.5692,1.7107,1.7107,0,0,1-.1707-.7721,1.7479,1.7479,0,0,1,.108-.6277,1.5241,1.5241,0,0,1,.3259-.5122,1.3576,1.3576,0,0,1,.4652-.3292,1.4651,1.4651,0,0,1,.5749-.1088,1.5277,1.5277,0,0,1,.3761.047,1.8492,1.8492,0,0,1,.3746.1418"/><path d="M26.6729,16.56a1.601,1.601,0,0,1-.1146.6079,1.5379,1.5379,0,0,1-.3341.5073,1.5781,1.5781,0,0,1-.5073.3415,1.526,1.526,0,0,1-1.6876-.3415,1.52,1.52,0,0,1-.34-.51,1.6512,1.6512,0,0,1,0-1.2134,1.5477,1.5477,0,0,1,.34-.5081,1.5335,1.5335,0,0,1,1.69-.3414,1.5365,1.5365,0,0,1,.5048.3414,1.5542,1.5542,0,0,1,.3333.5073,1.6029,1.6029,0,0,1,.1154.6088m-1.5482.8834a.6853.6853,0,0,0,.5436-.2516,1.0306,1.0306,0,0,0-.0034-1.2629.7088.7088,0,0,0-1.0839-.0008,1.045,1.045,0,0,0-.0032,1.2662.685.685,0,0,0,.5469.2491"/><path d="M30.2833,18.0572h-.7391l-.17-1.3c-.0123-.0915-.023-.1946-.0329-.306s-.019-.2351-.0264-.3687a3.8674,3.8674,0,0,1-.11.4776c-.0116.0388-.02.0693-.0248.0883l-.3942,1.4088H28.259l-.3942-1.4088-.024-.0883a3.4653,3.4653,0,0,1-.1088-.4752c-.0083.1139-.0173.2269-.0273.3383s-.0231.2226-.0379.334l-.17,1.3h-.7358L27.209,15.05h.7828l.4372,1.5508c.0024.0116.0082.03.0157.0536a1.9892,1.9892,0,0,1,.0775.3547,1.7382,1.7382,0,0,1,.03-.1765c.0148-.0652.0346-.1436.0594-.2359l.4421-1.5467h.7836Z"/><polygon points="30.498 18.057 30.498 15.05 32.275 15.05 32.275 15.709 31.269 15.709 31.269 16.231 32.217 16.231 32.217 16.876 31.269 16.876 31.269 17.384 32.275 17.384 32.275 18.057 30.498 18.057"/><path d="M32.587,18.0574V15.05h.8257a3.3466,3.3466,0,0,1,.6764.0462.8553.8553,0,0,1,.33.1551.8162.8162,0,0,1,.2409.3143,1.0365,1.0365,0,0,1,.0841.4215.917.917,0,0,1-.1658.5683.8057.8057,0,0,1-.4817.29l.79,1.2117h-.8933L33.3277,16.88v1.1771Zm.7407-1.5862h.146a.6167.6167,0,0,0,.3737-.09.3349.3349,0,0,0,.1179-.2838.4063.4063,0,0,0-.11-.3217.5648.5648,0,0,0-.37-.0948h-.1584Z"/><path d="M37.0783,15.1669v.8959a1.1924,1.1924,0,0,0-.3241-.2739.7122.7122,0,0,0-.3457-.0882.6967.6967,0,0,0-.551.2416.9208.9208,0,0,0-.2111.6294.8653.8653,0,0,0,.2144.6005.7382.7382,0,0,0,.8934.15,1.1617,1.1617,0,0,0,.3241-.2763v.8983a1.86,1.86,0,0,1-.3745.1418,1.5278,1.5278,0,0,1-.3761.0471,1.5671,1.5671,0,0,1-.4388-.0586,1.2268,1.2268,0,0,1-.37-.1773,1.498,1.498,0,0,1-.4949-.5692,1.7107,1.7107,0,0,1-.1707-.7721,1.7479,1.7479,0,0,1,.108-.6277,1.5238,1.5238,0,0,1,.3258-.5122,1.3557,1.3557,0,0,1,.4644-.3292,1.47,1.47,0,0,1,.5758-.1088,1.5325,1.5325,0,0,1,.3761.047,1.8665,1.8665,0,0,1,.3745.1418"/><rect x="37.3321" y="15.0504" width="0.7985" height="3.0074"/><path d="M38.2171,18.057,39.2177,15.05h.99L41.21,18.057h-.7861l-.1468-.5379H39.1533l-.15.5379Zm1.107-1.1235h.7869l-.2953-.9923c-.01-.03-.0223-.0784-.0379-.146s-.0363-.1526-.0611-.2582c-.0173.0734-.0338.1444-.05.2112s-.0338.1319-.0512.193Z"/><polygon points="41.276 18.057 41.276 15.05 42.066 15.05 42.066 17.354 43.049 17.354 43.049 18.057 41.276 18.057"/></g></svg>