<svg xmlns="http://www.w3.org/2000/svg" viewBox="0 0 1023.9999 768"><defs><style>.f3883ecc-9d27-4077-a572-1f5fc5d6c091{fill:red;}.ebc34be0-9040-4c8b-84eb-a960bcca17c8{fill:#006837;}.a7f22372-be6b-42e4-a73f-f2565d4a2190,.f1ac3801-8242-4bbe-a03d-089a681a2683,.f7d1e733-dc27-4e39-a185-a2353d012a65{fill:none;stroke-miterlimit:10;}.f1ac3801-8242-4bbe-a03d-089a681a2683{stroke:#fff;stroke-linecap:round;stroke-width:4px;}.fc6d5cb4-18fd-4810-a7a6-68a810a83427{fill:#026838;}.b04368b2-ded3-435b-afb7-a7b32df9a900{fill:#39b54a;}.f57655ca-321c-4fd5-9c1e-a90e561849c3{fill:#39b34a;}.e537c162-bde0-4e41-811a-4bcbd339d64a{fill:#fff;}.b52c8293-661c-4427-b9cd-dcfb887c1c75,.b7fb256e-ded0-43f9-a235-dfaf8af93614{opacity:0.5;}.b52c8293-661c-4427-b9cd-dcfb887c1c75{font-size:12px;font-family:Calibri;}.ae8ec0ef-c3b9-413c-80eb-c7068c93baa0,.b52c8293-661c-4427-b9cd-dcfb887c1c75,.e0cb2cec-edb1-4caa-9ca1-ff05addba566{fill:#999;}.a2c9129a-b5ac-4ee2-966f-568b721fe77b{letter-spacing:-0.0093em;}.ed5bdc79-be6c-4686-b728-cc094507995f{letter-spacing:-0.0206em;}.b7fb256e-ded0-43f9-a235-dfaf8af93614{fill:#fbb03b;}.b1a161b7-860f-4c69-8c61-dfe61d80216b{fill:#f4eb9f;}.fbc98565-5049-47ac-9faa-ca4026507383{font-size:9px;font-family:Calibri-LightItalic, Calibri;font-weight:300;}.bbbf37a4-e7f0-462d-86e1-71cec548030b,.fbc98565-5049-47ac-9faa-ca4026507383{fill:gray;}.ae8ec0ef-c3b9-413c-80eb-c7068c93baa0,.e0cb2cec-edb1-4caa-9ca1-ff05addba566,.fbc98565-5049-47ac-9faa-ca4026507383{font-style:italic;}.b15cde56-fa18-47ea-9bcf-f6059ba89c1f{letter-spacing:-0.0049em;}.e87c9511-ab8a-4498-9fe6-e8de3fa98449{letter-spacing:-0.0122em;}.b12be03b-235b-4e54-9679-20dfaff2d787{letter-spacing:-0.0001em;}.b3159fe2-7a1b-4a8d-a239-311ce55d63a8{font-size:6.5142px;}.a11625e2-988c-4fce-8055-a4547b6e8518,.ab863325-2235-464a-9245-e269085fa4d8,.b3159fe2-7a1b-4a8d-a239-311ce55d63a8,.e570789f-734e-452d-90ce-f802f3cc2808,.ecb14c35-aa9f-4af8-bf1d-6a3bba80c31e{fill:#0071bc;}.ab863325-2235-464a-9245-e269085fa4d8,.b3159fe2-7a1b-4a8d-a239-311ce55d63a8,.e570789f-734e-452d-90ce-f802f3cc2808,.ecb14c35-aa9f-4af8-bf1d-6a3bba80c31e{font-family:MyriadPro-Regular, Myriad Pro;}.a7f22372-be6b-42e4-a73f-f2565d4a2190,.f7d1e733-dc27-4e39-a185-a2353d012a65{stroke:#0071bc;}.a7f22372-be6b-42e4-a73f-f2565d4a2190{stroke-width:0.25px;}.e570789f-734e-452d-90ce-f802f3cc2808{font-size:7.5214px;}.ab863325-2235-464a-9245-e269085fa4d8,.ecb14c35-aa9f-4af8-bf1d-6a3bba80c31e{font-size:5.9186px;}.ecb14c35-aa9f-4af8-bf1d-6a3bba80c31e{letter-spacing:-0.0002em;}.e0cb2cec-edb1-4caa-9ca1-ff05addba566{font-size:10px;}.ae8ec0ef-c3b9-413c-80eb-c7068c93baa0,.e0cb2cec-edb1-4caa-9ca1-ff05addba566{font-family:Calibri-Italic, Calibri;}.ff16b53b-80c7-4a3b-906f-d0a8044884c2{letter-spacing:-0.0044em;}.ae8ec0ef-c3b9-413c-80eb-c7068c93baa0{font-size:9.6207px;}.b4dad024-dd52-46a3-829d-4cf7d086cadf{letter-spacing:-0.0137em;}.b0546cbe-ba66-4422-9ee2-df2d5aec4f57{letter-spacing:-0.0001em;}.a5a7de2d-a20a-4b08-af3f-76093d43fc6d{fill:#666;}.e30a525e-7d58-4f48-b2f6-32a5e9dd466f{fill:#4d4d4d;}</style></defs><title>S</title><g id="eec7b8a8-031d-40b3-8d5e-3673b90b5bb3" data-name="Grafica"><rect class="f3883ecc-9d27-4077-a572-1f5fc5d6c091" y="0.381" width="930.5466" height="42.1387"/><rect class="ebc34be0-9040-4c8b-84eb-a960bcca17c8" y="37.1801" width="930.5466" height="5.3396"/><line class="f1ac3801-8242-4bbe-a03d-089a681a2683" x1="23.6289" y1="13.2567" x2="40.3991" y2="13.2567"/><line class="f1ac3801-8242-4bbe-a03d-089a681a2683" x1="23.6289" y1="21.2598" x2="40.3991" y2="21.2598"/><line class="f1ac3801-8242-4bbe-a03d-089a681a2683" x1="23.6289" y1="29.2629" x2="40.3991" y2="29.2629"/><path class="f3883ecc-9d27-4077-a572-1f5fc5d6c091" d="M941.7267,34.7509V28.7815h19.9167V26.7889H941.7267V22.8048l1.9854-1.9926h23.9092V34.7509ZM945.7023,18.82l5.9779-5.978h15.9411V18.82Z"/><path class="f3883ecc-9d27-4077-a572-1f5fc5d6c091" d="M969.6139,32.6161V12.8416h5.9682V26.6479Z"/><polygon class="f3883ecc-9d27-4077-a572-1f5fc5d6c091" points="997.491 34.751 1002.52 34.726 1003.469 33.777 1003.469 33.742 1003.469 20.812 991.513 20.812 991.513 26.789 997.491 26.789 997.491 28.782 990.521 28.782 983.543 21.804 983.543 18.82 1003.469 18.82 997.501 12.842 977.575 12.842 977.575 24.797 987.528 34.751 997.491 34.751"/><polygon class="f3883ecc-9d27-4077-a572-1f5fc5d6c091" points="1011.42 36.511 1011.42 18.808 1005.451 12.871 1005.451 34.05 1003.016 36.511 941.727 36.511 947.705 42.48 1005.451 42.48 1011.43 36.511 1011.42 36.511"/><rect class="fc6d5cb4-18fd-4810-a7a6-68a810a83427" x="371.811" y="192.223" width="276.378" height="95.9859"/><polygon class="f3883ecc-9d27-4077-a572-1f5fc5d6c091" points="626.938 277.259 616.308 277.259 616.308 288.203 626.938 288.203 637.568 288.203 637.568 277.259 626.938 277.259"/><polygon class="b04368b2-ded3-435b-afb7-a7b32df9a900" points="605.669 277.259 595.039 277.259 595.039 288.203 605.669 288.203 616.299 288.203 616.299 277.259 605.669 277.259"/><rect class="f57655ca-321c-4fd5-9c1e-a90e561849c3" x="394.8345" y="215.2634" width="17.7326" height="17.7239"/><path class="fc6d5cb4-18fd-4810-a7a6-68a810a83427" d="M412.567,215.2634v17.7239H394.8345V215.2634H412.567m1.7637-1.768h-21.26v21.26h21.26v-21.26Z"/><path class="e537c162-bde0-4e41-811a-4bcbd339d64a" d="M403.7006,218.7165a3.0936,3.0936,0,1,0,3.0939,3.0934A3.0939,3.0939,0,0,0,403.7006,218.7165Zm0,5.0631a1.97,1.97,0,1,1,1.97-1.97A1.9694,1.9694,0,0,1,403.7006,223.78Z"/><path class="e537c162-bde0-4e41-811a-4bcbd339d64a" d="M410.2076,230.0388a6.8468,6.8468,0,0,0-13.0137,0Z"/><rect class="e537c162-bde0-4e41-811a-4bcbd339d64a" x="414.3224" y="215.3138" width="223.3523" height="17.6231"/><rect class="e537c162-bde0-4e41-811a-4bcbd339d64a" x="414.3224" y="246.8738" width="223.3523" height="17.6231"/><rect class="f57655ca-321c-4fd5-9c1e-a90e561849c3" x="394.8344" y="246.8233" width="17.7327" height="17.724"/><path class="fc6d5cb4-18fd-4810-a7a6-68a810a83427" d="M412.567,246.8233v17.7241H394.8344V246.8233H412.567m1.7637-1.768h-21.26v21.26h21.26v-21.26Z"/><path class="e537c162-bde0-4e41-811a-4bcbd339d64a" d="M409.9433,261.17l.0094-1.85-5.3912-5.4043a3.8209,3.8209,0,1,0-2.7,2.6969l1.0822,1.0848,1.7238-.0086-.0066,1.3264,1.271-.0064-.0065,1.309,1.3232-.0066-.0066,1.3264,2.2461-.0113C409.8191,261.6246,409.9416,261.51,409.9433,261.17Zm-10.9284-8.7088a1.0164,1.0164,0,1,1,1.4283-.0073A1.0144,1.0144,0,0,1,399.0149,252.4613Z"/><text class="b52c8293-661c-4427-b9cd-dcfb887c1c75" transform="translate(418.4661 227.6528) scale(1.0088 1)">Usuario</text><text class="b52c8293-661c-4427-b9cd-dcfb887c1c75" transform="translate(418.4657 259.8308) scale(1.0088 1)">Co<tspan class="a2c9129a-b5ac-4ee2-966f-568b721fe77b" x="12.7264" y="0">n</tspan><tspan x="18.9202" y="0">t</tspan><tspan class="ed5bdc79-be6c-4686-b728-cc094507995f" x="22.9397" y="0">r</tspan><tspan x="26.8769" y="0">aseña</tspan></text><rect class="b7fb256e-ded0-43f9-a235-dfaf8af93614" x="914.1732" y="21.2598" width="21.2598" height="21.2598"/><rect class="b7fb256e-ded0-43f9-a235-dfaf8af93614" x="914.1732" y="31.8898" width="10.6299" height="10.6299"/><rect class="b7fb256e-ded0-43f9-a235-dfaf8af93614" x="914.1732" y="37.2047" width="5.315" height="5.315"/><rect class="b7fb256e-ded0-43f9-a235-dfaf8af93614" x="914.1732" y="31.8898" width="5.315" height="5.315"/><rect class="b7fb256e-ded0-43f9-a235-dfaf8af93614" x="914.1732" y="26.5748" width="5.315" height="5.315"/><rect class="b7fb256e-ded0-43f9-a235-dfaf8af93614" x="914.1732" y="21.2598" width="5.315" height="5.315"/><rect class="f3883ecc-9d27-4077-a572-1f5fc5d6c091" x="786.625" y="255.0891" width="85.0394" height="2.6575"/><rect class="b1a161b7-860f-4c69-8c61-dfe61d80216b" x="786.625" y="257.7465" width="85.0394" height="18.6024"/><text class="fbc98565-5049-47ac-9faa-ca4026507383" transform="translate(791.2586 270.421)">máximo 5 <tspan class="b15cde56-fa18-47ea-9bcf-f6059ba89c1f" x="37.6133" y="0">c</tspan><tspan x="41.335" y="0">arac</tspan><tspan class="e87c9511-ab8a-4498-9fe6-e8de3fa98449" x="57.2656" y="0">t</tspan><tspan class="b12be03b-235b-4e54-9679-20dfaff2d787" x="60.1133" y="0">eres</tspan></text><rect class="f3883ecc-9d27-4077-a572-1f5fc5d6c091" x="851.1695" y="253.2422" width="3.6937" height="3.6937" transform="translate(69.4675 677.8875) rotate(-45)"/><text class="b3159fe2-7a1b-4a8d-a239-311ce55d63a8" transform="translate(909.4235 266.3126) scale(0.583)">2</text><text class="b3159fe2-7a1b-4a8d-a239-311ce55d63a8" transform="translate(911.3717 268.048)">/</text><text class="b3159fe2-7a1b-4a8d-a239-311ce55d63a8" transform="translate(913.6061 268.046) scale(0.583)">4</text><text class="b3159fe2-7a1b-4a8d-a239-311ce55d63a8" transform="translate(915.5543 268.048)"><tspan xml:space="preserve"> a</tspan></text><polyline class="a7f22372-be6b-42e4-a73f-f2565d4a2190" points="905.042 285.984 891.744 285.984 882.095 273.89"/><polyline class="a7f22372-be6b-42e4-a73f-f2565d4a2190" points="904.679 250.709 891.744 250.709 882.095 259.107"/><text class="e570789f-734e-452d-90ce-f802f3cc2808" transform="translate(892.7652 282.1327) scale(0.583)">1</text><text class="e570789f-734e-452d-90ce-f802f3cc2808" transform="translate(895.0142 284.1356)">/</text><text class="e570789f-734e-452d-90ce-f802f3cc2808" transform="translate(897.5943 284.1327) scale(0.583)">4</text><text class="e570789f-734e-452d-90ce-f802f3cc2808" transform="translate(899.8433 284.1356)"><tspan xml:space="preserve"> a</tspan></text><text class="e570789f-734e-452d-90ce-f802f3cc2808" transform="translate(892.3739 247.6233) scale(0.583)">1</text><text class="e570789f-734e-452d-90ce-f802f3cc2808" transform="translate(894.6229 249.6263)">/</text><text class="e570789f-734e-452d-90ce-f802f3cc2808" transform="translate(897.203 249.6233) scale(0.583)">8</text><text class="e570789f-734e-452d-90ce-f802f3cc2808" transform="translate(899.452 249.6263)"><tspan xml:space="preserve"> a</tspan></text><polyline class="a7f22372-be6b-42e4-a73f-f2565d4a2190" points="904.679 241.524 891.744 241.524 882.095 254.282"/><text class="e570789f-734e-452d-90ce-f802f3cc2808" transform="translate(892.3739 237.9347) scale(0.583)">1</text><text class="e570789f-734e-452d-90ce-f802f3cc2808" transform="translate(894.6229 239.9376)">/</text><text class="e570789f-734e-452d-90ce-f802f3cc2808" transform="translate(897.203 239.9347) scale(0.583)">8</text><text class="e570789f-734e-452d-90ce-f802f3cc2808" transform="translate(899.452 239.9376)"><tspan xml:space="preserve"> a</tspan></text><text class="ab863325-2235-464a-9245-e269085fa4d8" transform="translate(909.4235 258.2546) scale(0.583)">1</text><text class="ecb14c35-aa9f-4af8-bf1d-6a3bba80c31e" transform="translate(911.194 259.8308)">/</text><text class="ab863325-2235-464a-9245-e269085fa4d8" transform="translate(913.2233 259.8288) scale(0.583)">4</text><text class="ab863325-2235-464a-9245-e269085fa4d8" transform="translate(914.9938 259.8308)"><tspan xml:space="preserve"> a</tspan></text><line class="a7f22372-be6b-42e4-a73f-f2565d4a2190" x1="906.2374" y1="270.9411" x2="871.3554" y2="270.9411"/><line class="a7f22372-be6b-42e4-a73f-f2565d4a2190" x1="883.6535" y1="276.2381" x2="871.3554" y2="276.2381"/><line class="a7f22372-be6b-42e4-a73f-f2565d4a2190" x1="883.6535" y1="257.7465" x2="871.3554" y2="257.7465"/><line class="a7f22372-be6b-42e4-a73f-f2565d4a2190" x1="906.2374" y1="260.3298" x2="871.6644" y2="260.3298"/><line class="a7f22372-be6b-42e4-a73f-f2565d4a2190" x1="906.2374" y1="255.1181" x2="871.6644" y2="255.1181"/><line class="a7f22372-be6b-42e4-a73f-f2565d4a2190" x1="903.1049" y1="270.941" x2="903.1049" y2="260.3298"/><circle class="e537c162-bde0-4e41-811a-4bcbd339d64a" cx="903.1049" cy="270.941" r="0.9399"/><path class="a11625e2-988c-4fce-8055-a4547b6e8518" d="M904.17,270.941a1.065,1.065,0,1,0-1.065,1.065,1.0662,1.0662,0,0,0,1.065-1.065Zm-1.88,0a.815.815,0,1,1,.8149.815.8157.8157,0,0,1-.8149-.815Z"/><circle class="e537c162-bde0-4e41-811a-4bcbd339d64a" cx="903.1049" cy="260.3298" r="0.9399"/><path class="a11625e2-988c-4fce-8055-a4547b6e8518" d="M904.17,260.33a1.065,1.065,0,1,1-1.065-1.065,1.0662,1.0662,0,0,1,1.065,1.065Zm-1.88,0a.815.815,0,1,0,.8149-.815.8157.8157,0,0,0-.8149.815Z"/><line class="a7f22372-be6b-42e4-a73f-f2565d4a2190" x1="906.2374" y1="255.0891" x2="871.6644" y2="255.0891"/><line class="a7f22372-be6b-42e4-a73f-f2565d4a2190" x1="903.1048" y1="260.3298" x2="903.1048" y2="255.1181"/><circle class="e537c162-bde0-4e41-811a-4bcbd339d64a" cx="903.1048" cy="260.3298" r="0.9399"/><path class="a11625e2-988c-4fce-8055-a4547b6e8518" d="M904.17,260.33a1.065,1.065,0,1,0-1.065,1.0649,1.0662,1.0662,0,0,0,1.065-1.0649Zm-1.88,0a.815.815,0,1,1,.8149.8149.8157.8157,0,0,1-.8149-.8149Z"/><circle class="e537c162-bde0-4e41-811a-4bcbd339d64a" cx="903.1048" cy="255.1181" r="0.9399"/><path class="a11625e2-988c-4fce-8055-a4547b6e8518" d="M904.17,255.1181a1.065,1.065,0,1,1-1.065-1.0649,1.0662,1.0662,0,0,1,1.065,1.0649Zm-1.88,0a.815.815,0,1,0,.8149-.8149.8157.8157,0,0,0-.8149.8149Z"/><text class="ab863325-2235-464a-9245-e269085fa4d8" transform="translate(866.5897 317.321) scale(0.583)">1</text><text class="ecb14c35-aa9f-4af8-bf1d-6a3bba80c31e" transform="translate(868.3602 318.8972)">/</text><text class="ab863325-2235-464a-9245-e269085fa4d8" transform="translate(870.3895 318.8952) scale(0.583)">4</text><text class="ab863325-2235-464a-9245-e269085fa4d8" transform="translate(872.16 318.8972)"><tspan xml:space="preserve"> a</tspan></text><line class="a7f22372-be6b-42e4-a73f-f2565d4a2190" x1="866.1146" y1="311.6059" x2="866.1146" y2="277.0329"/><line class="a7f22372-be6b-42e4-a73f-f2565d4a2190" x1="871.3263" y1="311.6059" x2="871.3263" y2="277.0329"/><line class="a7f22372-be6b-42e4-a73f-f2565d4a2190" x1="871.3554" y1="311.6059" x2="871.3554" y2="277.0329"/><line class="a7f22372-be6b-42e4-a73f-f2565d4a2190" x1="866.1147" y1="308.4735" x2="871.3263" y2="308.4735"/><circle class="e537c162-bde0-4e41-811a-4bcbd339d64a" cx="866.1147" cy="308.4735" r="0.9399"/><path class="a11625e2-988c-4fce-8055-a4547b6e8518" d="M866.1147,309.5384a1.065,1.065,0,1,0-1.065-1.0649,1.0662,1.0662,0,0,0,1.065,1.0649Zm0-1.88a.815.815,0,1,1-.815.815.8158.8158,0,0,1,.815-.815Z"/><circle class="e537c162-bde0-4e41-811a-4bcbd339d64a" cx="871.3263" cy="308.4735" r="0.9399"/><path class="a11625e2-988c-4fce-8055-a4547b6e8518" d="M871.3263,309.5384a1.065,1.065,0,1,1,1.065-1.0649,1.0662,1.0662,0,0,1-1.065,1.0649Zm0-1.88a.815.815,0,1,0,.815.815.8158.8158,0,0,0-.815-.815Z"/><line class="a7f22372-be6b-42e4-a73f-f2565d4a2190" x1="881.8275" y1="260.3298" x2="881.8275" y2="257.7465"/><circle class="e537c162-bde0-4e41-811a-4bcbd339d64a" cx="881.8275" cy="260.3298" r="0.9399"/><path class="a11625e2-988c-4fce-8055-a4547b6e8518" d="M882.8924,260.33a1.0649,1.0649,0,1,0-1.0649,1.0649,1.0661,1.0661,0,0,0,1.0649-1.0649Zm-1.88,0a.8149.8149,0,1,1,.8149.8149.8156.8156,0,0,1-.8149-.8149Z"/><path class="e537c162-bde0-4e41-811a-4bcbd339d64a" d="M882.7674,257.7465a.94.94,0,1,0-.94.94A.94.94,0,0,0,882.7674,257.7465Z"/><path class="a11625e2-988c-4fce-8055-a4547b6e8518" d="M882.8924,257.7465a1.0649,1.0649,0,1,1-1.0649-1.0649,1.0662,1.0662,0,0,1,1.0649,1.0649Zm-1.88,0a.8149.8149,0,1,0,.8149-.8149.8157.8157,0,0,0-.8149.8149Z"/><line class="a7f22372-be6b-42e4-a73f-f2565d4a2190" x1="883.6535" y1="252.5349" x2="854.1444" y2="252.5349"/><line class="a7f22372-be6b-42e4-a73f-f2565d4a2190" x1="881.8275" y1="255.1181" x2="881.8275" y2="252.5349"/><circle class="e537c162-bde0-4e41-811a-4bcbd339d64a" cx="881.8275" cy="255.1181" r="0.9399"/><path class="a11625e2-988c-4fce-8055-a4547b6e8518" d="M882.8924,255.1181a1.0649,1.0649,0,1,0-1.0649,1.065,1.0662,1.0662,0,0,0,1.0649-1.065Zm-1.88,0a.8149.8149,0,1,1,.8149.815.8157.8157,0,0,1-.8149-.815Z"/><path class="e537c162-bde0-4e41-811a-4bcbd339d64a" d="M882.7674,252.5349a.94.94,0,1,0-.94.94A.94.94,0,0,0,882.7674,252.5349Z"/><path class="a11625e2-988c-4fce-8055-a4547b6e8518" d="M882.8924,252.5349a1.0649,1.0649,0,1,1-1.0649-1.065,1.0662,1.0662,0,0,1,1.0649,1.065Zm-1.88,0a.8149.8149,0,1,0,.8149-.815.8157.8157,0,0,0-.8149.815Z"/><line class="a7f22372-be6b-42e4-a73f-f2565d4a2190" x1="881.8275" y1="276.2381" x2="881.8275" y2="270.9411"/><circle class="e537c162-bde0-4e41-811a-4bcbd339d64a" cx="881.8275" cy="276.2381" r="0.9399"/><path class="a11625e2-988c-4fce-8055-a4547b6e8518" d="M882.8924,276.2381a1.0649,1.0649,0,1,0-1.0649,1.0649,1.0661,1.0661,0,0,0,1.0649-1.0649Zm-1.88,0a.8149.8149,0,1,1,.8149.8149.8156.8156,0,0,1-.8149-.8149Z"/><circle class="e537c162-bde0-4e41-811a-4bcbd339d64a" cx="881.8275" cy="270.9411" r="0.9399"/><path class="a11625e2-988c-4fce-8055-a4547b6e8518" d="M882.8924,270.9411a1.0649,1.0649,0,1,1-1.0649-1.065,1.0662,1.0662,0,0,1,1.0649,1.065Zm-1.88,0a.8149.8149,0,1,0,.8149-.815.8157.8157,0,0,0-.8149.815Z"/><polyline class="f7d1e733-dc27-4e39-a185-a2353d012a65" points="806.126 270.421 791.041 317.828 774.68 317.828"/><path class="e537c162-bde0-4e41-811a-4bcbd339d64a" d="M804.3345,269.8509a1.88,1.88,0,1,1,1.2212,2.3614A1.88,1.88,0,0,1,804.3345,269.8509Z"/><path class="a11625e2-988c-4fce-8055-a4547b6e8518" d="M804.0962,269.7751a2.13,2.13,0,1,0,2.6753-1.3838,2.1323,2.1323,0,0,0-2.6753,1.3838C803.74,270.8942,804.4522,268.6561,804.0962,269.7751Zm3.5828,1.14a1.63,1.63,0,1,1-1.0589-2.0474,1.6315,1.6315,0,0,1,1.0589,2.0474C807.4063,271.7718,807.9514,270.0585,807.679,270.9152Z"/><text class="e0cb2cec-edb1-4caa-9ca1-ff05addba566" transform="translate(677.4417 297.185) scale(1.0088 1)">9 <tspan class="ff16b53b-80c7-4a3b-906f-d0a8044884c2" x="7.3289" y="0">p</tspan><tspan x="12.4268" y="0">t</tspan></text><text class="ae8ec0ef-c3b9-413c-80eb-c7068c93baa0" transform="translate(703.8899 309.5135) scale(1.0088 1)">Calibri Ligth I<tspan class="b4dad024-dd52-46a3-829d-4cf7d086cadf" x="50.9831" y="0">t</tspan><tspan class="b0546cbe-ba66-4422-9ee2-df2d5aec4f57" x="54.0742" y="0">alic</tspan></text><rect class="a5a7de2d-a20a-4b08-af3f-76093d43fc6d" x="710.0207" y="289.859" width="15.8418" height="2.3301"/><rect class="a5a7de2d-a20a-4b08-af3f-76093d43fc6d" x="715.6125" y="293.1207" width="10.25" height="2.3301"/><rect class="a5a7de2d-a20a-4b08-af3f-76093d43fc6d" x="719.34" y="296.3814" width="6.5225" height="2.3301"/><path class="e30a525e-7d58-4f48-b2f6-32a5e9dd466f" d="M688.1169,310.0641l-.0918.2285h-3.707l.1113-.2285a2.511,2.511,0,0,0,.7453-.0879,1.0117,1.0117,0,0,0,.4552-.29,4.0393,4.0393,0,0,0,.5356-1.04l1.9789-5.0645a3.7072,3.7072,0,0,0,.2765-.9531.4035.4035,0,0,0-.0648-.2724.4712.4712,0,0,0-.2488-.1709,2.5314,2.5314,0,0,0-.6828-.0586l.0987-.2286h3.4805l-.0909.2286a1.6227,1.6227,0,0,0-.6379.0869,1.1054,1.1054,0,0,0-.4836.3525,4.9591,4.9591,0,0,0-.4848,1.0156l-1.9711,5.0645a4.5249,4.5249,0,0,0-.2851.8906.3993.3993,0,0,0,.0606.2637.4805.4805,0,0,0,.253.168A3.9054,3.9054,0,0,0,688.1169,310.0641Z"/><rect class="f7d1e733-dc27-4e39-a185-a2353d012a65" x="701.9445" y="287.6676" width="28.2637" height="13.0381"/><text class="e0cb2cec-edb1-4caa-9ca1-ff05addba566" transform="translate(730.2079 327.5245) scale(1.0088 1)">#808080</text><rect class="bbbf37a4-e7f0-462d-86e1-71cec548030b" x="674.0975" y="311.568" width="47.9524" height="23.9762"/><rect class="f7d1e733-dc27-4e39-a185-a2353d012a65" x="673.6789" y="287.6676" width="28.2656" height="13.0381"/><rect class="f7d1e733-dc27-4e39-a185-a2353d012a65" x="730.2082" y="287.6676" width="27.5078" height="13.0381"/><rect class="f7d1e733-dc27-4e39-a185-a2353d012a65" x="673.6789" y="300.6188" width="28.2656" height="10.9492"/><rect class="f7d1e733-dc27-4e39-a185-a2353d012a65" x="701.9445" y="300.6188" width="72.7359" height="10.9492"/><rect class="f7d1e733-dc27-4e39-a185-a2353d012a65" x="673.6789" y="311.568" width="101.0015" height="23.9762"/><rect class="a5a7de2d-a20a-4b08-af3f-76093d43fc6d" x="740.631" y="289.7867" width="6.7256" height="2.3301"/><rect class="a5a7de2d-a20a-4b08-af3f-76093d43fc6d" x="736.1105" y="293.0484" width="15.7657" height="2.3301"/><rect class="a5a7de2d-a20a-4b08-af3f-76093d43fc6d" x="740.7316" y="296.3092" width="6.5235" height="2.3301"/></g></svg>