<svg xmlns="http://www.w3.org/2000/svg" viewBox="0 0 85 85"><defs><style>.aedf67c1-4b57-470a-af80-23bedab2f155{fill:#ccc;}.ae81d745-21f3-410d-890b-d224f137fdbe{fill:#979797;}</style></defs><title>S</title><g id="b9cff6bf-46c0-4ef9-b904-4503d7fb1422" data-name="Grafica"><rect class="aedf67c1-4b57-470a-af80-23bedab2f155" width="85" height="85"/><path class="ae81d745-21f3-410d-890b-d224f137fdbe" d="M33.7054,27.679H27.81a1.8336,1.8336,0,0,0-1.8492,1.8177v5.7948A1.8335,1.8335,0,0,0,27.81,37.1091h5.8954a1.8338,1.8338,0,0,0,1.8494-1.8176V29.4967A1.8339,1.8339,0,0,0,33.7054,27.679Z"/><path class="ae81d745-21f3-410d-890b-d224f137fdbe" d="M44.9443,27.679H39.0487A1.8336,1.8336,0,0,0,37.2,29.4967v5.7948a1.8335,1.8335,0,0,0,1.8492,1.8176h5.8956a1.8337,1.8337,0,0,0,1.8492-1.8176V29.4967A1.8338,1.8338,0,0,0,44.9443,27.679Z"/><path class="ae81d745-21f3-410d-890b-d224f137fdbe" d="M50.2874,37.1091H56.183a1.8336,1.8336,0,0,0,1.8493-1.8176V29.4967A1.8337,1.8337,0,0,0,56.183,27.679H50.2874a1.8336,1.8336,0,0,0-1.8492,1.8177v5.7948A1.8335,1.8335,0,0,0,50.2874,37.1091Z"/><path class="ae81d745-21f3-410d-890b-d224f137fdbe" d="M33.7054,38.6359H27.81a1.8336,1.8336,0,0,0-1.8492,1.8177v5.7948A1.8335,1.8335,0,0,0,27.81,48.066h5.8954a1.8338,1.8338,0,0,0,1.8494-1.8176V40.4536A1.8339,1.8339,0,0,0,33.7054,38.6359Z"/><path class="ae81d745-21f3-410d-890b-d224f137fdbe" d="M44.9443,38.6359H39.0487A1.8336,1.8336,0,0,0,37.2,40.4536v5.7948a1.8335,1.8335,0,0,0,1.8492,1.8176h5.8956a1.8337,1.8337,0,0,0,1.8492-1.8176V40.4536A1.8338,1.8338,0,0,0,44.9443,38.6359Z"/><path class="ae81d745-21f3-410d-890b-d224f137fdbe" d="M50.2874,48.066H56.183a1.8336,1.8336,0,0,0,1.8493-1.8176V40.4536a1.8337,1.8337,0,0,0-1.8493-1.8177H50.2874a1.8336,1.8336,0,0,0-1.8492,1.8177v5.7948A1.8335,1.8335,0,0,0,50.2874,48.066Z"/><path class="ae81d745-21f3-410d-890b-d224f137fdbe" d="M33.7054,49.5928H27.81a1.8336,1.8336,0,0,0-1.8492,1.8177v5.7948A1.8335,1.8335,0,0,0,27.81,59.0229h5.8954a1.8338,1.8338,0,0,0,1.8494-1.8176V51.4105A1.8339,1.8339,0,0,0,33.7054,49.5928Z"/><path class="ae81d745-21f3-410d-890b-d224f137fdbe" d="M44.9443,49.5928H39.0487A1.8336,1.8336,0,0,0,37.2,51.4105v5.7948a1.8335,1.8335,0,0,0,1.8492,1.8176h5.8956a1.8337,1.8337,0,0,0,1.8492-1.8176V51.4105A1.8338,1.8338,0,0,0,44.9443,49.5928Z"/><path class="ae81d745-21f3-410d-890b-d224f137fdbe" d="M50.2874,59.0229H56.183a1.8336,1.8336,0,0,0,1.8493-1.8176V51.4105a1.8337,1.8337,0,0,0-1.8493-1.8177H50.2874a1.8336,1.8336,0,0,0-1.8492,1.8177v5.7948A1.8335,1.8335,0,0,0,50.2874,59.0229Z"/><path class="ae81d745-21f3-410d-890b-d224f137fdbe" d="M68.4412,23.4938l-3.488-1.5318v0L42.4992,12.101,20.0468,21.9618h0l-3.488,1.5319a1.5647,1.5647,0,0,0-.809,2.0811,1.6188,1.6188,0,0,0,2.1172.7952l2.18-.9573V65.5472H64.9532V25.4128l2.18.9573a1.6188,1.6188,0,0,0,2.1172-.7952A1.5647,1.5647,0,0,0,68.4412,23.4938ZM61.7484,62.3971H23.2516V24.0052l13.3411-5.859,5.9065-2.5937L47.9363,17.94l13.8121,6.0656Z"/></g></svg>