<svg xmlns="http://www.w3.org/2000/svg" viewBox="0 0 30.5673 7.9717"><defs><style>.fa2e6212-ed66-49bd-a295-8067982eb13f{fill:#fff;}</style></defs><title>S</title><g id="ac21854b-11d1-48a2-95a7-d781e4ae9e0f" data-name="Grafica"><path class="fa2e6212-ed66-49bd-a295-8067982eb13f" d="M2.0847,7.9717A2.83,2.83,0,0,1,.66,7.703h0a1.3436,1.3436,0,0,1-.5958-.8057h0A1.6486,1.6486,0,0,1,0,6.4321H0a2.4864,2.4864,0,0,1,.1173-.7207h0A2.9865,2.9865,0,0,1,1.4149,3.9625h0a2.8719,2.8719,0,0,1,1.1358-.3833h0a6.33,6.33,0,0,1,.8208-.0471h1.807a.0924.0924,0,0,1,.0755.04h0a.1013.1013,0,0,1,.0136.088h0l-.2746.9068a.0943.0943,0,0,1-.09.0682H3.3181a1.8537,1.8537,0,0,0-1.1424.296h0a1.64,1.64,0,0,0-.534.8528h0a1.388,1.388,0,0,0-.0682.4015h0a.5721.5721,0,0,0,.2159.4817h0a.8863.8863,0,0,0,.3474.1614h0a3.1886,3.1886,0,0,0,.6032.04H4.1661a.0934.0934,0,0,1,.0762.0406h0a.1045.1045,0,0,1,.014.0879h0l-.2748.9063a.0959.0959,0,0,1-.09.0686H2.0847Z"/><path class="fa2e6212-ed66-49bd-a295-8067982eb13f" d="M4.9125,7.9717a.0947.0947,0,0,1-.0763-.04h0a.1018.1018,0,0,1-.0129-.0881h0L6.11,3.6a.0945.0945,0,0,1,.09-.0683H8.1555a4.47,4.47,0,0,1,.964.0828h0l.0024.0005a.9972.9972,0,0,1,.4887.2662h0A.7245.7245,0,0,1,9.8,4.3571h0c.001.0166.0014.0344.0014.052h0a2.7574,2.7574,0,0,1-.1427.7532h0l-.1255.4127a.094.094,0,0,1-.0893.0685H8.1767a.0933.0933,0,0,1-.076-.04h0a.1034.1034,0,0,1-.0138-.0883h0l.069-.2277a1.4109,1.4109,0,0,0,.0625-.3619h0a.2421.2421,0,0,0-.0371-.1545h0l-.0039-.0056a.2955.2955,0,0,0-.1662-.0914h0a1.5528,1.5528,0,0,0-.386-.04H7.3131L6.3223,7.9026a.0951.0951,0,0,1-.09.0691h-1.32Z"/><path class="fa2e6212-ed66-49bd-a295-8067982eb13f" d="M13.1705,3.5321a3.126,3.126,0,0,1,1.1125.1713h0a1.3859,1.3859,0,0,1,.6913.5333h0a1.5381,1.5381,0,0,1,.2452.8584h0a2.454,2.454,0,0,1-.1225.733h0a2.8579,2.8579,0,0,1-1.2552,1.5994h0a3.7378,3.7378,0,0,1-2.0448.5442h0a2.2238,2.2238,0,0,1-1.7807-.6251h0a1.3044,1.3044,0,0,1-.2936-.8679h0a2.6069,2.6069,0,0,1,.1322-.7705h0a2.923,2.923,0,0,1,1.091-1.5041h0a3.63,3.63,0,0,1,2.2248-.672h0m-.3091,1.06a1.4131,1.4131,0,0,0-.9234.2988h0a1.8453,1.8453,0,0,0-.5619.9124h0a1.7014,1.7014,0,0,0-.09.4908h0a.582.582,0,0,0,.0377.2227h0a.5446.5446,0,0,0,.2622.2916h0a1.1053,1.1053,0,0,0,.5151.1036h0a1.4222,1.4222,0,0,0,.922-.2958h0a1.8111,1.8111,0,0,0,.5587-.9038h0a1.7292,1.7292,0,0,0,.0908-.506h0a.5384.5384,0,0,0-.1894-.4565h0a1.0015,1.0015,0,0,0-.622-.1578h0"/><path class="fa2e6212-ed66-49bd-a295-8067982eb13f" d="M20.9157,7.9717a.0951.0951,0,0,1-.0761-.04h0a.1018.1018,0,0,1-.013-.0881h0l.7641-2.5192a1.8251,1.8251,0,0,0,.0925-.4045h0V4.9123h0a.2239.2239,0,0,0-.1227-.1967h0a.8732.8732,0,0,0-.4223-.0807h-.6346l-.9908,3.2682a.095.095,0,0,1-.09.0682H18.1032a.094.094,0,0,1-.0767-.04h0a.1026.1026,0,0,1-.0135-.0881h0l.9732-3.2085H17.7623l-.9912,3.2682a.0946.0946,0,0,1-.09.0682h-1.32a.0911.0911,0,0,1-.0754-.04h0a.1023.1023,0,0,1-.0145-.0881h0L16.5593,3.6a.0936.0936,0,0,1,.0893-.0683H21.505a3.976,3.976,0,0,1,1.0827.11h0a.8768.8768,0,0,1,.4426.2935h0a1.0229,1.0229,0,0,1,.1968.52h0a1.4371,1.4371,0,0,1,.01.1734h0a1.9719,1.9719,0,0,1-.0916.571h0L22.326,7.9031a.0949.0949,0,0,1-.09.0686h-1.32Z"/><path class="fa2e6212-ed66-49bd-a295-8067982eb13f" d="M25.3289,7.9717c-.4548,0-.7673-.01-.9453-.03h0a.987.987,0,0,1-.8676-.5407h0a.9889.9889,0,0,1-.0852-.4093h0a1.3738,1.3738,0,0,1,.0648-.4032h0a1.9352,1.9352,0,0,1,.6676-.9677h0a1.9618,1.9618,0,0,1,1.0633-.3941h0q.313-.03.73-.03h1.5493a.9449.9449,0,0,0,.0427-.2569h0a.2615.2615,0,0,0-.016-.1025h0a.4.4,0,0,0-.3505-.18h0a3.5273,3.5273,0,0,0-.3837-.0212H24.5633a.0937.0937,0,0,1-.076-.04h0a.1049.1049,0,0,1-.0143-.088h0L24.7487,3.6a.0937.0937,0,0,1,.09-.0683h2.2349a8.4007,8.4007,0,0,1,.9933.039h0a1.2515,1.2515,0,0,1,.6846.2912h0a1.0527,1.0527,0,0,1,.32.6323h0l.0006.0046a1.3705,1.3705,0,0,1,.0089.16h0a3.04,3.04,0,0,1-.1525.8523h0l-.7258,2.3917a.0941.0941,0,0,1-.0889.0686H25.3289Zm-.1006-1.596a.419.419,0,0,0-.1973.2464h0a.2992.2992,0,0,0-.0138.0829h0a.101.101,0,0,0,.0174.0629h0a.1435.1435,0,0,0,.0661.0489h0a1.2332,1.2332,0,0,0,.44.0519H27l.1729-.57h-1.515c-.0435-.0025-.0781-.0043-.1043-.0043h0a.63.63,0,0,0-.3248.081Z"/><path class="fa2e6212-ed66-49bd-a295-8067982eb13f" d="M26.38,1.5214l-.2451.83h-.7481l.2455-.83H26.38m.3083-.2919H25.46a.06.06,0,0,0-.0583.0436L25.0191,2.565a.0608.0608,0,0,0,.01.0539.062.062,0,0,0,.0491.0247h1.2285a.0627.0627,0,0,0,.06-.0439l.3812-1.2915a.06.06,0,0,0-.0093-.0544.0622.0622,0,0,0-.05-.0243Z"/><path class="fa2e6212-ed66-49bd-a295-8067982eb13f" d="M28.3058.9066l-.4272,1.4451H27.13L27.5575.9066h.7483m.3088-.2919H27.3858a.0627.0627,0,0,0-.0592.0436L26.7628,2.565a.0617.0617,0,0,0,.01.0539.0625.0625,0,0,0,.05.0247H28.05A.0622.0622,0,0,0,28.11,2.6L28.6731.6939A.06.06,0,0,0,28.664.64a.0619.0619,0,0,0-.0494-.0252Z"/><path class="fa2e6212-ed66-49bd-a295-8067982eb13f" d="M30.1973.2919l-.61,2.06H28.84l.6094-2.06h.7479M30.506,0H29.2775a.0613.0613,0,0,0-.0592.0442L28.4725,2.565a.0608.0608,0,0,0,.01.0539.0617.0617,0,0,0,.049.0247H29.76A.0616.0616,0,0,0,29.8187,2.6l.746-2.52a.0611.0611,0,0,0-.01-.0547A.0617.0617,0,0,0,30.506,0Z"/></g></svg>