<svg xmlns="http://www.w3.org/2000/svg" viewBox="0 0 95.9 95.79"><defs><style>.cls-1{fill:red;}.cls-2{fill:#fff;}</style></defs><title>SVG</title><g id="Grafica"><rect class="cls-1" width="95.9" height="95.79"/><path class="cls-2" d="M66.94,73c-2,1-5.14.75-7.37-.39-3.08-1.57-4.82-1.19-8,.22a8.46,8.46,0,0,1-7.24,0c-3.22-1.41-4.88-1.79-7.95-.22-2.23,1.14-5.43,1.41-7.42.39-3.48-1.77-6-2.11-8.74-.43a6.77,6.77,0,0,1-3.83.89v6.29a7.6,7.6,0,0,0,4.07-1,7.32,7.32,0,0,1,7.21-.17c3.14,1.57,5.8,1.57,8.47.2s4.14-1.61,7.38-.23a9.58,9.58,0,0,0,8.91.06c3.24-1.38,4.75-1.19,7.41.17s5.33,1.37,8.48-.2a7.15,7.15,0,0,1,7.12.17,7.51,7.51,0,0,0,4.15,1V73.48a6.58,6.58,0,0,1-3.83-.89C73,70.91,70.42,71.25,66.94,73Z"/><path class="cls-2" d="M75.76,63.42c-5.44-2.91-7.81.63-10.73.63V49.87l4.51-10.18A2.65,2.65,0,0,0,67.9,36l-2.73-1.1V26.09H59.9V21.44H52.53V15.22H43.37v6.22H36v4.65H30.73V34.9L28,36a2.65,2.65,0,0,0-1.64,3.69l4.51,10.18V64.05c-2.92,0-5.41-3.49-10.72-.58h0a9.14,9.14,0,0,1-3.82.89v6.08a8.33,8.33,0,0,0,4-1.17,7.65,7.65,0,0,1,7.24,0c3.14,1.57,5.81,1.57,8.47.21a7.68,7.68,0,0,1,7.48-.21,8.82,8.82,0,0,0,8.78,0,7.65,7.65,0,0,1,7.52.17c2.66,1.36,5.33,1.36,8.47-.21a7.71,7.71,0,0,1,7.24,0,8.7,8.7,0,0,0,4,1.17V64.3A8.76,8.76,0,0,1,75.76,63.42ZM61.27,33.26,48,27.87,34.63,33.26V29.71h5.26V25.13H56v4.58h5.26Z"/></g></svg>