<svg xmlns="http://www.w3.org/2000/svg" viewBox="0 0 95.9 95.79"><defs><style>.cls-1{fill:#006837;}.cls-2{fill:#fff;}</style></defs><title>SVG</title><g id="Grafica"><rect class="cls-1" x="0.04" y="-0.07" width="95.82" height="95.93"/><path class="cls-2" d="M63.23,73.06H29.12a1.36,1.36,0,1,0,0,2.71H63.23a1.36,1.36,0,1,0,0-2.71Z"/><path class="cls-2" d="M77.68,62,70.31,48.16a5.18,5.18,0,0,1-.61-2.43v-4.6a1.38,1.38,0,0,0-2.75,0v4.6a7.75,7.75,0,0,0,.92,3.68l7.37,13.8a2.88,2.88,0,0,1,.34,1.35,3,3,0,0,1-3,2.93H69.22a3,3,0,0,1-3-2.93V38.08h-4a1.45,1.45,0,0,0-.59.13V30.44a5.68,5.68,0,0,0-5.72-5.61H36.82a5.67,5.67,0,0,0-5.71,5.61v41H61.65V40.65a1.31,1.31,0,0,0,.59.14h1.25V64.56a5.69,5.69,0,0,0,5.73,5.64H72.6a5.69,5.69,0,0,0,5.73-5.64A5.55,5.55,0,0,0,77.68,62Zm-22-20.55a3.47,3.47,0,0,1-3.49,3.43h-12A3.46,3.46,0,0,1,36.7,41.4V34.17a3.46,3.46,0,0,1,3.48-3.43h12a3.47,3.47,0,0,1,3.49,3.43Z"/><path class="cls-2" d="M66.29,35A2.16,2.16,0,0,1,67,36.54v1.68a1.38,1.38,0,0,0,2.75,0V36.54a4.85,4.85,0,0,0-1.46-3.47l-3.87-3.8a1.39,1.39,0,0,0-2,0,1.36,1.36,0,0,0,0,1.92Z"/><path class="cls-2" d="M52.89,41.4a.73.73,0,0,1-.73.72h-12a.73.73,0,0,1-.73-.72V34.17a.73.73,0,0,1,.73-.72h12a.73.73,0,0,1,.73.72Z"/></g></svg>