<svg xmlns="http://www.w3.org/2000/svg" viewBox="0 0 95.9 95.79"><defs><style>.cls-1{fill:red;}.cls-2{fill:#fff;}</style></defs><title>SVG</title><g id="Grafica"><rect class="cls-1" x="0.04" y="-0.02" width="95.82" height="95.82"/><path class="cls-2" d="M83.13,16.29a3.4,3.4,0,0,0-4.75,0l-7.56,7.42H21.18V76.63h53.9V28.85l8-7.9A3.25,3.25,0,0,0,83.13,16.29ZM70.6,72.23H25.66V28.1H66.35L44.2,49.85l-7.78-7.64a3.39,3.39,0,0,0-4.74,0,3.24,3.24,0,0,0,0,4.66l10.15,10a3.38,3.38,0,0,0,2.37,1,3.42,3.42,0,0,0,2.38-1l24-23.59Z"/></g></svg>