<svg xmlns="http://www.w3.org/2000/svg" viewBox="0 0 95.9 95.79"><defs><style>.cls-1{fill:red;}.cls-2{fill:#fff;}</style></defs><title>SVG</title><g id="Grafica"><rect class="cls-1" x="0.04" y="-0.14" width="95.82" height="95.93"/><path class="cls-2" d="M39.15,35.51h-5.9a1.83,1.83,0,0,0-1.85,1.82v5.8a1.83,1.83,0,0,0,1.85,1.81h5.9A1.83,1.83,0,0,0,41,43.13v-5.8A1.83,1.83,0,0,0,39.15,35.51Z"/><path class="cls-2" d="M50.4,35.51H44.5a1.83,1.83,0,0,0-1.85,1.82v5.8a1.83,1.83,0,0,0,1.85,1.81h5.9a1.83,1.83,0,0,0,1.85-1.81v-5.8A1.83,1.83,0,0,0,50.4,35.51Z"/><path class="cls-2" d="M55.74,44.94h5.9a1.83,1.83,0,0,0,1.85-1.81v-5.8a1.83,1.83,0,0,0-1.85-1.82h-5.9a1.83,1.83,0,0,0-1.85,1.82v5.8A1.83,1.83,0,0,0,55.74,44.94Z"/><path class="cls-2" d="M39.15,46.47h-5.9a1.84,1.84,0,0,0-1.85,1.82v5.8a1.84,1.84,0,0,0,1.85,1.82h5.9A1.84,1.84,0,0,0,41,54.09v-5.8A1.84,1.84,0,0,0,39.15,46.47Z"/><path class="cls-2" d="M50.4,46.47H44.5a1.84,1.84,0,0,0-1.85,1.82v5.8a1.84,1.84,0,0,0,1.85,1.82h5.9a1.84,1.84,0,0,0,1.85-1.82v-5.8A1.84,1.84,0,0,0,50.4,46.47Z"/><path class="cls-2" d="M55.74,55.91h5.9a1.84,1.84,0,0,0,1.85-1.82v-5.8a1.84,1.84,0,0,0-1.85-1.82h-5.9a1.84,1.84,0,0,0-1.85,1.82v5.8A1.84,1.84,0,0,0,55.74,55.91Z"/><path class="cls-2" d="M39.15,57.43h-5.9a1.84,1.84,0,0,0-1.85,1.82v5.8a1.84,1.84,0,0,0,1.85,1.82h5.9A1.84,1.84,0,0,0,41,65.05v-5.8A1.84,1.84,0,0,0,39.15,57.43Z"/><path class="cls-2" d="M50.4,57.43H44.5a1.84,1.84,0,0,0-1.85,1.82v5.8a1.84,1.84,0,0,0,1.85,1.82h5.9a1.84,1.84,0,0,0,1.85-1.82v-5.8A1.84,1.84,0,0,0,50.4,57.43Z"/><path class="cls-2" d="M55.74,66.87h5.9a1.84,1.84,0,0,0,1.85-1.82v-5.8a1.84,1.84,0,0,0-1.85-1.82h-5.9a1.84,1.84,0,0,0-1.85,1.82v5.8A1.84,1.84,0,0,0,55.74,66.87Z"/><path class="cls-2" d="M73.9,31.32l-3.49-1.53h0L48,19.93,25.49,29.79h0L22,31.32a1.57,1.57,0,0,0-.81,2.09,1.6,1.6,0,0,0,1.46.93,1.74,1.74,0,0,0,.66-.14l2.18-1V73.4H70.41V33.24l2.19,1a1.65,1.65,0,0,0,.65.14,1.6,1.6,0,0,0,1.46-.93A1.57,1.57,0,0,0,73.9,31.32ZM67.21,70.24H28.69V31.83L42,26,48,23.38l5.44,2.39,13.82,6.06Z"/></g></svg>