<svg xmlns="http://www.w3.org/2000/svg" viewBox="0 0 95.9 95.79"><defs><style>.cls-1{fill:red;}.cls-2{fill:#fff;}</style></defs><title>SVG</title><g id="Grafica"><rect class="cls-1" x="0.04" y="-0.03" width="95.82" height="95.85"/><path class="cls-2" d="M75.37,46.44C70.53,34.59,59.77,26.93,48,26.93S25.37,34.59,20.53,46.44l-.59,1.45.59,1.45C25.37,61.2,36.13,68.86,48,68.86S70.53,61.2,75.37,49.34L76,47.89ZM48,62.61A25.32,25.32,0,0,1,24.86,47.89a25.48,25.48,0,0,1,46.19,0A25.34,25.34,0,0,1,48,62.61Z"/><path class="cls-2" d="M48,36.32A11.57,11.57,0,1,0,59.73,47.89,11.67,11.67,0,0,0,48,36.32Zm-.06,16a4.51,4.51,0,1,1,4.59-4.51A4.55,4.55,0,0,1,47.89,52.28Z"/></g></svg>