<svg xmlns="http://www.w3.org/2000/svg" viewBox="0 0 117.65 79.94"><defs><style>.cls-1,.cls-3{fill:#006837;}.cls-2{fill:red;}.cls-2,.cls-3{fill-rule:evenodd;}</style></defs><title>SVG</title><g id="Grafica"><path class="cls-1" d="M2.18,79.77H0V70.08H2.18Z"/><path class="cls-1" d="M3.73,79.59V77.86a4.41,4.41,0,0,0,1.05.47,3.29,3.29,0,0,0,1,.16,2,2,0,0,0,.89-.16A.5.5,0,0,0,7,77.86a.43.43,0,0,0-.15-.34,1.38,1.38,0,0,0-.38-.24L6,77.1a4.72,4.72,0,0,1-.53-.18,4.53,4.53,0,0,1-.73-.34,2,2,0,0,1-.53-.41,1.59,1.59,0,0,1-.32-.55,2.06,2.06,0,0,1-.11-.74,1.9,1.9,0,0,1,.25-1,1.93,1.93,0,0,1,.68-.68,3.19,3.19,0,0,1,1-.4,5.29,5.29,0,0,1,1.13-.12,6,6,0,0,1,.94.07,7.77,7.77,0,0,1,.93.21v1.65a3.33,3.33,0,0,0-.87-.36,3.61,3.61,0,0,0-.91-.12,2.34,2.34,0,0,0-.39,0,1.28,1.28,0,0,0-.33.11.58.58,0,0,0-.22.18.4.4,0,0,0-.09.25.49.49,0,0,0,.13.33.93.93,0,0,0,.31.23,2.53,2.53,0,0,0,.44.18l.48.16a6.15,6.15,0,0,1,.77.32,2.93,2.93,0,0,1,.59.41,1.79,1.79,0,0,1,.38.56,1.92,1.92,0,0,1,.13.76,2,2,0,0,1-.27,1,2.19,2.19,0,0,1-.71.71,3.34,3.34,0,0,1-1,.4,5.81,5.81,0,0,1-1.2.12A6.23,6.23,0,0,1,3.73,79.59Z"/><path class="cls-1" d="M12.41,79.77H10.27V69.52h2.14Z"/><path class="cls-1" d="M20,79.77h-2v-1h0a2.27,2.27,0,0,1-2.06,1.16,2.16,2.16,0,0,1-1.59-.57,2,2,0,0,1-.58-1.53c0-1.34.8-2.11,2.39-2.32L18,75.27q0-1.14-1.23-1.14a4.24,4.24,0,0,0-2.36.74V73.26a5.27,5.27,0,0,1,1.22-.4A6.33,6.33,0,0,1,17,72.68c2,0,3,1,3,2.95ZM18,77v-.47l-1.26.17c-.69.09-1,.4-1,.93a.76.76,0,0,0,.25.6,1,1,0,0,0,.69.24,1.26,1.26,0,0,0,1-.42A1.52,1.52,0,0,0,18,77Z"/><path class="cls-1" d="M31.81,79.77H29.67v-1h0a2.4,2.4,0,0,1-2.15,1.12A2.61,2.61,0,0,1,25.41,79a3.81,3.81,0,0,1-.79-2.55,4.1,4.1,0,0,1,.88-2.76,2.83,2.83,0,0,1,2.28-1,2,2,0,0,1,1.87,1h0V69.52h2.14Zm-2.1-3.36v-.53a1.64,1.64,0,0,0-.39-1.12,1.28,1.28,0,0,0-1-.44,1.3,1.3,0,0,0-1.11.55,2.68,2.68,0,0,0-.4,1.54,2.22,2.22,0,0,0,.39,1.4,1.28,1.28,0,0,0,1.07.49,1.29,1.29,0,0,0,1.06-.52A2.15,2.15,0,0,0,29.71,76.41Z"/><path class="cls-1" d="M39.86,76.92H35.34c.07,1,.71,1.51,1.9,1.51a3.73,3.73,0,0,0,2-.54v1.54a5.31,5.31,0,0,1-2.5.51,3.23,3.23,0,0,1-3.53-3.52,3.73,3.73,0,0,1,1-2.73,3.36,3.36,0,0,1,2.47-1,3,3,0,0,1,2.34.9A3.47,3.47,0,0,1,39.86,76Zm-2-1.31c0-1-.41-1.49-1.21-1.49a1.14,1.14,0,0,0-.89.43,1.86,1.86,0,0,0-.45,1.06Z"/><path class="cls-1" d="M47,79.77H44.81V69.52H47Z"/><path class="cls-1" d="M54.51,79.77h-2v-1h0a2.27,2.27,0,0,1-2.07,1.16,2.14,2.14,0,0,1-1.58-.57,2,2,0,0,1-.58-1.53c0-1.34.8-2.11,2.39-2.32l1.88-.25q0-1.14-1.23-1.14a4.24,4.24,0,0,0-2.36.74V73.26a5.27,5.27,0,0,1,1.22-.4,6.33,6.33,0,0,1,1.41-.18c2,0,3,1,3,2.95ZM52.5,77v-.47l-1.26.17c-.69.09-1,.4-1,.93a.76.76,0,0,0,.25.6,1,1,0,0,0,.69.24,1.26,1.26,0,0,0,1-.42A1.52,1.52,0,0,0,52.5,77Z"/><path class="cls-1" d="M64.13,75.93a4.42,4.42,0,0,1-.9,3,3.27,3.27,0,0,1-2.61,1,3.86,3.86,0,0,1-1.42-.26V77.63a2.08,2.08,0,0,0,1.26.42c1,0,1.49-.73,1.49-2.21V70.08h2.18Z"/><path class="cls-1" d="M72.49,79.77H70.36v-1h0a2.42,2.42,0,0,1-2.11,1.22c-1.61,0-2.41-1-2.41-2.91V72.85h2.13v4c0,1,.39,1.46,1.16,1.46a1.15,1.15,0,0,0,.92-.4,1.62,1.62,0,0,0,.35-1.09v-4h2.13Z"/><path class="cls-1" d="M80.88,72.85,78.3,79.77H75.87l-2.46-6.92H75.7l1.2,4.26a6.64,6.64,0,0,1,.24,1.24h0a8.53,8.53,0,0,1,.25-1.19l1.23-4.31Z"/><path class="cls-1" d="M87.87,76.92H83.36c.07,1,.7,1.51,1.9,1.51a3.73,3.73,0,0,0,2-.54v1.54a5.34,5.34,0,0,1-2.5.51,3.23,3.23,0,0,1-3.53-3.52,3.69,3.69,0,0,1,1-2.73,3.35,3.35,0,0,1,2.46-1,3.05,3.05,0,0,1,2.35.9A3.46,3.46,0,0,1,87.87,76Zm-2-1.31c0-1-.4-1.49-1.2-1.49a1.14,1.14,0,0,0-.89.43,1.94,1.94,0,0,0-.46,1.06Z"/><path class="cls-1" d="M95.56,79.77H93.43V75.93c0-1.08-.39-1.61-1.15-1.61a1.16,1.16,0,0,0-.92.42A1.69,1.69,0,0,0,91,75.82v4H88.87V72.85H91v1.09h0a2.45,2.45,0,0,1,2.23-1.26c1.53,0,2.3.95,2.3,2.85Z"/><path class="cls-1" d="M101.43,79.69a3.08,3.08,0,0,1-1.42.25c-1.51,0-2.26-.78-2.26-2.35V74.42H96.62V72.85h1.13v-1.5l2.13-.6v2.1h1.55v1.57H99.88v2.8c0,.72.28,1.08.86,1.08a1.44,1.44,0,0,0,.69-.19Z"/><path class="cls-1" d="M109.21,79.77h-2.13v-1h0a2.43,2.43,0,0,1-2.12,1.22q-2.4,0-2.4-2.91V72.85h2.13v4c0,1,.38,1.46,1.16,1.46a1.15,1.15,0,0,0,.92-.4,1.62,1.62,0,0,0,.34-1.09v-4h2.13Z"/><path class="cls-1" d="M117.65,79.77h-2.14v-1h0a2.41,2.41,0,0,1-2.15,1.12,2.61,2.61,0,0,1-2.09-.92,3.81,3.81,0,0,1-.79-2.55,4.15,4.15,0,0,1,.87-2.76,2.86,2.86,0,0,1,2.29-1,2,2,0,0,1,1.87,1h0V69.52h2.14Zm-2.1-3.36v-.53a1.64,1.64,0,0,0-.39-1.12,1.28,1.28,0,0,0-1-.44,1.3,1.3,0,0,0-1.11.55,2.68,2.68,0,0,0-.4,1.54,2.22,2.22,0,0,0,.39,1.4,1.37,1.37,0,0,0,2.12,0A2.09,2.09,0,0,0,115.55,76.41Z"/><path class="cls-2" d="M89.79,36.88A12,12,0,0,1,84.52,38,5.85,5.85,0,0,1,81,37a2.81,2.81,0,0,1-.83-1.19c7.92.22,12-1.68,11.41-6.27-.51-3.72-3.92-5.81-8-5.81-7.22,0-10.67,5.63-9.9,11.22.7,5.11,4.17,7.9,9.83,7.9a17.33,17.33,0,0,0,7.29-1.45l-1-4.55Zm-4.47-7.31c.16,1.16-1.17,1.72-5.24,1.68a3.09,3.09,0,0,1,3.35-2.91c1.09,0,1.8.56,1.88,1.2Z"/><path class="cls-2" d="M52.34,52.75l5.55-1.44a1.59,1.59,0,0,0,1.1-1.4V41h.07a3.34,3.34,0,0,0,.95.86,5.51,5.51,0,0,0,1.47.62,7.39,7.39,0,0,0,1.89.25,7.7,7.7,0,0,0,2.36-.37A7.87,7.87,0,0,0,68,41.2a8.29,8.29,0,0,0,1.87-1.91,9.19,9.19,0,0,0,1.28-2.71A12.81,12.81,0,0,0,71.6,33,11.8,11.8,0,0,0,71,29.11a9.09,9.09,0,0,0-1.67-2.9,7.46,7.46,0,0,0-2.38-1.79,6.46,6.46,0,0,0-2.75-.62,8,8,0,0,0-3.37.69,6.55,6.55,0,0,0-2.51,2h-.07l-.29-2.17H52.19c0,.85.08,1.64.1,2.67s.05,2.15.05,3.36V52.75ZM59,32.15c0-.15,0-.3,0-.44a2.7,2.7,0,0,1,.06-.41,2.79,2.79,0,0,1,.51-1.17,2.88,2.88,0,0,1,.94-.83A2.62,2.62,0,0,1,61.75,29a2.69,2.69,0,0,1,1.74.56,3.34,3.34,0,0,1,1,1.53,6.92,6.92,0,0,1,.34,2.28,6.25,6.25,0,0,1-.38,2.28,3.41,3.41,0,0,1-1.11,1.49,2.79,2.79,0,0,1-1.71.53,2.43,2.43,0,0,1-1.2-.3,2.64,2.64,0,0,1-.88-.78,2.91,2.91,0,0,1-.49-1.09,5.25,5.25,0,0,1-.11-1.1Z"/><path class="cls-3" d="M47.45,60a73.08,73.08,0,0,0,11.79.77C75,60.3,88.81,54.87,97.53,47.63H64.59a1.43,1.43,0,0,0-1.46.8,6.74,6.74,0,0,0-.26,2.36,4.16,4.16,0,0,1-.44,2A2.88,2.88,0,0,1,60.69,54L49,57.16V49.87c0-1.35-.69-2.24-1.8-2.24l-28.54-.06C25.23,53.38,35.83,58.15,47.45,60Z"/><path class="cls-3" d="M101.31,15.66h-9a1.54,1.54,0,0,1-1.28-1L87.94,6l.22.1a40.35,40.35,0,0,1,13.15,9.54Zm-84.7,0h0C24.75,6.34,40.66,0,59,0A73.8,73.8,0,0,1,78.82,2.65l.21.06-4.52,12a1.62,1.62,0,0,1-1.45.91H16.61Z"/><path class="cls-2" d="M93.5,21.7V36a13.17,13.17,0,0,0,.12,1.85A8,8,0,0,0,94,39.38h0l0,.06h0c.66,1.92,2.6,2.83,4.52,3.13a13.72,13.72,0,0,0,6-.73l.16-.06h0l.17-.06-1-4.51a3.77,3.77,0,0,1-3,.55c-.74-.21-.89-1.23-.87-3.32L100,30v-.14h3.81v-4.7H100V20l-5.78,1.56Z"/><path class="cls-2" d="M82.81,3.2l6.6,19.08c-4.4-2.69-8.8-2.53-13.2,0Z"/><path class="cls-2" d="M48.52,24.35H41.87V34.87a3,3,0,0,1,0,.52,1.69,1.69,0,0,1-.11.43,2.88,2.88,0,0,1-.4.72,2.24,2.24,0,0,1-.7.58,2.21,2.21,0,0,1-1,.25,2,2,0,0,1-1.76-.91,5.06,5.06,0,0,1-.56-2.66V24.35H30.62V34.87a10.83,10.83,0,0,0,.77,4.35,5.58,5.58,0,0,0,2.19,2.61,6.6,6.6,0,0,0,3.47.87c1.73,0,4.55-.68,5.52-2.19h.11l.25,1.78h5.74c0-.77-.08-1.67-.1-2.7s0-2.18,0-3.47Z"/><path class="cls-2" d="M27.32,36.81a12.92,12.92,0,0,1-4.28.64c-10.44,0-8.62-15.61,2.42-13.17a9.86,9.86,0,0,1,1.9.56l.25-5.2-.39-.12a14.68,14.68,0,0,0-2.06-.44,20.12,20.12,0,0,0-2.55-.15,18.24,18.24,0,0,0-4.22.33,14,14,0,0,0-3.66,1.54,12,12,0,0,0-4.79,6,13.18,13.18,0,0,0-.7,4.35,12.84,12.84,0,0,0,.48,3.52,10.56,10.56,0,0,0,1.49,3.12,10.32,10.32,0,0,0,2.53,2.58A12.11,12.11,0,0,0,17.39,42a17.5,17.5,0,0,0,4.8.6,15.32,15.32,0,0,0,6.29-1Z"/></g></svg>