<?xml version="1.0" encoding="utf-8"?>
<!-- Generator: Adobe Illustrator 19.0.0, SVG Export Plug-In . SVG Version: 6.00 Build 0)  -->
<svg version="1.1" id="b0a83a43-5343-4480-9d4b-f21e7715a35b"
	 xmlns="http://www.w3.org/2000/svg" xmlns:xlink="http://www.w3.org/1999/xlink" x="0px" y="0px" viewBox="-112 114 24 24"
	 style="enable-background:new -112 114 24 24;" xml:space="preserve">
<style type="text/css">
	.st0{fill:#6FB353;}
	.st1{fill:#3B683D;}
</style>
<title>S</title>
<path class="st0" d="M-90,116.1v20h-20v-20H-90z"/>
<path class="st1" d="M-98.2,127.8c-1,1-2.7,1-3.7,0c-1-1-1-2.7,0-3.7s2.7-1,3.7,0c0,0,0,0,0,0C-97.2,125.2-97.2,126.8-98.2,127.8
	C-98.2,127.8-98.2,127.8-98.2,127.8z"/>
<path class="st1" d="M-95.5,121.5c-2.5-2.5-6.5-2.5-9,0c-2.5,2.5-2.5,6.5,0,9s6.5,2.5,9,0c0,0,0,0,0,0
	C-93.1,128-93.1,124-95.5,121.5z M-96.7,129.3c-1.8,1.8-4.7,1.8-6.5,0c-1.8-1.8-1.8-4.7,0-6.5c1.8-1.8,4.7-1.8,6.5,0c0,0,0,0,0,0
	C-94.9,124.5-94.9,127.5-96.7,129.3C-96.7,129.3-96.7,129.3-96.7,129.3L-96.7,129.3z"/>
</svg>
