<?xml version="1.0" encoding="utf-8"?>
<!-- Generator: Adobe Illustrator 19.0.0, SVG Export Plug-In . SVG Version: 6.00 Build 0)  -->
<svg version="1.1" id="a66b98d1-7371-4bbe-8545-68d877e48b85"
	 xmlns="http://www.w3.org/2000/svg" xmlns:xlink="http://www.w3.org/1999/xlink" x="0px" y="0px" viewBox="-112 114 24 24"
	 style="enable-background:new -112 114 24 24;" xml:space="preserve">
<style type="text/css">
	.st0{fill:#6FB353;}
	.st1{fill:#FFFFFF;}
</style>
<title>S</title>
<rect x="-110" y="116" class="st0" width="20" height="20"/>
<path class="st1" d="M-91.8,120.2c0-0.4-0.2-0.7-0.6-0.7c-0.1,0-0.1,0-0.2,0c-2,0-4,0-6,0v-1.7c0,0-6.9,1.2-9.8,1.7
	c0,4.3,0,8.7,0,13c2.9,0.5,9.8,1.7,9.8,1.7v-1.7c1.9,0,3.8,0,5.6,0c0.3,0,0.7,0,0.9-0.2c0.2-0.4,0.2-0.7,0.2-1.1
	C-91.8,127.6-91.8,123.9-91.8,120.2z M-102,128.6c-0.3,0-0.8,0-1.2,0c-0.3-1.2-0.5-2.5-0.8-3.7c-0.2,1.2-0.5,2.4-0.8,3.6
	c-0.4,0-0.7,0-1.1-0.1c-0.3-1.6-0.7-3.3-1-4.9c0.3,0,0.6,0,1,0c0.2,1.2,0.4,2.4,0.6,3.6c0.3-1.2,0.5-2.4,0.8-3.7
	c0.4,0,0.7,0,1.1-0.1c0.3,1.3,0.5,2.5,0.8,3.8c0.2-1.3,0.4-2.6,0.7-3.9c0.4,0,0.8,0,1.1-0.1C-101.2,124.9-101.6,126.8-102,128.6z
	 M-92.3,132h-6.2v-1.5h4.9v-0.7h-4.9v-0.9h4.9v-0.7h-4.9v-0.9h4.9v-0.7h-4.9v-0.9h4.9v-0.7h-4.9v-0.9h4.9V123h-4.9v-0.9h4.9v-0.7
	h-4.9v-1.3h6.2V132z"/>
</svg>
