<svg id="a3c8943e-4ac0-4181-9b37-19134e7db09e" data-name="Capa 1" xmlns="http://www.w3.org/2000/svg" viewBox="0 0 23.9811 23.981"><defs><style>.fe65dbe4-a1de-4cd7-a374-88911ba312be{fill:none;}.b76c1082-f93c-45bd-b95a-d178472bfdd9{fill:#3b683d;}</style></defs><title>S</title><path class="fe65dbe4-a1de-4cd7-a374-88911ba312be" d="M0,0V23.9811H23.9811V0Z"/><path class="b76c1082-f93c-45bd-b95a-d178472bfdd9" d="M14.753,15.6857l-.6956-.3481a4.287,4.287,0,0,0-.0011-1.2524l.6953-.3491a.1907.1907,0,0,0,.1251-.2336L14.2553,11.99a.1865.1865,0,0,0-.2518-.0753l-.7355.2511a4.2226,4.2226,0,0,0-.8765-.8856l.2471-.7434a.191.191,0,0,0-.0747-.2543L11.066,9.6565a.1875.1875,0,0,0-.2305.1267l-.3442.7036a4.13,4.13,0,0,0-1.239.0009l-.3454-.7034a.188.188,0,0,0-.2308-.1262L7.18,10.2862a.1909.1909,0,0,0-.0746.2547l.2485.7435a4.2252,4.2252,0,0,0-.8757.8861l-.7359-.25a.1869.1869,0,0,0-.2513.0757L4.8714,13.51a.19.19,0,0,0,.1253.2331l.6955.3484a4.3009,4.3009,0,0,0,.0011,1.2524l-.6952.3493a.1907.1907,0,0,0-.1252.2334L5.4944,17.44a.187.187,0,0,0,.2517.0748l.7355-.2513a4.2212,4.2212,0,0,0,.8767.8856l-.2474.7435a.1906.1906,0,0,0,.0749.2542l1.4977.6259a.1872.1872,0,0,0,.2306-.1268l.3442-.7028a4.152,4.152,0,0,0,1.2394-.0014l.3455.7029a.187.187,0,0,0,.2307.1263l1.4964-.6278a.1909.1909,0,0,0,.0744-.2548l-.2483-.7434a4.2228,4.2228,0,0,0,.8757-.8861l.7358.25a.1866.1866,0,0,0,.2516-.0757l.6191-1.514A.19.19,0,0,0,14.753,15.6857ZM8.7138,17.554A3.0847,3.0847,0,0,1,7.066,13.5409a3.0281,3.0281,0,0,1,3.97-1.6658,3.085,3.085,0,0,1,1.6483,4.0133A3.0283,3.0283,0,0,1,8.7138,17.554Z"/><path class="b76c1082-f93c-45bd-b95a-d178472bfdd9" d="M18.9832,8.1813l-.5181-.0355a2.8541,2.8541,0,0,0-.3173-.7742l.3417-.3955a.1282.1282,0,0,0,.0183-.1767l-.7666-.7748a.1247.1247,0,0,0-.1748.0185l-.3912.3453a2.7934,2.7934,0,0,0-.7659-.321l-.0352-.5236a.1267.1267,0,0,0-.11-.138H15.1792a.1268.1268,0,0,0-.1105.138l-.035.5239a2.7816,2.7816,0,0,0-.7658.3207l-.3915-.3456a.1249.1249,0,0,0-.1745-.0185l-.7667.7751a.1281.1281,0,0,0,.0184.1767l.3415.3955a2.8573,2.8573,0,0,0-.3173.7742l-.5183.0355a.1261.1261,0,0,0-.1363.1117V9.3891a.1258.1258,0,0,0,.1365.1117l.5181.0358a2.8583,2.8583,0,0,0,.3172.7741l-.3414.3955a.1284.1284,0,0,0-.0185.1768l.7669.7751a.1246.1246,0,0,0,.1744-.0188l.3913-.3453a2.7889,2.7889,0,0,0,.766.3209l.035.5237a.1265.1265,0,0,0,.1105.1379h1.0844a.1264.1264,0,0,0,.11-.1379l.0352-.5237a2.7863,2.7863,0,0,0,.766-.3209l.3912.3453a.1246.1246,0,0,0,.1747.0185l.7666-.7748a.1282.1282,0,0,0-.0185-.1768l-.3415-.3955a2.8589,2.8589,0,0,0,.3175-.7741l.518-.0358a.1258.1258,0,0,0,.1365-.1117V8.293A.126.126,0,0,0,18.9832,8.1813Zm-3.2618,2.2768a1.617,1.617,0,1,1,1.6-1.6169A1.6085,1.6085,0,0,1,15.7214,10.4581Z"/></svg>