<?xml version="1.0" encoding="utf-8"?>
<!-- Generator: Adobe Illustrator 19.0.0, SVG Export Plug-In . SVG Version: 6.00 Build 0)  -->
<svg version="1.1" id="f5685e1a-5bee-499d-a178-7d65a6133b55"
	 xmlns="http://www.w3.org/2000/svg" xmlns:xlink="http://www.w3.org/1999/xlink" x="0px" y="0px" viewBox="-112 114 24 24"
	 style="enable-background:new -112 114 24 24;" xml:space="preserve">
<style type="text/css">
	.st0{fill:#6FB353;}
	.st1{fill:#C20E1A;}
</style>
<title>S</title>
<path class="st0" d="M-90,116v20h-20v-20H-90z"/>
<path class="st1" d="M-95.5,121.5c-2.5-2.5-6.5-2.5-9,0c-2.5,2.5-2.5,6.5,0,9s6.5,2.5,9,0c0,0,0,0,0,0
	C-93.1,128-93.1,124-95.5,121.5z M-96.7,129.3c-1.8,1.8-4.7,1.8-6.5,0c-1.8-1.8-1.8-4.7,0-6.5c1.8-1.8,4.7-1.8,6.5,0c0,0,0,0,0,0
	C-94.9,124.5-94.9,127.5-96.7,129.3C-96.7,129.3-96.7,129.3-96.7,129.3L-96.7,129.3z"/>
</svg>
