<svg id="a7474b00-b9dd-488e-98fb-cb85eeff0199" data-name="Capa 1" xmlns="http://www.w3.org/2000/svg" viewBox="0 0 23.9811 23.9811"><defs><style>.b96855d9-6167-4a66-aaf9-38ed3d7aac5a{fill:#3b683d;}.b7f11ef6-df2c-4c12-9d1e-56d2abdc5980{fill:#979797;}</style></defs><title>S</title><path class="b96855d9-6167-4a66-aaf9-38ed3d7aac5a" d="M21.984,1.9806v20.02H1.964V1.9806Z"/><path class="b7f11ef6-df2c-4c12-9d1e-56d2abdc5980" d="M12.0742,13.9605a7.7274,7.7274,0,0,0-7.35,5.33h14.7A7.7273,7.7273,0,0,0,12.0742,13.9605Z"/><path class="b7f11ef6-df2c-4c12-9d1e-56d2abdc5980" d="M12.0742,13.4805a3.495,3.495,0,1,0-3.5-3.49A3.4954,3.4954,0,0,0,12.0742,13.4805Zm0-5.72a2.225,2.225,0,1,1-2.22,2.23A2.232,2.232,0,0,1,12.0742,7.7606Z"/><path class="b96855d9-6167-4a66-aaf9-38ed3d7aac5a" d="M-.0165,0V23.9811H23.9646V0ZM21.9679,21.9843H1.98V1.9968H21.9679Z"/></svg>