<?xml version="1.0" encoding="utf-8"?>
<!-- Generator: Adobe Illustrator 19.0.0, SVG Export Plug-In . SVG Version: 6.00 Build 0)  -->
<svg version="1.1" id="fd0d8568-6db2-4434-9c7a-de90126899db"
	 xmlns="http://www.w3.org/2000/svg" xmlns:xlink="http://www.w3.org/1999/xlink" x="0px" y="0px" viewBox="-112 114 24 24"
	 style="enable-background:new -112 114 24 24;" xml:space="preserve">
<style type="text/css">
	.st0{fill:#979797;}
	.st1{fill:#3B683D;}
</style>
<title>S</title>
<path class="st0" d="M-92.5,119.4h-6V118l-9.8,1.5v13.3l9.8,1.7v-2.1h6c0.4,0,0.7-0.3,0.7-0.6v-11.7
	C-91.8,119.7-92.1,119.4-92.5,119.4z M-92.4,131.9h-6.1l0-1.1h1.5v-1.3h-1.5l0-0.8h1.5v-1.3h-1.5l0-0.8h1.5v-1.3h-1.5v-0.8h1.5v-1.3
	h-1.5v-0.8h1.5v-1.3h-1.5V120h6.2V131.9z"/>
<rect x="-96.2" y="121.2" class="st0" width="2.6" height="1.3"/>
<rect x="-96.2" y="123.3" class="st0" width="2.6" height="1.3"/>
<rect x="-96.2" y="125.4" class="st0" width="2.6" height="1.3"/>
<rect x="-96.2" y="127.4" class="st0" width="2.6" height="1.3"/>
<rect x="-96.2" y="129.5" class="st0" width="2.6" height="1.3"/>
<polygon class="st1" points="-105.8,123.1 -104.5,123.1 -103.7,125.3 -102.7,123 -101.5,122.9 -103,126 -101.5,129.1 -102.8,129 
	-103.7,126.7 -104.6,128.9 -105.9,128.8 -104.4,126.1 "/>
</svg>
