<svg xmlns="http://www.w3.org/2000/svg" viewBox="0 0 24.01 24.01"><defs><style>.cls-1{fill:#b3b3b3;stroke:#0071bc;stroke-miterlimit:10;stroke-width:0.09px;}.cls-2{fill:#fff;}</style></defs><title>CUPET_Pantallas_02_Configuración</title><g id="Grafica_Pantallas"><rect class="cls-1" x="0.02" y="0.02" width="23.97" height="23.97"/><path class="cls-2" d="M4.83,19.72V4.48H16.42V5.4a12.09,12.09,0,0,1,1,.88,8.12,8.12,0,0,1,.65.8V3.73a.9.9,0,0,0-.9-.9h-13a.9.9,0,0,0-.9.9v16.7a.9.9,0,0,0,.9.9H16.68l-1.56-1.61Z"/><path class="cls-2" d="M15.88,7.79a5.72,5.72,0,1,0,0,8.09A5.73,5.73,0,0,0,15.88,7.79Zm-1.44,6.65a3.69,3.69,0,1,1,0-5.21A3.68,3.68,0,0,1,14.44,14.44Z"/><path class="cls-2" d="M18,16.46a3.22,3.22,0,0,1-.64.93,4.16,4.16,0,0,1-1,.75l4.08,4.09,1.69-1.69Z"/></g></svg>