<svg xmlns="http://www.w3.org/2000/svg" viewBox="0 0 23.95 23.95"><defs><style>.cls-1{fill:red;}.cls-2{fill:#fff;}.cls-3{fill:none;}</style></defs><title>SVG__</title><g id="Grafica_Pantallas"><polyline class="cls-1" points="21.95 21.95 1.99 21.95 1.99 1.99 21.95 1.99 21.95 21.95"/><path class="cls-2" d="M15.9,6.35V5.49H8.11v.86H5.49v1H7l1,11.1h8.09l1-11.1h1.41v-1Zm-.85,11H9l-.81-8.9h7.68Zm-3.6-10V6.52h1.07v.87Z"/><rect class="cls-2" x="11.48" y="9.48" width="1.03" height="6.87"/><polygon class="cls-2" points="14.66 9.48 13.63 9.48 13.28 16.36 14.31 16.36 14.66 9.48"/><polygon class="cls-2" points="10.74 16.36 10.38 9.48 9.35 9.48 9.7 16.36 10.74 16.36"/><path class="cls-3" d="M24,24V0H0V24Z"/><rect class="cls-3" x="-0.01" y="-0.01" width="23.97" height="23.97"/></g></svg>