<svg xmlns="http://www.w3.org/2000/svg" viewBox="0 0 24.03 24.03"><defs><style>.cls-1{fill:none;}.cls-2{fill:#fff;}</style></defs><title>CUPET_Pantallas_02_Configuración-</title><g id="Grafica_Pantallas"><path class="cls-1" d="M0,0V24H24V0Z"/><path class="cls-2" d="M14.78,15.72l-.7-.35a4.09,4.09,0,0,0,0-1.26l.7-.35a.18.18,0,0,0,.12-.23L14.28,12a.18.18,0,0,0-.25-.07l-.74.25a4.12,4.12,0,0,0-.88-.89l.25-.74a.19.19,0,0,0-.07-.26l-1.5-.63a.19.19,0,0,0-.23.13l-.35.71a4,4,0,0,0-1.24,0L8.92,9.8a.18.18,0,0,0-.23-.12l-1.5.63a.19.19,0,0,0-.07.25l.25.75a4.08,4.08,0,0,0-.88.88l-.74-.25A.19.19,0,0,0,5.5,12l-.62,1.52a.19.19,0,0,0,.13.23l.69.35a4.36,4.36,0,0,0,0,1.25L5,15.72a.2.2,0,0,0-.13.24l.62,1.51a.2.2,0,0,0,.26.08l.73-.25a4.32,4.32,0,0,0,.88.88l-.25.75a.19.19,0,0,0,.08.25l1.5.63a.18.18,0,0,0,.23-.13l.35-.7a4.29,4.29,0,0,0,1.24,0l.34.7a.19.19,0,0,0,.23.13l1.5-.63a.2.2,0,0,0,.08-.26l-.25-.74a4.37,4.37,0,0,0,.88-.89l.73.25a.19.19,0,0,0,.26-.07L14.91,16A.19.19,0,0,0,14.78,15.72Zm-6,1.87a3.1,3.1,0,0,1-1.65-4,3,3,0,0,1,4-1.67,3.1,3.1,0,0,1,1.65,4A3,3,0,0,1,8.73,17.59Z"/><path class="cls-2" d="M19,8.2l-.52,0a2.78,2.78,0,0,0-.32-.77l.34-.4a.12.12,0,0,0,0-.18L17.77,6a.12.12,0,0,0-.17,0l-.39.35a3.06,3.06,0,0,0-.77-.32l0-.53a.12.12,0,0,0-.12-.13H15.21a.12.12,0,0,0-.11.13l0,.53a2.85,2.85,0,0,0-.76.32l-.4-.35a.12.12,0,0,0-.17,0L13,6.81A.13.13,0,0,0,13,7l.34.4a2.78,2.78,0,0,0-.32.77l-.52,0a.12.12,0,0,0-.13.11v1.1a.12.12,0,0,0,.13.11l.52,0a3,3,0,0,0,.32.78l-.34.4a.12.12,0,0,0,0,.17l.77.78a.12.12,0,0,0,.17,0l.39-.34a3.06,3.06,0,0,0,.77.32l0,.52a.13.13,0,0,0,.11.14h1.08a.13.13,0,0,0,.12-.14l0-.52a3.06,3.06,0,0,0,.77-.32l.39.34a.12.12,0,0,0,.17,0l.77-.78a.11.11,0,0,0,0-.17l-.34-.4a3,3,0,0,0,.32-.78l.52,0c.07,0,.14,0,.14-.11V8.31C19.16,8.25,19.09,8.2,19,8.2Zm-3.27,2.28a1.62,1.62,0,1,1,1.6-1.62A1.62,1.62,0,0,1,15.75,10.48Z"/></g></svg>