<svg xmlns="http://www.w3.org/2000/svg" viewBox="0 0 23.95 23.95"><defs><style>.cls-1{fill:none;}.cls-2{fill:#006837;}</style></defs><title>SVG__</title><g id="Grafica_Pantallas"><polyline class="cls-1" points="21.95 21.95 1.99 21.95 1.99 1.99 21.95 1.99 21.95 21.95"/><path class="cls-1" d="M24,24V0H0V24Z"/><path class="cls-2" d="M16.34,5.69v-1a.49.49,0,1,0-1,0v1H12.46v-1a.49.49,0,1,0-1,0v1H8.57v-1a.49.49,0,1,0-1,0v1H4.2V19.78H19.74V5.69Zm2.43,1V18.81H5.17V6.67H7.6v1a.49.49,0,0,0,1,0v-1h2.91v1a.49.49,0,0,0,1,0v-1h2.91v1a.49.49,0,0,0,1,0v-1Zm0,11.82"/><rect class="cls-2" x="7.6" y="10.07" width="1.94" height="1.46"/><rect class="cls-2" x="7.6" y="12.5" width="1.94" height="1.46"/><rect class="cls-2" x="7.6" y="14.93" width="1.94" height="1.46"/><rect class="cls-2" x="11" y="14.93" width="1.94" height="1.46"/><rect class="cls-2" x="11" y="12.5" width="1.94" height="1.46"/><rect class="cls-2" x="11" y="10.07" width="1.94" height="1.46"/><rect class="cls-2" x="14.4" y="14.93" width="1.94" height="1.46"/><rect class="cls-2" x="14.4" y="12.5" width="1.94" height="1.46"/><rect class="cls-2" x="14.4" y="10.07" width="1.94" height="1.46"/></g></svg>