<svg xmlns="http://www.w3.org/2000/svg" viewBox="0 0 23.95 23.95"><defs><style>.cls-1{fill:#39b54a;}.cls-2{fill:none;}.cls-3{fill:#fff;}</style></defs><title>SVG__</title><g id="Grafica_Pantallas"><polyline class="cls-1" points="21.95 21.95 1.99 21.95 1.99 1.99 21.95 1.99 21.95 21.95"/><path class="cls-2" d="M24,24V0H0V24Z"/><path class="cls-3" d="M19.33,19.35a7.74,7.74,0,0,0-14.71,0Z"/><path class="cls-3" d="M12,6.56a3.5,3.5,0,1,0,3.5,3.49A3.49,3.49,0,0,0,12,6.56Zm2.51,4-.35,0a2,2,0,0,1-.26.63l.23.27s.05.1,0,.13l-.58.59a.11.11,0,0,1-.14,0L13.13,12a2,2,0,0,1-.63.26l0,.35a.09.09,0,0,1-.08.1h-.83a.1.1,0,0,1-.09-.1l0-.35a2,2,0,0,1-.63-.26l-.27.23a.09.09,0,0,1-.13,0l-.59-.59a.09.09,0,0,1,0-.13l.23-.27a2.22,2.22,0,0,1-.27-.63l-.34,0c-.06,0-.11,0-.11-.08V9.63s.05-.08.11-.08l.35,0a2,2,0,0,1,.26-.62l-.23-.27a.09.09,0,0,1,0-.13l.59-.59s.09,0,.13,0l.27.24a2,2,0,0,1,.63-.26l0-.36a.09.09,0,0,1,.09-.1h.83s.08,0,.08.1l0,.36a2,2,0,0,1,.62.26l.27-.24a.1.1,0,0,1,.14,0l.58.59s0,.09,0,.13l-.23.27a2.62,2.62,0,0,1,.26.62l.35,0a.09.09,0,0,1,.1.08v.84A.09.09,0,0,1,14.48,10.55Z"/><path class="cls-3" d="M12,11.2a1.15,1.15,0,1,1,1.15-1.15A1.15,1.15,0,0,1,12,11.2Z"/><polygon class="cls-3" points="19.14 5.98 17.96 5.98 17.96 4.8 16.74 4.8 16.74 5.98 15.56 5.98 15.56 7.2 16.74 7.2 16.74 8.38 17.96 8.38 17.96 7.2 19.14 7.2 19.14 5.98"/></g></svg>