<?xml version="1.0" encoding="utf-8"?>
<!-- Generator: Adobe Illustrator 19.0.0, SVG Export Plug-In . SVG Version: 6.00 Build 0)  -->
<svg version="1.1" id="Capa_1" xmlns="http://www.w3.org/2000/svg" xmlns:xlink="http://www.w3.org/1999/xlink" x="0px" y="0px"
	 viewBox="-112 114 24 24" style="enable-background:new -112 114 24 24;" xml:space="preserve">
<style type="text/css">
	.st0{fill:#39B54A;}
	.st1{fill:#FFFFFF;}
</style>
<title>CUPET_Pantallas_02_Configuración</title>
<g id="Grafica_Pantallas">
	<rect x="-111" y="115" class="st0" width="22" height="22"/>
	<path class="st1" d="M-99.9,120.5c-1.9,0-3.5,1.6-3.5,3.5s1.6,3.5,3.5,3.5c1.9,0,3.5-1.6,3.5-3.5c0,0,0,0,0,0
		C-96.4,122.1-98,120.5-99.9,120.5z M-99.9,126.2c-1.2,0-2.2-1-2.2-2.2c0-1.2,1-2.2,2.2-2.2s2.2,1,2.2,2.2c0,0,0,0,0,0
		C-97.7,125.2-98.7,126.2-99.9,126.2z"/>
	<path class="st1" d="M-92.5,133.3c-1.3-4.1-5.7-6.3-9.8-4.9c-2.3,0.8-4.2,2.6-4.9,4.9H-92.5z"/>
</g>
</svg>
