<svg xmlns="http://www.w3.org/2000/svg" viewBox="0 0 85 85"><defs><style>.b4721bc7-1a32-46b1-bcf2-34d468b3446c{fill:#006837;}.bde9e071-3b92-4c74-a81d-3b178bc517df{fill:red;}.afaf278f-2d63-4a41-b7ec-acccc7a923f6{fill:#fff;}</style></defs><title>S</title><g id="a7665a99-341a-4991-a9f6-35e2f145d473" data-name="Grafica"><rect class="b4721bc7-1a32-46b1-bcf2-34d468b3446c" width="85" height="85"/><rect class="bde9e071-3b92-4c74-a81d-3b178bc517df" y="78.8612" width="85" height="6.1388"/><path class="afaf278f-2d63-4a41-b7ec-acccc7a923f6" d="M52.4757,23.4914l-4.4466-4.6748H22.6082V57.8905H52.4757ZM38.1812,50.7668H28.09a.675.675,0,1,1,0-1.35H38.1812a.675.675,0,1,1,0,1.35Zm8.59-4.9979H28.09a.675.675,0,1,1,0-1.35H46.7709a.675.675,0,1,1,0,1.35Zm0-4.9971H28.09a.675.675,0,1,1,0-1.35H46.7709a.675.675,0,1,1,0,1.35Zm0-4.9971H28.09a.6751.6751,0,1,1,0-1.35H46.7709a.6751.6751,0,1,1,0,1.35Zm0-4.9979H28.09a.6751.6751,0,1,1,0-1.35H46.7709a.6751.6751,0,1,1,0,1.35Zm.7188-6.6721V19.7154l4.1752,4.3893Z"/><path class="afaf278f-2d63-4a41-b7ec-acccc7a923f6" d="M57.9455,25.11H54.46V60.2133H32.5243v3.971H62.3918V29.7852Zm-.54,5.288V26.0092l4.1748,4.3892Z"/></g></svg>