<svg xmlns="http://www.w3.org/2000/svg" viewBox="0 0 1023.9999 768"><defs><style>.b9f677c7-4261-4eac-9cff-a7f647e47238,.bb299ffb-37f0-4e0a-96b0-0855342bfef8,.bffd6036-6444-4e11-b4f2-4573db90f291{fill:red;}.b73c9053-50ea-4b94-8310-52a6a57b68a8,.b844ccfe-f589-41a5-853d-39a8928b9f5e{fill:#006837;}.ade9c14e-8b30-4814-9723-097283214927,.b5be0b4e-de15-4ed2-8c93-c8708faec696,.e88cc523-94ec-4cc4-a1a9-88ea75106abf,.ee33ffe5-b346-48bd-96bc-1c68bb87b00b,.eeb05495-f216-4e54-990f-34e37bf619c4{fill:none;}.eeb05495-f216-4e54-990f-34e37bf619c4{stroke:#fff;stroke-linecap:round;stroke-width:4px;}.ade9c14e-8b30-4814-9723-097283214927,.b5be0b4e-de15-4ed2-8c93-c8708faec696,.e88cc523-94ec-4cc4-a1a9-88ea75106abf,.eeb05495-f216-4e54-990f-34e37bf619c4{stroke-miterlimit:10;}.bf2d6b78-e346-4ce0-8efe-c5b1c5aebbdc{fill:#ccc;}.b642f467-281e-4261-b044-499f660b326e{fill:#979797;}.b970c28c-c8fe-4ba4-991d-3a08a67792c1{fill:#efefef;}.a6b90179-5b70-4e3c-afe1-4fe618d2f98b{fill:#0093df;}.ae815d88-3669-4932-af3f-c47da617dd52{fill:#00923d;}.ff5ce578-7695-4074-bd9b-1f035cce9c48{fill:#ff151f;}.bf79a050-99ab-47be-9c69-e7e785edce4b{fill:#b3b3b3;}.a6aba4da-9d5b-4742-b6d2-62bc222e74ac,.e87e06f0-4104-4705-8b90-37543c1af330{font-size:9px;}.a6aba4da-9d5b-4742-b6d2-62bc222e74ac,.b5a7717d-c9df-4b78-8794-e4dfed479580,.e87e06f0-4104-4705-8b90-37543c1af330,.f54716a9-a4d9-4009-8dc3-7071f63762ba{fill:#999;}.a6aba4da-9d5b-4742-b6d2-62bc222e74ac{font-family:Calibri;}.ea82b881-6020-4ce9-9af3-a6977f33b5f0{letter-spacing:-0.0137em;}.bc0b3af1-958e-498c-a610-c043f26afa67{letter-spacing:-0.0069em;}.a41c4d74-d956-453c-8063-2ac5e70ee640{font-size:8px;font-family:Calibri-LightItalic, Calibri;}.a41c4d74-d956-453c-8063-2ac5e70ee640,.b844ccfe-f589-41a5-853d-39a8928b9f5e,.bb299ffb-37f0-4e0a-96b0-0855342bfef8{font-weight:300;}.a41c4d74-d956-453c-8063-2ac5e70ee640,.b5a7717d-c9df-4b78-8794-e4dfed479580,.e87e06f0-4104-4705-8b90-37543c1af330{font-style:italic;}.e6a4e663-c098-4132-957c-cfd772e70ba4{fill:#298bc1;}.a6875459-7c35-425f-8b0b-f67faabb532b{fill:#39b54a;}.b844ccfe-f589-41a5-853d-39a8928b9f5e,.bb299ffb-37f0-4e0a-96b0-0855342bfef8{font-size:11px;font-family:Calibri-Light, Calibri;}.f001400d-5f1f-443e-b362-4b0c53beb36e{letter-spacing:-0.0195em;}.ba69ba7f-68f6-47c0-9380-277d3587f5e0{letter-spacing:-0.0147em;}.ae52fdf0-150c-49e9-82f3-c06c4c09945b{letter-spacing:-0.0097em;}.ade9c14e-8b30-4814-9723-097283214927,.b5be0b4e-de15-4ed2-8c93-c8708faec696{stroke:#0071bc;}.b5be0b4e-de15-4ed2-8c93-c8708faec696,.e88cc523-94ec-4cc4-a1a9-88ea75106abf{stroke-width:0.25px;}.bffd6036-6444-4e11-b4f2-4573db90f291{opacity:0.55;}.b1ee370a-6466-4691-b9be-38e5e40dd4be{font-size:11.0395px;}.a12600bb-ad22-4b8e-934c-5e543f38b3b9,.b1ee370a-6466-4691-b9be-38e5e40dd4be,.e9644e4d-85a8-4b59-b266-60e34f39be02{fill:#0071bc;}.a12600bb-ad22-4b8e-934c-5e543f38b3b9,.b1ee370a-6466-4691-b9be-38e5e40dd4be{font-family:MyriadPro-Regular, Myriad Pro;}.ab388fa3-2afb-4133-a94f-bcf2de920320{fill:#fff;}.b5a7717d-c9df-4b78-8794-e4dfed479580{font-size:10px;}.b5a7717d-c9df-4b78-8794-e4dfed479580,.e87e06f0-4104-4705-8b90-37543c1af330{font-family:Calibri-Italic, Calibri;}.b4a9a749-1863-441b-b200-17358a3075b5{letter-spacing:-0.0044em;}.be5ef243-4155-4b18-ba4e-5d8d6d3b4188{letter-spacing:-0.0097em;}.bcda5260-d45d-4bf3-a1ca-4db43a66eaf0{fill:#666;}.f800a8de-d09d-47ac-ab3f-3072d069654b{fill:#4d4d4d;}.bfc559a5-6e40-4206-82cf-f75357ced019{letter-spacing:-0.0097em;}.b9a3c4c7-042c-4dbd-9811-1cb853df2977{letter-spacing:-0.0176em;}.e88cc523-94ec-4cc4-a1a9-88ea75106abf{stroke:gray;}.a12600bb-ad22-4b8e-934c-5e543f38b3b9{font-size:15px;}.bb3164a5-e3f9-4a4e-bc7e-754b3baa4fe7{fill:#39b34a;}.ff007c1d-9c7a-4c73-b8b9-c6d0de350638{fill:#f7931e;opacity:0.5;}</style></defs><title>S</title><g id="e2bae770-d0fb-4bab-b754-5a6cffb51706" data-name="Grafica"><rect class="b9f677c7-4261-4eac-9cff-a7f647e47238" y="0.381" width="930.5466" height="42.1387"/><rect class="b73c9053-50ea-4b94-8310-52a6a57b68a8" y="37.1801" width="930.5466" height="5.3396"/><line class="eeb05495-f216-4e54-990f-34e37bf619c4" x1="23.6289" y1="11.6108" x2="40.3991" y2="11.6108"/><line class="eeb05495-f216-4e54-990f-34e37bf619c4" x1="23.6289" y1="19.6139" x2="40.3991" y2="19.6139"/><line class="eeb05495-f216-4e54-990f-34e37bf619c4" x1="23.6289" y1="27.617" x2="40.3991" y2="27.617"/><path class="b9f677c7-4261-4eac-9cff-a7f647e47238" d="M941.7267,29.4514V23.482h19.9167V21.4893H941.7267v-3.984l1.9854-1.9927h23.9092V29.4514ZM945.7023,13.52,951.68,7.5421h15.9411V13.52Z"/><path class="b9f677c7-4261-4eac-9cff-a7f647e47238" d="M969.6139,27.4587V7.5421h5.9682V21.4905Z"/><polygon class="b9f677c7-4261-4eac-9cff-a7f647e47238" points="997.491 29.451 1002.52 29.427 1003.469 28.478 1003.469 28.443 1003.469 15.513 991.513 15.513 991.513 21.489 997.491 21.489 997.491 23.482 990.521 23.482 983.543 16.504 983.543 13.52 1003.469 13.52 997.501 7.542 977.575 7.542 977.575 19.498 987.528 29.451 997.491 29.451"/><polygon class="b9f677c7-4261-4eac-9cff-a7f647e47238" points="1011.42 31.212 1011.42 13.509 1005.451 7.571 1005.451 28.75 1003.016 31.212 941.727 31.212 947.705 37.18 1005.451 37.18 1011.43 31.212 1011.42 31.212"/><rect class="bf2d6b78-e346-4ce0-8efe-c5b1c5aebbdc" x="361.4271" y="191.3551" width="85.0394" height="85.0394"/><path class="b642f467-281e-4261-b044-499f660b326e" d="M422.7385,258.7463c-1.9672,1.0029-5.0869.7391-7.2955-.39-3.0433-1.5559-4.7662-1.1754-7.9558.2153a8.3426,8.3426,0,0,1-7.1624,0c-3.1874-1.3947-4.8311-1.7712-7.8744-.2153-2.2085,1.1291-5.3741,1.3929-7.3413.39-3.4491-1.7591-5.9138-2.0872-8.6528-.4294a6.6811,6.6811,0,0,1-3.7871.8794v6.224a7.5406,7.5406,0,0,0,4.03-.9783,7.2244,7.2244,0,0,1,7.1279-.166c3.111,1.556,5.7485,1.556,8.386.2028s4.0992-1.5969,7.3037-.2364a9.4661,9.4661,0,0,0,8.8253.06c3.2046-1.3605,4.7-1.1764,7.3377.1766s5.2745,1.3532,8.3858-.2028a7.087,7.087,0,0,1,7.0468.166,7.4232,7.4232,0,0,0,4.1115.9783v-6.224a6.4642,6.4642,0,0,1-3.7874-.8794C428.6982,256.6591,426.1876,256.9872,422.7385,258.7463Z"/><path class="b642f467-281e-4261-b044-499f660b326e" d="M431.4711,249.236c-5.3828-2.8791-7.7244.6264-10.6176.6264V235.8279l4.4633-10.0807a2.6267,2.6267,0,0,0-1.6231-3.6531l-2.705-1.0825v-8.7272h-5.211v-4.5982h-7.3v-6.159H399.416v6.159h-7.3v4.5982H386.905v8.7272L384.2,222.0941a2.6267,2.6267,0,0,0-1.6231,3.6531l4.4632,10.0807v14.0344c-2.892-.0011-5.3525-3.45-10.6157-.5716h-.0018a8.9819,8.9819,0,0,1-3.7869.8794v6.0155a8.2477,8.2477,0,0,0,3.99-1.15,7.5561,7.5561,0,0,1,7.1685.0059c3.1113,1.556,5.7486,1.556,8.3859.203a7.6084,7.6084,0,0,1,7.4053-.203,8.71,8.71,0,0,0,8.6865.036,7.57,7.57,0,0,1,7.4423.167c2.6375,1.353,5.275,1.353,8.3858-.203a7.6238,7.6238,0,0,1,7.1685-.0059,8.6041,8.6041,0,0,0,3.99,1.15v-6.07A8.7168,8.7168,0,0,1,431.4711,249.236Zm-14.3372-29.8481-13.1872-5.3329L390.76,219.3879v-3.52h5.2074v-4.53h15.9595v4.53h5.2074Z"/><rect class="bf2d6b78-e346-4ce0-8efe-c5b1c5aebbdc" x="467.7462" y="191.3583" width="85" height="85"/><path class="b642f467-281e-4261-b044-499f660b326e" d="M533.9439,243.5216a5.2257,5.2257,0,1,0,5.31,5.2251A5.2684,5.2684,0,0,0,533.9439,243.5216Z"/><path class="b642f467-281e-4261-b044-499f660b326e" d="M490.5244,243.5216a5.2257,5.2257,0,1,0,5.3093,5.2251A5.2689,5.2689,0,0,0,490.5244,243.5216Z"/><path class="b642f467-281e-4261-b044-499f660b326e" d="M535.9064,221.2862l-9.3583.0061c-.8937,0-1.6124,5.5679-1.6278,12.4788h-.39a4.05,4.05,0,0,0-.4807.0477c.1509-1.7973.2386-3.8775.2386-6.1027,0-6.7516-.7949-12.2247-1.7754-12.2247H506.51v-.9655a.7874.7874,0,0,0-.7939-.7809h-9.0644a.7876.7876,0,0,0-.7941.7809v.9655h-19.53c-.98,0-1.7754,5.4731-1.7754,12.2247s.7951,12.2248,1.7754,12.2248h3.5771c-1.7023.2182-2.9759,1.1248-2.9759,2.91a3.7966,3.7966,0,0,0,3.8253,3.7689h2.8938a7.2448,7.2448,0,0,1,13.75,0h29.6753a7.241,7.241,0,0,1,13.7442,0h3.5719c.9,0,1.6278-5.6706,1.6278-12.6616C546.0172,226.9584,536.8125,221.2862,535.9064,221.2862Zm-.5313,10.5391h-6.3822v-7.8065h6.3822Zm1.2285,0v-7.2764c1.8459,1.1,5.3288,3.8535,6.4437,7.2764Z"/><rect class="bf2d6b78-e346-4ce0-8efe-c5b1c5aebbdc" x="574.0454" y="191.7476" width="85" height="85"/><path class="b642f467-281e-4261-b044-499f660b326e" d="M629.3593,253.8341H595.2629a1.3546,1.3546,0,1,0,0,2.7088h34.0964a1.3546,1.3546,0,1,0,0-2.7088Z"/><path class="b642f467-281e-4261-b044-499f660b326e" d="M643.8012,242.7232l-7.3625-13.7852a5.16,5.16,0,0,1-.6077-2.4232v-4.5991a1.3781,1.3781,0,0,0-2.7557,0v4.5991a7.8466,7.8466,0,0,0,.9231,3.6823l7.3631,13.7863a2.8841,2.8841,0,0,1,.3406,1.3566,2.9507,2.9507,0,0,1-2.9719,2.9219h-3.3776A2.9509,2.9509,0,0,1,632.38,245.34V218.8651h-4.0072a1.3822,1.3822,0,0,0-.594.1373v-7.767a5.6708,5.6708,0,0,0-5.7121-5.6149h-19.102a5.6705,5.6705,0,0,0-5.7116,5.6149v40.9464h30.5257V221.4367a1.3851,1.3851,0,0,0,.594.1372h1.2513V245.34a5.6865,5.6865,0,0,0,5.7281,5.6307H638.73a5.6863,5.6863,0,0,0,5.7279-5.6307A5.5672,5.5672,0,0,0,643.8012,242.7232Zm-22.02-20.5377a3.4609,3.4609,0,0,1-3.4862,3.4267H606.3263a3.461,3.461,0,0,1-3.4861-3.4267v-7.228a3.4611,3.4611,0,0,1,3.4861-3.4269h11.9689a3.461,3.461,0,0,1,3.4862,3.4269Z"/><path class="b642f467-281e-4261-b044-499f660b326e" d="M632.4213,215.777a2.1627,2.1627,0,0,1,.654,1.5517v1.68a1.3781,1.3781,0,0,0,2.7558,0v-1.68a4.8283,4.8283,0,0,0-1.4613-3.4669l-3.8646-3.7992a1.3942,1.3942,0,0,0-1.9484,0,1.3375,1.3375,0,0,0,0,1.9152Z"/><path class="b642f467-281e-4261-b044-499f660b326e" d="M619.0256,222.1855a.7253.7253,0,0,1-.73.718H606.3264a.7253.7253,0,0,1-.73-.718v-7.228a.7253.7253,0,0,1,.73-.718h11.9688a.7253.7253,0,0,1,.73.718Z"/><rect class="bf2d6b78-e346-4ce0-8efe-c5b1c5aebbdc" x="361.4293" y="297.6329" width="85" height="85"/><path class="b642f467-281e-4261-b044-499f660b326e" d="M395.1347,325.3119h-5.8954A1.8337,1.8337,0,0,0,387.39,327.13v5.7947a1.8335,1.8335,0,0,0,1.8492,1.8176h5.8954a1.8338,1.8338,0,0,0,1.8495-1.8176V327.13A1.834,1.834,0,0,0,395.1347,325.3119Z"/><path class="b642f467-281e-4261-b044-499f660b326e" d="M406.3736,325.3119h-5.8955a1.8337,1.8337,0,0,0-1.8493,1.8178v5.7947a1.8335,1.8335,0,0,0,1.8493,1.8176h5.8955a1.8338,1.8338,0,0,0,1.8493-1.8176V327.13A1.8339,1.8339,0,0,0,406.3736,325.3119Z"/><path class="b642f467-281e-4261-b044-499f660b326e" d="M411.7168,334.742h5.8955a1.8336,1.8336,0,0,0,1.8493-1.8176V327.13a1.8338,1.8338,0,0,0-1.8493-1.8178h-5.8955a1.8337,1.8337,0,0,0-1.8493,1.8178v5.7947A1.8335,1.8335,0,0,0,411.7168,334.742Z"/><path class="b642f467-281e-4261-b044-499f660b326e" d="M395.1347,336.2688h-5.8954a1.8337,1.8337,0,0,0-1.8492,1.8178v5.7947a1.8335,1.8335,0,0,0,1.8492,1.8176h5.8954a1.8338,1.8338,0,0,0,1.8495-1.8176v-5.7947A1.834,1.834,0,0,0,395.1347,336.2688Z"/><path class="b642f467-281e-4261-b044-499f660b326e" d="M406.3736,336.2688h-5.8955a1.8337,1.8337,0,0,0-1.8493,1.8178v5.7947a1.8335,1.8335,0,0,0,1.8493,1.8176h5.8955a1.8338,1.8338,0,0,0,1.8493-1.8176v-5.7947A1.8339,1.8339,0,0,0,406.3736,336.2688Z"/><path class="b642f467-281e-4261-b044-499f660b326e" d="M411.7168,345.6989h5.8955a1.8336,1.8336,0,0,0,1.8493-1.8176v-5.7947a1.8338,1.8338,0,0,0-1.8493-1.8178h-5.8955a1.8337,1.8337,0,0,0-1.8493,1.8178v5.7947A1.8335,1.8335,0,0,0,411.7168,345.6989Z"/><path class="b642f467-281e-4261-b044-499f660b326e" d="M395.1347,347.2257h-5.8954a1.8337,1.8337,0,0,0-1.8492,1.8178v5.7947a1.8335,1.8335,0,0,0,1.8492,1.8176h5.8954a1.8338,1.8338,0,0,0,1.8495-1.8176v-5.7947A1.834,1.834,0,0,0,395.1347,347.2257Z"/><path class="b642f467-281e-4261-b044-499f660b326e" d="M406.3736,347.2257h-5.8955a1.8337,1.8337,0,0,0-1.8493,1.8178v5.7947a1.8335,1.8335,0,0,0,1.8493,1.8176h5.8955a1.8338,1.8338,0,0,0,1.8493-1.8176v-5.7947A1.8339,1.8339,0,0,0,406.3736,347.2257Z"/><path class="b642f467-281e-4261-b044-499f660b326e" d="M411.7168,356.6558h5.8955a1.8336,1.8336,0,0,0,1.8493-1.8176v-5.7947a1.8338,1.8338,0,0,0-1.8493-1.8178h-5.8955a1.8337,1.8337,0,0,0-1.8493,1.8178v5.7947A1.8335,1.8335,0,0,0,411.7168,356.6558Z"/><path class="b642f467-281e-4261-b044-499f660b326e" d="M429.8705,321.1267l-3.488-1.5317v0l-22.454-9.8608-22.4523,9.8608h0l-3.4881,1.5318a1.5648,1.5648,0,0,0-.809,2.0811,1.6185,1.6185,0,0,0,2.1172.7952l2.18-.9573V363.18h44.9063V323.0457l2.18.9573a1.6186,1.6186,0,0,0,2.1173-.7952A1.5649,1.5649,0,0,0,429.8705,321.1267ZM423.1777,360.03H384.681v-38.392l13.341-5.859,5.9065-2.5936,5.4371,2.3872,13.8121,6.0656Z"/><rect class="bf2d6b78-e346-4ce0-8efe-c5b1c5aebbdc" x="467.7659" y="297.6575" width="85" height="85"/><path class="b642f467-281e-4261-b044-499f660b326e" d="M510.45,352.6768a9.5552,9.5552,0,0,0,1.3351.0882c.0965,0,.192-.008.2878-.01v-5.8824l-1.6229-.3729Z"/><path class="b642f467-281e-4261-b044-499f660b326e" d="M510.45,336.5846v5.3226l1.6229.3919v-5.7047c-.2925-.0269-.5991-.0454-.9367-.0454A6.8256,6.8256,0,0,0,510.45,336.5846Z"/><path class="b642f467-281e-4261-b044-499f660b326e" d="M507.45,338.0014a2.1756,2.1756,0,0,0-.3737,1.2927,2.2185,2.2185,0,0,0,.2435,1.1017,2.0147,2.0147,0,0,0,.6168.686,2.8006,2.8006,0,0,0,.8125.3829c.1239.0364.223.0627.3372.0949v-4.6948a4.2447,4.2447,0,0,0-.6782.2908A2.7912,2.7912,0,0,0,507.45,338.0014Z"/><path class="b642f467-281e-4261-b044-499f660b326e" d="M515.4709,347.93a6.8921,6.8921,0,0,0-1.3472-.5269c-.22-.063-.4521-.126-.6872-.189v5.4338c.0287-.0041.0577-.0052.0865-.01a5.7628,5.7628,0,0,0,1.5585-.4474,2.9329,2.9329,0,0,0,1.1364-.8938,2.4021,2.4021,0,0,0,.4391-1.5,1.9163,1.9163,0,0,0-.3092-1.1172A2.43,2.43,0,0,0,515.4709,347.93Z"/><path class="b642f467-281e-4261-b044-499f660b326e" d="M515.75,321.3309a9.9793,9.9793,0,0,1,3.3581-6.16c2.7284-2.1473-1.8173-1.97-4.915-1.611-3.089.357-9.822-1.4313-11.274-.1776-1.4563,1.2483-.915,3.2183.726,4.289a13.0611,13.0611,0,0,1,2.8769,3.6674c-9.292,3.3008-16.2334,16.3109-16.2334,31.8725a50.9155,50.9155,0,0,0,.3333,5.8128c.3967,1.2956,1.6527,4.2949,4.8145,4.2949H526.322s4.4495-.14,5.2883-3.7525c.0521-.4456.1042-.8892.1483-1.3389a4.6,4.6,0,0,1,.0441-.5245c.1326-1.4689.2044-2.9675.2044-4.4918C532.0071,337.6378,525.0543,324.6161,515.75,321.3309Zm5.0474,30.8438a6.3506,6.3506,0,0,1-1.3959,2.06,7.1572,7.1572,0,0,1-1.9008,1.3244,10.9727,10.9727,0,0,1-2.0618.75,12.7046,12.7046,0,0,1-1.9.3353c-.0381.0035-.0658.0046-.1025.0077v3.4032h-1.3639v-3.3337c-.5724-.0017-1.11-.0263-1.6229-.0672v3.4009h-1.3636v-3.5674a10.066,10.066,0,0,1-2.0915-.5618,8.29,8.29,0,0,1-3.0362-1.9632,5.9612,5.9612,0,0,1-1.429-2.506,9.3736,9.3736,0,0,1-.3573-2.394h4.6763a4.2172,4.2172,0,0,0,.1786,1.1172,3.0387,3.0387,0,0,0,.6983,1.2133,3.9337,3.9337,0,0,0,1.3608.9122v-6.1263c-.6515-.1574-1.2933-.3217-1.9128-.5a7.8132,7.8132,0,0,1-2.3546-1.1013,5.4327,5.4327,0,0,1-1.6564-1.8834,6.3707,6.3707,0,0,1-.6329-3.0487,7.5124,7.5124,0,0,1,.1463-1.4044,6.7764,6.7764,0,0,1,.5026-1.5481,6.6974,6.6974,0,0,1,.9912-1.5323,5.7979,5.7979,0,0,1,1.64-1.309,9.9556,9.9556,0,0,1,2.4031-.91c.2752-.0693.57-.1249.8732-.1738v-3.8788H510.45v3.7335c.3352-.0195.68-.0321,1.0432-.0321.202,0,.386.0152.58.0218v-3.7232h1.3639v3.832a9.1974,9.1974,0,0,1,2.4735.6358,8.2783,8.2783,0,0,1,2.7928,1.883,6.5025,6.5025,0,0,1,1.4613,2.41,7.6486,7.6486,0,0,1,.4222,2.3463H515.91c-.0444-.2554-.1139-.58-.211-.9737a2.666,2.666,0,0,0-.6339-1.133,3.9934,3.9934,0,0,0-1.4129-.942c-.0661-.0284-.1449-.0492-.2157-.0745v5.7552l1.7913.4324a19.4516,19.4516,0,0,1,2.3062.7025,6.714,6.714,0,0,1,1.9482,1.1175,5.13,5.13,0,0,1,1.3482,1.7551,5.9815,5.9815,0,0,1,.5026,2.5862A7.3572,7.3572,0,0,1,520.7973,352.1747Z"/><rect class="bf2d6b78-e346-4ce0-8efe-c5b1c5aebbdc" x="574.0257" y="297.6575" width="85" height="85"/><path class="b642f467-281e-4261-b044-499f660b326e" d="M626.7149,320.1678a10.2507,10.2507,0,1,0,10.2769,10.25A10.2643,10.2643,0,0,0,626.7149,320.1678Zm0,16.777a6.5263,6.5263,0,1,1,6.5422-6.5264A6.5337,6.5337,0,0,1,626.7149,336.9448Z"/><path class="b642f467-281e-4261-b044-499f660b326e" d="M648.3286,357.6849a22.7595,22.7595,0,0,0-43.2261,0Z"/><path class="b642f467-281e-4261-b044-499f660b326e" d="M604.6222,324.7985a8.9855,8.9855,0,1,0,9.0084,8.985A8.9974,8.9974,0,0,0,604.6222,324.7985Zm0,14.7062a5.7208,5.7208,0,1,1,5.7347-5.7208A5.7272,5.7272,0,0,1,604.6222,339.5047Z"/><path class="b642f467-281e-4261-b044-499f660b326e" d="M609.99,344.7316a19.9105,19.9105,0,0,0-24.3122,12.9533h15.25A27.89,27.89,0,0,1,609.99,344.7316Z"/><rect class="bf2d6b78-e346-4ce0-8efe-c5b1c5aebbdc" x="361.4473" y="403.9567" width="85" height="85"/><path class="b642f467-281e-4261-b044-499f660b326e" d="M433.6263,424.6672l-3.2607-3.2607-5.455,5.455H380.2657v44.6454h44.6451V433.3826Zm-12.4318,43.1233H383.982V430.5778h37.2123l-22.5867,22.5867-3.26-3.26-3.2607-3.2607-3.2607,3.2607,3.2607,3.2607,3.2607,3.2607,3.2606,3.2607,3.2607-3.2607,0,0,19.3262-19.3262Z"/><rect class="bf2d6b78-e346-4ce0-8efe-c5b1c5aebbdc" x="467.7265" y="403.9567" width="85" height="85"/><path class="b642f467-281e-4261-b044-499f660b326e" d="M520.2022,427.4481l-4.4466-4.6748h-25.421v39.0739h29.8676Zm-14.2945,27.2754H495.816a.675.675,0,1,1,0-1.35h10.0917a.675.675,0,1,1,0,1.35Zm8.59-4.9979H495.816a.675.675,0,1,1,0-1.35h18.6814a.675.675,0,1,1,0,1.35Zm0-4.9971H495.816a.675.675,0,1,1,0-1.35h18.6814a.675.675,0,1,1,0,1.35Zm0-4.9971H495.816a.6751.6751,0,1,1,0-1.35h18.6814a.6751.6751,0,1,1,0,1.35Zm0-4.9979H495.816a.6751.6751,0,1,1,0-1.35h18.6814a.6751.6751,0,1,1,0,1.35Zm.7188-6.6721v-4.3893l4.1752,4.3893Z"/><path class="b642f467-281e-4261-b044-499f660b326e" d="M525.6719,429.0671H522.186V464.17H500.2508v3.971h29.8675V433.7419Zm-.5394,5.288v-4.3892l4.1748,4.3892Z"/><rect class="bf2d6b78-e346-4ce0-8efe-c5b1c5aebbdc" x="574.0454" y="403.9567" width="85" height="85"/><path class="b642f467-281e-4261-b044-499f660b326e" d="M616.5467,435.6169a8.6,8.6,0,1,0,8.756,8.5984A8.6758,8.6758,0,0,0,616.5467,435.6169Zm-.057,12.4223a3.9287,3.9287,0,1,1,4.0015-3.9285A3.9657,3.9657,0,0,1,616.49,448.0392Z"/><path class="b642f467-281e-4261-b044-499f660b326e" d="M616.699,430.9547c11.5737,0,17.1678,8.7027,19.0627,12.5151-2.146,4.1181-8.4092,14.006-19.0627,14.006-11.82,0-17.3345-9.7028-19.1123-13.7239,2.0162-3.8175,7.9458-12.7972,19.1123-12.7972m0-4.9977c-17.5829,0-24.5468,17.6016-24.5468,17.6016s5.9582,18.9149,24.5468,18.9149c17.06,0,24.5467-18.9149,24.5467-18.9149s-6.1463-17.6016-24.5467-17.6016Z"/><rect class="ee33ffe5-b346-48bd-96bc-1c68bb87b00b" x="467.7462" y="510.2378" width="85" height="85"/><path class="b642f467-281e-4261-b044-499f660b326e" d="M513.4082,569.1457l.0187-2.4492a13.9792,13.9792,0,0,0,3.62-1.3455l1.895,1.8777a1.1448,1.1448,0,0,0,1.6224-.0028l3.4614-3.4791a1.15,1.15,0,0,0-.0055-1.6282l-1.6779-1.6609a14.4913,14.4913,0,0,0,1.5883-3.3527l2.6165.047a1.1469,1.1469,0,0,0,1.1646-1.1315l.07-4.907a1.1455,1.1455,0,0,0-1.1258-1.1671l-2.3263-.0454a14.1337,14.1337,0,0,0-1.6-4.2721l1.86-1.7845a1.152,1.152,0,0,0-.002-1.6274l-3.4773-3.461a1.1588,1.1588,0,0,0-1.63.0032l-1.7814,1.7049a14.3867,14.3867,0,0,0-3.857-1.62l.0629-2.4062a1.1519,1.1519,0,0,0-1.1325-1.1682l-4.91-.0744a1.1524,1.1524,0,0,0-1.1652,1.1351l-.06,2.5358a14.3248,14.3248,0,0,0-4.1606,1.8369l-1.6867-1.6644a1.15,1.15,0,0,0-1.6267.0075l-3.4611,3.4772a1.155,1.155,0,0,0,.0015,1.6294l1.9079,1.88a14.4037,14.4037,0,0,0-1.286,3.4517l-2.3725-.0262a1.1512,1.1512,0,0,0-1.1686,1.1345l-.0735,4.9046a1.1535,1.1535,0,0,0,1.136,1.1707l2.6735.03a14.1425,14.1425,0,0,0,1.5525,3.5121l-1.778,1.6914a1.1536,1.1536,0,0,0,.0017,1.6292l3.4774,3.4613a1.158,1.158,0,0,0,1.6333-.0047l1.85-1.7757a14.36,14.36,0,0,0,2.9737,1.25l-.0268,2.5788a1.1533,1.1533,0,0,0,1.1326,1.1681l4.9033.0714A1.1513,1.1513,0,0,0,513.4082,569.1457Zm-12.623-16.5644a9.5,9.5,0,1,1,9.3593,9.6371A9.5047,9.5047,0,0,1,500.7852,552.5813Z"/><rect class="b970c28c-c8fe-4ba4-991d-3a08a67792c1" x="414.6346" y="191.0601" width="191.1838" height="340.1378"/><rect class="b9f677c7-4261-4eac-9cff-a7f647e47238" x="414.6346" y="191.0601" width="148.2117" height="18.6749"/><rect class="b73c9053-50ea-4b94-8310-52a6a57b68a8" x="414.6346" y="209.6797" width="148.2117" height="2.6528"/><path class="a6b90179-5b70-4e3c-afe1-4fe618d2f98b" d="M439.9337,222.2621c3.4092.0652,6.1238,3.5609,6.1238,3.5609l.0866.1089a51.5519,51.5519,0,0,1,.9989-5.1463c-2.0407-.5865-1.2373-2.7361-1.2373-2.7361s.0413-.03.1114-.0759a9.2348,9.2348,0,0,0-6.269,4.27Z"/><path class="a6b90179-5b70-4e3c-afe1-4fe618d2f98b" d="M449.5538,218.0492a2.0809,2.0809,0,0,1-1.3248,2.7361,28.0522,28.0522,0,0,1,1.0855,5.0383c2.7262-3.236,5.628-3.5668,6.1659-3.6005a9.2412,9.2412,0,0,0-5.9316-4.1879l.005.014"/><path class="ae815d88-3669-4932-af3f-c47da617dd52" d="M446.1661,227.6261c-2.6709-2.8235-7.4056-2.4968-7.4056-2.4968l-.1691.0189a9.3134,9.3134,0,0,0-.2,1.9129,9.1922,9.1922,0,0,0,.8083,3.7762c.0273-.0289.0537-.0552.0817-.0841a9.8377,9.8377,0,0,1,6.8843-3.1271"/><path class="ae815d88-3669-4932-af3f-c47da617dd52" d="M456.6448,225.1241c-5.1562-.1113-7.3734,2.5241-7.3734,2.5241a9.6759,9.6759,0,0,1,6.8364,3.0429,9.2424,9.2424,0,0,0,.537-5.567"/><path class="ff5ce578-7695-4074-bd9b-1f035cce9c48" d="M453.8282,233.8915c-.9626-3.0421-4.1664-5.0283-4.1664-5.0283a28.4252,28.4252,0,0,1-.5106,7.2983,9.195,9.195,0,0,0,4.677-2.27"/><path class="ff5ce578-7695-4074-bd9b-1f035cce9c48" d="M445.7968,228.8634a10.0734,10.0734,0,0,0-4.2341,5.1249l-.0115.0223a9.1808,9.1808,0,0,0,4.8147,2.1924,33.4,33.4,0,0,1-.5691-7.34"/><path d="M459.7307,231.4885v-9.6476H462.38a10.6789,10.6789,0,0,1,2.17.1476,2.7359,2.7359,0,0,1,1.0583.4974,2.6,2.6,0,0,1,.7721,1.0089,3.3145,3.3145,0,0,1,.27,1.35,2.9427,2.9427,0,0,1-.53,1.8222,2.5663,2.5663,0,0,1-1.5475.9329l2.5348,3.8884h-2.8655l-2.1347-3.7762v3.7762Zm2.3765-5.0878h.47a1.9736,1.9736,0,0,0,1.1977-.29,1.0705,1.0705,0,0,0,.3778-.909,1.3042,1.3042,0,0,0-.3522-1.0311,1.8061,1.8061,0,0,0-1.1853-.3068h-.5081Z"/><polygon points="468.738 231.488 468.738 224.12 466.653 224.12 466.653 221.841 473.357 221.841 473.357 224.12 471.273 224.12 471.273 231.488 468.738 231.488"/><path d="M477.0376,231.4884l-3.9017-9.6475h2.694l1.8617,5.3971c.0174.0569.052.1938.1048.4115s.1221.5106.207.8794q.1016-.4406.1906-.7977.0891-.3551.1336-.4932l1.8494-5.3971h2.6939l-3.9015,9.6475Z"/><path d="M461.8533,233.1406v.8958a1.18,1.18,0,0,0-.3241-.2738.7112.7112,0,0,0-.3457-.0883.6968.6968,0,0,0-.551.2417.9206.9206,0,0,0-.2111.6293.8652.8652,0,0,0,.2144.6005.7385.7385,0,0,0,.8934.15,1.1512,1.1512,0,0,0,.3241-.2764v.8983a1.843,1.843,0,0,1-.3745.1419,1.5277,1.5277,0,0,1-.3761.047,1.5753,1.5753,0,0,1-.4388-.0586,1.2323,1.2323,0,0,1-.37-.1773,1.4985,1.4985,0,0,1-.4949-.5691,1.711,1.711,0,0,1-.1707-.7721,1.7471,1.7471,0,0,1,.108-.6277,1.5242,1.5242,0,0,1,.3258-.5123,1.3583,1.3583,0,0,1,.4652-.3291,1.4638,1.4638,0,0,1,.575-.1089,1.5277,1.5277,0,0,1,.3761.047,1.8489,1.8489,0,0,1,.3745.1419"/><path d="M465.0647,234.5336a1.5992,1.5992,0,0,1-.1147.6079,1.5353,1.5353,0,0,1-.3341.5073,1.575,1.575,0,0,1-.5072.3415,1.5263,1.5263,0,0,1-1.6877-.3415,1.5231,1.5231,0,0,1-.34-.51,1.6523,1.6523,0,0,1,0-1.2133,1.55,1.55,0,0,1,.34-.5081,1.5338,1.5338,0,0,1,1.69-.3415,1.5342,1.5342,0,0,1,.5048.3415,1.5526,1.5526,0,0,1,.3333.5073,1.6,1.6,0,0,1,.1155.6087m-1.5483.8834a.6847.6847,0,0,0,.5436-.2516,1.03,1.03,0,0,0-.0033-1.2628.7088.7088,0,0,0-1.0839-.0008,1.0447,1.0447,0,0,0-.0033,1.2661.6852.6852,0,0,0,.5469.2491"/><path d="M468.6751,236.0308h-.7392l-.17-1.3c-.0123-.0915-.023-.1946-.033-.306s-.0189-.2351-.0263-.3687a3.8674,3.8674,0,0,1-.11.4776c-.0116.0388-.02.0693-.0248.0883l-.3943,1.4088h-.5271l-.3942-1.4088-.024-.0883a3.4852,3.4852,0,0,1-.1089-.4751c-.0082.1138-.0173.2268-.0272.3382s-.0231.2227-.038.334l-.17,1.3h-.7357l.4479-3.0074h.7828l.4371,1.5507c.0025.0116.0083.03.0157.0536a1.9817,1.9817,0,0,1,.0776.3547,1.74,1.74,0,0,1,.03-.1765c.0149-.0651.0347-.1435.0594-.2359l.4422-1.5466h.7836Z"/><polygon points="468.89 236.031 468.89 233.023 470.667 233.023 470.667 233.682 469.66 233.682 469.66 234.205 470.609 234.205 470.609 234.85 469.66 234.85 469.66 235.358 470.667 235.358 470.667 236.031 468.89 236.031"/><path d="M470.9788,236.031v-3.0074h.8256a3.3474,3.3474,0,0,1,.6764.0461.8552.8552,0,0,1,.33.1552.8139.8139,0,0,1,.2408.3142,1.0366,1.0366,0,0,1,.0842.4215.9173.9173,0,0,1-.1658.5684.8058.8058,0,0,1-.4818.29l.79,1.2117h-.8934l-.6656-1.1771v1.1771Zm.7407-1.5862h.146a.6164.6164,0,0,0,.3736-.09.3346.3346,0,0,0,.118-.2837.4062.4062,0,0,0-.11-.3217.5643.5643,0,0,0-.37-.0949H471.72Z"/><path d="M475.47,233.1406v.8958a1.1907,1.1907,0,0,0-.3242-.2738.7105.7105,0,0,0-.3456-.0883.6967.6967,0,0,0-.551.2417.92.92,0,0,0-.2112.6293.8652.8652,0,0,0,.2145.6005.7383.7383,0,0,0,.8933.15,1.1611,1.1611,0,0,0,.3242-.2764v.8983a1.8632,1.8632,0,0,1-.3745.1419,1.5327,1.5327,0,0,1-.3762.047,1.5681,1.5681,0,0,1-.4388-.0586,1.2226,1.2226,0,0,1-.37-.1773,1.5,1.5,0,0,1-.495-.5691,1.711,1.711,0,0,1-.1707-.7721,1.745,1.745,0,0,1,.1081-.6277,1.5242,1.5242,0,0,1,.3258-.5123,1.3554,1.3554,0,0,1,.4644-.3291,1.4673,1.4673,0,0,1,.5757-.1089,1.5327,1.5327,0,0,1,.3762.047,1.8693,1.8693,0,0,1,.3745.1419"/><rect x="475.7239" y="233.0241" width="0.7985" height="3.0074"/><path d="M476.6089,236.0306l1-3.0066h.99l1.0022,3.0066h-.7861l-.1468-.5378h-1.1235l-.15.5378Zm1.107-1.1235h.7869l-.2954-.9923c-.01-.03-.0222-.0783-.0379-.146s-.0363-.1526-.061-.2582c-.0174.0735-.0338.1444-.05.2112s-.0339.132-.0512.193Z"/><polygon points="479.668 236.031 479.668 233.023 480.458 233.023 480.458 235.328 481.441 235.328 481.441 236.031 479.668 236.031"/><rect class="b970c28c-c8fe-4ba4-991d-3a08a67792c1" x="435.8268" y="255.0972" width="143.5242" height="254.8424"/><path class="bf79a050-99ab-47be-9c69-e7e785edce4b" d="M577.3509,255.0972h-1v.2486h1v-.2486Zm-2,0h-1v.2486h1v-.2486Zm-2,0h-1v.2486h1v-.2486Zm-2,0h-1v.2486h1v-.2486Zm-2,0h-1v.2486h1v-.2486Zm-2,0h-1v.2486h1v-.2486Zm-2,0h-1v.2486h1v-.2486Zm-2,0h-1v.2486h1v-.2486Zm-2,0h-1v.2486h1v-.2486Zm-2,0h-1v.2486h1v-.2486Zm-2,0h-1v.2486h1v-.2486Zm-2,0h-1v.2486h1v-.2486Zm-2,0h-1v.2486h1v-.2486Zm-2,0h-1v.2486h1v-.2486Zm-2,0h-1v.2486h1v-.2486Zm-2,0h-1v.2486h1v-.2486Zm-2,0h-1v.2486h1v-.2486Zm-2,0h-1v.2486h1v-.2486Zm-2,0h-1v.2486h1v-.2486Zm-2,0h-1v.2486h1v-.2486Zm-2,0h-1v.2486h1v-.2486Zm-2,0h-1v.2486h1v-.2486Zm-2,0h-1v.2486h1v-.2486Zm-2,0h-1v.2486h1v-.2486Zm-2,0h-1v.2486h1v-.2486Zm-2,0h-1v.2486h1v-.2486Zm-2,0h-1v.2486h1v-.2486Zm-2,0h-1v.2486h1v-.2486Zm-2,0h-1v.2486h1v-.2486Zm-2,0h-1v.2486h1v-.2486Zm-2,0h-1v.2486h1v-.2486Zm-2,0h-1v.2486h1v-.2486Zm-2,0h-1v.2486h1v-.2486Zm-2,0h-1v.2486h1v-.2486Zm-2,0h-1v.2486h1v-.2486Zm-2,0h-1v.2486h1v-.2486Zm-2,0h-1v.2486h1v-.2486Zm-2,0h-1v.2486h1v-.2486Zm-2,0h-1v.2486h1v-.2486Zm-2,0h-1v.2486h1v-.2486Zm-2,0h-1v.2486h1v-.2486Zm-2,0h-1v.2486h1v-.2486Zm-2,0h-1v.2486h1v-.2486Zm-2,0h-1v.2486h1v-.2486Zm-2,0h-1v.2486h1v-.2486Zm-2,0h-1v.2486h1v-.2486Zm-2,0h-1v.2486h1v-.2486Zm-2,0h-1v.2486h1v-.2486Zm-2,0h-1v.2486h1v-.2486Zm-2,0h-1v.2486h1v-.2486Zm-2,0h-1v.2486h1v-.2486Zm-2,0h-1v.2486h1v-.2486Zm-2,0h-1v.2486h1v-.2486Zm-2,0h-1v.2486h1v-.2486Zm-2,0h-1v.2486h1v-.2486Zm-2,0h-1v.2486h1v-.2486Zm-2,0h-1v.2486h1v-.2486Zm-2,0h-1v.2486h1v-.2486Zm-2,0h-1v.2486h1v-.2486Zm-2,0h-1v.2486h1v-.2486Zm-2,0h-1v.2486h1v-.2486Zm-2,0h-1v.2486h1v-.2486Zm-2,0h-1v.2486h1v-.2486Zm-2,0h-1v.2486h1v-.2486Zm-2,0h-1v.2486h1v-.2486Zm-2,0h-1v.2486h1v-.2486Zm-2,0h-1v.2486h1v-.2486Zm-2,0h-1v.2486h1v-.2486Zm-2,0h-1v.2486h1v-.2486Zm-2,0h-1v.2486h1v-.2486Zm-2,0h-1v.2486h1v-.2486Zm-1.2756.4758h-.2485v1h.2485v-1Zm0,2h-.2485v1h.2485v-1Zm0,2h-.2485v1h.2485v-1Zm0,2h-.2485v1h.2485v-1Zm0,2h-.2485v1h.2485v-1Zm0,2h-.2485v1h.2485v-1Zm0,2h-.2485v1h.2485v-1Zm0,2h-.2485v1h.2485v-1Zm0,2h-.2485v1h.2485v-1Zm0,2h-.2485v1h.2485v-1Zm0,2h-.2485v1h.2485v-1Zm0,2h-.2485v1h.2485v-1Zm0,2h-.2485v1h.2485v-1Zm0,2h-.2485v1h.2485v-1Zm0,2h-.2485v1h.2485v-1Zm0,2h-.2485v1h.2485v-1Zm0,2h-.2485v1h.2485v-1Zm0,2h-.2485v1h.2485v-1Zm0,2h-.2485v1h.2485v-1Zm0,2h-.2485v1h.2485v-1Zm0,2h-.2485v1h.2485v-1Zm0,2h-.2485v1h.2485v-1Zm0,2h-.2485v1h.2485v-1Zm0,2h-.2485v1h.2485v-1Zm0,2h-.2485v1h.2485v-1Zm0,2h-.2485v1h.2485v-1Zm0,2h-.2485v1h.2485v-1Zm0,2h-.2485v1h.2485v-1Zm0,2h-.2485v1h.2485v-1Zm0,2h-.2485v1h.2485v-1Zm0,2h-.2485v1h.2485v-1Zm0,2h-.2485v1h.2485v-1Zm0,2h-.2485v1h.2485v-1Zm0,2h-.2485v1h.2485v-1Zm0,2h-.2485v1h.2485v-1Zm0,2h-.2485v1h.2485v-1Zm0,2h-.2485v1h.2485v-1Zm0,2h-.2485v1h.2485v-1Zm0,2h-.2485v1h.2485v-1Zm0,2h-.2485v1h.2485v-1Zm0,2h-.2485v1h.2485v-1Zm0,2h-.2485v1h.2485v-1Zm0,2h-.2485v1h.2485v-1Zm0,2h-.2485v1h.2485v-1Zm0,2h-.2485v1h.2485v-1Zm0,2h-.2485v1h.2485v-1Zm0,2h-.2485v1h.2485v-1Zm0,2h-.2485v1h.2485v-1Zm0,2h-.2485v1h.2485v-1Zm0,2h-.2485v1h.2485v-1Zm0,2h-.2485v1h.2485v-1Zm0,2h-.2485v1h.2485v-1Zm0,2h-.2485v1h.2485v-1Zm0,2h-.2485v1h.2485v-1Zm0,2h-.2485v1h.2485v-1Zm0,2h-.2485v1h.2485v-1Zm0,2h-.2485v1h.2485v-1Zm0,2h-.2485v1h.2485v-1Zm0,2h-.2485v1h.2485v-1Zm0,2h-.2485v1h.2485v-1Zm0,2h-.2485v1h.2485v-1Zm0,2h-.2485v1h.2485v-1Zm0,2h-.2485v1h.2485v-1Zm0,2h-.2485v1h.2485v-1Zm0,2h-.2485v1h.2485v-1Zm0,2h-.2485v1h.2485v-1Zm0,2h-.2485v1h.2485v-1Zm0,2h-.2485v1h.2485v-1Zm0,2h-.2485v1h.2485v-1Zm0,2h-.2485v1h.2485v-1Zm0,2h-.2485v1h.2485v-1Zm0,2h-.2485v1h.2485v-1Zm0,2h-.2485v1h.2485v-1Zm0,2h-.2485v1h.2485v-1Zm0,2h-.2485v1h.2485v-1Zm0,2h-.2485v1h.2485v-1Zm0,2h-.2485v1h.2485v-1Zm0,2h-.2485v1h.2485v-1Zm0,2h-.2485v1h.2485v-1Zm0,2h-.2485v1h.2485v-1Zm0,2h-.2485v1h.2485v-1Zm0,2h-.2485v1h.2485v-1Zm0,2h-.2485v1h.2485v-1Zm0,2h-.2485v1h.2485v-1Zm0,2h-.2485v1h.2485v-1Zm0,2h-.2485v1h.2485v-1Zm0,2h-.2485v1h.2485v-1Zm0,2h-.2485v1h.2485v-1Zm0,2h-.2485v1h.2485v-1Zm0,2h-.2485v1h.2485v-1Zm0,2h-.2485v1h.2485v-1Zm0,2h-.2485v1h.2485v-1Zm0,2h-.2485v1h.2485v-1Zm0,2h-.2485v1h.2485v-1Zm0,2h-.2485v1h.2485v-1Zm0,2h-.2485v1h.2485v-1Zm0,2h-.2485v1h.2485v-1Zm0,2h-.2485v1h.2485v-1Zm0,2h-.2485v1h.2485v-1Zm0,2h-.2485v1h.2485v-1Zm0,2h-.2485v1h.2485v-1Zm0,2h-.2485v1h.2485v-1Zm0,2h-.2485v1h.2485v-1Zm0,2h-.2485v1h.2485v-1Zm0,2h-.2485v1h.2485v-1Zm0,2h-.2485v1h.2485v-1Zm0,2h-.2485v1h.2485v-1Zm0,2h-.2485v1h.2485v-1Zm0,2h-.2485v1h.2485v-1Zm0,2h-.2485v1h.2485v-1Zm0,2h-.2485v1h.2485v-1Zm0,2h-.2485v1h.2485v-1Zm0,2h-.2485v1h.2485v-1Zm0,2h-.2485v1h.2485v-1Zm0,2h-.2485v1h.2485v-1Zm0,2h-.2485v1h.2485v-1Zm0,2h-.2485v1h.2485v-1Zm0,2h-.2485v1h.2485v-1Zm0,2h-.2485v1h.2485v-1Zm0,2h-.2485v1h.2485v-1Zm0,2h-.2485v1h.2485v-1Zm0,2h-.2485v1h.2485v-1Zm0,2h-.2485v1h.2485v-1Zm0,2h-.2485v1h.2485v-1Zm0,2h-.2485v1h.2485v-1Zm0,2h-.2485v1h.2485v-1Zm0,2h-.2485v1h.2485v-1Zm0,2h-.2485v.3666h.6335v-.2485h-.385v-.1181Zm2.385.1181h-1v.2485h1v-.2485Zm2,0h-1v.2485h1v-.2485Zm2,0h-1v.2485h1v-.2485Zm2,0h-1v.2485h1v-.2485Zm2,0h-1v.2485h1v-.2485Zm2,0h-1v.2485h1v-.2485Zm2,0h-1v.2485h1v-.2485Zm2,0h-1v.2485h1v-.2485Zm2,0h-1v.2485h1v-.2485Zm2,0h-1v.2485h1v-.2485Zm2,0h-1v.2485h1v-.2485Zm2,0h-1v.2485h1v-.2485Zm2,0h-1v.2485h1v-.2485Zm2,0h-1v.2485h1v-.2485Zm2,0h-1v.2485h1v-.2485Zm2,0h-1v.2485h1v-.2485Zm2,0h-1v.2485h1v-.2485Zm2,0h-1v.2485h1v-.2485Zm2,0h-1v.2485h1v-.2485Zm2,0h-1v.2485h1v-.2485Zm2,0h-1v.2485h1v-.2485Zm2,0h-1v.2485h1v-.2485Zm2,0h-1v.2485h1v-.2485Zm2,0h-1v.2485h1v-.2485Zm2,0h-1v.2485h1v-.2485Zm2,0h-1v.2485h1v-.2485Zm2,0h-1v.2485h1v-.2485Zm2,0h-1v.2485h1v-.2485Zm2,0h-1v.2485h1v-.2485Zm2,0h-1v.2485h1v-.2485Zm2,0h-1v.2485h1v-.2485Zm2,0h-1v.2485h1v-.2485Zm2,0h-1v.2485h1v-.2485Zm2,0h-1v.2485h1v-.2485Zm2,0h-1v.2485h1v-.2485Zm2,0h-1v.2485h1v-.2485Zm2,0h-1v.2485h1v-.2485Zm2,0h-1v.2485h1v-.2485Zm2,0h-1v.2485h1v-.2485Zm2,0h-1v.2485h1v-.2485Zm2,0h-1v.2485h1v-.2485Zm2,0h-1v.2485h1v-.2485Zm2,0h-1v.2485h1v-.2485Zm2,0h-1v.2485h1v-.2485Zm2,0h-1v.2485h1v-.2485Zm2,0h-1v.2485h1v-.2485Zm2,0h-1v.2485h1v-.2485Zm2,0h-1v.2485h1v-.2485Zm2,0h-1v.2485h1v-.2485Zm2,0h-1v.2485h1v-.2485Zm2,0h-1v.2485h1v-.2485Zm2,0h-1v.2485h1v-.2485Zm2,0h-1v.2485h1v-.2485Zm2,0h-1v.2485h1v-.2485Zm2,0h-1v.2485h1v-.2485Zm2,0h-1v.2485h1v-.2485Zm2,0h-1v.2485h1v-.2485Zm2,0h-1v.2485h1v-.2485Zm2,0h-1v.2485h1v-.2485Zm2,0h-1v.2485h1v-.2485Zm2,0h-1v.2485h1v-.2485Zm2,0h-1v.2485h1v-.2485Zm2,0h-1v.2485h1v-.2485Zm2,0h-1v.2485h1v-.2485Zm2,0h-1v.2485h1v-.2485Zm2,0h-1v.2485h1v-.2485Zm2,0h-1v.2485h1v-.2485Zm2,0h-1v.2485h1v-.2485Zm2,0h-1v.2485h1v-.2485Zm2,0h-1v.2485h1v-.2485Zm2,0h-1v.2485h1v-.2485Zm.8906-.8607h-.2485v1h.2485v-1Zm0-2h-.2485v1h.2485v-1Zm0-2h-.2485v1h.2485v-1Zm0-2h-.2485v1h.2485v-1Zm0-2h-.2485v1h.2485v-1Zm0-2h-.2485v1h.2485v-1Zm0-2h-.2485v1h.2485v-1Zm0-2h-.2485v1h.2485v-1Zm0-2h-.2485v1h.2485v-1Zm0-2h-.2485v1h.2485v-1Zm0-2h-.2485v1h.2485v-1Zm0-2h-.2485v1h.2485v-1Zm0-2h-.2485v1h.2485v-1Zm0-2h-.2485v1h.2485v-1Zm0-2h-.2485v1h.2485v-1Zm0-2h-.2485v1h.2485v-1Zm0-2h-.2485v1h.2485v-1Zm0-2h-.2485v1h.2485v-1Zm0-2h-.2485v1h.2485v-1Zm0-2h-.2485v1h.2485v-1Zm0-2h-.2485v1h.2485v-1Zm0-2h-.2485v1h.2485v-1Zm0-2h-.2485v1h.2485v-1Zm0-2h-.2485v1h.2485v-1Zm0-2h-.2485v1h.2485v-1Zm0-2h-.2485v1h.2485v-1Zm0-2h-.2485v1h.2485v-1Zm0-2h-.2485v1h.2485v-1Zm0-2h-.2485v1h.2485v-1Zm0-2h-.2485v1h.2485v-1Zm0-2h-.2485v1h.2485v-1Zm0-2h-.2485v1h.2485v-1Zm0-2h-.2485v1h.2485v-1Zm0-2h-.2485v1h.2485v-1Zm0-2h-.2485v1h.2485v-1Zm0-2h-.2485v1h.2485v-1Zm0-2h-.2485v1h.2485v-1Zm0-2h-.2485v1h.2485v-1Zm0-2h-.2485v1h.2485v-1Zm0-2h-.2485v1h.2485v-1Zm0-2h-.2485v1h.2485v-1Zm0-2h-.2485v1h.2485v-1Zm0-2h-.2485v1h.2485v-1Zm0-2h-.2485v1h.2485v-1Zm0-2h-.2485v1h.2485v-1Zm0-2h-.2485v1h.2485v-1Zm0-2h-.2485v1h.2485v-1Zm0-2h-.2485v1h.2485v-1Zm0-2h-.2485v1h.2485v-1Zm0-2h-.2485v1h.2485v-1Zm0-2h-.2485v1h.2485v-1Zm0-2h-.2485v1h.2485v-1Zm0-2h-.2485v1h.2485v-1Zm0-2h-.2485v1h.2485v-1Zm0-2h-.2485v1h.2485v-1Zm0-2h-.2485v1h.2485v-1Zm0-2h-.2485v1h.2485v-1Zm0-2h-.2485v1h.2485v-1Zm0-2h-.2485v1h.2485v-1Zm0-2h-.2485v1h.2485v-1Zm0-2h-.2485v1h.2485v-1Zm0-2h-.2485v1h.2485v-1Zm0-2h-.2485v1h.2485v-1Zm0-2h-.2485v1h.2485v-1Zm0-2h-.2485v1h.2485v-1Zm0-2h-.2485v1h.2485v-1Zm0-2h-.2485v1h.2485v-1Zm0-2h-.2485v1h.2485v-1Zm0-2h-.2485v1h.2485v-1Zm0-2h-.2485v1h.2485v-1Zm0-2h-.2485v1h.2485v-1Zm0-2h-.2485v1h.2485v-1Zm0-2h-.2485v1h.2485v-1Zm0-2h-.2485v1h.2485v-1Zm0-2h-.2485v1h.2485v-1Zm0-2h-.2485v1h.2485v-1Zm0-2h-.2485v1h.2485v-1Zm0-2h-.2485v1h.2485v-1Zm0-2h-.2485v1h.2485v-1Zm0-2h-.2485v1h.2485v-1Zm0-2h-.2485v1h.2485v-1Zm0-2h-.2485v1h.2485v-1Zm0-2h-.2485v1h.2485v-1Zm0-2h-.2485v1h.2485v-1Zm0-2h-.2485v1h.2485v-1Zm0-2h-.2485v1h.2485v-1Zm0-2h-.2485v1h.2485v-1Zm0-2h-.2485v1h.2485v-1Zm0-2h-.2485v1h.2485v-1Zm0-2h-.2485v1h.2485v-1Zm0-2h-.2485v1h.2485v-1Zm0-2h-.2485v1h.2485v-1Zm0-2h-.2485v1h.2485v-1Zm0-2h-.2485v1h.2485v-1Zm0-2h-.2485v1h.2485v-1Zm0-2h-.2485v1h.2485v-1Zm0-2h-.2485v1h.2485v-1Zm0-2h-.2485v1h.2485v-1Zm0-2h-.2485v1h.2485v-1Zm0-2h-.2485v1h.2485v-1Zm0-2h-.2485v1h.2485v-1Zm0-2h-.2485v1h.2485v-1Zm0-2h-.2485v1h.2485v-1Zm0-2h-.2485v1h.2485v-1Zm0-2h-.2485v1h.2485v-1Zm0-2h-.2485v1h.2485v-1Zm0-2h-.2485v1h.2485v-1Zm0-2h-.2485v1h.2485v-1Zm0-2h-.2485v1h.2485v-1Zm0-2h-.2485v1h.2485v-1Zm0-2h-.2485v1h.2485v-1Zm0-2h-.2485v1h.2485v-1Zm0-2h-.2485v1h.2485v-1Zm0-2h-.2485v1h.2485v-1Zm0-2h-.2485v1h.2485v-1Zm0-2h-.2485v1h.2485v-1Zm0-2h-.2485v1h.2485v-1Zm0-2h-.2485v1h.2485v-1Zm0-2h-.2485v1h.2485v-1Zm0-2h-.2485v1h.2485v-1Zm0-2h-.2485v1h.2485v-1Zm0-2h-.2485v1h.2485v-1Zm0-2h-.2485v1h.2485v-1Zm0-2h-.2485v1h.2485v-1Zm0-2h-.2485v1h.2485v-1Zm0-2h-.2485v1h.2485v-1Zm0-2h-.2485v1h.2485v-1Zm0-1.7332h-1v.2486h.7515v.4846h.2485v-.7332Z"/><text class="a6aba4da-9d5b-4742-b6d2-62bc222e74ac" transform="translate(436.6965 266.7336) scale(1.0088 1)">Ca<tspan class="ea82b881-6020-4ce9-9af3-a6977f33b5f0" x="9.1097" y="0">r</tspan><tspan class="bc0b3af1-958e-498c-a610-c043f26afa67" x="12.1243" y="0">g</tspan><tspan x="16.2986" y="0">o</tspan><tspan class="a41c4d74-d956-453c-8063-2ac5e70ee640"><tspan x="0" y="9.6001">Nombre y Apellidos </tspan></tspan><tspan x="0" y="20.3999">Ca</tspan><tspan class="ea82b881-6020-4ce9-9af3-a6977f33b5f0" x="9.1097" y="20.3999">r</tspan><tspan class="bc0b3af1-958e-498c-a610-c043f26afa67" x="12.1243" y="20.3999">g</tspan><tspan x="16.2986" y="20.3999">o</tspan><tspan class="a41c4d74-d956-453c-8063-2ac5e70ee640"><tspan x="0" y="30">Nombre y Apellidos </tspan></tspan><tspan x="0" y="40.7998">Ca</tspan><tspan class="ea82b881-6020-4ce9-9af3-a6977f33b5f0" x="9.1097" y="40.7998">r</tspan><tspan class="bc0b3af1-958e-498c-a610-c043f26afa67" x="12.1243" y="40.7998">g</tspan><tspan x="16.2986" y="40.7998">o</tspan><tspan class="a41c4d74-d956-453c-8063-2ac5e70ee640"><tspan x="0" y="50.3999">Nombre y Apellidos </tspan></tspan><tspan x="0" y="61.1997">Ca</tspan><tspan class="ea82b881-6020-4ce9-9af3-a6977f33b5f0" x="9.1097" y="61.1997">r</tspan><tspan class="bc0b3af1-958e-498c-a610-c043f26afa67" x="12.1243" y="61.1997">g</tspan><tspan x="16.2986" y="61.1997">o</tspan><tspan class="a41c4d74-d956-453c-8063-2ac5e70ee640"><tspan x="0" y="70.7998">Nombre y Apellidos </tspan></tspan><tspan x="0" y="81.6001">Ca</tspan><tspan class="ea82b881-6020-4ce9-9af3-a6977f33b5f0" x="9.1097" y="81.6001">r</tspan><tspan class="bc0b3af1-958e-498c-a610-c043f26afa67" x="12.1243" y="81.6001">g</tspan><tspan x="16.2986" y="81.6001">o</tspan><tspan class="a41c4d74-d956-453c-8063-2ac5e70ee640"><tspan x="0" y="91.1997">Nombre y Apellidos </tspan></tspan><tspan x="0" y="102">Ca</tspan><tspan class="ea82b881-6020-4ce9-9af3-a6977f33b5f0" x="9.1097" y="102">r</tspan><tspan class="bc0b3af1-958e-498c-a610-c043f26afa67" x="12.1243" y="102">g</tspan><tspan x="16.2986" y="102">o</tspan><tspan class="a41c4d74-d956-453c-8063-2ac5e70ee640"><tspan x="0" y="111.6001">Nombre y Apellidos </tspan></tspan><tspan x="0" y="122.3999">Ca</tspan><tspan class="ea82b881-6020-4ce9-9af3-a6977f33b5f0" x="9.1097" y="122.3999">r</tspan><tspan class="bc0b3af1-958e-498c-a610-c043f26afa67" x="12.1243" y="122.3999">g</tspan><tspan x="16.2986" y="122.3999">o</tspan><tspan class="a41c4d74-d956-453c-8063-2ac5e70ee640"><tspan x="0" y="132">Nombre y Apellidos </tspan></tspan><tspan x="0" y="142.7998">Ca</tspan><tspan class="ea82b881-6020-4ce9-9af3-a6977f33b5f0" x="9.1097" y="142.7998">r</tspan><tspan class="bc0b3af1-958e-498c-a610-c043f26afa67" x="12.1243" y="142.7998">g</tspan><tspan x="16.2986" y="142.7998">o</tspan><tspan class="a41c4d74-d956-453c-8063-2ac5e70ee640"><tspan x="0" y="152.3999">Nombre y Apellidos </tspan></tspan><tspan x="0" y="163.1997">Ca</tspan><tspan class="ea82b881-6020-4ce9-9af3-a6977f33b5f0" x="9.1097" y="163.1997">r</tspan><tspan class="bc0b3af1-958e-498c-a610-c043f26afa67" x="12.1243" y="163.1997">g</tspan><tspan x="16.2986" y="163.1997">o</tspan><tspan class="a41c4d74-d956-453c-8063-2ac5e70ee640"><tspan x="0" y="172.7998">Nombre y Apellidos </tspan></tspan><tspan x="0" y="183.6001">Ca</tspan><tspan class="ea82b881-6020-4ce9-9af3-a6977f33b5f0" x="9.1097" y="183.6001">r</tspan><tspan class="bc0b3af1-958e-498c-a610-c043f26afa67" x="12.1243" y="183.6001">g</tspan><tspan x="16.2986" y="183.6001">o</tspan><tspan class="a41c4d74-d956-453c-8063-2ac5e70ee640"><tspan x="0" y="193.1997">Nombre y Apellidos </tspan></tspan><tspan x="0" y="204">Ca</tspan><tspan class="ea82b881-6020-4ce9-9af3-a6977f33b5f0" x="9.1097" y="204">r</tspan><tspan class="bc0b3af1-958e-498c-a610-c043f26afa67" x="12.1243" y="204">g</tspan><tspan x="16.2986" y="204">o</tspan><tspan class="a41c4d74-d956-453c-8063-2ac5e70ee640"><tspan x="0" y="213.6001">Nombre y Apellidos </tspan></tspan><tspan x="0" y="224.3999">Ca</tspan><tspan class="ea82b881-6020-4ce9-9af3-a6977f33b5f0" x="9.1097" y="224.3999">r</tspan><tspan class="bc0b3af1-958e-498c-a610-c043f26afa67" x="12.1243" y="224.3999">g</tspan><tspan x="16.2986" y="224.3999">o</tspan><tspan class="a41c4d74-d956-453c-8063-2ac5e70ee640"><tspan x="0" y="233.9995">Nombre y Apellidos </tspan></tspan></text><rect class="e6a4e663-c098-4132-957c-cfd772e70ba4" x="435.8268" y="241.8352" width="148.8189" height="13.262"/><polygon class="a6875459-7c35-425f-8b0b-f67faabb532b" points="574.016 520.885 563.386 520.885 563.386 531.496 574.016 531.496 584.646 531.496 584.646 520.885 574.016 520.885"/><path class="b9f677c7-4261-4eac-9cff-a7f647e47238" d="M566.0587,205.6443v-3.1836h10.6219V201.398H566.0587v-2.1247l1.0588-1.0627h12.7512v7.4337Zm2.12-8.4964,3.1882-3.1882h8.5016v3.1882Z"/><path class="b9f677c7-4261-4eac-9cff-a7f647e47238" d="M580.9314,204.5816V193.96h3.1829v7.439Z"/><polygon class="b9f677c7-4261-4eac-9cff-a7f647e47238" points="595.799 205.644 598.481 205.631 598.987 205.125 598.987 205.106 598.987 198.211 592.611 198.211 592.611 201.398 595.799 201.398 595.799 202.461 592.081 202.461 588.36 198.739 588.36 197.148 598.987 197.148 595.804 193.96 585.177 193.96 585.177 200.336 590.485 205.644 595.799 205.644"/><polygon class="b9f677c7-4261-4eac-9cff-a7f647e47238" points="603.227 206.583 603.227 197.142 600.044 193.975 600.044 205.27 598.745 206.583 566.059 206.583 569.247 209.766 600.044 209.766 603.233 206.583 603.227 206.583"/><text class="bb299ffb-37f0-4e0a-96b0-0855342bfef8" transform="translate(32.2252 57.005) scale(1.0088 1)">Desar<tspan class="f001400d-5f1f-443e-b362-4b0c53beb36e" x="25.3357" y="0">r</tspan><tspan x="28.9127" y="0">ollado por</tspan></text><text class="b844ccfe-f589-41a5-853d-39a8928b9f5e" transform="translate(32.2252 77.987) scale(1.0088 1)">Ace<tspan class="ba69ba7f-68f6-47c0-9380-277d3587f5e0" x="16.3122" y="0">r</tspan><tspan class="ae52fdf0-150c-49e9-82f3-c06c4c09945b" x="19.9425" y="0">c</tspan><tspan x="24.5138" y="0">a de</tspan></text><line class="b5be0b4e-de15-4ed2-8c93-c8708faec696" x1="182.4259" y1="42.5023" x2="194.7241" y2="42.5023"/><rect class="bffd6036-6444-4e11-b4f2-4573db90f291" x="686.6255" y="207.3803" width="2.6528" height="2.6528"/><rect class="b9f677c7-4261-4eac-9cff-a7f647e47238" x="21.2598" y="47.8167" width="5.3056" height="10.6113"/><rect class="b73c9053-50ea-4b94-8310-52a6a57b68a8" x="21.2598" y="68.7983" width="5.3056" height="10.6113"/><text class="b1ee370a-6466-4691-b9be-38e5e40dd4be" transform="translate(333.1791 234.6319) rotate(-90) scale(0.583)">1</text><text class="b1ee370a-6466-4691-b9be-38e5e40dd4be" transform="translate(336.1195 231.3301) rotate(-90)">/</text><text class="b1ee370a-6466-4691-b9be-38e5e40dd4be" transform="translate(336.1156 227.544) rotate(-90) scale(0.583)">8</text><text class="b1ee370a-6466-4691-b9be-38e5e40dd4be" transform="translate(336.1195 224.2422) rotate(-90)"><tspan xml:space="preserve"> a</tspan></text><text class="b1ee370a-6466-4691-b9be-38e5e40dd4be" transform="translate(342.7194 209.9737) rotate(-90) scale(0.583)">7</text><text class="b1ee370a-6466-4691-b9be-38e5e40dd4be" transform="translate(345.6598 206.6719) rotate(-90)">/</text><text class="b1ee370a-6466-4691-b9be-38e5e40dd4be" transform="translate(345.6559 202.8858) rotate(-90) scale(0.583)">8</text><text class="b1ee370a-6466-4691-b9be-38e5e40dd4be" transform="translate(345.6598 199.584) rotate(-90)"><tspan xml:space="preserve"> a</tspan></text><polyline class="b5be0b4e-de15-4ed2-8c93-c8708faec696" points="338.717 233.533 338.717 216.077 350.314 210.718"/><line class="b5be0b4e-de15-4ed2-8c93-c8708faec696" x1="346.8075" y1="209.9735" x2="359.1056" y2="209.9735"/><line class="b5be0b4e-de15-4ed2-8c93-c8708faec696" x1="346.8075" y1="191.3583" x2="359.1056" y2="191.3583"/><line class="b5be0b4e-de15-4ed2-8c93-c8708faec696" x1="346.8075" y1="212.622" x2="359.1056" y2="212.622"/><line class="b5be0b4e-de15-4ed2-8c93-c8708faec696" x1="350.3141" y1="209.9736" x2="350.3141" y2="191.3583"/><circle class="ab388fa3-2afb-4133-a94f-bcf2de920320" cx="350.3141" cy="209.9736" r="0.9399"/><path class="e9644e4d-85a8-4b59-b266-60e34f39be02" d="M351.379,209.9736a1.065,1.065,0,1,0-1.0649,1.0649,1.0662,1.0662,0,0,0,1.0649-1.0649Zm-1.88,0a.815.815,0,1,1,.815.8149.8158.8158,0,0,1-.815-.8149Z"/><path class="ab388fa3-2afb-4133-a94f-bcf2de920320" d="M351.254,191.3583a.94.94,0,1,0-.94.94A.94.94,0,0,0,351.254,191.3583Z"/><path class="e9644e4d-85a8-4b59-b266-60e34f39be02" d="M351.379,191.3583a1.065,1.065,0,1,1-1.0649-1.065,1.0661,1.0661,0,0,1,1.0649,1.065Zm-1.88,0a.815.815,0,1,0,.815-.815.8157.8157,0,0,0-.815.815Z"/><line class="b5be0b4e-de15-4ed2-8c93-c8708faec696" x1="350.3141" y1="212.622" x2="350.3141" y2="209.9736"/><circle class="ab388fa3-2afb-4133-a94f-bcf2de920320" cx="350.3141" cy="212.622" r="0.9399"/><path class="e9644e4d-85a8-4b59-b266-60e34f39be02" d="M351.379,212.622a1.065,1.065,0,1,0-1.0649,1.0649,1.0662,1.0662,0,0,0,1.0649-1.0649Zm-1.88,0a.815.815,0,1,1,.815.8149.8157.8157,0,0,1-.815-.8149Z"/><path class="ab388fa3-2afb-4133-a94f-bcf2de920320" d="M351.254,209.9736a.94.94,0,1,0-.94.94A.94.94,0,0,0,351.254,209.9736Z"/><path class="e9644e4d-85a8-4b59-b266-60e34f39be02" d="M351.379,209.9736a1.065,1.065,0,1,1-1.0649-1.0651,1.0662,1.0662,0,0,1,1.0649,1.0651Zm-1.88,0a.815.815,0,1,0,.815-.8151.8157.8157,0,0,0-.815.8151Z"/><text class="b1ee370a-6466-4691-b9be-38e5e40dd4be" transform="translate(540.7983 165.412) scale(0.583)">1</text><text class="b1ee370a-6466-4691-b9be-38e5e40dd4be" transform="translate(544.1001 168.3525)">/</text><text class="b1ee370a-6466-4691-b9be-38e5e40dd4be" transform="translate(547.8862 168.3485) scale(0.583)">8</text><text class="b1ee370a-6466-4691-b9be-38e5e40dd4be" transform="translate(551.188 168.3525)"><tspan xml:space="preserve"> a</tspan></text><polyline class="b5be0b4e-de15-4ed2-8c93-c8708faec696" points="541.898 170.95 559.354 170.95 564.713 182.547"/><line class="b5be0b4e-de15-4ed2-8c93-c8708faec696" x1="565.4576" y1="179.0404" x2="565.4576" y2="191.3386"/><line class="b5be0b4e-de15-4ed2-8c93-c8708faec696" x1="562.809" y1="179.0404" x2="562.809" y2="191.3386"/><line class="b5be0b4e-de15-4ed2-8c93-c8708faec696" x1="562.8089" y1="182.5471" x2="565.4576" y2="182.5471"/><circle class="ab388fa3-2afb-4133-a94f-bcf2de920320" cx="562.8089" cy="182.5471" r="0.9399"/><path class="e9644e4d-85a8-4b59-b266-60e34f39be02" d="M562.8089,183.612a1.065,1.065,0,1,0-1.0649-1.0649,1.0662,1.0662,0,0,0,1.0649,1.0649Zm0-1.88a.815.815,0,1,1-.8149.815.8158.8158,0,0,1,.8149-.815Z"/><circle class="ab388fa3-2afb-4133-a94f-bcf2de920320" cx="565.4576" cy="182.5471" r="0.9399"/><path class="e9644e4d-85a8-4b59-b266-60e34f39be02" d="M565.4576,183.612a1.065,1.065,0,1,1,1.065-1.0649,1.0662,1.0662,0,0,1-1.065,1.0649Zm0-1.88a.815.815,0,1,0,.815.815.8158.8158,0,0,0-.815-.815Z"/><text class="b1ee370a-6466-4691-b9be-38e5e40dd4be" transform="translate(581.1592 165.412) scale(0.583)">1</text><text class="b1ee370a-6466-4691-b9be-38e5e40dd4be" transform="translate(584.4609 168.3525)">/</text><text class="b1ee370a-6466-4691-b9be-38e5e40dd4be" transform="translate(588.2471 168.3485) scale(0.583)">8</text><text class="b1ee370a-6466-4691-b9be-38e5e40dd4be" transform="translate(591.5488 168.3525)"><tspan xml:space="preserve"> a</tspan></text><polyline class="b5be0b4e-de15-4ed2-8c93-c8708faec696" points="582.259 170.95 599.714 170.95 605.074 182.547"/><line class="b5be0b4e-de15-4ed2-8c93-c8708faec696" x1="605.8184" y1="179.0404" x2="605.8184" y2="191.3386"/><line class="b5be0b4e-de15-4ed2-8c93-c8708faec696" x1="603.1699" y1="179.0404" x2="603.1699" y2="191.3386"/><line class="b5be0b4e-de15-4ed2-8c93-c8708faec696" x1="603.1698" y1="182.5471" x2="605.8185" y2="182.5471"/><circle class="ab388fa3-2afb-4133-a94f-bcf2de920320" cx="603.1698" cy="182.5471" r="0.9399"/><path class="e9644e4d-85a8-4b59-b266-60e34f39be02" d="M603.17,183.612a1.065,1.065,0,1,0-1.065-1.0649,1.0662,1.0662,0,0,0,1.065,1.0649Zm0-1.88a.815.815,0,1,1-.815.815.8158.8158,0,0,1,.815-.815Z"/><circle class="ab388fa3-2afb-4133-a94f-bcf2de920320" cx="605.8185" cy="182.5471" r="0.9399"/><path class="e9644e4d-85a8-4b59-b266-60e34f39be02" d="M605.8185,183.612a1.065,1.065,0,1,1,1.0649-1.0649,1.0662,1.0662,0,0,1-1.0649,1.0649Zm0-1.88a.815.815,0,1,0,.8149.815.8158.8158,0,0,0-.8149-.815Z"/><text class="b5a7717d-c9df-4b78-8794-e4dfed479580" transform="translate(125.9342 89.0469) scale(1.0088 1)">11 <tspan class="b4a9a749-1863-441b-b200-17358a3075b5" x="12.3973" y="0">p</tspan><tspan x="17.4952" y="0">t</tspan></text><text class="b5a7717d-c9df-4b78-8794-e4dfed479580" transform="translate(152.3824 101.2709) scale(1.0088 1)">Calibri Lig<tspan class="be5ef243-4155-4b18-ba4e-5d8d6d3b4188" x="39.7214" y="0">h</tspan><tspan x="44.7656" y="0">t</tspan></text><rect class="bcda5260-d45d-4bf3-a1ca-4db43a66eaf0" x="156.0283" y="81.7209" width="15.8418" height="2.3301"/><rect class="bcda5260-d45d-4bf3-a1ca-4db43a66eaf0" x="156.0283" y="84.9826" width="10.25" height="2.3301"/><rect class="bcda5260-d45d-4bf3-a1ca-4db43a66eaf0" x="156.0283" y="88.2433" width="6.5225" height="2.3301"/><path class="f800a8de-d09d-47ac-ab3f-3072d069654b" d="M138.0557,101.926l-.0086.2285H134.34l.0281-.2285a2.1777,2.1777,0,0,0,.7133-.0879.6125.6125,0,0,0,.35-.29,2.9179,2.9179,0,0,0,.1566-1.04l.1338-5.0645a3.3416,3.3416,0,0,0-.0708-.9531.5853.5853,0,0,0-.164-.2724.7588.7588,0,0,0-.3111-.1709,2.8026,2.8026,0,0,0-.7041-.0586l.0153-.2286h3.48l-.0075.2286a1.3834,1.3834,0,0,0-.6063.0869.6588.6588,0,0,0-.3552.3525,3.6825,3.6825,0,0,0-.1147,1.0156l-.126,5.0645a3.9672,3.9672,0,0,0,.0394.8906.5765.5765,0,0,0,.1567.2637.77.77,0,0,0,.3141.168A4.5012,4.5012,0,0,0,138.0557,101.926Z"/><rect class="ade9c14e-8b30-4814-9723-097283214927" x="150.4373" y="79.5295" width="28.2637" height="13.0381"/><text class="b5a7717d-c9df-4b78-8794-e4dfed479580" transform="translate(178.7008 119.3864) scale(1.0088 1)">#FF0000</text><rect class="ade9c14e-8b30-4814-9723-097283214927" x="122.5903" y="103.4299" width="47.9524" height="23.9762"/><rect class="b9f677c7-4261-4eac-9cff-a7f647e47238" x="122.7435" y="103.9356" width="47.3005" height="22.9565"/><rect class="ade9c14e-8b30-4814-9723-097283214927" x="122.1717" y="79.5295" width="28.2656" height="13.0381"/><rect class="ade9c14e-8b30-4814-9723-097283214927" x="178.701" y="79.5295" width="27.5078" height="13.0381"/><rect class="ade9c14e-8b30-4814-9723-097283214927" x="122.1717" y="92.4807" width="28.2656" height="10.9492"/><rect class="ade9c14e-8b30-4814-9723-097283214927" x="150.4373" y="92.4807" width="72.7359" height="10.9492"/><rect class="ade9c14e-8b30-4814-9723-097283214927" x="122.1717" y="103.4299" width="101.0015" height="23.9762"/><rect class="bcda5260-d45d-4bf3-a1ca-4db43a66eaf0" x="189.1238" y="81.6486" width="6.7256" height="2.3301"/><rect class="bcda5260-d45d-4bf3-a1ca-4db43a66eaf0" x="184.6033" y="84.9103" width="15.7657" height="2.3301"/><rect class="bcda5260-d45d-4bf3-a1ca-4db43a66eaf0" x="189.2244" y="88.1711" width="6.5235" height="2.3301"/><polyline class="ade9c14e-8b30-4814-9723-097283214927" points="99.288 56.739 122.172 79.529 122.172 92.568"/><path class="ab388fa3-2afb-4133-a94f-bcf2de920320" d="M97.9613,58.0711a1.88,1.88,0,1,1,2.6584-.0054A1.88,1.88,0,0,1,97.9613,58.0711Z"/><path class="e9644e4d-85a8-4b59-b266-60e34f39be02" d="M97.7848,58.2482a2.13,2.13,0,1,0-.0061-3.0121,2.1326,2.1326,0,0,0,.0061,3.0121Zm2.6531-2.664a1.63,1.63,0,1,1-2.305.0048,1.6315,1.6315,0,0,1,2.305-.0048C101.0748,56.2186,99.8009,54.95,100.4379,55.5842Z"/><text class="b5a7717d-c9df-4b78-8794-e4dfed479580" transform="translate(256.3981 409.2009) scale(1.0088 1)">8 <tspan class="b4a9a749-1863-441b-b200-17358a3075b5" x="7.3289" y="0">p</tspan><tspan x="12.4268" y="0">t</tspan></text><text class="e87e06f0-4104-4705-8b90-37543c1af330" transform="translate(282.8463 421.4249) scale(1.0088 1)">Calibri Lig<tspan class="bfc559a5-6e40-4206-82cf-f75357ced019" x="35.7493" y="0">h</tspan><tspan x="40.2892" y="0">t I</tspan><tspan class="ea82b881-6020-4ce9-9af3-a6977f33b5f0" x="47.6059" y="0">t</tspan><tspan x="50.4976" y="0">alic</tspan></text><rect class="bcda5260-d45d-4bf3-a1ca-4db43a66eaf0" x="286.4921" y="401.8748" width="15.8418" height="2.3301"/><rect class="bcda5260-d45d-4bf3-a1ca-4db43a66eaf0" x="286.4921" y="405.1365" width="10.25" height="2.3301"/><rect class="bcda5260-d45d-4bf3-a1ca-4db43a66eaf0" x="286.4921" y="408.3972" width="6.5225" height="2.3301"/><path class="f800a8de-d09d-47ac-ab3f-3072d069654b" d="M266.1984,422.4619l-.1316.2448-3.362-.1836.1493-.2438a2.0289,2.0289,0,0,0,.6945-.059,1.1178,1.1178,0,0,0,.4742-.294,5.6961,5.6961,0,0,0,.7054-1.1082l2.8651-5.4277a5.3365,5.3365,0,0,0,.4521-1.0262.4924.4924,0,0,0-.0012-.3.36.36,0,0,0-.19-.1988,1.8241,1.8241,0,0,0-.6069-.0977l.1378-.2446,3.1566.1723-.1307.245a1.3259,1.3259,0,0,0-.5969.0632,1.27,1.27,0,0,0-.5131.3606,7.0441,7.0441,0,0,0-.6543,1.0841l-2.8579,5.4282a6.52,6.52,0,0,0-.4468.9576.49.49,0,0,0-.0008.2907.3657.3657,0,0,0,.194.1958A2.7747,2.7747,0,0,0,266.1984,422.4619Z"/><rect class="ade9c14e-8b30-4814-9723-097283214927" x="280.9011" y="399.6834" width="28.2637" height="13.0381"/><text class="b5a7717d-c9df-4b78-8794-e4dfed479580" transform="translate(309.1647 439.5403) scale(1.0088 1)">#999999</text><rect class="ade9c14e-8b30-4814-9723-097283214927" x="253.0541" y="423.5838" width="47.9524" height="23.9762"/><rect class="f54716a9-a4d9-4009-8dc3-7071f63762ba" x="253.2073" y="424.0896" width="47.3005" height="22.9565"/><rect class="ade9c14e-8b30-4814-9723-097283214927" x="252.6355" y="399.6834" width="28.2656" height="13.0381"/><rect class="ade9c14e-8b30-4814-9723-097283214927" x="309.1648" y="399.6834" width="27.5078" height="13.0381"/><rect class="ade9c14e-8b30-4814-9723-097283214927" x="252.6355" y="412.6346" width="28.2656" height="10.9492"/><rect class="ade9c14e-8b30-4814-9723-097283214927" x="280.9011" y="412.6346" width="72.7359" height="10.9492"/><rect class="ade9c14e-8b30-4814-9723-097283214927" x="252.6355" y="423.5838" width="101.0015" height="23.9762"/><rect class="bcda5260-d45d-4bf3-a1ca-4db43a66eaf0" x="319.5876" y="401.8025" width="6.7256" height="2.3301"/><rect class="bcda5260-d45d-4bf3-a1ca-4db43a66eaf0" x="315.0671" y="405.0642" width="15.7657" height="2.3301"/><rect class="bcda5260-d45d-4bf3-a1ca-4db43a66eaf0" x="319.6882" y="408.325" width="6.5235" height="2.3301"/><polyline class="ade9c14e-8b30-4814-9723-097283214927" points="439.748 376.893 336.673 399.683 336.673 412.722"/><path class="ab388fa3-2afb-4133-a94f-bcf2de920320" d="M439.3424,375.0575a1.88,1.88,0,1,1-1.43,2.2414A1.88,1.88,0,0,1,439.3424,375.0575Z"/><path class="e9644e4d-85a8-4b59-b266-60e34f39be02" d="M439.2882,374.8134a2.13,2.13,0,1,0,2.5395,1.62,2.1322,2.1322,0,0,0-2.5395-1.62Zm.8118,3.6711a1.63,1.63,0,1,1,1.2395-1.9433,1.6317,1.6317,0,0,1-1.2395,1.9433Z"/><text class="b5a7717d-c9df-4b78-8794-e4dfed479580" transform="translate(256.3981 354.6591) scale(1.0088 1)">9 <tspan class="b4a9a749-1863-441b-b200-17358a3075b5" x="7.3289" y="0">p</tspan><tspan x="12.4268" y="0">t</tspan></text><text class="e87e06f0-4104-4705-8b90-37543c1af330" transform="translate(282.8463 366.8831) scale(1.0088 1)">Calibri <tspan class="b9a3c4c7-042c-4dbd-9811-1cb853df2977" x="25.2728" y="0">R</tspan><tspan x="30.0013" y="0">egular</tspan></text><rect class="bcda5260-d45d-4bf3-a1ca-4db43a66eaf0" x="286.4921" y="347.3332" width="15.8418" height="2.3301"/><rect class="bcda5260-d45d-4bf3-a1ca-4db43a66eaf0" x="286.4921" y="350.5949" width="10.25" height="2.3301"/><rect class="bcda5260-d45d-4bf3-a1ca-4db43a66eaf0" x="286.4921" y="353.8556" width="6.5225" height="2.3301"/><path class="f800a8de-d09d-47ac-ab3f-3072d069654b" d="M268.52,367.5383l-.0086.2285h-3.707l.0281-.2285a2.1772,2.1772,0,0,0,.7133-.0879.6122.6122,0,0,0,.3495-.29,2.9156,2.9156,0,0,0,.1566-1.04l.1338-5.0645a3.3416,3.3416,0,0,0-.0708-.9531.5853.5853,0,0,0-.164-.2724.7588.7588,0,0,0-.3111-.1709,2.8026,2.8026,0,0,0-.7041-.0586l.0153-.2286h3.4805l-.0075.2286a1.3834,1.3834,0,0,0-.6063.0869.6588.6588,0,0,0-.3552.3525,3.6866,3.6866,0,0,0-.1147,1.0156l-.126,5.0645a3.98,3.98,0,0,0,.0394.8906.5765.5765,0,0,0,.1567.2637.77.77,0,0,0,.3142.168A4.4982,4.4982,0,0,0,268.52,367.5383Z"/><rect class="ade9c14e-8b30-4814-9723-097283214927" x="280.9011" y="345.1418" width="28.2637" height="13.0381"/><text class="b5a7717d-c9df-4b78-8794-e4dfed479580" transform="translate(309.1647 384.9986) scale(1.0088 1)">#999999</text><rect class="ade9c14e-8b30-4814-9723-097283214927" x="253.0541" y="369.0422" width="47.9524" height="23.9762"/><rect class="f54716a9-a4d9-4009-8dc3-7071f63762ba" x="253.2073" y="369.5479" width="47.3005" height="22.9565"/><rect class="ade9c14e-8b30-4814-9723-097283214927" x="252.6355" y="345.1418" width="28.2656" height="13.0381"/><rect class="ade9c14e-8b30-4814-9723-097283214927" x="309.1648" y="345.1418" width="27.5078" height="13.0381"/><rect class="ade9c14e-8b30-4814-9723-097283214927" x="252.6355" y="358.093" width="28.2656" height="10.9492"/><rect class="ade9c14e-8b30-4814-9723-097283214927" x="280.9011" y="358.093" width="72.7359" height="10.9492"/><rect class="ade9c14e-8b30-4814-9723-097283214927" x="252.6355" y="369.0422" width="101.0015" height="23.9762"/><rect class="bcda5260-d45d-4bf3-a1ca-4db43a66eaf0" x="319.5876" y="347.2609" width="6.7256" height="2.3301"/><rect class="bcda5260-d45d-4bf3-a1ca-4db43a66eaf0" x="315.0671" y="350.5226" width="15.7657" height="2.3301"/><rect class="bcda5260-d45d-4bf3-a1ca-4db43a66eaf0" x="319.6882" y="353.7834" width="6.5235" height="2.3301"/><polyline class="ade9c14e-8b30-4814-9723-097283214927" points="438.188 365.903 336.673 345.142 336.673 358.18"/><path class="ab388fa3-2afb-4133-a94f-bcf2de920320" d="M438.5646,364.061a1.88,1.88,0,1,1-2.2185,1.4651A1.88,1.88,0,0,1,438.5646,364.061Z"/><path class="e9644e4d-85a8-4b59-b266-60e34f39be02" d="M438.6146,363.816a2.13,2.13,0,1,0,1.66,2.5134,2.1325,2.1325,0,0,0-1.66-2.5134Zm-.7532,3.6836a1.63,1.63,0,1,1,1.9234-1.27,1.6314,1.6314,0,0,1-1.9234,1.27C436.9806,367.3194,438.7421,367.68,437.8614,367.5Z"/><text class="e87e06f0-4104-4705-8b90-37543c1af330" transform="translate(31.9448 111.2042) scale(1.0088 1)">onMouseOver</text><text class="e87e06f0-4104-4705-8b90-37543c1af330" transform="translate(32.7258 121.351) scale(1.0088 1)">onMouseClick</text><line class="e88cc523-94ec-4cc4-a1a9-88ea75106abf" x1="96.4542" y1="114.9634" x2="112.3524" y2="114.9634"/><polyline class="e88cc523-94ec-4cc4-a1a9-88ea75106abf" points="90.286 109.485 96.454 109.485 96.454 119.478 90.286 119.478"/><text class="b1ee370a-6466-4691-b9be-38e5e40dd4be" transform="translate(623.6151 526.9524) scale(0.583)">2</text><text class="b1ee370a-6466-4691-b9be-38e5e40dd4be" transform="translate(626.9169 529.8928)">/</text><text class="b1ee370a-6466-4691-b9be-38e5e40dd4be" transform="translate(630.703 529.8889) scale(0.583)">4</text><text class="b1ee370a-6466-4691-b9be-38e5e40dd4be" transform="translate(634.0048 529.8928)"><tspan xml:space="preserve"> a</tspan></text><text class="b1ee370a-6466-4691-b9be-38e5e40dd4be" transform="translate(623.6151 515.9213) scale(0.583)">2</text><text class="b1ee370a-6466-4691-b9be-38e5e40dd4be" transform="translate(626.9169 518.8617)">/</text><text class="b1ee370a-6466-4691-b9be-38e5e40dd4be" transform="translate(630.703 518.8578) scale(0.583)">4</text><text class="b1ee370a-6466-4691-b9be-38e5e40dd4be" transform="translate(634.0048 518.8617)"><tspan xml:space="preserve"> a</tspan></text><polyline class="b5be0b4e-de15-4ed2-8c93-c8708faec696" points="610.949 487.681 590.537 487.681 581.887 499.623"/><text class="b1ee370a-6466-4691-b9be-38e5e40dd4be" transform="translate(590.8005 481.2876) scale(0.583)">1</text><text class="b1ee370a-6466-4691-b9be-38e5e40dd4be" transform="translate(594.1023 484.228)">/</text><text class="b1ee370a-6466-4691-b9be-38e5e40dd4be" transform="translate(597.8884 484.2241) scale(0.583)">4</text><text class="b1ee370a-6466-4691-b9be-38e5e40dd4be" transform="translate(601.1902 484.228)"><tspan xml:space="preserve"> a</tspan></text><line class="b5be0b4e-de15-4ed2-8c93-c8708faec696" x1="619.5277" y1="509.8227" x2="584.6457" y2="509.8227"/><line class="b5be0b4e-de15-4ed2-8c93-c8708faec696" x1="579.2388" y1="496.1162" x2="579.2388" y2="508.4143"/><line class="b5be0b4e-de15-4ed2-8c93-c8708faec696" x1="584.5359" y1="496.1162" x2="584.5359" y2="519.1861"/><line class="b5be0b4e-de15-4ed2-8c93-c8708faec696" x1="619.5277" y1="520.8848" x2="588.868" y2="520.8848"/><line class="b5be0b4e-de15-4ed2-8c93-c8708faec696" x1="616.3951" y1="504.9275" x2="616.3951" y2="515.9897"/><circle class="ab388fa3-2afb-4133-a94f-bcf2de920320" cx="616.3951" cy="504.9275" r="0.9399"/><path class="e9644e4d-85a8-4b59-b266-60e34f39be02" d="M615.33,504.9275a1.065,1.065,0,1,0,1.0649-1.0649,1.0662,1.0662,0,0,0-1.0649,1.0649Zm1.88,0a.815.815,0,1,1-.815-.8149.8158.8158,0,0,1,.815.8149Z"/><circle class="ab388fa3-2afb-4133-a94f-bcf2de920320" cx="616.3951" cy="515.9897" r="0.9399"/><path class="e9644e4d-85a8-4b59-b266-60e34f39be02" d="M615.33,515.99a1.065,1.065,0,1,1,1.0649,1.0649A1.0662,1.0662,0,0,1,615.33,515.99Zm1.88,0a.815.815,0,1,0-.815.8149.8158.8158,0,0,0,.815-.8149Z"/><line class="b5be0b4e-de15-4ed2-8c93-c8708faec696" x1="619.5277" y1="531.4961" x2="588.868" y2="531.4961"/><line class="b5be0b4e-de15-4ed2-8c93-c8708faec696" x1="616.3951" y1="509.8227" x2="616.3951" y2="520.8848"/><circle class="ab388fa3-2afb-4133-a94f-bcf2de920320" cx="616.3951" cy="509.8227" r="0.9399"/><path class="e9644e4d-85a8-4b59-b266-60e34f39be02" d="M615.33,509.8227a1.065,1.065,0,1,0,1.0649-1.0649,1.0662,1.0662,0,0,0-1.0649,1.0649Zm1.88,0a.815.815,0,1,1-.815-.8149.8158.8158,0,0,1,.815.8149Z"/><circle class="ab388fa3-2afb-4133-a94f-bcf2de920320" cx="616.3951" cy="520.8848" r="0.9399"/><path class="e9644e4d-85a8-4b59-b266-60e34f39be02" d="M615.33,520.8848a1.065,1.065,0,1,1,1.0649,1.065,1.0662,1.0662,0,0,1-1.0649-1.065Zm1.88,0a.815.815,0,1,0-.815.815.8158.8158,0,0,0,.815-.815Z"/><line class="b5be0b4e-de15-4ed2-8c93-c8708faec696" x1="579.2388" y1="499.6229" x2="584.5359" y2="499.6229"/><circle class="ab388fa3-2afb-4133-a94f-bcf2de920320" cx="579.2388" cy="499.6229" r="0.9399"/><path class="e9644e4d-85a8-4b59-b266-60e34f39be02" d="M579.2388,500.6878a1.065,1.065,0,1,0-1.065-1.0649,1.0662,1.0662,0,0,0,1.065,1.0649Zm0-1.88a.815.815,0,1,1-.815.815.8158.8158,0,0,1,.815-.815Z"/><circle class="ab388fa3-2afb-4133-a94f-bcf2de920320" cx="584.5359" cy="499.6229" r="0.9399"/><path class="e9644e4d-85a8-4b59-b266-60e34f39be02" d="M584.5359,500.6878a1.065,1.065,0,1,1,1.0649-1.0649,1.0662,1.0662,0,0,1-1.0649,1.0649Zm0-1.88a.815.815,0,1,0,.8149.815.8158.8158,0,0,0-.8149-.815Z"/><line class="b5be0b4e-de15-4ed2-8c93-c8708faec696" x1="616.3951" y1="520.8848" x2="616.3951" y2="531.4961"/><path class="ab388fa3-2afb-4133-a94f-bcf2de920320" d="M615.4552,520.8848a.94.94,0,1,1,.94.94A.94.94,0,0,1,615.4552,520.8848Z"/><path class="e9644e4d-85a8-4b59-b266-60e34f39be02" d="M615.33,520.8848a1.065,1.065,0,1,0,1.0649-1.065,1.0662,1.0662,0,0,0-1.0649,1.065Zm1.88,0a.815.815,0,1,1-.815-.815.8158.8158,0,0,1,.815.815Z"/><circle class="ab388fa3-2afb-4133-a94f-bcf2de920320" cx="616.3951" cy="531.4961" r="0.9399"/><path class="e9644e4d-85a8-4b59-b266-60e34f39be02" d="M615.33,531.4961a1.065,1.065,0,1,1,1.0649,1.0649,1.0662,1.0662,0,0,1-1.0649-1.0649Zm1.88,0a.815.815,0,1,0-.815.8149.8158.8158,0,0,0,.815-.8149Z"/><line class="b5be0b4e-de15-4ed2-8c93-c8708faec696" x1="435.8208" y1="574.7122" x2="435.8208" y2="556.3512"/><line class="b5be0b4e-de15-4ed2-8c93-c8708faec696" x1="414.5729" y1="591.6803" x2="414.5729" y2="556.3512"/><line class="b5be0b4e-de15-4ed2-8c93-c8708faec696" x1="414.5729" y1="570.6873" x2="435.8131" y2="570.6873"/><circle class="ab388fa3-2afb-4133-a94f-bcf2de920320" cx="414.5729" cy="570.6873" r="0.9399"/><path class="e9644e4d-85a8-4b59-b266-60e34f39be02" d="M414.5729,571.7523a1.065,1.065,0,1,0-1.065-1.065,1.0662,1.0662,0,0,0,1.065,1.065Zm0-1.88a.815.815,0,1,1-.815.8149.8157.8157,0,0,1,.815-.8149Z"/><circle class="ab388fa3-2afb-4133-a94f-bcf2de920320" cx="435.8131" cy="570.6873" r="0.9399"/><path class="e9644e4d-85a8-4b59-b266-60e34f39be02" d="M435.8131,571.7523a1.065,1.065,0,1,1,1.0649-1.065,1.0662,1.0662,0,0,1-1.0649,1.065Zm0-1.88a.815.815,0,1,0,.8149.8149.8157.8157,0,0,0-.8149-.8149Z"/><line class="b5be0b4e-de15-4ed2-8c93-c8708faec696" x1="605.8995" y1="591.6803" x2="605.8995" y2="556.3512"/><line class="b5be0b4e-de15-4ed2-8c93-c8708faec696" x1="584.6517" y1="574.7122" x2="584.6517" y2="556.3512"/><line class="b5be0b4e-de15-4ed2-8c93-c8708faec696" x1="584.6517" y1="570.6873" x2="605.8919" y2="570.6873"/><circle class="ab388fa3-2afb-4133-a94f-bcf2de920320" cx="584.6517" cy="570.6873" r="0.9399"/><path class="e9644e4d-85a8-4b59-b266-60e34f39be02" d="M584.6517,571.7522a1.0649,1.0649,0,1,0-1.065-1.0649,1.0662,1.0662,0,0,0,1.065,1.0649Zm0-1.88a.8149.8149,0,1,1-.815.8149.8157.8157,0,0,1,.815-.8149Z"/><circle class="ab388fa3-2afb-4133-a94f-bcf2de920320" cx="605.8919" cy="570.6873" r="0.9399"/><path class="e9644e4d-85a8-4b59-b266-60e34f39be02" d="M605.8919,571.7522a1.0649,1.0649,0,1,1,1.0649-1.0649,1.0661,1.0661,0,0,1-1.0649,1.0649Zm0-1.88a.8149.8149,0,1,0,.8149.8149.8156.8156,0,0,0-.8149-.8149Z"/><line class="b5be0b4e-de15-4ed2-8c93-c8708faec696" x1="584.6693" y1="574.7122" x2="584.6693" y2="556.3512"/><line class="b5be0b4e-de15-4ed2-8c93-c8708faec696" x1="563.4214" y1="574.7122" x2="563.4214" y2="556.3512"/><line class="b5be0b4e-de15-4ed2-8c93-c8708faec696" x1="563.4214" y1="570.6873" x2="584.6617" y2="570.6873"/><circle class="ab388fa3-2afb-4133-a94f-bcf2de920320" cx="563.4214" cy="570.6873" r="0.9399"/><path class="e9644e4d-85a8-4b59-b266-60e34f39be02" d="M563.4214,571.7522a1.0649,1.0649,0,1,0-1.0649-1.0649,1.0662,1.0662,0,0,0,1.0649,1.0649Zm0-1.88a.8149.8149,0,1,1-.8149.8149.8157.8157,0,0,1,.8149-.8149Z"/><circle class="ab388fa3-2afb-4133-a94f-bcf2de920320" cx="584.6617" cy="570.6873" r="0.9399"/><path class="e9644e4d-85a8-4b59-b266-60e34f39be02" d="M584.6617,571.7522a1.0649,1.0649,0,1,1,1.0649-1.0649,1.0662,1.0662,0,0,1-1.0649,1.0649Zm0-1.88a.8149.8149,0,1,0,.8149.8149.8157.8157,0,0,0-.8149-.8149Z"/><text class="a12600bb-ad22-4b8e-934c-5e543f38b3b9" transform="translate(421.1946 568.3664)">a</text><text class="a12600bb-ad22-4b8e-934c-5e543f38b3b9" transform="translate(450.4864 585.3602)">9a</text><text class="a12600bb-ad22-4b8e-934c-5e543f38b3b9" transform="translate(570.3374 568.3664)">a</text><text class="a12600bb-ad22-4b8e-934c-5e543f38b3b9" transform="translate(592.1521 568.3664)">a</text><line class="b5be0b4e-de15-4ed2-8c93-c8708faec696" x1="414.5729" y1="589.4382" x2="605.8995" y2="589.4382"/><circle class="ab388fa3-2afb-4133-a94f-bcf2de920320" cx="414.5729" cy="589.4382" r="0.9399"/><path class="e9644e4d-85a8-4b59-b266-60e34f39be02" d="M414.5729,590.5031a1.065,1.065,0,1,0-1.065-1.0649,1.0662,1.0662,0,0,0,1.065,1.0649Zm0-1.88a.815.815,0,1,1-.815.815.8158.8158,0,0,1,.815-.815Z"/><circle class="ab388fa3-2afb-4133-a94f-bcf2de920320" cx="605.8995" cy="589.4382" r="0.9399"/><path class="e9644e4d-85a8-4b59-b266-60e34f39be02" d="M605.9,590.5031a1.065,1.065,0,1,1,1.065-1.0649,1.0662,1.0662,0,0,1-1.065,1.0649Zm0-1.88a.815.815,0,1,0,.815.815.8158.8158,0,0,0-.815-.815Z"/><text class="b1ee370a-6466-4691-b9be-38e5e40dd4be" transform="translate(674.8173 206.7452) rotate(-90) scale(0.583)">1</text><text class="b1ee370a-6466-4691-b9be-38e5e40dd4be" transform="translate(677.7577 203.4434) rotate(-90)">/</text><text class="b1ee370a-6466-4691-b9be-38e5e40dd4be" transform="translate(677.7538 199.6573) rotate(-90) scale(0.583)">8</text><text class="b1ee370a-6466-4691-b9be-38e5e40dd4be" transform="translate(677.7577 196.3555) rotate(-90)"><tspan xml:space="preserve"> a</tspan></text><polyline class="b5be0b4e-de15-4ed2-8c93-c8708faec696" points="680.607 189.236 680.607 206.692 669.01 212.051"/><line class="b5be0b4e-de15-4ed2-8c93-c8708faec696" x1="672.5169" y1="212.7955" x2="603.1699" y2="212.7955"/><line class="b5be0b4e-de15-4ed2-8c93-c8708faec696" x1="672.5169" y1="210.1469" x2="603.1699" y2="210.1469"/><line class="b5be0b4e-de15-4ed2-8c93-c8708faec696" x1="669.0101" y1="210.147" x2="669.0101" y2="212.7955"/><circle class="ab388fa3-2afb-4133-a94f-bcf2de920320" cx="669.0101" cy="210.147" r="0.9399"/><path class="e9644e4d-85a8-4b59-b266-60e34f39be02" d="M667.9452,210.147a1.065,1.065,0,1,0,1.0649-1.065,1.0662,1.0662,0,0,0-1.0649,1.065Zm1.88,0a.815.815,0,1,1-.815-.815.8158.8158,0,0,1,.815.815Z"/><circle class="ab388fa3-2afb-4133-a94f-bcf2de920320" cx="669.0101" cy="212.7955" r="0.9399"/><path class="e9644e4d-85a8-4b59-b266-60e34f39be02" d="M667.9452,212.7955a1.065,1.065,0,1,1,1.0649,1.065,1.0662,1.0662,0,0,1-1.0649-1.065Zm1.88,0a.815.815,0,1,0-.815.815.8157.8157,0,0,0,.815-.815Z"/><polyline class="ade9c14e-8b30-4814-9723-097283214927" points="498.635 193.975 447.728 150.288 447.728 157.911"/><path class="ab388fa3-2afb-4133-a94f-bcf2de920320" d="M499.86,192.5486a1.88,1.88,0,1,1-2.6509.2023A1.88,1.88,0,0,1,499.86,192.5486Z"/><path class="e9644e4d-85a8-4b59-b266-60e34f39be02" d="M500.0221,192.3589a2.13,2.13,0,1,0,.2292,3.0033,2.1322,2.1322,0,0,0-.2292-3.0033Zm-2.4485,2.8532a1.63,1.63,0,1,1,2.2983-.1754,1.6316,1.6316,0,0,1-2.2983.1754Z"/><text class="b5a7717d-c9df-4b78-8794-e4dfed479580" transform="translate(404.7566 149.053) scale(1.0088 1)">#FF0000</text><path class="e9644e4d-85a8-4b59-b266-60e34f39be02" d="M447.2811,133.0785v23.9762h-65.12V133.0785h65.12m1-1h-67.12v25.9762h67.12V132.0785Z"/><path class="e9644e4d-85a8-4b59-b266-60e34f39be02" d="M399.1546,133.0785v23.9762H382.1615V133.0785h16.9931m1-1H381.1615v25.9762h18.9931V132.0785Z"/><rect class="b9f677c7-4261-4eac-9cff-a7f647e47238" x="382.1614" y="133.0785" width="16.9934" height="23.9762"/><polyline class="ade9c14e-8b30-4814-9723-097283214927" points="487.267 212.051 447.728 178.119 447.728 185.743"/><path class="ab388fa3-2afb-4133-a94f-bcf2de920320" d="M488.4913,210.6242a1.88,1.88,0,1,1-2.6506.2024A1.88,1.88,0,0,1,488.4913,210.6242Z"/><path class="e9644e4d-85a8-4b59-b266-60e34f39be02" d="M488.6542,210.4345a2.13,2.13,0,1,0,.2292,3.0034,2.1321,2.1321,0,0,0-.2292-3.0034C487.7631,209.67,489.5455,211.1993,488.6542,210.4345Zm-2.4485,2.8531a1.63,1.63,0,1,1,2.2983-.1754,1.6314,1.6314,0,0,1-2.2983.1754Z"/><text class="b5a7717d-c9df-4b78-8794-e4dfed479580" transform="translate(404.7566 176.8845) scale(1.0088 1)">#006837</text><path class="e9644e4d-85a8-4b59-b266-60e34f39be02" d="M447.2811,160.91v23.9762h-65.12V160.91h65.12m1-1h-67.12v25.9762h67.12V159.91Z"/><path class="e9644e4d-85a8-4b59-b266-60e34f39be02" d="M399.1546,160.91v23.9762H382.1615V160.91h16.9931m1-1H381.1615v25.9762h18.9931V159.91Z"/><rect class="b73c9053-50ea-4b94-8310-52a6a57b68a8" x="382.1614" y="160.9099" width="16.9934" height="23.9762"/><polyline class="ade9c14e-8b30-4814-9723-097283214927" points="439.748 247.585 340.268 294.132 340.268 301.755"/><path class="ab388fa3-2afb-4133-a94f-bcf2de920320" d="M438.9515,245.8825a1.88,1.88,0,1,1-.906,2.4994A1.88,1.88,0,0,1,438.9515,245.8825Z"/><path class="e9644e4d-85a8-4b59-b266-60e34f39be02" d="M438.8456,245.6561a2.13,2.13,0,1,0,2.8318,1.0264,2.1323,2.1323,0,0,0-2.8318-1.0264C437.7819,246.1537,439.909,245.1584,438.8456,245.6561Zm1.5932,3.4054a1.63,1.63,0,1,1,.7857-2.167,1.6316,1.6316,0,0,1-.7857,2.167C439.6246,249.4424,441.253,248.6805,440.4388,249.0615Z"/><text class="b5a7717d-c9df-4b78-8794-e4dfed479580" transform="translate(297.2961 292.8969) scale(1.0088 1)">#298BC1</text><path class="e9644e4d-85a8-4b59-b266-60e34f39be02" d="M339.8207,276.9224v23.9762h-65.12V276.9224h65.12m1-1h-67.12v25.9762h67.12V275.9224Z"/><path class="e9644e4d-85a8-4b59-b266-60e34f39be02" d="M291.6942,276.9224v23.9762H274.7011V276.9224h16.9931m1-1H273.7011v25.9762h18.9931V275.9224Z"/><rect class="e6a4e663-c098-4132-957c-cfd772e70ba4" x="274.701" y="276.9223" width="16.9934" height="23.9762"/><polyline class="ade9c14e-8b30-4814-9723-097283214927" points="425.197 306.699 340.268 326.16 340.268 333.784"/><path class="ab388fa3-2afb-4133-a94f-bcf2de920320" d="M424.777,304.8666a1.88,1.88,0,1,1-1.4126,2.2523A1.88,1.88,0,0,1,424.777,304.8666Z"/><path class="e9644e4d-85a8-4b59-b266-60e34f39be02" d="M424.7211,304.623a2.13,2.13,0,1,0,2.552,1.6,2.1325,2.1325,0,0,0-2.552-1.6Zm.84,3.6648a1.63,1.63,0,1,1,1.2246-1.9528,1.6313,1.6313,0,0,1-1.2246,1.9528Z"/><text class="b5a7717d-c9df-4b78-8794-e4dfed479580" transform="translate(297.2961 324.9258) scale(1.0088 1)">#EFEFEF</text><path class="e9644e4d-85a8-4b59-b266-60e34f39be02" d="M339.8207,308.9513v23.9762h-65.12V308.9513h65.12m1-1h-67.12v25.9762h67.12V307.9513Z"/><path class="e9644e4d-85a8-4b59-b266-60e34f39be02" d="M291.6942,308.9513v23.9762H274.7011V308.9513h16.9931m1-1H273.7011v25.9762h18.9931V307.9513Z"/><rect class="b970c28c-c8fe-4ba4-991d-3a08a67792c1" x="274.701" y="308.9513" width="16.9934" height="23.9762"/><polyline class="ade9c14e-8b30-4814-9723-097283214927" points="574.045 526.19 574.016 548.064 657.828 548.064 657.604 612.133"/><path class="ab388fa3-2afb-4133-a94f-bcf2de920320" d="M572.1654,526.1879a1.88,1.88,0,1,1,1.8774,1.8823A1.88,1.88,0,0,1,572.1654,526.1879Z"/><path class="e9644e4d-85a8-4b59-b266-60e34f39be02" d="M571.9154,526.1876a2.13,2.13,0,1,0,2.1328-2.1271,2.1325,2.1325,0,0,0-2.1328,2.1271C571.9139,527.3619,571.9171,525.0132,571.9154,526.1876Zm3.76.0051a1.63,1.63,0,1,1-1.6277-1.6322,1.6314,1.6314,0,0,1,1.6277,1.6322C575.6739,527.0916,575.6764,525.2936,575.6752,526.1927Z"/><text class="b5a7717d-c9df-4b78-8794-e4dfed479580" transform="translate(615.0798 628.1073) scale(1.0088 1)">#39B34A</text><path class="e9644e4d-85a8-4b59-b266-60e34f39be02" d="M657.6044,612.1327v23.9762h-64.66V612.1327h64.66m1-1h-66.66v25.9762h66.66V611.1327Z"/><path class="e9644e4d-85a8-4b59-b266-60e34f39be02" d="M609.4779,612.1327v23.9762H592.9447V612.1327h16.5332m1-1H591.9447v25.9762h18.5332V611.1327Z"/><rect class="bb3164a5-e3f9-4a4e-bc7e-754b3baa4fe7" x="592.9446" y="612.1327" width="16.5333" height="23.9762"/><rect class="ab388fa3-2afb-4133-a94f-bcf2de920320" x="909.2867" y="42.5197" width="21.2598" height="21.2598"/><path class="a6875459-7c35-425f-8b0b-f67faabb532b" d="M924.6146,59.4616a2.1987,2.1987,0,0,1-1.8239-.0975,1.9314,1.9314,0,0,0-1.9889.0538,2.086,2.086,0,0,1-1.7906,0,1.8928,1.8928,0,0,0-1.9686-.0538,2.2251,2.2251,0,0,1-1.8354.0975,2.001,2.001,0,0,0-2.1631-.1074,1.67,1.67,0,0,1-.9468.22V61.13a1.885,1.885,0,0,0,1.0076-.2446,1.8059,1.8059,0,0,1,1.7819-.0415,2.156,2.156,0,0,0,2.0966.0507,1.7543,1.7543,0,0,1,1.8259-.0591,2.3663,2.3663,0,0,0,2.2063.0149,1.7707,1.7707,0,0,1,1.8344.0442,2.1558,2.1558,0,0,0,2.0965-.0507,1.772,1.772,0,0,1,1.7617.0415,1.8554,1.8554,0,0,0,1.0278.2446v-1.556a1.6165,1.6165,0,0,1-.9468-.22A2.0206,2.0206,0,0,0,924.6146,59.4616Z"/><path class="a6875459-7c35-425f-8b0b-f67faabb532b" d="M926.7978,57.084c-1.3457-.72-1.9312.1566-2.6544.1566V53.732l1.1158-2.52a.6567.6567,0,0,0-.4058-.9133l-.6762-.2706V47.8461h-1.3028v-1.15h-1.8251v-1.54H918.784v1.54h-1.8251v1.15h-1.3027v2.1818l-.6763.2706a.6568.6568,0,0,0-.4058.9133l1.1159,2.52v3.5086c-.7231,0-1.3382-.8626-2.654-.1429h0a2.2453,2.2453,0,0,1-.9467.22v1.5039a2.0636,2.0636,0,0,0,.9974-.2875,1.8888,1.8888,0,0,1,1.7921.0014,2.1561,2.1561,0,0,0,2.0965.0508,1.9021,1.9021,0,0,1,1.8513-.0508,2.1775,2.1775,0,0,0,2.1716.009,1.8925,1.8925,0,0,1,1.8606.0418,2.1559,2.1559,0,0,0,2.0964-.0508,1.906,1.906,0,0,1,1.7922-.0014,2.1517,2.1517,0,0,0,.9975.2875V57.3039A2.1787,2.1787,0,0,1,926.7978,57.084Zm-3.5844-7.462-3.2967-1.3332L916.62,49.622v-.88h1.3018V47.6093h3.99v1.1326h1.3018Z"/><rect class="ab388fa3-2afb-4133-a94f-bcf2de920320" x="888.0269" y="42.5197" width="21.2598" height="21.2598"/><path class="b73c9053-50ea-4b94-8310-52a6a57b68a8" d="M904.584,55.5666a1.307,1.307,0,1,0,1.3282,1.3068A1.3177,1.3177,0,0,0,904.584,55.5666Z"/><path class="b73c9053-50ea-4b94-8310-52a6a57b68a8" d="M893.7241,55.5666a1.307,1.307,0,1,0,1.3279,1.3068A1.3178,1.3178,0,0,0,893.7241,55.5666Z"/><path class="b73c9053-50ea-4b94-8310-52a6a57b68a8" d="M905.0749,50.0051l-2.3407.0016c-.2235,0-.4033,1.3926-.4071,3.1211H902.23a1.0129,1.0129,0,0,0-.12.0119c.0377-.45.06-.97.06-1.5263,0-1.6887-.1989-3.0576-.4441-3.0576h-4.0025v-.2415a.1969.1969,0,0,0-.1986-.1953h-2.2672a.1969.1969,0,0,0-.1986.1953v.2415h-4.8847c-.2452,0-.444,1.3689-.444,3.0576s.1988,3.0576.444,3.0576h.8947c-.4257.0546-.7443.2813-.7443.7278a.95.95,0,0,0,.9568.9427h.7238a1.812,1.812,0,0,1,3.439,0h7.4223a1.8111,1.8111,0,0,1,3.4376,0h.8934c.2251,0,.4071-1.4184.4071-3.1669C907.6037,51.4238,905.3015,50.0051,905.0749,50.0051Zm-.1329,2.636h-1.5963V50.6886h1.5963Zm.3072,0v-1.82a3.8377,3.8377,0,0,1,1.6117,1.82Z"/><rect class="ab388fa3-2afb-4133-a94f-bcf2de920320" x="866.7671" y="42.5197" width="21.2598" height="21.2598"/><path class="b73c9053-50ea-4b94-8310-52a6a57b68a8" d="M875.1973,49.4426h-1.4745a.4586.4586,0,0,0-.4625.4547v1.4493a.4586.4586,0,0,0,.4625.4547h1.4745a.4588.4588,0,0,0,.4626-.4547V49.8973A.4588.4588,0,0,0,875.1973,49.4426Z"/><path class="b73c9053-50ea-4b94-8310-52a6a57b68a8" d="M878.0083,49.4426h-1.4745a.4587.4587,0,0,0-.4626.4547v1.4493a.4587.4587,0,0,0,.4626.4547h1.4745a.4588.4588,0,0,0,.4626-.4547V49.8973A.4588.4588,0,0,0,878.0083,49.4426Z"/><path class="b73c9053-50ea-4b94-8310-52a6a57b68a8" d="M879.3447,51.8013h1.4746a.4587.4587,0,0,0,.4625-.4547V49.8973a.4587.4587,0,0,0-.4625-.4547h-1.4746a.4587.4587,0,0,0-.4625.4547v1.4493A.4587.4587,0,0,0,879.3447,51.8013Z"/><path class="b73c9053-50ea-4b94-8310-52a6a57b68a8" d="M875.1973,52.1831h-1.4745a.4586.4586,0,0,0-.4625.4547v1.4493a.4586.4586,0,0,0,.4625.4547h1.4745a.4588.4588,0,0,0,.4626-.4547V52.6378A.4588.4588,0,0,0,875.1973,52.1831Z"/><path class="b73c9053-50ea-4b94-8310-52a6a57b68a8" d="M878.0083,52.1831h-1.4745a.4587.4587,0,0,0-.4626.4547v1.4493a.4587.4587,0,0,0,.4626.4547h1.4745a.4588.4588,0,0,0,.4626-.4547V52.6378A.4588.4588,0,0,0,878.0083,52.1831Z"/><path class="b73c9053-50ea-4b94-8310-52a6a57b68a8" d="M879.3447,54.5418h1.4746a.4587.4587,0,0,0,.4625-.4547V52.6378a.4587.4587,0,0,0-.4625-.4547h-1.4746a.4587.4587,0,0,0-.4625.4547v1.4493A.4587.4587,0,0,0,879.3447,54.5418Z"/><path class="b73c9053-50ea-4b94-8310-52a6a57b68a8" d="M875.1973,54.9236h-1.4745a.4586.4586,0,0,0-.4625.4547v1.4493a.4585.4585,0,0,0,.4625.4546h1.4745a.4587.4587,0,0,0,.4626-.4546V55.3783A.4588.4588,0,0,0,875.1973,54.9236Z"/><path class="b73c9053-50ea-4b94-8310-52a6a57b68a8" d="M878.0083,54.9236h-1.4745a.4587.4587,0,0,0-.4626.4547v1.4493a.4586.4586,0,0,0,.4626.4546h1.4745a.4587.4587,0,0,0,.4626-.4546V55.3783A.4588.4588,0,0,0,878.0083,54.9236Z"/><path class="b73c9053-50ea-4b94-8310-52a6a57b68a8" d="M879.3447,57.2822h1.4746a.4586.4586,0,0,0,.4625-.4546V55.3783a.4587.4587,0,0,0-.4625-.4547h-1.4746a.4587.4587,0,0,0-.4625.4547v1.4493A.4586.4586,0,0,0,879.3447,57.2822Z"/><path class="b73c9053-50ea-4b94-8310-52a6a57b68a8" d="M883.8853,48.3959l-.8724-.3832h0l-5.6161-2.4664-5.6157,2.4664h0l-.8724.3832a.3913.3913,0,0,0-.2024.5205.405.405,0,0,0,.53.1989l.5452-.2395V58.9141h11.2318V48.8758l.5452.2395a.4049.4049,0,0,0,.5295-.1989A.3914.3914,0,0,0,883.8853,48.3959Zm-1.674,9.73h-9.6286V48.5238l3.3368-1.4655,1.4773-.6487,1.36.5971,3.4546,1.5171Z"/><rect class="ab388fa3-2afb-4133-a94f-bcf2de920320" x="845.5072" y="42.5197" width="21.2598" height="21.2598"/><path class="b73c9053-50ea-4b94-8310-52a6a57b68a8" d="M858.6856,48.15a2.5639,2.5639,0,1,0,2.57,2.5637A2.5673,2.5673,0,0,0,858.6856,48.15Zm0,4.1962a1.6324,1.6324,0,1,1,1.6363-1.6324A1.6343,1.6343,0,0,1,858.6856,52.3461Z"/><path class="b73c9053-50ea-4b94-8310-52a6a57b68a8" d="M864.0915,57.5335a5.6925,5.6925,0,0,0-10.8115,0Z"/><path class="b73c9053-50ea-4b94-8310-52a6a57b68a8" d="M853.16,49.3081a2.2474,2.2474,0,1,0,2.2531,2.2473A2.25,2.25,0,0,0,853.16,49.3081Zm0,3.6782a1.4309,1.4309,0,1,1,1.4343-1.4308A1.4325,1.4325,0,0,1,853.16,52.9863Z"/><path class="b73c9053-50ea-4b94-8310-52a6a57b68a8" d="M854.5024,54.2937a4.98,4.98,0,0,0-6.0809,3.24h3.8141A6.9755,6.9755,0,0,1,854.5024,54.2937Z"/><rect class="ff007c1d-9c7a-4c73-b8b9-c6d0de350638" x="414.4808" y="244.4918" width="10.6263" height="10.6263"/><rect class="ff007c1d-9c7a-4c73-b8b9-c6d0de350638" x="419.794" y="239.1786" width="5.3132" height="5.3132"/><rect class="ff007c1d-9c7a-4c73-b8b9-c6d0de350638" x="438.4834" y="249.8049" width="5.3132" height="5.3132"/><rect class="ff007c1d-9c7a-4c73-b8b9-c6d0de350638" x="579.351" y="249.8049" width="5.3132" height="5.3132"/><rect class="ff007c1d-9c7a-4c73-b8b9-c6d0de350638" x="435.8268" y="241.8352" width="2.6566" height="2.6566"/><rect class="ff007c1d-9c7a-4c73-b8b9-c6d0de350638" x="435.8268" y="252.4615" width="2.6566" height="2.6566"/><path class="ab388fa3-2afb-4133-a94f-bcf2de920320" d="M445.8813,252.4615a2.83,2.83,0,0,1-1.4248-.2686h0a1.3438,1.3438,0,0,1-.5959-.8057h0a1.6524,1.6524,0,0,1-.0641-.4653h0a2.4839,2.4839,0,0,1,.1174-.7207h0a2.9867,2.9867,0,0,1,1.2975-1.7489h0a2.8718,2.8718,0,0,1,1.1359-.3832h0a6.3275,6.3275,0,0,1,.8207-.0471h1.807a.0924.0924,0,0,1,.0755.04h0a.101.101,0,0,1,.0136.088h0l-.2745.9068a.0946.0946,0,0,1-.09.0682h-1.5851a1.8542,1.8542,0,0,0-1.1423.2959h0a1.64,1.64,0,0,0-.5341.8528h0a1.3926,1.3926,0,0,0-.0682.4016h0a.572.572,0,0,0,.216.4817h0a.8872.8872,0,0,0,.3473.1614h0a3.1886,3.1886,0,0,0,.6032.04h1.4261a.0934.0934,0,0,1,.0762.04h0a.1051.1051,0,0,1,.0141.088h0l-.2748.9063a.096.096,0,0,1-.09.0685h-1.8064Z"/><path class="ab388fa3-2afb-4133-a94f-bcf2de920320" d="M448.709,252.4615a.0941.0941,0,0,1-.0762-.04h0a.1014.1014,0,0,1-.013-.0881h0l1.2863-4.2429a.0945.0945,0,0,1,.09-.0683h1.9559a4.463,4.463,0,0,1,.9639.0828h0l.0024,0a.9968.9968,0,0,1,.4888.2662h0a.7255.7255,0,0,1,.1893.4754h0c.001.0167.0014.0345.0014.0521h0a2.7575,2.7575,0,0,1-.1428.7531h0l-.1255.4128a.094.094,0,0,1-.0893.0685h-1.2671a.0937.0937,0,0,1-.076-.04h0a.1037.1037,0,0,1-.0138-.0883h0l.069-.2278a1.41,1.41,0,0,0,.0625-.3618h0a.2419.2419,0,0,0-.0371-.1545h0l-.0039-.0056a.2943.2943,0,0,0-.1662-.0914h0a1.5474,1.5474,0,0,0-.386-.04H451.11l-.9908,3.2677a.095.095,0,0,1-.09.069h-1.32Z"/><path class="ab388fa3-2afb-4133-a94f-bcf2de920320" d="M456.967,248.022a3.1284,3.1284,0,0,1,1.1125.1712h0a1.387,1.387,0,0,1,.6913.5333h0a1.5384,1.5384,0,0,1,.2453.8584h0a2.4517,2.4517,0,0,1-.1226.7331h0a2.858,2.858,0,0,1-1.2551,1.5994h0a3.7381,3.7381,0,0,1-2.0449.5441h0a2.2239,2.2239,0,0,1-1.7807-.625h0a1.3046,1.3046,0,0,1-.2935-.8679h0a2.61,2.61,0,0,1,.1321-.77h0a2.9242,2.9242,0,0,1,1.091-1.5042h0a3.6311,3.6311,0,0,1,2.2248-.6719h0m-.3091,1.06a1.4121,1.4121,0,0,0-.9233.2988h0a1.845,1.845,0,0,0-.562.9124h0a1.6962,1.6962,0,0,0-.09.4908h0a.5812.5812,0,0,0,.0376.2226h0a.5453.5453,0,0,0,.2623.2917h0a1.1063,1.1063,0,0,0,.5151.1036h0a1.4226,1.4226,0,0,0,.9219-.2958h0a1.8112,1.8112,0,0,0,.5588-.9038h0a1.732,1.732,0,0,0,.0907-.506h0a.5383.5383,0,0,0-.1894-.4565h0a1.0015,1.0015,0,0,0-.622-.1578h0"/><path class="ab388fa3-2afb-4133-a94f-bcf2de920320" d="M464.7123,252.4615a.0946.0946,0,0,1-.0761-.04h0a.101.101,0,0,1-.013-.0881h0l.764-2.5192a1.8341,1.8341,0,0,0,.0926-.4045h0l0-.0074h0a.2238.2238,0,0,0-.1227-.1966h0a.872.872,0,0,0-.4223-.0807H464.3l-.9908,3.2682a.0949.0949,0,0,1-.09.0682H461.9a.0939.0939,0,0,1-.0767-.04h0a.1025.1025,0,0,1-.0135-.0881h0l.9732-3.2084h-1.2239l-.9911,3.2682a.0948.0948,0,0,1-.09.0682h-1.32a.0913.0913,0,0,1-.0754-.04h0a.1022.1022,0,0,1-.0145-.0881h0l1.2878-4.2429a.0936.0936,0,0,1,.0892-.0683h4.8564a3.9782,3.9782,0,0,1,1.0828.11h0a.8772.8772,0,0,1,.4425.2935h0a1.0232,1.0232,0,0,1,.1968.52h0a1.4371,1.4371,0,0,1,.01.1734h0a1.9724,1.9724,0,0,1-.0916.571h0l-.8193,2.7025a.095.095,0,0,1-.09.0685h-1.32Z"/><path class="ab388fa3-2afb-4133-a94f-bcf2de920320" d="M469.1255,252.4615c-.4549,0-.7674-.01-.9454-.03h0a.9873.9873,0,0,1-.8676-.5407h0a.9908.9908,0,0,1-.0851-.4093h0a1.3735,1.3735,0,0,1,.0647-.4032h0a1.9371,1.9371,0,0,1,.6676-.9678h0a1.9634,1.9634,0,0,1,1.0633-.3941h0q.313-.03.73-.03h1.5493a.9481.9481,0,0,0,.0426-.257h0a.26.26,0,0,0-.016-.1024h0a.4.4,0,0,0-.35-.18h0a3.53,3.53,0,0,0-.3838-.0212H468.36a.0933.0933,0,0,1-.0759-.04h0a.1042.1042,0,0,1-.0143-.088h0l.2756-.9065a.0937.0937,0,0,1,.09-.0683H470.87a8.4,8.4,0,0,1,.9933.039h0a1.25,1.25,0,0,1,.6847.2912h0a1.0529,1.0529,0,0,1,.32.6322h0l.0007.0047a1.3928,1.3928,0,0,1,.0089.16h0a3.0433,3.0433,0,0,1-.1525.8523h0l-.7259,2.3917a.094.094,0,0,1-.0889.0685h-2.785Zm-.1006-1.5959a.4192.4192,0,0,0-.1974.2464h0a.3029.3029,0,0,0-.0138.0828h0a.1011.1011,0,0,0,.0175.063h0a.1438.1438,0,0,0,.066.0489h0a1.2359,1.2359,0,0,0,.44.0519h1.4587l.1729-.57h-1.515c-.0435-.0025-.0781-.0043-.1043-.0043h0a.6291.6291,0,0,0-.3247.081Z"/><path class="ab388fa3-2afb-4133-a94f-bcf2de920320" d="M470.1764,246.0112l-.2451.83h-.7481l.2456-.83h.7476m.3083-.2919h-1.2286a.06.06,0,0,0-.0583.0437l-.3821,1.2919a.06.06,0,0,0,.01.0538.062.062,0,0,0,.0491.0247h1.2285a.0625.0625,0,0,0,.06-.0438l.3813-1.2915a.0607.0607,0,0,0-.0094-.0544.0621.0621,0,0,0-.05-.0244Z"/><path class="ab388fa3-2afb-4133-a94f-bcf2de920320" d="M472.1024,245.3964l-.4272,1.4451h-.7484l.4273-1.4451h.7483m.3088-.2919h-1.2288a.0628.0628,0,0,0-.0593.0437l-.5638,1.9067a.0612.0612,0,0,0,.01.0538.0624.0624,0,0,0,.05.0247h1.2284a.0621.0621,0,0,0,.0593-.0438l.5634-1.9059a.06.06,0,0,0-.009-.054.0623.0623,0,0,0-.0494-.0252Z"/><path class="ab388fa3-2afb-4133-a94f-bcf2de920320" d="M473.9939,244.7818l-.61,2.06h-.7477l.6093-2.06h.748m.3086-.2919h-1.2284a.0614.0614,0,0,0-.0593.0441l-.7458,2.5209a.0606.0606,0,0,0,.01.0538.0615.0615,0,0,0,.0489.0247h1.2288a.0616.0616,0,0,0,.0588-.0438l.7459-2.52a.0615.0615,0,0,0-.0587-.0794Z"/></g></svg>