<svg xmlns="http://www.w3.org/2000/svg" viewBox="0 0 24.0266 23.9686"><defs><style>.b720dcb4-d88a-43f9-a9ab-7ba13da0639a{fill:#39b34a;}.b06ef8f2-67b1-4638-9b08-5f79c69a9a55{fill:#026838;}.a2a936c5-9334-4b67-868d-b4d5b367c26b{fill:#fff;}</style></defs><title>S</title><g id="b2696f32-cc71-4f55-ad3d-b412d8d6cf31" data-name="Grafica"><rect class="b720dcb4-d88a-43f9-a9ab-7ba13da0639a" x="1.9932" y="1.9933" width="20.0403" height="19.9822"/><path class="b06ef8f2-67b1-4638-9b08-5f79c69a9a55" d="M22.0334,1.9933V21.9755H1.9932V1.9933h20.04M24.0266,0H0V23.9686H24.0266V0Z"/><path class="a2a936c5-9334-4b67-868d-b4d5b367c26b" d="M19.3564,18.5137l.0106-2.086L13.2742,10.335a4.322,4.322,0,1,0-3.0511,3.04l1.223,1.2231,1.9481-.01-.0074,1.4953,1.4364-.0072-.0073,1.4758,1.4954-.0074-.0075,1.4954,2.5384-.0128C19.2161,19.0261,19.3545,18.8974,19.3564,18.5137ZM7.0059,8.6953A1.1472,1.1472,0,1,1,8.62,8.6871,1.1415,1.1415,0,0,1,7.0059,8.6953Z"/></g></svg>