<svg xmlns="http://www.w3.org/2000/svg" viewBox="0 0 85 85"><defs><style>.f785f750-b381-4363-ad23-79bc8cde8e9e{fill:none;}.f07b79bf-b3a9-4404-92c8-04d7a2b0506d{fill:#006837;}.f4678b45-5dab-4e09-8ba7-e1d8c06c5741{fill:red;}.b3f88157-1397-4e6a-9090-b31329e92504{fill:#fff;}</style></defs><title>S</title><g id="ae2c0e34-6562-41e2-82ef-6f899a5fab1a" data-name="Grafica"><rect class="f785f750-b381-4363-ad23-79bc8cde8e9e" width="85" height="85"/><rect class="f07b79bf-b3a9-4404-92c8-04d7a2b0506d" width="85" height="85"/><rect class="f4678b45-5dab-4e09-8ba7-e1d8c06c5741" y="78.8612" width="85" height="6.1388"/><path class="b3f88157-1397-4e6a-9090-b31329e92504" d="M46.532,63.4362l.0239-3.1252a17.8335,17.8335,0,0,0,4.6189-1.7168l2.418,2.3959a1.4607,1.4607,0,0,0,2.07-.0036L60.08,56.5473a1.467,1.467,0,0,0-.0071-2.0776l-2.1409-2.1192a18.4856,18.4856,0,0,0,2.0266-4.2781l3.3386.06a1.4637,1.4637,0,0,0,1.486-1.4439l.09-6.2612a1.4617,1.4617,0,0,0-1.4365-1.4892L60.4676,38.88a18.0359,18.0359,0,0,0-2.0421-5.4511l2.3729-2.2769a1.47,1.47,0,0,0-.0025-2.0766L56.3589,24.66a1.4785,1.4785,0,0,0-2.0792.0041L52.0066,26.839a18.3555,18.3555,0,0,0-4.9214-2.0669l.08-3.07A1.47,1.47,0,0,0,45.72,20.2112l-6.265-.0949a1.4705,1.4705,0,0,0-1.4868,1.4484L37.8918,24.8a18.2789,18.2789,0,0,0-5.3087,2.3438l-2.1523-2.1237a1.4673,1.4673,0,0,0-2.0756.01l-4.4163,4.4369a1.4737,1.4737,0,0,0,.0019,2.0791l2.4344,2.3991A18.3807,18.3807,0,0,0,24.7344,38.35L21.707,38.316a1.469,1.469,0,0,0-1.4911,1.4477l-.0937,6.2581a1.4718,1.4718,0,0,0,1.45,1.4938l3.4113.038a18.0455,18.0455,0,0,0,1.9811,4.4813l-2.2688,2.1582a1.4722,1.4722,0,0,0,.0021,2.0789l4.4372,4.4164a1.4775,1.4775,0,0,0,2.084-.0059l2.36-2.2658a18.3186,18.3186,0,0,0,3.7944,1.5948l-.0342,3.2906a1.4716,1.4716,0,0,0,1.4451,1.49l6.2566.091A1.4688,1.4688,0,0,0,46.532,63.4362ZM30.4254,42.3A12.1222,12.1222,0,1,1,42.3677,54.5971,12.1276,12.1276,0,0,1,30.4254,42.3Z"/></g></svg>