<svg xmlns="http://www.w3.org/2000/svg" viewBox="0 0 85 85"><defs><style>.b85276f2-423e-4aa2-bd4c-b43a81220b77{fill:#006837;}.bb721b7a-861f-4785-b613-ecac786f6303{fill:#39b34a;}.bf06aaa4-bbdb-42b8-924a-7ec965677a97{fill:#fff;}</style></defs><title>S</title><g id="a0305058-f32e-4d72-ab87-2a7d630dbcd6" data-name="Grafica"><rect class="b85276f2-423e-4aa2-bd4c-b43a81220b77" width="85" height="85"/><rect class="bb721b7a-861f-4785-b613-ecac786f6303" y="78.8612" width="85" height="6.1388"/><path class="bf06aaa4-bbdb-42b8-924a-7ec965677a97" d="M55.3139,62.0864H21.2175a1.3546,1.3546,0,1,0,0,2.7088H55.3139a1.3546,1.3546,0,1,0,0-2.7088Z"/><path class="bf06aaa4-bbdb-42b8-924a-7ec965677a97" d="M69.7558,50.9755,62.3933,37.19a5.1592,5.1592,0,0,1-.6077-2.4231V30.168a1.3781,1.3781,0,0,0-2.7557,0v4.5992A7.8469,7.8469,0,0,0,59.953,38.45l7.3631,13.7863a2.8841,2.8841,0,0,1,.3407,1.3565,2.9509,2.9509,0,0,1-2.972,2.922H61.3072a2.9509,2.9509,0,0,1-2.9722-2.922V27.1175H54.3278a1.3808,1.3808,0,0,0-.594.1373v-7.767a5.6708,5.6708,0,0,0-5.7121-5.615H28.92a5.6706,5.6706,0,0,0-5.7116,5.615V60.4341H53.7338V29.689a1.3837,1.3837,0,0,0,.594.1373h1.2513v23.766a5.6865,5.6865,0,0,0,5.7281,5.6308h3.3776a5.6863,5.6863,0,0,0,5.7279-5.6308A5.5672,5.5672,0,0,0,69.7558,50.9755ZM47.736,30.4379A3.461,3.461,0,0,1,44.25,33.8646H32.2809a3.4612,3.4612,0,0,1-3.4861-3.4267V23.21a3.4612,3.4612,0,0,1,3.4861-3.4268H44.25A3.461,3.461,0,0,1,47.736,23.21Z"/><path class="bf06aaa4-bbdb-42b8-924a-7ec965677a97" d="M58.376,24.0293a2.1632,2.1632,0,0,1,.6539,1.5518v1.68a1.3781,1.3781,0,0,0,2.7558,0v-1.68a4.8285,4.8285,0,0,0-1.4613-3.467L56.46,18.3149a1.3944,1.3944,0,0,0-1.9484,0,1.3377,1.3377,0,0,0,0,1.9152Z"/><path class="bf06aaa4-bbdb-42b8-924a-7ec965677a97" d="M44.98,30.4379a.7252.7252,0,0,1-.73.7179H32.281a.7252.7252,0,0,1-.73-.7179V23.21a.7252.7252,0,0,1,.73-.7179H44.25a.7252.7252,0,0,1,.73.7179Z"/></g></svg>