<svg xmlns="http://www.w3.org/2000/svg" viewBox="0 0 24.0266 23.9686"><defs><style>.e090a14d-89a4-4bfb-b915-e1d68c505ff1{fill:#f7931e;}.b6f0acdf-4193-4bd0-8e5d-f67e53687b90{fill:#026838;}.be320fc8-20b8-4470-b38c-b37ba60226d6{fill:#fff;}</style></defs><title>S</title><g id="ac836452-5d82-4caa-8d95-aae47844a858" data-name="Grafica"><rect class="e090a14d-89a4-4bfb-b915-e1d68c505ff1" x="1.9932" y="1.9933" width="20.0403" height="19.9822"/><path class="b6f0acdf-4193-4bd0-8e5d-f67e53687b90" d="M22.0334,1.9933V21.9755H1.9932V1.9933h20.04M24.0266,0H0V23.9686H24.0266V0Z"/><path class="be320fc8-20b8-4470-b38c-b37ba60226d6" d="M19.3564,18.5137l.0106-2.086L13.2742,10.335a4.322,4.322,0,1,0-3.0511,3.04l1.223,1.2231,1.9481-.01-.0074,1.4953,1.4364-.0072-.0073,1.4758,1.4954-.0074-.0075,1.4954,2.5384-.0128C19.2161,19.0261,19.3545,18.8974,19.3564,18.5137ZM7.0059,8.6953A1.1472,1.1472,0,1,1,8.62,8.6871,1.1415,1.1415,0,0,1,7.0059,8.6953Z"/></g></svg>