<svg xmlns="http://www.w3.org/2000/svg" viewBox="0 0 85 85"><defs><style>.bcff2626-2098-4ef3-b403-b64ec38a10ca{fill:#39b34a;}.b08dbcbc-418c-49e9-932a-9657d60506d4{fill:#006837;}</style></defs><title>S</title><g id="ff919bc2-07fb-434f-bb8a-bfc8e1876d27" data-name="Grafica"><rect class="bcff2626-2098-4ef3-b403-b64ec38a10ca" width="85" height="85"/><path class="b08dbcbc-418c-49e9-932a-9657d60506d4" d="M52.4757,23.4914l-4.4466-4.6748H22.6082V57.8905H52.4757ZM38.1812,50.7668H28.09a.675.675,0,1,1,0-1.35H38.1812a.675.675,0,1,1,0,1.35Zm8.59-4.9979H28.09a.675.675,0,1,1,0-1.35H46.7709a.675.675,0,1,1,0,1.35Zm0-4.9971H28.09a.675.675,0,1,1,0-1.35H46.7709a.675.675,0,1,1,0,1.35Zm0-4.9971H28.09a.6751.6751,0,1,1,0-1.35H46.7709a.6751.6751,0,1,1,0,1.35Zm0-4.9979H28.09a.6751.6751,0,1,1,0-1.35H46.7709a.6751.6751,0,1,1,0,1.35Zm.7188-6.6721V19.7154l4.1752,4.3893Z"/><path class="b08dbcbc-418c-49e9-932a-9657d60506d4" d="M57.9455,25.11H54.46V60.2133H32.5243v3.971H62.3918V29.7852Zm-.54,5.288V26.0092l4.1748,4.3892Z"/></g></svg>