<svg xmlns="http://www.w3.org/2000/svg" viewBox="0 0 1023.9999 768"><defs><style>.ac03ba4f-31a5-44f8-a4fb-0a67dc5327ed,.b38ce196-114d-4fe0-8ba7-2cfb7bd24073,.b4399295-4537-4302-8ace-aa1e31838d5e,.f792e94c-5013-4d7e-b43c-54069ec9c1c5{fill:red;}.a8c79a8c-5cf4-46f9-8435-c8947280e511,.afe98448-1376-4ee9-9ec9-46e83432bd22,.b0ede65f-0623-49c7-8b10-27a629594dc3,.e5ca2a6c-456b-4cbc-894f-a62aac3fdace{fill:#006837;}.a159d5eb-aec0-4d71-84c0-a6208ca6c888,.a32f4d74-1bf1-4fb2-97a4-736f54b1b090,.b5c6ba27-5c01-483f-930f-3b060f32da83,.fd4b7399-dc47-485b-9f5c-a5c8dc14e475{fill:none;}.b5c6ba27-5c01-483f-930f-3b060f32da83{stroke:#fff;stroke-linecap:round;stroke-width:4px;}.a159d5eb-aec0-4d71-84c0-a6208ca6c888,.b5c6ba27-5c01-483f-930f-3b060f32da83,.fd4b7399-dc47-485b-9f5c-a5c8dc14e475{stroke-miterlimit:10;}.e423c409-8656-4396-87ca-38065f072ab0{fill:#ccc;}.ad714c0b-f69a-41fe-b2fe-2de2cb58ea3b{fill:#979797;}.a90f6bef-66c9-4029-83e7-3ce9e18648ee{fill:#efefef;}.afe98448-1376-4ee9-9ec9-46e83432bd22,.b38ce196-114d-4fe0-8ba7-2cfb7bd24073,.e5ca2a6c-456b-4cbc-894f-a62aac3fdace,.f792e94c-5013-4d7e-b43c-54069ec9c1c5{font-size:11px;}.afe98448-1376-4ee9-9ec9-46e83432bd22,.b38ce196-114d-4fe0-8ba7-2cfb7bd24073{font-family:Calibri;}.a1137dd3-fe2a-48ae-b19c-fa1bbebc27b0{letter-spacing:-0.0498em;}.b7b3aab2-1100-4558-a9e8-864c1915cac1{letter-spacing:-0.0171em;}.a059a400-11a7-4360-9a00-4c47f6c633ed{letter-spacing:-0.0205em;}.a7c0485d-a925-444b-a98d-0c58b96525ba{letter-spacing:-0.0055em;}.b23631e6-6616-4b21-84bc-82c957ab2dab{letter-spacing:-0.0121em;}.e1e43a86-3aef-4895-b1b8-c7da65aa17a2{letter-spacing:-0.0001em;}.ac03ba4f-31a5-44f8-a4fb-0a67dc5327ed,.b0ede65f-0623-49c7-8b10-27a629594dc3{fill-rule:evenodd;}.fd4b7399-dc47-485b-9f5c-a5c8dc14e475{stroke:#006837;stroke-width:0.5px;}.afb6af5f-5865-4c1b-90ab-0be6588ba168{fill:#39b54a;}.a5dba543-3457-4c0f-9570-3a990c5e06c5{font-size:11.0395px;font-family:MyriadPro-Regular, Myriad Pro;}.a5dba543-3457-4c0f-9570-3a990c5e06c5,.e848475d-d994-4051-9243-c66677b10c71{fill:#0071bc;}.a159d5eb-aec0-4d71-84c0-a6208ca6c888{stroke:#0071bc;stroke-width:0.25px;}.fbaaccab-99ff-4eb6-9743-764cbc80f564{fill:#fff;}.e5ca2a6c-456b-4cbc-894f-a62aac3fdace,.f792e94c-5013-4d7e-b43c-54069ec9c1c5{font-family:Calibri-Light, Calibri;}.bdd1dd02-3ca7-47f7-a420-06ee2d3140f2,.e5ca2a6c-456b-4cbc-894f-a62aac3fdace,.f792e94c-5013-4d7e-b43c-54069ec9c1c5{font-weight:300;}.f6283012-51cb-4a4a-a8ef-937dde89556a{letter-spacing:-0.0195em;}.a850820f-ab5f-4979-9240-764f837835e3{letter-spacing:-0.0147em;}.a69b183f-b7c4-4919-8b24-b5899ce6a03c{letter-spacing:-0.0097em;}.bdd1dd02-3ca7-47f7-a420-06ee2d3140f2{font-size:8px;fill:#999;font-family:Calibri-LightItalic, Calibri;font-style:italic;}.ede254ba-200f-4216-9b92-ff12d4c31927{letter-spacing:-0.0296em;}.be5768bc-483c-43a7-8586-d9e320cc56b3{letter-spacing:-0.0048em;}.aebc4d40-41f2-411c-b90c-cdbc02fba890{letter-spacing:-0.0298em;}.e1216481-b32f-4f35-8c41-207c75a28079{letter-spacing:-0.005em;}.e34edc1b-2f53-4a37-814b-5cd17956378f{letter-spacing:-0.0073em;}.e7a29248-a5c3-4297-abd7-c9ecaa2cab04{letter-spacing:-0.0122em;}.b86dc873-bb30-4907-9773-8941df9d6086{letter-spacing:-0.0196em;}.a8521537-aa99-481b-bc85-466d2279b5f9{letter-spacing:0.0848em;}.ad99b636-df50-47e1-b1de-55afb93380df{letter-spacing:-0.0098em;}.aa650686-0792-4fa1-8990-632b45d5d320{letter-spacing:0.0849em;}.eaa22f6f-f38c-4db6-99b6-b44dbf726e26{letter-spacing:0.0617em;}.b6c6cd5a-ee1f-4c13-a102-2e81378bd899{letter-spacing:0.0618em;}.a774d48f-5ec3-4ba1-a35c-42116d964e8d{letter-spacing:-0.0195em;}.ab017972-2b14-44f9-85e7-cd7bbd56371e{letter-spacing:-0.022em;}.b474fbe9-80d4-4890-9e8f-e9f03bbf836a{letter-spacing:-0.0146em;}.ee90872e-48d7-44dc-a842-bad28fb8a3bd{letter-spacing:0.0116em;}.ae260222-768a-4675-b17b-5bff2603616c{letter-spacing:0.0117em;}.b5037dbb-6a83-480b-b5ca-c9e7dfb7687f{letter-spacing:-0.0074em;}.b5aea890-5cad-4595-a1e8-96dcd070e0db{letter-spacing:0.0096em;}.f5f23525-5898-43c2-9ea4-94cfd11cee67{letter-spacing:-0.0171em;}.ac7a0a20-93e4-479a-97e2-b798a152532b{letter-spacing:0.1468em;}.a8de48c3-572e-4be2-a6aa-55d7e964100e{letter-spacing:0.0336em;}.f92a07b6-9a1a-4ef7-9f21-2aabd2eea1c7{letter-spacing:0.0614em;}.f4578d3c-7aa7-4d53-8307-e3c27eea8af7{letter-spacing:0.0615em;}.afcb06ca-4fd0-4143-a61b-db00b78fe1b2{letter-spacing:0.2628em;}.b420aa44-d7a4-421f-893d-acd4cf4cef58{letter-spacing:0.263em;}.fb619a29-967d-4b37-9dcd-47a083549166{letter-spacing:0.1325em;}.aeeafe27-30e5-46a9-b5fb-e0c3f8a03ef1{letter-spacing:0.1326em;}.f4a0e2b8-8f50-4dcd-a009-885caa13d58b{letter-spacing:0.0372em;}.b180f77c-d2b8-47ef-afa1-be81c6a347a1{letter-spacing:0.0373em;}.b78e35f5-1f31-4ed9-9013-6cfbf06cdea1{letter-spacing:-0.0172em;}</style></defs><title>S</title><g id="bcd6bd59-9663-498f-8f6c-9531d49732b8" data-name="Grafica"><rect class="b4399295-4537-4302-8ace-aa1e31838d5e" y="0.381" width="930.5466" height="42.1387"/><rect class="a8c79a8c-5cf4-46f9-8435-c8947280e511" y="37.1801" width="930.5466" height="5.3396"/><line class="b5c6ba27-5c01-483f-930f-3b060f32da83" x1="23.6289" y1="11.6108" x2="40.3991" y2="11.6108"/><line class="b5c6ba27-5c01-483f-930f-3b060f32da83" x1="23.6289" y1="19.6139" x2="40.3991" y2="19.6139"/><line class="b5c6ba27-5c01-483f-930f-3b060f32da83" x1="23.6289" y1="27.617" x2="40.3991" y2="27.617"/><path class="b4399295-4537-4302-8ace-aa1e31838d5e" d="M941.7267,29.4514V23.482h19.9167V21.4893H941.7267v-3.984l1.9854-1.9927h23.9092V29.4514ZM945.7023,13.52,951.68,7.5421h15.9411V13.52Z"/><path class="b4399295-4537-4302-8ace-aa1e31838d5e" d="M969.6139,27.4587V7.5421h5.9682V21.4905Z"/><polygon class="b4399295-4537-4302-8ace-aa1e31838d5e" points="997.491 29.451 1002.52 29.427 1003.469 28.478 1003.469 28.443 1003.469 15.513 991.513 15.513 991.513 21.489 997.491 21.489 997.491 23.482 990.521 23.482 983.543 16.504 983.543 13.52 1003.469 13.52 997.501 7.542 977.575 7.542 977.575 19.498 987.528 29.451 997.491 29.451"/><polygon class="b4399295-4537-4302-8ace-aa1e31838d5e" points="1011.42 31.212 1011.42 13.509 1005.451 7.571 1005.451 28.75 1003.016 31.212 941.727 31.212 947.705 37.18 1005.451 37.18 1011.43 31.212 1011.42 31.212"/><rect class="e423c409-8656-4396-87ca-38065f072ab0" x="361.4271" y="191.3551" width="85.0394" height="85.0394"/><path class="ad714c0b-f69a-41fe-b2fe-2de2cb58ea3b" d="M422.7385,258.7463c-1.9672,1.0029-5.0869.7391-7.2955-.39-3.0433-1.5559-4.7662-1.1754-7.9558.2153a8.3426,8.3426,0,0,1-7.1624,0c-3.1874-1.3947-4.8311-1.7712-7.8744-.2153-2.2085,1.1291-5.3741,1.3929-7.3413.39-3.4491-1.7591-5.9138-2.0872-8.6528-.4294a6.6811,6.6811,0,0,1-3.7871.8794v6.224a7.5406,7.5406,0,0,0,4.03-.9783,7.2244,7.2244,0,0,1,7.1279-.166c3.111,1.556,5.7485,1.556,8.386.2028s4.0992-1.5969,7.3037-.2364a9.4661,9.4661,0,0,0,8.8253.06c3.2046-1.3605,4.7-1.1764,7.3377.1766s5.2745,1.3532,8.3858-.2028a7.087,7.087,0,0,1,7.0468.166,7.4232,7.4232,0,0,0,4.1115.9783v-6.224a6.4642,6.4642,0,0,1-3.7874-.8794C428.6982,256.6591,426.1876,256.9872,422.7385,258.7463Z"/><path class="ad714c0b-f69a-41fe-b2fe-2de2cb58ea3b" d="M431.4711,249.236c-5.3828-2.8791-7.7244.6264-10.6176.6264V235.8279l4.4633-10.0807a2.6267,2.6267,0,0,0-1.6231-3.6531l-2.705-1.0825v-8.7272h-5.211v-4.5982h-7.3v-6.159H399.416v6.159h-7.3v4.5982H386.905v8.7272L384.2,222.0941a2.6267,2.6267,0,0,0-1.6231,3.6531l4.4632,10.0807v14.0344c-2.892-.0011-5.3525-3.45-10.6157-.5716h-.0018a8.9819,8.9819,0,0,1-3.7869.8794v6.0155a8.2477,8.2477,0,0,0,3.99-1.15,7.5561,7.5561,0,0,1,7.1685.0059c3.1113,1.556,5.7486,1.556,8.3859.203a7.6084,7.6084,0,0,1,7.4053-.203,8.71,8.71,0,0,0,8.6865.036,7.57,7.57,0,0,1,7.4423.167c2.6375,1.353,5.275,1.353,8.3858-.203a7.6238,7.6238,0,0,1,7.1685-.0059,8.6041,8.6041,0,0,0,3.99,1.15v-6.07A8.7168,8.7168,0,0,1,431.4711,249.236Zm-14.3372-29.8481-13.1872-5.3329L390.76,219.3879v-3.52h5.2074v-4.53h15.9595v4.53h5.2074Z"/><rect class="e423c409-8656-4396-87ca-38065f072ab0" x="467.7462" y="191.3583" width="85" height="85"/><path class="ad714c0b-f69a-41fe-b2fe-2de2cb58ea3b" d="M533.9439,243.5216a5.2257,5.2257,0,1,0,5.31,5.2251A5.2684,5.2684,0,0,0,533.9439,243.5216Z"/><path class="ad714c0b-f69a-41fe-b2fe-2de2cb58ea3b" d="M490.5244,243.5216a5.2257,5.2257,0,1,0,5.3093,5.2251A5.2689,5.2689,0,0,0,490.5244,243.5216Z"/><path class="ad714c0b-f69a-41fe-b2fe-2de2cb58ea3b" d="M535.9064,221.2862l-9.3583.0061c-.8937,0-1.6124,5.5679-1.6278,12.4788h-.39a4.05,4.05,0,0,0-.4807.0477c.1509-1.7973.2386-3.8775.2386-6.1027,0-6.7516-.7949-12.2247-1.7754-12.2247H506.51v-.9655a.7874.7874,0,0,0-.7939-.7809h-9.0644a.7876.7876,0,0,0-.7941.7809v.9655h-19.53c-.98,0-1.7754,5.4731-1.7754,12.2247s.7951,12.2248,1.7754,12.2248h3.5771c-1.7023.2182-2.9759,1.1248-2.9759,2.91a3.7966,3.7966,0,0,0,3.8253,3.7689h2.8938a7.2448,7.2448,0,0,1,13.75,0h29.6753a7.241,7.241,0,0,1,13.7442,0h3.5719c.9,0,1.6278-5.6706,1.6278-12.6616C546.0172,226.9584,536.8125,221.2862,535.9064,221.2862Zm-.5313,10.5391h-6.3822v-7.8065h6.3822Zm1.2285,0v-7.2764c1.8459,1.1,5.3288,3.8535,6.4437,7.2764Z"/><rect class="e423c409-8656-4396-87ca-38065f072ab0" x="574.0454" y="191.7476" width="85" height="85"/><path class="ad714c0b-f69a-41fe-b2fe-2de2cb58ea3b" d="M629.3593,253.8341H595.2629a1.3546,1.3546,0,1,0,0,2.7088h34.0964a1.3546,1.3546,0,1,0,0-2.7088Z"/><path class="ad714c0b-f69a-41fe-b2fe-2de2cb58ea3b" d="M643.8012,242.7232l-7.3625-13.7852a5.16,5.16,0,0,1-.6077-2.4232v-4.5991a1.3781,1.3781,0,0,0-2.7557,0v4.5991a7.8466,7.8466,0,0,0,.9231,3.6823l7.3631,13.7863a2.8841,2.8841,0,0,1,.3406,1.3566,2.9507,2.9507,0,0,1-2.9719,2.9219h-3.3776A2.9509,2.9509,0,0,1,632.38,245.34V218.8651h-4.0072a1.3822,1.3822,0,0,0-.594.1373v-7.767a5.6708,5.6708,0,0,0-5.7121-5.6149h-19.102a5.6705,5.6705,0,0,0-5.7116,5.6149v40.9464h30.5257V221.4367a1.3851,1.3851,0,0,0,.594.1372h1.2513V245.34a5.6865,5.6865,0,0,0,5.7281,5.6307H638.73a5.6863,5.6863,0,0,0,5.7279-5.6307A5.5672,5.5672,0,0,0,643.8012,242.7232Zm-22.02-20.5377a3.4609,3.4609,0,0,1-3.4862,3.4267H606.3263a3.461,3.461,0,0,1-3.4861-3.4267v-7.228a3.4611,3.4611,0,0,1,3.4861-3.4269h11.9689a3.461,3.461,0,0,1,3.4862,3.4269Z"/><path class="ad714c0b-f69a-41fe-b2fe-2de2cb58ea3b" d="M632.4213,215.777a2.1627,2.1627,0,0,1,.654,1.5517v1.68a1.3781,1.3781,0,0,0,2.7558,0v-1.68a4.8283,4.8283,0,0,0-1.4613-3.4669l-3.8646-3.7992a1.3942,1.3942,0,0,0-1.9484,0,1.3375,1.3375,0,0,0,0,1.9152Z"/><path class="ad714c0b-f69a-41fe-b2fe-2de2cb58ea3b" d="M619.0256,222.1855a.7253.7253,0,0,1-.73.718H606.3264a.7253.7253,0,0,1-.73-.718v-7.228a.7253.7253,0,0,1,.73-.718h11.9688a.7253.7253,0,0,1,.73.718Z"/><rect class="e423c409-8656-4396-87ca-38065f072ab0" x="361.4293" y="297.6329" width="85" height="85"/><path class="ad714c0b-f69a-41fe-b2fe-2de2cb58ea3b" d="M395.1347,325.3119h-5.8954A1.8337,1.8337,0,0,0,387.39,327.13v5.7947a1.8335,1.8335,0,0,0,1.8492,1.8176h5.8954a1.8338,1.8338,0,0,0,1.8495-1.8176V327.13A1.834,1.834,0,0,0,395.1347,325.3119Z"/><path class="ad714c0b-f69a-41fe-b2fe-2de2cb58ea3b" d="M406.3736,325.3119h-5.8955a1.8337,1.8337,0,0,0-1.8493,1.8178v5.7947a1.8335,1.8335,0,0,0,1.8493,1.8176h5.8955a1.8338,1.8338,0,0,0,1.8493-1.8176V327.13A1.8339,1.8339,0,0,0,406.3736,325.3119Z"/><path class="ad714c0b-f69a-41fe-b2fe-2de2cb58ea3b" d="M411.7168,334.742h5.8955a1.8336,1.8336,0,0,0,1.8493-1.8176V327.13a1.8338,1.8338,0,0,0-1.8493-1.8178h-5.8955a1.8337,1.8337,0,0,0-1.8493,1.8178v5.7947A1.8335,1.8335,0,0,0,411.7168,334.742Z"/><path class="ad714c0b-f69a-41fe-b2fe-2de2cb58ea3b" d="M395.1347,336.2688h-5.8954a1.8337,1.8337,0,0,0-1.8492,1.8178v5.7947a1.8335,1.8335,0,0,0,1.8492,1.8176h5.8954a1.8338,1.8338,0,0,0,1.8495-1.8176v-5.7947A1.834,1.834,0,0,0,395.1347,336.2688Z"/><path class="ad714c0b-f69a-41fe-b2fe-2de2cb58ea3b" d="M406.3736,336.2688h-5.8955a1.8337,1.8337,0,0,0-1.8493,1.8178v5.7947a1.8335,1.8335,0,0,0,1.8493,1.8176h5.8955a1.8338,1.8338,0,0,0,1.8493-1.8176v-5.7947A1.8339,1.8339,0,0,0,406.3736,336.2688Z"/><path class="ad714c0b-f69a-41fe-b2fe-2de2cb58ea3b" d="M411.7168,345.6989h5.8955a1.8336,1.8336,0,0,0,1.8493-1.8176v-5.7947a1.8338,1.8338,0,0,0-1.8493-1.8178h-5.8955a1.8337,1.8337,0,0,0-1.8493,1.8178v5.7947A1.8335,1.8335,0,0,0,411.7168,345.6989Z"/><path class="ad714c0b-f69a-41fe-b2fe-2de2cb58ea3b" d="M395.1347,347.2257h-5.8954a1.8337,1.8337,0,0,0-1.8492,1.8178v5.7947a1.8335,1.8335,0,0,0,1.8492,1.8176h5.8954a1.8338,1.8338,0,0,0,1.8495-1.8176v-5.7947A1.834,1.834,0,0,0,395.1347,347.2257Z"/><path class="ad714c0b-f69a-41fe-b2fe-2de2cb58ea3b" d="M406.3736,347.2257h-5.8955a1.8337,1.8337,0,0,0-1.8493,1.8178v5.7947a1.8335,1.8335,0,0,0,1.8493,1.8176h5.8955a1.8338,1.8338,0,0,0,1.8493-1.8176v-5.7947A1.8339,1.8339,0,0,0,406.3736,347.2257Z"/><path class="ad714c0b-f69a-41fe-b2fe-2de2cb58ea3b" d="M411.7168,356.6558h5.8955a1.8336,1.8336,0,0,0,1.8493-1.8176v-5.7947a1.8338,1.8338,0,0,0-1.8493-1.8178h-5.8955a1.8337,1.8337,0,0,0-1.8493,1.8178v5.7947A1.8335,1.8335,0,0,0,411.7168,356.6558Z"/><path class="ad714c0b-f69a-41fe-b2fe-2de2cb58ea3b" d="M429.8705,321.1267l-3.488-1.5317v0l-22.454-9.8608-22.4523,9.8608h0l-3.4881,1.5318a1.5648,1.5648,0,0,0-.809,2.0811,1.6185,1.6185,0,0,0,2.1172.7952l2.18-.9573V363.18h44.9063V323.0457l2.18.9573a1.6186,1.6186,0,0,0,2.1173-.7952A1.5649,1.5649,0,0,0,429.8705,321.1267ZM423.1777,360.03H384.681v-38.392l13.341-5.859,5.9065-2.5936,5.4371,2.3872,13.8121,6.0656Z"/><rect class="e423c409-8656-4396-87ca-38065f072ab0" x="467.7659" y="297.6575" width="85" height="85"/><path class="ad714c0b-f69a-41fe-b2fe-2de2cb58ea3b" d="M510.45,352.6768a9.5552,9.5552,0,0,0,1.3351.0882c.0965,0,.192-.008.2878-.01v-5.8824l-1.6229-.3729Z"/><path class="ad714c0b-f69a-41fe-b2fe-2de2cb58ea3b" d="M510.45,336.5846v5.3226l1.6229.3919v-5.7047c-.2925-.0269-.5991-.0454-.9367-.0454A6.8256,6.8256,0,0,0,510.45,336.5846Z"/><path class="ad714c0b-f69a-41fe-b2fe-2de2cb58ea3b" d="M507.45,338.0014a2.1756,2.1756,0,0,0-.3737,1.2927,2.2185,2.2185,0,0,0,.2435,1.1017,2.0147,2.0147,0,0,0,.6168.686,2.8006,2.8006,0,0,0,.8125.3829c.1239.0364.223.0627.3372.0949v-4.6948a4.2447,4.2447,0,0,0-.6782.2908A2.7912,2.7912,0,0,0,507.45,338.0014Z"/><path class="ad714c0b-f69a-41fe-b2fe-2de2cb58ea3b" d="M515.4709,347.93a6.8921,6.8921,0,0,0-1.3472-.5269c-.22-.063-.4521-.126-.6872-.189v5.4338c.0287-.0041.0577-.0052.0865-.01a5.7628,5.7628,0,0,0,1.5585-.4474,2.9329,2.9329,0,0,0,1.1364-.8938,2.4021,2.4021,0,0,0,.4391-1.5,1.9163,1.9163,0,0,0-.3092-1.1172A2.43,2.43,0,0,0,515.4709,347.93Z"/><path class="ad714c0b-f69a-41fe-b2fe-2de2cb58ea3b" d="M515.75,321.3309a9.9793,9.9793,0,0,1,3.3581-6.16c2.7284-2.1473-1.8173-1.97-4.915-1.611-3.089.357-9.822-1.4313-11.274-.1776-1.4563,1.2483-.915,3.2183.726,4.289a13.0611,13.0611,0,0,1,2.8769,3.6674c-9.292,3.3008-16.2334,16.3109-16.2334,31.8725a50.9155,50.9155,0,0,0,.3333,5.8128c.3967,1.2956,1.6527,4.2949,4.8145,4.2949H526.322s4.4495-.14,5.2883-3.7525c.0521-.4456.1042-.8892.1483-1.3389a4.6,4.6,0,0,1,.0441-.5245c.1326-1.4689.2044-2.9675.2044-4.4918C532.0071,337.6378,525.0543,324.6161,515.75,321.3309Zm5.0474,30.8438a6.3506,6.3506,0,0,1-1.3959,2.06,7.1572,7.1572,0,0,1-1.9008,1.3244,10.9727,10.9727,0,0,1-2.0618.75,12.7046,12.7046,0,0,1-1.9.3353c-.0381.0035-.0658.0046-.1025.0077v3.4032h-1.3639v-3.3337c-.5724-.0017-1.11-.0263-1.6229-.0672v3.4009h-1.3636v-3.5674a10.066,10.066,0,0,1-2.0915-.5618,8.29,8.29,0,0,1-3.0362-1.9632,5.9612,5.9612,0,0,1-1.429-2.506,9.3736,9.3736,0,0,1-.3573-2.394h4.6763a4.2172,4.2172,0,0,0,.1786,1.1172,3.0387,3.0387,0,0,0,.6983,1.2133,3.9337,3.9337,0,0,0,1.3608.9122v-6.1263c-.6515-.1574-1.2933-.3217-1.9128-.5a7.8132,7.8132,0,0,1-2.3546-1.1013,5.4327,5.4327,0,0,1-1.6564-1.8834,6.3707,6.3707,0,0,1-.6329-3.0487,7.5124,7.5124,0,0,1,.1463-1.4044,6.7764,6.7764,0,0,1,.5026-1.5481,6.6974,6.6974,0,0,1,.9912-1.5323,5.7979,5.7979,0,0,1,1.64-1.309,9.9556,9.9556,0,0,1,2.4031-.91c.2752-.0693.57-.1249.8732-.1738v-3.8788H510.45v3.7335c.3352-.0195.68-.0321,1.0432-.0321.202,0,.386.0152.58.0218v-3.7232h1.3639v3.832a9.1974,9.1974,0,0,1,2.4735.6358,8.2783,8.2783,0,0,1,2.7928,1.883,6.5025,6.5025,0,0,1,1.4613,2.41,7.6486,7.6486,0,0,1,.4222,2.3463H515.91c-.0444-.2554-.1139-.58-.211-.9737a2.666,2.666,0,0,0-.6339-1.133,3.9934,3.9934,0,0,0-1.4129-.942c-.0661-.0284-.1449-.0492-.2157-.0745v5.7552l1.7913.4324a19.4516,19.4516,0,0,1,2.3062.7025,6.714,6.714,0,0,1,1.9482,1.1175,5.13,5.13,0,0,1,1.3482,1.7551,5.9815,5.9815,0,0,1,.5026,2.5862A7.3572,7.3572,0,0,1,520.7973,352.1747Z"/><rect class="e423c409-8656-4396-87ca-38065f072ab0" x="574.3068" y="297.6575" width="85" height="85"/><path class="ad714c0b-f69a-41fe-b2fe-2de2cb58ea3b" d="M626.7149,320.1678a10.2507,10.2507,0,1,0,10.2769,10.25A10.2643,10.2643,0,0,0,626.7149,320.1678Zm0,16.777a6.5263,6.5263,0,1,1,6.5422-6.5264A6.5337,6.5337,0,0,1,626.7149,336.9448Z"/><path class="ad714c0b-f69a-41fe-b2fe-2de2cb58ea3b" d="M648.3286,357.6849a22.7595,22.7595,0,0,0-43.2261,0Z"/><path class="ad714c0b-f69a-41fe-b2fe-2de2cb58ea3b" d="M604.6222,324.7985a8.9855,8.9855,0,1,0,9.0084,8.985A8.9974,8.9974,0,0,0,604.6222,324.7985Zm0,14.7062a5.7208,5.7208,0,1,1,5.7347-5.7208A5.7272,5.7272,0,0,1,604.6222,339.5047Z"/><path class="ad714c0b-f69a-41fe-b2fe-2de2cb58ea3b" d="M609.99,344.7316a19.9105,19.9105,0,0,0-24.3122,12.9533h15.25A27.89,27.89,0,0,1,609.99,344.7316Z"/><rect class="e423c409-8656-4396-87ca-38065f072ab0" x="361.4473" y="403.9567" width="85" height="85"/><path class="ad714c0b-f69a-41fe-b2fe-2de2cb58ea3b" d="M433.6263,424.6672l-3.2607-3.2607-5.455,5.455H380.2657v44.6454h44.6451V433.3826Zm-12.4318,43.1233H383.982V430.5778h37.2123l-22.5867,22.5867-3.26-3.26-3.2607-3.2607-3.2607,3.2607,3.2607,3.2607,3.2607,3.2607,3.2606,3.2607,3.2607-3.2607,0,0,19.3262-19.3262Z"/><rect class="e423c409-8656-4396-87ca-38065f072ab0" x="467.7265" y="403.9567" width="85" height="85"/><path class="ad714c0b-f69a-41fe-b2fe-2de2cb58ea3b" d="M520.2022,427.4481l-4.4466-4.6748h-25.421v39.0739h29.8676Zm-14.2945,27.2754H495.816a.675.675,0,1,1,0-1.35h10.0917a.675.675,0,1,1,0,1.35Zm8.59-4.9979H495.816a.675.675,0,1,1,0-1.35h18.6814a.675.675,0,1,1,0,1.35Zm0-4.9971H495.816a.675.675,0,1,1,0-1.35h18.6814a.675.675,0,1,1,0,1.35Zm0-4.9971H495.816a.6751.6751,0,1,1,0-1.35h18.6814a.6751.6751,0,1,1,0,1.35Zm0-4.9979H495.816a.6751.6751,0,1,1,0-1.35h18.6814a.6751.6751,0,1,1,0,1.35Zm.7188-6.6721v-4.3893l4.1752,4.3893Z"/><path class="ad714c0b-f69a-41fe-b2fe-2de2cb58ea3b" d="M525.6719,429.0671H522.186V464.17H500.2508v3.971h29.8675V433.7419Zm-.5394,5.288v-4.3892l4.1748,4.3892Z"/><rect class="e423c409-8656-4396-87ca-38065f072ab0" x="574.3068" y="403.9567" width="85" height="85"/><path class="ad714c0b-f69a-41fe-b2fe-2de2cb58ea3b" d="M616.8081,435.6169a8.6,8.6,0,1,0,8.756,8.5984A8.6758,8.6758,0,0,0,616.8081,435.6169Zm-.0571,12.4223a3.9287,3.9287,0,1,1,4.0016-3.9285A3.9657,3.9657,0,0,1,616.751,448.0392Z"/><path class="ad714c0b-f69a-41fe-b2fe-2de2cb58ea3b" d="M616.96,430.9547c11.5737,0,17.1678,8.7027,19.0627,12.5151-2.146,4.1181-8.4092,14.006-19.0627,14.006-11.82,0-17.3345-9.7028-19.1123-13.7239,2.0162-3.8175,7.9458-12.7972,19.1123-12.7972m0-4.9977c-17.583,0-24.5468,17.6016-24.5468,17.6016s5.9582,18.9149,24.5468,18.9149c17.0594,0,24.5467-18.9149,24.5467-18.9149S635.3608,425.957,616.96,425.957Z"/><rect class="a32f4d74-1bf1-4fb2-97a4-736f54b1b090" x="467.7462" y="510.2378" width="85" height="85"/><path class="ad714c0b-f69a-41fe-b2fe-2de2cb58ea3b" d="M513.4082,569.1457l.0187-2.4492a13.9792,13.9792,0,0,0,3.62-1.3455l1.895,1.8777a1.1448,1.1448,0,0,0,1.6224-.0028l3.4614-3.4791a1.15,1.15,0,0,0-.0055-1.6282l-1.6779-1.6609a14.4913,14.4913,0,0,0,1.5883-3.3527l2.6165.047a1.1469,1.1469,0,0,0,1.1646-1.1315l.07-4.907a1.1455,1.1455,0,0,0-1.1258-1.1671l-2.3263-.0454a14.1337,14.1337,0,0,0-1.6-4.2721l1.86-1.7845a1.152,1.152,0,0,0-.002-1.6274l-3.4773-3.461a1.1588,1.1588,0,0,0-1.63.0032l-1.7814,1.7049a14.3867,14.3867,0,0,0-3.857-1.62l.0629-2.4062a1.1519,1.1519,0,0,0-1.1325-1.1682l-4.91-.0744a1.1524,1.1524,0,0,0-1.1652,1.1351l-.06,2.5358a14.3248,14.3248,0,0,0-4.1606,1.8369l-1.6867-1.6644a1.15,1.15,0,0,0-1.6267.0075l-3.4611,3.4772a1.155,1.155,0,0,0,.0015,1.6294l1.9079,1.88a14.4037,14.4037,0,0,0-1.286,3.4517l-2.3725-.0262a1.1512,1.1512,0,0,0-1.1686,1.1345l-.0735,4.9046a1.1535,1.1535,0,0,0,1.136,1.1707l2.6735.03a14.1425,14.1425,0,0,0,1.5525,3.5121l-1.778,1.6914a1.1536,1.1536,0,0,0,.0017,1.6292l3.4774,3.4613a1.158,1.158,0,0,0,1.6333-.0047l1.85-1.7757a14.36,14.36,0,0,0,2.9737,1.25l-.0268,2.5788a1.1533,1.1533,0,0,0,1.1326,1.1681l4.9033.0714A1.1513,1.1513,0,0,0,513.4082,569.1457Zm-12.623-16.5644a9.5,9.5,0,1,1,9.3593,9.6371A9.5047,9.5047,0,0,1,500.7852,552.5813Z"/><rect class="a90f6bef-66c9-4029-83e7-3ce9e18648ee" x="361.4271" y="191.3583" width="297.8797" height="446.437"/><text class="afe98448-1376-4ee9-9ec9-46e83432bd22" transform="translate(540.776 257.308) scale(1.0088 1)"><tspan class="a1137dd3-fe2a-48ae-b19c-fa1bbebc27b0">V</tspan><tspan x="5.6933" y="0">e</tspan><tspan class="b7b3aab2-1100-4558-a9e8-864c1915cac1" x="11.1668" y="0">r</tspan><tspan x="14.8136" y="0">sión 1.2</tspan></text><text class="afe98448-1376-4ee9-9ec9-46e83432bd22" transform="translate(540.3287 278.2274) scale(1.0088 1)">Libe<tspan class="a059a400-11a7-4360-9a00-4c47f6c633ed" x="18.4013" y="0">r</tspan><tspan x="22.0103" y="0">ada 01/09/2019</tspan></text><text class="b38ce196-114d-4fe0-8ba7-2cfb7bd24073" transform="translate(539.8258 318.8482) scale(1.0088 1)">D<tspan class="a7c0485d-a925-444b-a98d-0c58b96525ba" x="6.7679" y="0">e</tspan><tspan class="b23631e6-6616-4b21-84bc-82c957ab2dab" x="12.1814" y="0">t</tspan><tspan class="e1e43a86-3aef-4895-b1b8-c7da65aa17a2" x="15.7323" y="0">alles </tspan></text><path class="a8c79a8c-5cf4-46f9-8435-c8947280e511" d="M384.8515,318.8713h-2.1743v-9.6541h2.1743Z"/><path class="a8c79a8c-5cf4-46f9-8435-c8947280e511" d="M386.3866,318.6894v-1.7232a4.5256,4.5256,0,0,0,1.047.4711,3.47,3.47,0,0,0,.986.1547,2.1161,2.1161,0,0,0,.8922-.1547.5.5,0,0,0,.3265-.4711.4359.4359,0,0,0-.1482-.3366,1.3681,1.3681,0,0,0-.38-.2356,4.35,4.35,0,0,0-.5085-.1819q-.2758-.081-.532-.182a5.084,5.084,0,0,1-.7237-.333,2.0915,2.0915,0,0,1-.5251-.4142,1.6226,1.6226,0,0,1-.3228-.545,2.1714,2.1714,0,0,1-.1113-.7339,1.8885,1.8885,0,0,1,.2526-.9966,2.06,2.06,0,0,1,.6729-.683,3.0772,3.0772,0,0,1,.9629-.3907,5.0283,5.0283,0,0,1,1.1278-.1247,6.2573,6.2573,0,0,1,.9288.0707,6.9922,6.9922,0,0,1,.9292.2055v1.6427a3.3434,3.3434,0,0,0-.8651-.3533,3.6361,3.6361,0,0,0-.9056-.1178,2,2,0,0,0-.3939.037,1.3024,1.3024,0,0,0-.3265.1076.5981.5981,0,0,0-.2222.1819.4191.4191,0,0,0-.0808.2522.4665.4665,0,0,0,.1214.3233,1.0493,1.0493,0,0,0,.3164.2323,3.1408,3.1408,0,0,0,.4341.175q.2388.0774.4748.158a6.273,6.273,0,0,1,.7675.3232,2.4739,2.4739,0,0,1,.5889.4106,1.6141,1.6141,0,0,1,.3773.5523,2.2092,2.2092,0,0,1-.1349,1.8007,2.1319,2.1319,0,0,1-.707.7071,3.2178,3.2178,0,0,1-1.0165.3972,5.6517,5.6517,0,0,1-1.1948.1242A6.1586,6.1586,0,0,1,386.3866,318.6894Z"/><path class="a8c79a8c-5cf4-46f9-8435-c8947280e511" d="M395.0307,318.8713h-2.1272v-10.206h2.1272Z"/><path class="a8c79a8c-5cf4-46f9-8435-c8947280e511" d="M402.5576,318.8713h-2.0131v-.99h-.0268a2.247,2.247,0,0,1-2.0533,1.1578,2.1479,2.1479,0,0,1-1.579-.5685,2.0386,2.0386,0,0,1-.5754-1.5185q0-2.006,2.3765-2.3156l1.8714-.249q0-1.1312-1.2252-1.131a4.1851,4.1851,0,0,0-2.3429.7334v-1.6021a5.2854,5.2854,0,0,1,1.2151-.4041,6.4024,6.4024,0,0,1,1.4039-.175,2.6036,2.6036,0,0,1,2.9488,2.9423Zm-2-2.8006v-.4645l-1.2521.1616q-1.0368.1345-1.0368.9357a.7723.7723,0,0,0,.2526.5957.97.97,0,0,0,.6831.2323,1.26,1.26,0,0,0,.9763-.4138A1.4954,1.4954,0,0,0,400.5579,316.0707Z"/><path class="a8c79a8c-5cf4-46f9-8435-c8947280e511" d="M414.35,318.8713h-2.1272v-.9491h-.0273a2.3852,2.3852,0,0,1-2.1341,1.1172,2.613,2.613,0,0,1-2.08-.9121,3.7755,3.7755,0,0,1-.7874-2.5479,4.11,4.11,0,0,1,.8682-2.74,2.833,2.833,0,0,1,2.2755-1.03,1.9355,1.9355,0,0,1,1.8579.956h.0273v-4.1H414.35Zm-2.087-3.3525V315a1.632,1.632,0,0,0-.39-1.1176,1.38,1.38,0,0,0-2.1207.1113,2.5784,2.5784,0,0,0-.3972,1.5249,2.232,2.232,0,0,0,.3838,1.4,1.362,1.362,0,0,0,2.117-.0272A2.1593,2.1593,0,0,0,412.2634,315.5188Z"/><path class="a8c79a8c-5cf4-46f9-8435-c8947280e511" d="M422.362,316.03h-4.4973q.1078,1.5016,1.8917,1.5014a3.6948,3.6948,0,0,0,2-.5385v1.5351a5.2512,5.2512,0,0,1-2.4842.5113,3.2084,3.2084,0,0,1-3.5141-3.5072,3.69,3.69,0,0,1,.9962-2.72,3.32,3.32,0,0,1,2.45-1.0031,3.0139,3.0139,0,0,1,2.3327.8955,3.4484,3.4484,0,0,1,.8248,2.4306Zm-1.9725-1.306q0-1.481-1.1984-1.4811a1.1443,1.1443,0,0,0-.8853.4244,1.9264,1.9264,0,0,0-.4545,1.0567Z"/><path class="a8c79a8c-5cf4-46f9-8435-c8947280e511" d="M429.4213,318.8713h-2.1272v-10.206h2.1272Z"/><path class="a8c79a8c-5cf4-46f9-8435-c8947280e511" d="M436.9482,318.8713h-2.0131v-.99h-.0268a2.247,2.247,0,0,1-2.0533,1.1578,2.1479,2.1479,0,0,1-1.579-.5685,2.039,2.039,0,0,1-.5754-1.5185q0-2.006,2.3765-2.3156l1.8714-.249q0-1.1312-1.2252-1.131a4.1851,4.1851,0,0,0-2.3429.7334v-1.6021a5.2871,5.2871,0,0,1,1.2151-.4041,6.4024,6.4024,0,0,1,1.4039-.175,2.6036,2.6036,0,0,1,2.9488,2.9423Zm-2-2.8006v-.4645l-1.252.1616q-1.0368.1345-1.0368.9357a.7719.7719,0,0,0,.2526.5957.9693.9693,0,0,0,.683.2323,1.26,1.26,0,0,0,.9763-.4138A1.4954,1.4954,0,0,0,434.9485,316.0707Z"/><path class="a8c79a8c-5cf4-46f9-8435-c8947280e511" d="M446.5319,315.0408a4.3847,4.3847,0,0,1-.8987,2.9687,3.2675,3.2675,0,0,1-2.602,1.03,3.7048,3.7048,0,0,1-1.4072-.2623v-2.04a2.02,2.02,0,0,0,1.2521.424q1.4881,0,1.488-2.2081v-5.7359h2.1678Z"/><path class="a8c79a8c-5cf4-46f9-8435-c8947280e511" d="M454.85,318.8713h-2.12v-1.05h-.0337a2.4061,2.4061,0,0,1-2.1073,1.2183q-2.3964,0-2.3965-2.9012v-4.1607h2.12v3.9718q0,1.4615,1.1583,1.4612a1.1447,1.1447,0,0,0,.9154-.4008,1.6144,1.6144,0,0,0,.3435-1.0872v-3.945h2.12Z"/><path class="a8c79a8c-5cf4-46f9-8435-c8947280e511" d="M463.2051,311.9775l-2.565,6.8938h-2.4237l-2.444-6.8938h2.2755l1.1984,4.248a6.1912,6.1912,0,0,1,.2356,1.2252h.0272a6.9527,6.9527,0,0,1,.2489-1.1846l1.2253-4.2886Z"/><path class="a8c79a8c-5cf4-46f9-8435-c8947280e511" d="M470.1728,316.03h-4.4973q.1079,1.5016,1.8916,1.5014a3.6943,3.6943,0,0,0,2-.5385v1.5351a5.25,5.25,0,0,1-2.4841.5113,3.2082,3.2082,0,0,1-3.5141-3.5072,3.69,3.69,0,0,1,.9962-2.72,3.32,3.32,0,0,1,2.45-1.0031,3.014,3.014,0,0,1,2.3328.8955,3.4488,3.4488,0,0,1,.8248,2.4306Zm-1.9725-1.306q0-1.481-1.1985-1.4811a1.1445,1.1445,0,0,0-.8853.4244,1.927,1.927,0,0,0-.4544,1.0567Z"/><path class="a8c79a8c-5cf4-46f9-8435-c8947280e511" d="M477.822,318.8713h-2.1207v-3.8305q0-1.6026-1.1445-1.6025a1.1349,1.1349,0,0,0-.9088.424,1.6166,1.6166,0,0,0-.357,1.0774v3.9316h-2.1272v-6.8938h2.1272v1.09h.0272a2.4373,2.4373,0,0,1,2.2145-1.259q2.2893,0,2.2893,2.8412Z"/><path class="a8c79a8c-5cf4-46f9-8435-c8947280e511" d="M483.672,318.7905a3.1439,3.1439,0,0,1-1.4205.2489q-2.2485,0-2.2483-2.3359v-3.1576h-1.1176v-1.5684h1.1176V310.49l2.12-.6059v2.0939h1.5485v1.5684h-1.5485v2.7872q0,1.0776.8553,1.0774a1.44,1.44,0,0,0,.6932-.1953Z"/><path class="a8c79a8c-5cf4-46f9-8435-c8947280e511" d="M491.4207,318.8713H489.3v-1.05h-.0338a2.406,2.406,0,0,1-2.1073,1.2183q-2.3964,0-2.3964-2.9012v-4.1607h2.12v3.9718q0,1.4615,1.1582,1.4612a1.1447,1.1447,0,0,0,.9154-.4008,1.6144,1.6144,0,0,0,.3436-1.0872v-3.945h2.12Z"/><path class="a8c79a8c-5cf4-46f9-8435-c8947280e511" d="M499.82,318.8713h-2.1272v-.9491h-.0272a2.3852,2.3852,0,0,1-2.1341,1.1172,2.6129,2.6129,0,0,1-2.08-.9121,3.7755,3.7755,0,0,1-.7875-2.5479,4.11,4.11,0,0,1,.8683-2.74,2.8328,2.8328,0,0,1,2.2754-1.03,1.9358,1.9358,0,0,1,1.858.956h.0272v-4.1H499.82Zm-2.087-3.3525V315a1.6315,1.6315,0,0,0-.39-1.1176,1.38,1.38,0,0,0-2.1207.1113,2.5784,2.5784,0,0,0-.3972,1.5249,2.2327,2.2327,0,0,0,.3838,1.4,1.3621,1.3621,0,0,0,2.1171-.0272A2.1593,2.1593,0,0,0,497.7327,315.5188Z"/><path class="ac03ba4f-31a5-44f8-a4fb-0a67dc5327ed" d="M472.0818,270.55a11.9684,11.9684,0,0,1-5.2513,1.1135,5.8113,5.8113,0,0,1-3.5531-.965,2.7447,2.7447,0,0,1-.8233-1.1877c7.8834.2225,11.9784-1.67,11.3538-6.2355-.5076-3.7114-3.9018-5.79-7.9063-5.79-7.1917,0-10.6237,5.6043-9.8621,11.1717.6955,5.0847,4.1474,7.8682,9.7845,7.8682a17.2547,17.2547,0,0,0,7.266-1.4472l-1.0082-4.5282Zm-4.4548-7.2747c.1574,1.1508-1.1661,1.7074-5.2143,1.67a3.0787,3.0787,0,0,1,3.3361-2.8951c1.0884,0,1.7866.5569,1.8731,1.1877Z"/><path class="ac03ba4f-31a5-44f8-a4fb-0a67dc5327ed" d="M434.789,286.35l5.5281-1.435a1.5814,1.5814,0,0,0,1.0969-1.389v-8.9033h.073a3.34,3.34,0,0,0,.9458.8541,5.5672,5.5672,0,0,0,1.464.6222,7.1314,7.1314,0,0,0,1.8728.2439,7.8381,7.8381,0,0,0,2.3545-.366,7.9683,7.9683,0,0,0,2.2267-1.1223,8.2555,8.2555,0,0,0,1.8607-1.9032,9.1635,9.1635,0,0,0,1.2809-2.7026,12.495,12.495,0,0,0,.4759-3.532,11.646,11.646,0,0,0-.6285-3.9041,8.87,8.87,0,0,0-1.6652-2.8855,7.3157,7.3157,0,0,0-2.3668-1.7873,6.49,6.49,0,0,0-2.7329-.61,7.8883,7.8883,0,0,0-3.3553.6833,6.5152,6.5152,0,0,0-2.5012,2.0254h-.073l-.2927-2.1648h-5.71c.0368.8419.077,1.6345.1039,2.6589s.0426,2.1423.0426,3.3491V286.35Zm6.625-20.5115c0-.1466,0-.293.006-.4334a2.1329,2.1329,0,0,1,.067-.4085,2.7333,2.7333,0,0,1,.5-1.1651,2.85,2.85,0,0,1,.94-.83,2.6515,2.6515,0,0,1,1.2322-.3112,2.7307,2.7307,0,0,1,1.7326.5611,3.2764,3.2764,0,0,1,1.037,1.5252,6.9354,6.9354,0,0,1,.3415,2.2692,6.0384,6.0384,0,0,1-.3843,2.2633,3.3469,3.3469,0,0,1-1.0981,1.4886,2.8262,2.8262,0,0,1-1.7021.5306,2.5144,2.5144,0,0,1-1.1953-.2989,2.6345,2.6345,0,0,1-.8787-.7809,2.7974,2.7974,0,0,1-.4879-1.08,5.0725,5.0725,0,0,1-.11-1.0983Z"/><path class="b0ede65f-0623-49c7-8b10-27a629594dc3" d="M429.92,293.5385a71.5107,71.5107,0,0,0,11.7369.7648c15.67-.438,29.4458-5.8432,38.1293-13.05H446.9845a1.4171,1.4171,0,0,0-1.4479.7917,6.6,6.6,0,0,0-.2631,2.35,4.0684,4.0684,0,0,1-.4352,2.0206,2.8307,2.8307,0,0,1-1.734,1.2167l-11.6532,3.1084v-7.2568c0-1.3438-.6914-2.2308-1.7954-2.2308l-28.4226-.0594C407.7949,286.9824,418.3491,291.727,429.92,293.5385Z"/><path class="b0ede65f-0623-49c7-8b10-27a629594dc3" d="M483.5487,249.4194v0h-9.011a1.52,1.52,0,0,1-1.2691-1.0045l-3.0346-8.5942.2193.1008a40.0313,40.0313,0,0,1,13.0954,9.4976Zm-84.3284,0v0c8.0958-9.2832,23.9415-15.5912,42.1612-15.5912a73.3036,73.3036,0,0,1,19.7744,2.6416l.2105.0568-4.4972,11.9916a1.6215,1.6215,0,0,1-1.45.9015H399.22Z"/><path class="ac03ba4f-31a5-44f8-a4fb-0a67dc5327ed" d="M475.7757,255.4355l0,.7011,0,13.5368a13.76,13.76,0,0,0,.114,1.84,8.4188,8.4188,0,0,0,.339,1.5221h0l.0223.0661h0c.66,1.9042,2.5923,2.8177,4.4982,3.1148a13.6507,13.6507,0,0,0,5.9641-.7293c.0795-.0262.1317-.0439.1663-.0557v0l.17-.0668-1.0149-4.4888a3.7337,3.7337,0,0,1-2.953.546c-.7337-.2019-.8806-1.2216-.8614-3.3051l.0425-4.3995.0015-.14h3.7913V258.9h-3.8129l0-.1413.0079-5.07-5.7608,1.554Z"/><path class="ac03ba4f-31a5-44f8-a4fb-0a67dc5327ed" d="M465.1311,237.0165l6.5741,18.9927c-4.383-2.6739-8.7652-2.512-13.1484,0Z"/><path class="ac03ba4f-31a5-44f8-a4fb-0a67dc5327ed" d="M430.9866,258.0741h-6.6248v10.473a3.4856,3.4856,0,0,1-.0305.5185,1.7941,1.7941,0,0,1-.1158.4331,2.5078,2.5078,0,0,1-.3966.7078,2.2,2.2,0,0,1-.6955.5857,2.1656,2.1656,0,0,1-1.0308.2439,1.9277,1.9277,0,0,1-1.7447-.909,5.0193,5.0193,0,0,1-.5613-2.6415v-9.4115h-6.6248v10.473a10.7973,10.7973,0,0,0,.7686,4.3312,5.5413,5.5413,0,0,0,2.1838,2.5987,6.537,6.537,0,0,0,3.4527.8662c1.72-.013,4.5277-.6723,5.4938-2.1768h.11l.2524,1.7742h5.71q-.0549-1.1529-.0976-2.69c-.0274-1.0248-.0488-2.1779-.0488-3.4589Z"/><path class="ac03ba4f-31a5-44f8-a4fb-0a67dc5327ed" d="M409.88,270.4771a12.7135,12.7135,0,0,1-4.2612.6416c-10.3984-.0394-8.5844-15.544,2.4087-13.1188a10.77,10.77,0,0,1,1.8881.5573l.2571-5.1751c-.0687-.019-.3208-.1019-.3934-.1209a16.15,16.15,0,0,0-2.0476-.4367,21.2479,21.2479,0,0,0-2.5389-.1461,17.6181,17.6181,0,0,0-4.2051.33,13.92,13.92,0,0,0-3.6457,1.5282,11.94,11.94,0,0,0-4.767,5.968,13.07,13.07,0,0,0-.6985,4.3334,12.6851,12.6851,0,0,0,.4795,3.5008,10.4952,10.4952,0,0,0,1.48,3.1066,10.3282,10.3282,0,0,0,2.527,2.5674,12.0186,12.0186,0,0,0,3.6278,1.649,17.622,17.622,0,0,0,4.7762.593,15.3675,15.3675,0,0,0,6.2657-.9927Z"/><line class="fd4b7399-dc47-485b-9f5c-a5c8dc14e475" x1="521.333" y1="233.8748" x2="521.333" y2="319.0394"/><rect class="b4399295-4537-4302-8ace-aa1e31838d5e" x="361.4271" y="191.3583" width="254.8704" height="18.6749"/><rect class="a8c79a8c-5cf4-46f9-8435-c8947280e511" x="361.4271" y="209.9778" width="254.8704" height="2.6528"/><path class="b4399295-4537-4302-8ace-aa1e31838d5e" d="M619.5471,205.6443v-3.1836h10.6218V201.398H619.5471v-2.1247l1.0588-1.0627H633.357v7.4337Zm2.12-8.4964,3.1881-3.1882h8.5016v3.1882Z"/><path class="b4399295-4537-4302-8ace-aa1e31838d5e" d="M634.42,204.5816V193.96h3.1829v7.439Z"/><polygon class="b4399295-4537-4302-8ace-aa1e31838d5e" points="649.287 205.644 651.969 205.631 652.475 205.125 652.475 205.106 652.475 198.211 646.099 198.211 646.099 201.398 649.287 201.398 649.287 202.461 645.57 202.461 641.848 198.739 641.848 197.148 652.475 197.148 649.292 193.96 638.665 193.96 638.665 200.336 643.974 205.644 649.287 205.644"/><polygon class="b4399295-4537-4302-8ace-aa1e31838d5e" points="656.715 206.583 656.715 197.142 653.532 193.975 653.532 205.27 652.234 206.583 619.547 206.583 622.736 209.766 653.532 209.766 656.721 206.583 656.715 206.583"/><path class="b4399295-4537-4302-8ace-aa1e31838d5e" d="M574.6667,204.98V202.56h8.0759v-.808h-8.0759v-1.6154l.8051-.808h9.6947V204.98Zm1.6121-6.46,2.4239-2.4239h6.4638V198.52Z"/><path class="b4399295-4537-4302-8ace-aa1e31838d5e" d="M585.9745,204.1721v-8.0758h2.42v5.6558Z"/><polygon class="b4399295-4537-4302-8ace-aa1e31838d5e" points="597.278 204.98 599.317 204.97 599.702 204.585 599.702 204.571 599.702 199.328 594.854 199.328 594.854 201.752 597.278 201.752 597.278 202.56 594.452 202.56 591.622 199.73 591.622 198.52 599.702 198.52 597.282 196.096 589.202 196.096 589.202 200.944 593.238 204.98 597.278 204.98"/><polygon class="b4399295-4537-4302-8ace-aa1e31838d5e" points="602.926 205.694 602.926 198.516 600.506 196.108 600.506 204.696 599.518 205.694 574.667 205.694 577.091 208.114 600.506 208.114 602.93 205.694 602.926 205.694"/><polygon class="afb6af5f-5865-4c1b-90ab-0be6588ba168" points="627.165 627.184 616.535 627.184 616.535 637.795 627.165 637.795 637.795 637.795 637.795 627.184 627.165 627.184"/><text class="a5dba543-3457-4c0f-9570-3a990c5e06c5" transform="translate(333.1791 234.6317) rotate(-90) scale(0.583)">1</text><text class="a5dba543-3457-4c0f-9570-3a990c5e06c5" transform="translate(336.1195 231.3299) rotate(-90)">/</text><text class="a5dba543-3457-4c0f-9570-3a990c5e06c5" transform="translate(336.1156 227.5438) rotate(-90) scale(0.583)">8</text><text class="a5dba543-3457-4c0f-9570-3a990c5e06c5" transform="translate(336.1195 224.242) rotate(-90)"><tspan xml:space="preserve"> a</tspan></text><text class="a5dba543-3457-4c0f-9570-3a990c5e06c5" transform="translate(342.7194 209.9735) rotate(-90) scale(0.583)">7</text><text class="a5dba543-3457-4c0f-9570-3a990c5e06c5" transform="translate(345.6598 206.6717) rotate(-90)">/</text><text class="a5dba543-3457-4c0f-9570-3a990c5e06c5" transform="translate(345.6559 202.8856) rotate(-90) scale(0.583)">8</text><text class="a5dba543-3457-4c0f-9570-3a990c5e06c5" transform="translate(345.6598 199.5838) rotate(-90)"><tspan xml:space="preserve"> a</tspan></text><polyline class="a159d5eb-aec0-4d71-84c0-a6208ca6c888" points="338.717 233.533 338.717 216.077 350.314 210.718"/><line class="a159d5eb-aec0-4d71-84c0-a6208ca6c888" x1="346.8075" y1="209.9735" x2="359.1056" y2="209.9735"/><line class="a159d5eb-aec0-4d71-84c0-a6208ca6c888" x1="346.8075" y1="191.3583" x2="359.1056" y2="191.3583"/><line class="a159d5eb-aec0-4d71-84c0-a6208ca6c888" x1="346.8075" y1="212.622" x2="359.1056" y2="212.622"/><line class="a159d5eb-aec0-4d71-84c0-a6208ca6c888" x1="350.3142" y1="209.9735" x2="350.3142" y2="191.3583"/><circle class="fbaaccab-99ff-4eb6-9743-764cbc80f564" cx="350.3142" cy="209.9735" r="0.9399"/><path class="e848475d-d994-4051-9243-c66677b10c71" d="M351.3791,209.9735a1.065,1.065,0,1,0-1.0649,1.0649,1.0662,1.0662,0,0,0,1.0649-1.0649Zm-1.88,0a.815.815,0,1,1,.815.8149.8158.8158,0,0,1-.815-.8149Z"/><circle class="fbaaccab-99ff-4eb6-9743-764cbc80f564" cx="350.3142" cy="191.3583" r="0.9399"/><path class="e848475d-d994-4051-9243-c66677b10c71" d="M351.3791,191.3583a1.065,1.065,0,1,1-1.0649-1.065,1.0662,1.0662,0,0,1,1.0649,1.065Zm-1.88,0a.815.815,0,1,0,.815-.815.8158.8158,0,0,0-.815.815Z"/><line class="a159d5eb-aec0-4d71-84c0-a6208ca6c888" x1="350.3142" y1="212.622" x2="350.3142" y2="209.9735"/><circle class="fbaaccab-99ff-4eb6-9743-764cbc80f564" cx="350.3142" cy="212.622" r="0.9399"/><path class="e848475d-d994-4051-9243-c66677b10c71" d="M351.3791,212.622a1.065,1.065,0,1,0-1.0649,1.065,1.0662,1.0662,0,0,0,1.0649-1.065Zm-1.88,0a.815.815,0,1,1,.815.815.8158.8158,0,0,1-.815-.815Z"/><circle class="fbaaccab-99ff-4eb6-9743-764cbc80f564" cx="350.3142" cy="209.9735" r="0.9399"/><path class="e848475d-d994-4051-9243-c66677b10c71" d="M351.3791,209.9735a1.065,1.065,0,1,1-1.0649-1.065,1.0662,1.0662,0,0,1,1.0649,1.065Zm-1.88,0a.815.815,0,1,0,.815-.815.8157.8157,0,0,0-.815.815Z"/><text class="a5dba543-3457-4c0f-9570-3a990c5e06c5" transform="translate(594.2867 165.412) scale(0.583)">1</text><text class="a5dba543-3457-4c0f-9570-3a990c5e06c5" transform="translate(597.5885 168.3525)">/</text><text class="a5dba543-3457-4c0f-9570-3a990c5e06c5" transform="translate(601.3746 168.3486) scale(0.583)">8</text><text class="a5dba543-3457-4c0f-9570-3a990c5e06c5" transform="translate(604.6764 168.3525)"><tspan xml:space="preserve"> a</tspan></text><polyline class="a159d5eb-aec0-4d71-84c0-a6208ca6c888" points="595.386 170.95 612.842 170.95 618.201 182.547"/><line class="a159d5eb-aec0-4d71-84c0-a6208ca6c888" x1="618.9459" y1="179.0404" x2="618.9459" y2="191.3386"/><line class="a159d5eb-aec0-4d71-84c0-a6208ca6c888" x1="616.2974" y1="179.0404" x2="616.2974" y2="191.3386"/><line class="a159d5eb-aec0-4d71-84c0-a6208ca6c888" x1="616.2973" y1="182.5471" x2="618.946" y2="182.5471"/><circle class="fbaaccab-99ff-4eb6-9743-764cbc80f564" cx="616.2973" cy="182.5471" r="0.9399"/><path class="e848475d-d994-4051-9243-c66677b10c71" d="M616.2973,183.612a1.0649,1.0649,0,1,0-1.0649-1.0649,1.0662,1.0662,0,0,0,1.0649,1.0649Zm0-1.88a.8149.8149,0,1,1-.8149.8149.8157.8157,0,0,1,.8149-.8149Z"/><circle class="fbaaccab-99ff-4eb6-9743-764cbc80f564" cx="618.946" cy="182.5471" r="0.9399"/><path class="e848475d-d994-4051-9243-c66677b10c71" d="M618.946,183.612a1.0649,1.0649,0,1,1,1.0649-1.0649,1.0661,1.0661,0,0,1-1.0649,1.0649Zm0-1.88a.8149.8149,0,1,0,.8149.8149.8156.8156,0,0,0-.8149-.8149Z"/><text class="a5dba543-3457-4c0f-9570-3a990c5e06c5" transform="translate(634.6475 165.412) scale(0.583)">1</text><text class="a5dba543-3457-4c0f-9570-3a990c5e06c5" transform="translate(637.9492 168.3525)">/</text><text class="a5dba543-3457-4c0f-9570-3a990c5e06c5" transform="translate(641.7353 168.3486) scale(0.583)">8</text><text class="a5dba543-3457-4c0f-9570-3a990c5e06c5" transform="translate(645.0371 168.3525)"><tspan xml:space="preserve"> a</tspan></text><polyline class="a159d5eb-aec0-4d71-84c0-a6208ca6c888" points="635.747 170.95 653.203 170.95 658.562 182.547"/><line class="a159d5eb-aec0-4d71-84c0-a6208ca6c888" x1="659.3068" y1="179.0404" x2="659.3068" y2="191.3386"/><line class="a159d5eb-aec0-4d71-84c0-a6208ca6c888" x1="656.6582" y1="179.0404" x2="656.6582" y2="191.3386"/><line class="a159d5eb-aec0-4d71-84c0-a6208ca6c888" x1="656.6582" y1="182.5471" x2="659.3068" y2="182.5471"/><circle class="fbaaccab-99ff-4eb6-9743-764cbc80f564" cx="656.6582" cy="182.5471" r="0.9399"/><path class="e848475d-d994-4051-9243-c66677b10c71" d="M656.6582,183.612a1.0649,1.0649,0,1,0-1.065-1.0649,1.0662,1.0662,0,0,0,1.065,1.0649Zm0-1.88a.8149.8149,0,1,1-.815.8149.8157.8157,0,0,1,.815-.8149Z"/><circle class="fbaaccab-99ff-4eb6-9743-764cbc80f564" cx="659.3068" cy="182.5471" r="0.9399"/><path class="e848475d-d994-4051-9243-c66677b10c71" d="M659.3068,183.612a1.0649,1.0649,0,1,1,1.065-1.0649,1.0662,1.0662,0,0,1-1.065,1.0649Zm0-1.88a.8149.8149,0,1,0,.815.8149.8157.8157,0,0,0-.815-.8149Z"/><text class="e5ca2a6c-456b-4cbc-894f-a62aac3fdace" transform="translate(32.2252 57.005) scale(1.0088 1)">Desar<tspan class="f6283012-51cb-4a4a-a8ef-937dde89556a" x="25.3357" y="0">r</tspan><tspan x="28.9127" y="0">ollado por</tspan></text><text class="f792e94c-5013-4d7e-b43c-54069ec9c1c5" transform="translate(32.2252 77.987) scale(1.0088 1)">Ace<tspan class="a850820f-ab5f-4979-9240-764f837835e3" x="16.3122" y="0">r</tspan><tspan class="a69b183f-b7c4-4919-8b24-b5899ce6a03c" x="19.9425" y="0">c</tspan><tspan x="24.5138" y="0">a de</tspan></text><rect class="a8c79a8c-5cf4-46f9-8435-c8947280e511" x="21.2598" y="47.8167" width="5.3056" height="10.6113"/><rect class="b4399295-4537-4302-8ace-aa1e31838d5e" x="21.2598" y="68.7983" width="5.3056" height="10.6113"/><polygon class="a32f4d74-1bf1-4fb2-97a4-736f54b1b090" points="611.22 627.184 605.906 627.184 605.906 637.795 611.22 637.795 616.535 637.795 616.535 627.184 611.22 627.184"/><path class="b4399295-4537-4302-8ace-aa1e31838d5e" d="M612.9964,628.9755a.5.5,0,0,1,0,1h-3.2353l5.1748,5.1748a.5.5,0,1,1-.707.707l-5.1748-5.1748v3.1216a.5.5,0,0,1-1,0v-4.8286Z"/><text class="bdd1dd02-3ca7-47f7-a420-06ee2d3140f2" transform="translate(382.8094 345.8189) scale(1.0088 1)">Lorem<tspan class="ede254ba-200f-4216-9b92-ff12d4c31927" x="20.1322" y="0"> </tspan><tspan x="21.7034" y="0">i</tspan><tspan class="be5768bc-483c-43a7-8586-d9e320cc56b3" x="23.4692" y="0">p</tspan><tspan x="27.4848" y="0">sum</tspan><tspan class="aebc4d40-41f2-411c-b90c-cdbc02fba890" x="40.9063" y="0"> </tspan><tspan x="42.4765" y="0">dolor</tspan><tspan class="ede254ba-200f-4216-9b92-ff12d4c31927" x="59.0927" y="0"> </tspan><tspan x="60.6639" y="0">sit</tspan><tspan class="ede254ba-200f-4216-9b92-ff12d4c31927" x="68.153" y="0"> </tspan><tspan x="69.7242" y="0">am</tspan><tspan class="e1216481-b32f-4f35-8c41-207c75a28079" x="80.0517" y="0">e</tspan><tspan x="83.7701" y="0">t,</tspan><tspan class="aebc4d40-41f2-411c-b90c-cdbc02fba890" x="88.3569" y="0"> </tspan><tspan class="e34edc1b-2f53-4a37-814b-5cd17956378f" x="89.9271" y="0">c</tspan><tspan x="93.2166" y="0">onsec</tspan><tspan class="e7a29248-a5c3-4297-abd7-c9ecaa2cab04" x="111.5173" y="0">t</tspan><tspan class="be5768bc-483c-43a7-8586-d9e320cc56b3" x="114.0488" y="0">e</tspan><tspan x="117.7682" y="0">tuer</tspan><tspan class="ede254ba-200f-4216-9b92-ff12d4c31927" x="130.9128" y="0"> </tspan><tspan x="132.484" y="0">adipiscing</tspan><tspan class="ede254ba-200f-4216-9b92-ff12d4c31927" x="164.4946" y="0"> </tspan><tspan x="166.0658" y="0">elit,</tspan><tspan class="aebc4d40-41f2-411c-b90c-cdbc02fba890" x="177.9422" y="0"> </tspan><tspan x="179.5124" y="0">sed</tspan><tspan class="ede254ba-200f-4216-9b92-ff12d4c31927" x="190.4188" y="0"> </tspan><tspan x="191.99" y="0">diam</tspan><tspan class="ede254ba-200f-4216-9b92-ff12d4c31927" x="208.1377" y="0"> </tspan><tspan x="209.7089" y="0">nonum</tspan><tspan class="b86dc873-bb30-4907-9773-8941df9d6086" x="232.1916" y="0">m</tspan><tspan x="238.3079" y="0">y </tspan><tspan x="0" y="9.6001">nibh</tspan><tspan class="a8521537-aa99-481b-bc85-466d2279b5f9" x="13.9288" y="9.6001"> </tspan><tspan x="16.4158" y="9.6001">euismod</tspan><tspan class="a8521537-aa99-481b-bc85-466d2279b5f9" x="43.462" y="9.6001"> </tspan><tspan x="45.949" y="9.6001">tincidu</tspan><tspan class="ad99b636-df50-47e1-b1de-55afb93380df" x="67.5576" y="9.6001">n</tspan><tspan x="71.5335" y="9.6001">t</tspan><tspan class="a8521537-aa99-481b-bc85-466d2279b5f9" x="74.1628" y="9.6001"> </tspan><tspan x="76.6498" y="9.6001">ut</tspan><tspan class="aa650686-0792-4fa1-8990-632b45d5d320" x="83.3335" y="9.6001"> </tspan><tspan x="85.8214" y="9.6001">laore</tspan><tspan class="be5768bc-483c-43a7-8586-d9e320cc56b3" x="102.1491" y="9.6001">e</tspan><tspan x="105.8685" y="9.6001">t</tspan><tspan class="a8521537-aa99-481b-bc85-466d2279b5f9" x="108.4978" y="9.6001"> </tspan><tspan x="110.9848" y="9.6001">dolore</tspan><tspan class="a8521537-aa99-481b-bc85-466d2279b5f9" x="131.3591" y="9.6001"> </tspan><tspan x="133.8461" y="9.6001">magna</tspan><tspan class="a8521537-aa99-481b-bc85-466d2279b5f9" x="156.3366" y="9.6001"> </tspan><tspan x="158.8236" y="9.6001">aliquam</tspan><tspan class="a8521537-aa99-481b-bc85-466d2279b5f9" x="184.8456" y="9.6001"> </tspan><tspan x="187.3326" y="9.6001">erat</tspan><tspan class="a8521537-aa99-481b-bc85-466d2279b5f9" x="200.4772" y="9.6001"> </tspan><tspan class="be5768bc-483c-43a7-8586-d9e320cc56b3" x="202.9642" y="9.6001">v</tspan><tspan x="206.3864" y="9.6001">olutpat.</tspan><tspan class="a8521537-aa99-481b-bc85-466d2279b5f9" x="231.5778" y="9.6001"> </tspan><tspan x="234.0648" y="9.6001">Ut </tspan><tspan x="0" y="19.2002">wisi</tspan><tspan class="eaa22f6f-f38c-4db6-99b6-b44dbf726e26" x="12.2153" y="19.2002"> </tspan><tspan x="14.5174" y="19.2002">enim</tspan><tspan class="b6c6cd5a-ee1f-4c13-a102-2e81378bd899" x="30.3687" y="19.2002"> </tspan><tspan x="32.6718" y="19.2002">ad</tspan><tspan class="eaa22f6f-f38c-4db6-99b6-b44dbf726e26" x="40.7805" y="19.2002"> </tspan><tspan x="43.0826" y="19.2002">minim</tspan><tspan class="eaa22f6f-f38c-4db6-99b6-b44dbf726e26" x="63.2148" y="19.2002"> </tspan><tspan x="65.5169" y="19.2002">veniam,</tspan><tspan class="b6c6cd5a-ee1f-4c13-a102-2e81378bd899" x="90.841" y="19.2002"> </tspan><tspan x="93.144" y="19.2002">quis</tspan><tspan class="eaa22f6f-f38c-4db6-99b6-b44dbf726e26" x="106.1124" y="19.2002"> </tspan><tspan x="108.4145" y="19.2002">no</tspan><tspan class="e7a29248-a5c3-4297-abd7-c9ecaa2cab04" x="116.5155" y="19.2002">s</tspan><tspan x="119.5117" y="19.2002">trud</tspan><tspan class="eaa22f6f-f38c-4db6-99b6-b44dbf726e26" x="132.9525" y="19.2002"> </tspan><tspan class="a774d48f-5ec3-4ba1-a35c-42116d964e8d" x="135.2546" y="19.2002">e</tspan><tspan class="ab017972-2b14-44f9-85e7-cd7bbd56371e" x="138.8569" y="19.2002">x</tspan><tspan x="142.0283" y="19.2002">erci</tspan><tspan class="b6c6cd5a-ee1f-4c13-a102-2e81378bd899" x="153.6027" y="19.2002"> </tspan><tspan class="b474fbe9-80d4-4890-9e8f-e9f03bbf836a" x="155.9058" y="19.2002">t</tspan><tspan x="158.4179" y="19.2002">ation</tspan><tspan class="eaa22f6f-f38c-4db6-99b6-b44dbf726e26" x="174.9053" y="19.2002"> </tspan><tspan x="177.2074" y="19.2002">ullam</tspan><tspan class="e34edc1b-2f53-4a37-814b-5cd17956378f" x="195.1208" y="19.2002">c</tspan><tspan x="198.4104" y="19.2002">orper</tspan><tspan class="eaa22f6f-f38c-4db6-99b6-b44dbf726e26" x="215.6751" y="19.2002"> </tspan><tspan x="217.9772" y="19.2002">suscipit </tspan><tspan x="0" y="28.8003">lobortis</tspan><tspan class="ee90872e-48d7-44dc-a842-bad28fb8a3bd" x="24.0423" y="28.8003"> </tspan><tspan x="25.9436" y="28.8003">nisl</tspan><tspan class="ee90872e-48d7-44dc-a842-bad28fb8a3bd" x="36.6235" y="28.8003"> </tspan><tspan x="38.5248" y="28.8003">ut</tspan><tspan class="ee90872e-48d7-44dc-a842-bad28fb8a3bd" x="45.2085" y="28.8003"> </tspan><tspan x="47.1098" y="28.8003">aliquip</tspan><tspan class="ae260222-768a-4675-b17b-5bff2603616c" x="68.6244" y="28.8003"> </tspan><tspan class="a774d48f-5ec3-4ba1-a35c-42116d964e8d" x="70.5267" y="28.8003">e</tspan><tspan x="74.129" y="28.8003">x</tspan><tspan class="ee90872e-48d7-44dc-a842-bad28fb8a3bd" x="77.4766" y="28.8003"> </tspan><tspan x="79.3779" y="28.8003">ea</tspan><tspan class="ee90872e-48d7-44dc-a842-bad28fb8a3bd" x="87.1903" y="28.8003"> </tspan><tspan class="b5037dbb-6a83-480b-b5ca-c9e7dfb7687f" x="89.0916" y="28.8003">c</tspan><tspan x="92.3802" y="28.8003">ommodo</tspan><tspan class="ee90872e-48d7-44dc-a842-bad28fb8a3bd" x="121.1206" y="28.8003"> </tspan><tspan class="e34edc1b-2f53-4a37-814b-5cd17956378f" x="123.0219" y="28.8003">c</tspan><tspan x="126.3115" y="28.8003">onsequat.</tspan><tspan class="ee90872e-48d7-44dc-a842-bad28fb8a3bd" x="158.0142" y="28.8003"> </tspan><tspan x="159.9155" y="28.8003">Duis</tspan><tspan class="ee90872e-48d7-44dc-a842-bad28fb8a3bd" x="173.6856" y="28.8003"> </tspan><tspan x="175.5869" y="28.8003">au</tspan><tspan class="e7a29248-a5c3-4297-abd7-c9ecaa2cab04" x="183.6955" y="28.8003">t</tspan><tspan x="186.2271" y="28.8003">em</tspan><tspan class="ee90872e-48d7-44dc-a842-bad28fb8a3bd" x="196.2583" y="28.8003"> </tspan><tspan x="198.1596" y="28.8003">vel</tspan><tspan class="ee90872e-48d7-44dc-a842-bad28fb8a3bd" x="207.1444" y="28.8003"> </tspan><tspan x="209.0457" y="28.8003">eum</tspan><tspan class="ae260222-768a-4675-b17b-5bff2603616c" x="223.1313" y="28.8003"> </tspan><tspan x="225.0336" y="28.8003">iriure </tspan><tspan x="0" y="38.3999">dolor in hendrerit in vulpu</tspan><tspan class="b474fbe9-80d4-4890-9e8f-e9f03bbf836a" x="82.3596" y="38.3999">t</tspan><tspan x="84.8718" y="38.3999">a</tspan><tspan class="e7a29248-a5c3-4297-abd7-c9ecaa2cab04" x="88.9261" y="38.3999">t</tspan><tspan x="91.4576" y="38.3999">e velit esse mole</tspan><tspan class="e7a29248-a5c3-4297-abd7-c9ecaa2cab04" x="143.5685" y="38.3999">s</tspan><tspan x="146.5647" y="38.3999">tie </tspan><tspan class="e34edc1b-2f53-4a37-814b-5cd17956378f" x="156.4634" y="38.3999">c</tspan><tspan x="159.7529" y="38.3999">onsequat, vel illum dolore </tspan><tspan x="0" y="48">eu</tspan><tspan class="b5aea890-5cad-4595-a1e8-96dcd070e0db" x="7.8124" y="48"> </tspan><tspan class="f5f23525-5898-43c2-9ea4-94cfd11cee67" x="9.6973" y="48">f</tspan><tspan x="11.951" y="48">eugiat</tspan><tspan class="b5aea890-5cad-4595-a1e8-96dcd070e0db" x="32.2671" y="48"> </tspan><tspan x="34.152" y="48">nulla</tspan><tspan class="b5aea890-5cad-4595-a1e8-96dcd070e0db" x="49.8465" y="48"> </tspan><tspan class="b474fbe9-80d4-4890-9e8f-e9f03bbf836a" x="51.7314" y="48">f</tspan><tspan x="54.0045" y="48">acilisis</tspan><tspan class="b5aea890-5cad-4595-a1e8-96dcd070e0db" x="74.6575" y="48"> </tspan><tspan x="76.5424" y="48">at</tspan><tspan class="b5aea890-5cad-4595-a1e8-96dcd070e0db" x="83.226" y="48"> </tspan><tspan x="85.1109" y="48">vero</tspan><tspan class="b5aea890-5cad-4595-a1e8-96dcd070e0db" x="99.0793" y="48"> </tspan><tspan x="100.9642" y="48">eros</tspan><tspan class="b5aea890-5cad-4595-a1e8-96dcd070e0db" x="114.5657" y="48"> </tspan><tspan class="e1216481-b32f-4f35-8c41-207c75a28079" x="116.4506" y="48">e</tspan><tspan x="120.169" y="48">t</tspan><tspan class="b5aea890-5cad-4595-a1e8-96dcd070e0db" x="122.7983" y="48"> </tspan><tspan x="124.6832" y="48">a</tspan><tspan class="e34edc1b-2f53-4a37-814b-5cd17956378f" x="128.7375" y="48">c</tspan><tspan x="132.027" y="48">cumsan</tspan><tspan class="b5aea890-5cad-4595-a1e8-96dcd070e0db" x="156.9048" y="48"> </tspan><tspan class="be5768bc-483c-43a7-8586-d9e320cc56b3" x="158.7897" y="48">e</tspan><tspan x="162.509" y="48">t</tspan><tspan class="b5aea890-5cad-4595-a1e8-96dcd070e0db" x="165.1384" y="48"> </tspan><tspan x="167.0232" y="48">iu</tspan><tspan class="e7a29248-a5c3-4297-abd7-c9ecaa2cab04" x="172.8433" y="48">st</tspan><tspan x="178.3711" y="48">o</tspan><tspan class="b5aea890-5cad-4595-a1e8-96dcd070e0db" x="182.4177" y="48"> </tspan><tspan x="184.3025" y="48">odio</tspan><tspan class="b5aea890-5cad-4595-a1e8-96dcd070e0db" x="198.2158" y="48"> </tspan><tspan x="200.1006" y="48">dignissim</tspan><tspan class="b5aea890-5cad-4595-a1e8-96dcd070e0db" x="230.0221" y="48"> </tspan><tspan x="231.907" y="48">qui </tspan><tspan x="0" y="57.6001">blandit</tspan><tspan class="ac7a0a20-93e4-479a-97e2-b798a152532b" x="22.3782" y="57.6001"> </tspan><tspan x="25.3608" y="57.6001">praese</tspan><tspan class="ad99b636-df50-47e1-b1de-55afb93380df" x="46.7826" y="57.6001">n</tspan><tspan x="50.7585" y="57.6001">t</tspan><tspan class="ac7a0a20-93e4-479a-97e2-b798a152532b" x="53.3878" y="57.6001"> </tspan><tspan x="56.3705" y="57.6001">lu</tspan><tspan class="be5768bc-483c-43a7-8586-d9e320cc56b3" x="62.1906" y="57.6001">p</tspan><tspan class="b474fbe9-80d4-4890-9e8f-e9f03bbf836a" x="66.2062" y="57.6001">t</tspan><tspan x="68.7183" y="57.6001">atum</tspan><tspan class="ac7a0a20-93e4-479a-97e2-b798a152532b" x="85.7295" y="57.6001"> </tspan><tspan x="88.7121" y="57.6001">zzril</tspan><tspan class="ac7a0a20-93e4-479a-97e2-b798a152532b" x="101.243" y="57.6001"> </tspan><tspan x="104.2257" y="57.6001">delenit</tspan><tspan class="ac7a0a20-93e4-479a-97e2-b798a152532b" x="126.0114" y="57.6001"> </tspan><tspan x="128.994" y="57.6001">augue</tspan><tspan class="ac7a0a20-93e4-479a-97e2-b798a152532b" x="148.9694" y="57.6001"> </tspan><tspan x="151.9521" y="57.6001">duis</tspan><tspan class="ac7a0a20-93e4-479a-97e2-b798a152532b" x="164.9205" y="57.6001"> </tspan><tspan x="167.9032" y="57.6001">dolore</tspan><tspan class="ac7a0a20-93e4-479a-97e2-b798a152532b" x="188.2775" y="57.6001"> </tspan><tspan class="e7a29248-a5c3-4297-abd7-c9ecaa2cab04" x="191.2601" y="57.6001">t</tspan><tspan x="193.7916" y="57.6001">e</tspan><tspan class="ac7a0a20-93e4-479a-97e2-b798a152532b" x="197.5497" y="57.6001"> </tspan><tspan class="f5f23525-5898-43c2-9ea4-94cfd11cee67" x="200.5324" y="57.6001">f</tspan><tspan x="202.7861" y="57.6001">eugait</tspan><tspan class="ac7a0a20-93e4-479a-97e2-b798a152532b" x="223.1023" y="57.6001"> </tspan><tspan x="226.0849" y="57.6001">nulla </tspan><tspan class="b474fbe9-80d4-4890-9e8f-e9f03bbf836a" x="0" y="67.2002">f</tspan><tspan x="2.2731" y="67.2002">acilisi.</tspan><tspan x="0" y="76.7998">Lorem</tspan><tspan class="a8de48c3-572e-4be2-a6aa-55d7e964100e" x="20.1322" y="76.7998"> </tspan><tspan x="22.2097" y="76.7998">i</tspan><tspan class="be5768bc-483c-43a7-8586-d9e320cc56b3" x="23.9755" y="76.7998">p</tspan><tspan x="27.9911" y="76.7998">sum</tspan><tspan class="a8de48c3-572e-4be2-a6aa-55d7e964100e" x="41.4126" y="76.7998"> </tspan><tspan x="43.4901" y="76.7998">dolor</tspan><tspan class="a8de48c3-572e-4be2-a6aa-55d7e964100e" x="60.1063" y="76.7998"> </tspan><tspan x="62.1838" y="76.7998">sit</tspan><tspan class="a8de48c3-572e-4be2-a6aa-55d7e964100e" x="69.6729" y="76.7998"> </tspan><tspan x="71.7504" y="76.7998">am</tspan><tspan class="e1216481-b32f-4f35-8c41-207c75a28079" x="82.0779" y="76.7998">e</tspan><tspan x="85.7963" y="76.7998">t,</tspan><tspan class="a8de48c3-572e-4be2-a6aa-55d7e964100e" x="90.3831" y="76.7998"> </tspan><tspan class="e34edc1b-2f53-4a37-814b-5cd17956378f" x="92.4606" y="76.7998">c</tspan><tspan x="95.7501" y="76.7998">ons</tspan><tspan class="a8de48c3-572e-4be2-a6aa-55d7e964100e" x="106.945" y="76.7998"> </tspan><tspan x="109.0225" y="76.7998">ec</tspan><tspan class="e7a29248-a5c3-4297-abd7-c9ecaa2cab04" x="116.1282" y="76.7998">t</tspan><tspan class="be5768bc-483c-43a7-8586-d9e320cc56b3" x="118.6598" y="76.7998">e</tspan><tspan x="122.3791" y="76.7998">tuer</tspan><tspan class="a8de48c3-572e-4be2-a6aa-55d7e964100e" x="135.5238" y="76.7998"> </tspan><tspan x="137.6013" y="76.7998">adipiscing</tspan><tspan class="a8de48c3-572e-4be2-a6aa-55d7e964100e" x="169.6119" y="76.7998"> </tspan><tspan x="171.6894" y="76.7998">elit,</tspan><tspan class="a8de48c3-572e-4be2-a6aa-55d7e964100e" x="183.5658" y="76.7998"> </tspan><tspan x="185.6433" y="76.7998">sed</tspan><tspan class="a8de48c3-572e-4be2-a6aa-55d7e964100e" x="196.5497" y="76.7998"> </tspan><tspan x="198.6272" y="76.7998">diam</tspan><tspan class="a8de48c3-572e-4be2-a6aa-55d7e964100e" x="214.7748" y="76.7998"> </tspan><tspan x="216.8523" y="76.7998">nonum</tspan><tspan x="239.3351" y="76.7998">-</tspan><tspan class="a774d48f-5ec3-4ba1-a35c-42116d964e8d" x="0" y="86.4004">m</tspan><tspan x="6.1173" y="86.4004">y</tspan><tspan class="f92a07b6-9a1a-4ef7-9f21-2aabd2eea1c7" x="9.5937" y="86.4004"> </tspan><tspan x="11.8929" y="86.4004">nibh</tspan><tspan class="f92a07b6-9a1a-4ef7-9f21-2aabd2eea1c7" x="25.8217" y="86.4004"> </tspan><tspan x="28.1208" y="86.4004">euismod</tspan><tspan class="f92a07b6-9a1a-4ef7-9f21-2aabd2eea1c7" x="55.1671" y="86.4004"> </tspan><tspan x="57.4663" y="86.4004">tincidu</tspan><tspan class="ad99b636-df50-47e1-b1de-55afb93380df" x="79.0749" y="86.4004">n</tspan><tspan x="83.0508" y="86.4004">t</tspan><tspan class="f92a07b6-9a1a-4ef7-9f21-2aabd2eea1c7" x="85.6801" y="86.4004"> </tspan><tspan x="87.9793" y="86.4004">ut</tspan><tspan class="f92a07b6-9a1a-4ef7-9f21-2aabd2eea1c7" x="94.6629" y="86.4004"> </tspan><tspan x="96.9621" y="86.4004">laore</tspan><tspan class="be5768bc-483c-43a7-8586-d9e320cc56b3" x="113.2898" y="86.4004">e</tspan><tspan x="117.0092" y="86.4004">t</tspan><tspan class="f4578d3c-7aa7-4d53-8307-e3c27eea8af7" x="119.6385" y="86.4004"> </tspan><tspan x="121.9387" y="86.4004">dolore</tspan><tspan class="f92a07b6-9a1a-4ef7-9f21-2aabd2eea1c7" x="142.3129" y="86.4004"> </tspan><tspan x="144.6121" y="86.4004">magna</tspan><tspan class="f92a07b6-9a1a-4ef7-9f21-2aabd2eea1c7" x="167.1026" y="86.4004"> </tspan><tspan x="169.4018" y="86.4004">aliquam</tspan><tspan class="f92a07b6-9a1a-4ef7-9f21-2aabd2eea1c7" x="195.4238" y="86.4004"> </tspan><tspan x="197.723" y="86.4004">erat</tspan><tspan class="f92a07b6-9a1a-4ef7-9f21-2aabd2eea1c7" x="210.8676" y="86.4004"> </tspan><tspan class="e1216481-b32f-4f35-8c41-207c75a28079" x="213.1668" y="86.4004">v</tspan><tspan x="216.588" y="86.4004">olutpat. </tspan><tspan x="0" y="96">Ut</tspan><tspan class="afcb06ca-4fd0-4143-a61b-db00b78fe1b2" x="7.7156" y="96"> </tspan><tspan x="11.6267" y="96">wisi</tspan><tspan class="afcb06ca-4fd0-4143-a61b-db00b78fe1b2" x="23.8419" y="96"> </tspan><tspan x="27.753" y="96">enim</tspan><tspan class="afcb06ca-4fd0-4143-a61b-db00b78fe1b2" x="43.6044" y="96"> </tspan><tspan x="47.5154" y="96">ad</tspan><tspan class="b420aa44-d7a4-421f-893d-acd4cf4cef58" x="55.6241" y="96"> </tspan><tspan x="59.5361" y="96">minim</tspan><tspan class="afcb06ca-4fd0-4143-a61b-db00b78fe1b2" x="79.6683" y="96"> </tspan><tspan x="83.5794" y="96">veniam,</tspan><tspan class="afcb06ca-4fd0-4143-a61b-db00b78fe1b2" x="108.9034" y="96"> </tspan><tspan x="112.8145" y="96">quis</tspan><tspan class="afcb06ca-4fd0-4143-a61b-db00b78fe1b2" x="125.7829" y="96"> </tspan><tspan x="129.694" y="96">no</tspan><tspan class="e7a29248-a5c3-4297-abd7-c9ecaa2cab04" x="137.7949" y="96">s</tspan><tspan x="140.7911" y="96">trud</tspan><tspan class="afcb06ca-4fd0-4143-a61b-db00b78fe1b2" x="154.2319" y="96"> </tspan><tspan class="a774d48f-5ec3-4ba1-a35c-42116d964e8d" x="158.143" y="96">e</tspan><tspan class="ab017972-2b14-44f9-85e7-cd7bbd56371e" x="161.7452" y="96">x</tspan><tspan x="164.9167" y="96">erci</tspan><tspan class="afcb06ca-4fd0-4143-a61b-db00b78fe1b2" x="176.4911" y="96"> </tspan><tspan class="b474fbe9-80d4-4890-9e8f-e9f03bbf836a" x="180.4021" y="96">t</tspan><tspan x="182.9143" y="96">ation</tspan><tspan class="afcb06ca-4fd0-4143-a61b-db00b78fe1b2" x="199.4017" y="96"> </tspan><tspan x="203.3127" y="96">ullam</tspan><tspan class="e34edc1b-2f53-4a37-814b-5cd17956378f" x="221.2261" y="96">c</tspan><tspan x="224.5157" y="96">orper </tspan><tspan x="0" y="105.6006">suscipit lobortis nisl ut aliquip </tspan><tspan class="a774d48f-5ec3-4ba1-a35c-42116d964e8d" x="95.7675" y="105.6006">e</tspan><tspan x="99.3698" y="105.6006">x ea </tspan><tspan class="b5037dbb-6a83-480b-b5ca-c9e7dfb7687f" x="114.1466" y="105.6006">c</tspan><tspan x="117.4351" y="105.6006">ommodo </tspan><tspan class="e34edc1b-2f53-4a37-814b-5cd17956378f" x="147.9839" y="105.6006">c</tspan><tspan x="151.2735" y="105.6006">onsequat.</tspan><tspan x="0" y="115.2002">Lorem</tspan><tspan class="ede254ba-200f-4216-9b92-ff12d4c31927" x="20.1322" y="115.2002"> </tspan><tspan x="21.7034" y="115.2002">i</tspan><tspan class="be5768bc-483c-43a7-8586-d9e320cc56b3" x="23.4692" y="115.2002">p</tspan><tspan x="27.4848" y="115.2002">sum</tspan><tspan class="aebc4d40-41f2-411c-b90c-cdbc02fba890" x="40.9063" y="115.2002"> </tspan><tspan x="42.4765" y="115.2002">dolor</tspan><tspan class="ede254ba-200f-4216-9b92-ff12d4c31927" x="59.0927" y="115.2002"> </tspan><tspan x="60.6639" y="115.2002">sit</tspan><tspan class="ede254ba-200f-4216-9b92-ff12d4c31927" x="68.153" y="115.2002"> </tspan><tspan x="69.7242" y="115.2002">am</tspan><tspan class="e1216481-b32f-4f35-8c41-207c75a28079" x="80.0517" y="115.2002">e</tspan><tspan x="83.7701" y="115.2002">t,</tspan><tspan class="aebc4d40-41f2-411c-b90c-cdbc02fba890" x="88.3569" y="115.2002"> </tspan><tspan class="e34edc1b-2f53-4a37-814b-5cd17956378f" x="89.9271" y="115.2002">c</tspan><tspan x="93.2166" y="115.2002">onsec</tspan><tspan class="e7a29248-a5c3-4297-abd7-c9ecaa2cab04" x="111.5173" y="115.2002">t</tspan><tspan class="be5768bc-483c-43a7-8586-d9e320cc56b3" x="114.0488" y="115.2002">e</tspan><tspan x="117.7682" y="115.2002">tuer</tspan><tspan class="ede254ba-200f-4216-9b92-ff12d4c31927" x="130.9128" y="115.2002"> </tspan><tspan x="132.484" y="115.2002">adipiscing</tspan><tspan class="ede254ba-200f-4216-9b92-ff12d4c31927" x="164.4946" y="115.2002"> </tspan><tspan x="166.0658" y="115.2002">elit,</tspan><tspan class="aebc4d40-41f2-411c-b90c-cdbc02fba890" x="177.9422" y="115.2002"> </tspan><tspan x="179.5124" y="115.2002">sed</tspan><tspan class="ede254ba-200f-4216-9b92-ff12d4c31927" x="190.4188" y="115.2002"> </tspan><tspan x="191.99" y="115.2002">diam</tspan><tspan class="ede254ba-200f-4216-9b92-ff12d4c31927" x="208.1377" y="115.2002"> </tspan><tspan x="209.7089" y="115.2002">nonum</tspan><tspan class="b86dc873-bb30-4907-9773-8941df9d6086" x="232.1916" y="115.2002">m</tspan><tspan x="238.3079" y="115.2002">y </tspan><tspan x="0" y="124.7998">nibh</tspan><tspan class="a8521537-aa99-481b-bc85-466d2279b5f9" x="13.9288" y="124.7998"> </tspan><tspan x="16.4158" y="124.7998">euismod</tspan><tspan class="a8521537-aa99-481b-bc85-466d2279b5f9" x="43.462" y="124.7998"> </tspan><tspan x="45.949" y="124.7998">tincidu</tspan><tspan class="ad99b636-df50-47e1-b1de-55afb93380df" x="67.5576" y="124.7998">n</tspan><tspan x="71.5335" y="124.7998">t</tspan><tspan class="a8521537-aa99-481b-bc85-466d2279b5f9" x="74.1628" y="124.7998"> </tspan><tspan x="76.6498" y="124.7998">ut</tspan><tspan class="aa650686-0792-4fa1-8990-632b45d5d320" x="83.3335" y="124.7998"> </tspan><tspan x="85.8214" y="124.7998">laore</tspan><tspan class="be5768bc-483c-43a7-8586-d9e320cc56b3" x="102.1491" y="124.7998">e</tspan><tspan x="105.8685" y="124.7998">t</tspan><tspan class="a8521537-aa99-481b-bc85-466d2279b5f9" x="108.4978" y="124.7998"> </tspan><tspan x="110.9848" y="124.7998">dolore</tspan><tspan class="a8521537-aa99-481b-bc85-466d2279b5f9" x="131.3591" y="124.7998"> </tspan><tspan x="133.8461" y="124.7998">magna</tspan><tspan class="a8521537-aa99-481b-bc85-466d2279b5f9" x="156.3366" y="124.7998"> </tspan><tspan x="158.8236" y="124.7998">aliquam</tspan><tspan class="a8521537-aa99-481b-bc85-466d2279b5f9" x="184.8456" y="124.7998"> </tspan><tspan x="187.3326" y="124.7998">erat</tspan><tspan class="a8521537-aa99-481b-bc85-466d2279b5f9" x="200.4772" y="124.7998"> </tspan><tspan class="be5768bc-483c-43a7-8586-d9e320cc56b3" x="202.9642" y="124.7998">v</tspan><tspan x="206.3864" y="124.7998">olutpat.</tspan><tspan class="a8521537-aa99-481b-bc85-466d2279b5f9" x="231.5778" y="124.7998"> </tspan><tspan x="234.0648" y="124.7998">Ut </tspan><tspan x="0" y="134.4004">wisi</tspan><tspan class="eaa22f6f-f38c-4db6-99b6-b44dbf726e26" x="12.2153" y="134.4004"> </tspan><tspan x="14.5174" y="134.4004">enim</tspan><tspan class="b6c6cd5a-ee1f-4c13-a102-2e81378bd899" x="30.3687" y="134.4004"> </tspan><tspan x="32.6718" y="134.4004">ad</tspan><tspan class="eaa22f6f-f38c-4db6-99b6-b44dbf726e26" x="40.7805" y="134.4004"> </tspan><tspan x="43.0826" y="134.4004">minim</tspan><tspan class="eaa22f6f-f38c-4db6-99b6-b44dbf726e26" x="63.2148" y="134.4004"> </tspan><tspan x="65.5169" y="134.4004">veniam,</tspan><tspan class="b6c6cd5a-ee1f-4c13-a102-2e81378bd899" x="90.841" y="134.4004"> </tspan><tspan x="93.144" y="134.4004">quis</tspan><tspan class="eaa22f6f-f38c-4db6-99b6-b44dbf726e26" x="106.1124" y="134.4004"> </tspan><tspan x="108.4145" y="134.4004">no</tspan><tspan class="e7a29248-a5c3-4297-abd7-c9ecaa2cab04" x="116.5155" y="134.4004">s</tspan><tspan x="119.5117" y="134.4004">trud</tspan><tspan class="eaa22f6f-f38c-4db6-99b6-b44dbf726e26" x="132.9525" y="134.4004"> </tspan><tspan class="a774d48f-5ec3-4ba1-a35c-42116d964e8d" x="135.2546" y="134.4004">e</tspan><tspan class="ab017972-2b14-44f9-85e7-cd7bbd56371e" x="138.8569" y="134.4004">x</tspan><tspan x="142.0283" y="134.4004">erci</tspan><tspan class="b6c6cd5a-ee1f-4c13-a102-2e81378bd899" x="153.6027" y="134.4004"> </tspan><tspan class="b474fbe9-80d4-4890-9e8f-e9f03bbf836a" x="155.9058" y="134.4004">t</tspan><tspan x="158.4179" y="134.4004">ation</tspan><tspan class="eaa22f6f-f38c-4db6-99b6-b44dbf726e26" x="174.9053" y="134.4004"> </tspan><tspan x="177.2074" y="134.4004">ullam</tspan><tspan class="e34edc1b-2f53-4a37-814b-5cd17956378f" x="195.1208" y="134.4004">c</tspan><tspan x="198.4104" y="134.4004">orper</tspan><tspan class="eaa22f6f-f38c-4db6-99b6-b44dbf726e26" x="215.6751" y="134.4004"> </tspan><tspan x="217.9772" y="134.4004">suscipit </tspan><tspan x="0" y="144">lobortis</tspan><tspan class="ee90872e-48d7-44dc-a842-bad28fb8a3bd" x="24.0423" y="144"> </tspan><tspan x="25.9436" y="144">nisl</tspan><tspan class="ee90872e-48d7-44dc-a842-bad28fb8a3bd" x="36.6235" y="144"> </tspan><tspan x="38.5248" y="144">ut</tspan><tspan class="ee90872e-48d7-44dc-a842-bad28fb8a3bd" x="45.2085" y="144"> </tspan><tspan x="47.1098" y="144">aliquip</tspan><tspan class="ae260222-768a-4675-b17b-5bff2603616c" x="68.6244" y="144"> </tspan><tspan class="a774d48f-5ec3-4ba1-a35c-42116d964e8d" x="70.5267" y="144">e</tspan><tspan x="74.129" y="144">x</tspan><tspan class="ee90872e-48d7-44dc-a842-bad28fb8a3bd" x="77.4766" y="144"> </tspan><tspan x="79.3779" y="144">ea</tspan><tspan class="ee90872e-48d7-44dc-a842-bad28fb8a3bd" x="87.1903" y="144"> </tspan><tspan class="b5037dbb-6a83-480b-b5ca-c9e7dfb7687f" x="89.0916" y="144">c</tspan><tspan x="92.3802" y="144">ommodo</tspan><tspan class="ee90872e-48d7-44dc-a842-bad28fb8a3bd" x="121.1206" y="144"> </tspan><tspan class="e34edc1b-2f53-4a37-814b-5cd17956378f" x="123.0219" y="144">c</tspan><tspan x="126.3115" y="144">onsequat.</tspan><tspan class="ee90872e-48d7-44dc-a842-bad28fb8a3bd" x="158.0142" y="144"> </tspan><tspan x="159.9155" y="144">Duis</tspan><tspan class="ee90872e-48d7-44dc-a842-bad28fb8a3bd" x="173.6856" y="144"> </tspan><tspan x="175.5869" y="144">au</tspan><tspan class="e7a29248-a5c3-4297-abd7-c9ecaa2cab04" x="183.6955" y="144">t</tspan><tspan x="186.2271" y="144">em</tspan><tspan class="ee90872e-48d7-44dc-a842-bad28fb8a3bd" x="196.2583" y="144"> </tspan><tspan x="198.1596" y="144">vel</tspan><tspan class="ee90872e-48d7-44dc-a842-bad28fb8a3bd" x="207.1444" y="144"> </tspan><tspan x="209.0457" y="144">eum</tspan><tspan class="ae260222-768a-4675-b17b-5bff2603616c" x="223.1313" y="144"> </tspan><tspan x="225.0336" y="144">iriure </tspan><tspan x="0" y="153.6006">dolor in hendrerit in vulpu</tspan><tspan class="b474fbe9-80d4-4890-9e8f-e9f03bbf836a" x="82.3596" y="153.6006">t</tspan><tspan x="84.8718" y="153.6006">a</tspan><tspan class="e7a29248-a5c3-4297-abd7-c9ecaa2cab04" x="88.9261" y="153.6006">t</tspan><tspan x="91.4576" y="153.6006">e velit esse mole</tspan><tspan class="e7a29248-a5c3-4297-abd7-c9ecaa2cab04" x="143.5685" y="153.6006">s</tspan><tspan x="146.5647" y="153.6006">tie </tspan><tspan class="e34edc1b-2f53-4a37-814b-5cd17956378f" x="156.4634" y="153.6006">c</tspan><tspan x="159.7529" y="153.6006">onsequat, vel illum dolore </tspan><tspan x="0" y="163.2002">eu</tspan><tspan class="b5aea890-5cad-4595-a1e8-96dcd070e0db" x="7.8124" y="163.2002"> </tspan><tspan class="f5f23525-5898-43c2-9ea4-94cfd11cee67" x="9.6973" y="163.2002">f</tspan><tspan x="11.951" y="163.2002">eugiat</tspan><tspan class="b5aea890-5cad-4595-a1e8-96dcd070e0db" x="32.2671" y="163.2002"> </tspan><tspan x="34.152" y="163.2002">nulla</tspan><tspan class="b5aea890-5cad-4595-a1e8-96dcd070e0db" x="49.8465" y="163.2002"> </tspan><tspan class="b474fbe9-80d4-4890-9e8f-e9f03bbf836a" x="51.7314" y="163.2002">f</tspan><tspan x="54.0045" y="163.2002">acilisis</tspan><tspan class="b5aea890-5cad-4595-a1e8-96dcd070e0db" x="74.6575" y="163.2002"> </tspan><tspan x="76.5424" y="163.2002">at</tspan><tspan class="b5aea890-5cad-4595-a1e8-96dcd070e0db" x="83.226" y="163.2002"> </tspan><tspan x="85.1109" y="163.2002">vero</tspan><tspan class="b5aea890-5cad-4595-a1e8-96dcd070e0db" x="99.0793" y="163.2002"> </tspan><tspan x="100.9642" y="163.2002">eros</tspan><tspan class="b5aea890-5cad-4595-a1e8-96dcd070e0db" x="114.5657" y="163.2002"> </tspan><tspan class="e1216481-b32f-4f35-8c41-207c75a28079" x="116.4506" y="163.2002">e</tspan><tspan x="120.169" y="163.2002">t</tspan><tspan class="b5aea890-5cad-4595-a1e8-96dcd070e0db" x="122.7983" y="163.2002"> </tspan><tspan x="124.6832" y="163.2002">a</tspan><tspan class="e34edc1b-2f53-4a37-814b-5cd17956378f" x="128.7375" y="163.2002">c</tspan><tspan x="132.027" y="163.2002">cumsan</tspan><tspan class="b5aea890-5cad-4595-a1e8-96dcd070e0db" x="156.9048" y="163.2002"> </tspan><tspan class="be5768bc-483c-43a7-8586-d9e320cc56b3" x="158.7897" y="163.2002">e</tspan><tspan x="162.509" y="163.2002">t</tspan><tspan class="b5aea890-5cad-4595-a1e8-96dcd070e0db" x="165.1384" y="163.2002"> </tspan><tspan x="167.0232" y="163.2002">iu</tspan><tspan class="e7a29248-a5c3-4297-abd7-c9ecaa2cab04" x="172.8433" y="163.2002">st</tspan><tspan x="178.3711" y="163.2002">o</tspan><tspan class="b5aea890-5cad-4595-a1e8-96dcd070e0db" x="182.4177" y="163.2002"> </tspan><tspan x="184.3025" y="163.2002">odio</tspan><tspan class="b5aea890-5cad-4595-a1e8-96dcd070e0db" x="198.2158" y="163.2002"> </tspan><tspan x="200.1006" y="163.2002">dignissim</tspan><tspan class="b5aea890-5cad-4595-a1e8-96dcd070e0db" x="230.0221" y="163.2002"> </tspan><tspan x="231.907" y="163.2002">qui </tspan><tspan x="0" y="172.7998">blandit</tspan><tspan class="ac7a0a20-93e4-479a-97e2-b798a152532b" x="22.3782" y="172.7998"> </tspan><tspan x="25.3608" y="172.7998">praese</tspan><tspan class="ad99b636-df50-47e1-b1de-55afb93380df" x="46.7826" y="172.7998">n</tspan><tspan x="50.7585" y="172.7998">t</tspan><tspan class="ac7a0a20-93e4-479a-97e2-b798a152532b" x="53.3878" y="172.7998"> </tspan><tspan x="56.3705" y="172.7998">lu</tspan><tspan class="be5768bc-483c-43a7-8586-d9e320cc56b3" x="62.1906" y="172.7998">p</tspan><tspan class="b474fbe9-80d4-4890-9e8f-e9f03bbf836a" x="66.2062" y="172.7998">t</tspan><tspan x="68.7183" y="172.7998">atum</tspan><tspan class="ac7a0a20-93e4-479a-97e2-b798a152532b" x="85.7295" y="172.7998"> </tspan><tspan x="88.7121" y="172.7998">zzril</tspan><tspan class="ac7a0a20-93e4-479a-97e2-b798a152532b" x="101.243" y="172.7998"> </tspan><tspan x="104.2257" y="172.7998">delenit</tspan><tspan class="ac7a0a20-93e4-479a-97e2-b798a152532b" x="126.0114" y="172.7998"> </tspan><tspan x="128.994" y="172.7998">augue</tspan><tspan class="ac7a0a20-93e4-479a-97e2-b798a152532b" x="148.9694" y="172.7998"> </tspan><tspan x="151.9521" y="172.7998">duis</tspan><tspan class="ac7a0a20-93e4-479a-97e2-b798a152532b" x="164.9205" y="172.7998"> </tspan><tspan x="167.9032" y="172.7998">dolore</tspan><tspan class="ac7a0a20-93e4-479a-97e2-b798a152532b" x="188.2775" y="172.7998"> </tspan><tspan class="e7a29248-a5c3-4297-abd7-c9ecaa2cab04" x="191.2601" y="172.7998">t</tspan><tspan x="193.7916" y="172.7998">e</tspan><tspan class="ac7a0a20-93e4-479a-97e2-b798a152532b" x="197.5497" y="172.7998"> </tspan><tspan class="f5f23525-5898-43c2-9ea4-94cfd11cee67" x="200.5324" y="172.7998">f</tspan><tspan x="202.7861" y="172.7998">eugait</tspan><tspan class="ac7a0a20-93e4-479a-97e2-b798a152532b" x="223.1023" y="172.7998"> </tspan><tspan x="226.0849" y="172.7998">nulla </tspan><tspan class="b474fbe9-80d4-4890-9e8f-e9f03bbf836a" x="0" y="182.4004">f</tspan><tspan x="2.2731" y="182.4004">acilisiea </tspan><tspan class="b5037dbb-6a83-480b-b5ca-c9e7dfb7687f" x="29.4529" y="182.4004">c</tspan><tspan x="32.7415" y="182.4004">ommodo </tspan><tspan class="e34edc1b-2f53-4a37-814b-5cd17956378f" x="63.2903" y="182.4004">c</tspan><tspan x="66.5798" y="182.4004">onsequat.</tspan><tspan x="0" y="192">Lorem</tspan><tspan class="ede254ba-200f-4216-9b92-ff12d4c31927" x="20.1322" y="192"> </tspan><tspan x="21.7034" y="192">i</tspan><tspan class="be5768bc-483c-43a7-8586-d9e320cc56b3" x="23.4692" y="192">p</tspan><tspan x="27.4848" y="192">sum</tspan><tspan class="aebc4d40-41f2-411c-b90c-cdbc02fba890" x="40.9063" y="192"> </tspan><tspan x="42.4765" y="192">dolor</tspan><tspan class="ede254ba-200f-4216-9b92-ff12d4c31927" x="59.0927" y="192"> </tspan><tspan x="60.6639" y="192">sit</tspan><tspan class="ede254ba-200f-4216-9b92-ff12d4c31927" x="68.153" y="192"> </tspan><tspan x="69.7242" y="192">am</tspan><tspan class="e1216481-b32f-4f35-8c41-207c75a28079" x="80.0517" y="192">e</tspan><tspan x="83.7701" y="192">t,</tspan><tspan class="aebc4d40-41f2-411c-b90c-cdbc02fba890" x="88.3569" y="192"> </tspan><tspan class="e34edc1b-2f53-4a37-814b-5cd17956378f" x="89.9271" y="192">c</tspan><tspan x="93.2166" y="192">onsec</tspan><tspan class="e7a29248-a5c3-4297-abd7-c9ecaa2cab04" x="111.5173" y="192">t</tspan><tspan class="be5768bc-483c-43a7-8586-d9e320cc56b3" x="114.0488" y="192">e</tspan><tspan x="117.7682" y="192">tuer</tspan><tspan class="ede254ba-200f-4216-9b92-ff12d4c31927" x="130.9128" y="192"> </tspan><tspan x="132.484" y="192">adipiscing</tspan><tspan class="ede254ba-200f-4216-9b92-ff12d4c31927" x="164.4946" y="192"> </tspan><tspan x="166.0658" y="192">elit,</tspan><tspan class="aebc4d40-41f2-411c-b90c-cdbc02fba890" x="177.9422" y="192"> </tspan><tspan x="179.5124" y="192">sed</tspan><tspan class="ede254ba-200f-4216-9b92-ff12d4c31927" x="190.4188" y="192"> </tspan><tspan x="191.99" y="192">diam</tspan><tspan class="ede254ba-200f-4216-9b92-ff12d4c31927" x="208.1377" y="192"> </tspan><tspan x="209.7089" y="192">nonum</tspan><tspan class="b86dc873-bb30-4907-9773-8941df9d6086" x="232.1916" y="192">m</tspan><tspan x="238.3079" y="192">y </tspan><tspan x="0" y="201.6006">nibh.</tspan><tspan x="0" y="220.7998">Lorem</tspan><tspan class="ede254ba-200f-4216-9b92-ff12d4c31927" x="20.1322" y="220.7998"> </tspan><tspan x="21.7034" y="220.7998">i</tspan><tspan class="be5768bc-483c-43a7-8586-d9e320cc56b3" x="23.4692" y="220.7998">p</tspan><tspan x="27.4848" y="220.7998">sum</tspan><tspan class="aebc4d40-41f2-411c-b90c-cdbc02fba890" x="40.9063" y="220.7998"> </tspan><tspan x="42.4765" y="220.7998">dolor</tspan><tspan class="ede254ba-200f-4216-9b92-ff12d4c31927" x="59.0927" y="220.7998"> </tspan><tspan x="60.6639" y="220.7998">sit</tspan><tspan class="ede254ba-200f-4216-9b92-ff12d4c31927" x="68.153" y="220.7998"> </tspan><tspan x="69.7242" y="220.7998">am</tspan><tspan class="e1216481-b32f-4f35-8c41-207c75a28079" x="80.0517" y="220.7998">e</tspan><tspan x="83.7701" y="220.7998">t,</tspan><tspan class="aebc4d40-41f2-411c-b90c-cdbc02fba890" x="88.3569" y="220.7998"> </tspan><tspan class="e34edc1b-2f53-4a37-814b-5cd17956378f" x="89.9271" y="220.7998">c</tspan><tspan x="93.2166" y="220.7998">onsec</tspan><tspan class="e7a29248-a5c3-4297-abd7-c9ecaa2cab04" x="111.5173" y="220.7998">t</tspan><tspan class="be5768bc-483c-43a7-8586-d9e320cc56b3" x="114.0488" y="220.7998">e</tspan><tspan x="117.7682" y="220.7998">tuer</tspan><tspan class="ede254ba-200f-4216-9b92-ff12d4c31927" x="130.9128" y="220.7998"> </tspan><tspan x="132.484" y="220.7998">adipiscing</tspan><tspan class="ede254ba-200f-4216-9b92-ff12d4c31927" x="164.4946" y="220.7998"> </tspan><tspan x="166.0658" y="220.7998">elit,</tspan><tspan class="aebc4d40-41f2-411c-b90c-cdbc02fba890" x="177.9422" y="220.7998"> </tspan><tspan x="179.5124" y="220.7998">sed</tspan><tspan class="ede254ba-200f-4216-9b92-ff12d4c31927" x="190.4188" y="220.7998"> </tspan><tspan x="191.99" y="220.7998">diam</tspan><tspan class="ede254ba-200f-4216-9b92-ff12d4c31927" x="208.1377" y="220.7998"> </tspan><tspan x="209.7089" y="220.7998">nonum</tspan><tspan class="b86dc873-bb30-4907-9773-8941df9d6086" x="232.1916" y="220.7998">m</tspan><tspan x="238.3079" y="220.7998">y </tspan><tspan x="0" y="230.4004">nibh</tspan><tspan class="a8521537-aa99-481b-bc85-466d2279b5f9" x="13.9288" y="230.4004"> </tspan><tspan x="16.4158" y="230.4004">euismod</tspan><tspan class="a8521537-aa99-481b-bc85-466d2279b5f9" x="43.462" y="230.4004"> </tspan><tspan x="45.949" y="230.4004">tincidu</tspan><tspan class="ad99b636-df50-47e1-b1de-55afb93380df" x="67.5576" y="230.4004">n</tspan><tspan x="71.5335" y="230.4004">t</tspan><tspan class="a8521537-aa99-481b-bc85-466d2279b5f9" x="74.1628" y="230.4004"> </tspan><tspan x="76.6498" y="230.4004">ut</tspan><tspan class="aa650686-0792-4fa1-8990-632b45d5d320" x="83.3335" y="230.4004"> </tspan><tspan x="85.8214" y="230.4004">laore</tspan><tspan class="be5768bc-483c-43a7-8586-d9e320cc56b3" x="102.1491" y="230.4004">e</tspan><tspan x="105.8685" y="230.4004">t</tspan><tspan class="a8521537-aa99-481b-bc85-466d2279b5f9" x="108.4978" y="230.4004"> </tspan><tspan x="110.9848" y="230.4004">dolore</tspan><tspan class="a8521537-aa99-481b-bc85-466d2279b5f9" x="131.3591" y="230.4004"> </tspan><tspan x="133.8461" y="230.4004">magna</tspan><tspan class="a8521537-aa99-481b-bc85-466d2279b5f9" x="156.3366" y="230.4004"> </tspan><tspan x="158.8236" y="230.4004">aliquam</tspan><tspan class="a8521537-aa99-481b-bc85-466d2279b5f9" x="184.8456" y="230.4004"> </tspan><tspan x="187.3326" y="230.4004">erat</tspan><tspan class="a8521537-aa99-481b-bc85-466d2279b5f9" x="200.4772" y="230.4004"> </tspan><tspan class="be5768bc-483c-43a7-8586-d9e320cc56b3" x="202.9642" y="230.4004">v</tspan><tspan x="206.3864" y="230.4004">olutpat.</tspan><tspan class="a8521537-aa99-481b-bc85-466d2279b5f9" x="231.5778" y="230.4004"> </tspan><tspan x="234.0648" y="230.4004">Ut </tspan><tspan x="0" y="240">wisi</tspan><tspan class="eaa22f6f-f38c-4db6-99b6-b44dbf726e26" x="12.2153" y="240"> </tspan><tspan x="14.5174" y="240">enim</tspan><tspan class="b6c6cd5a-ee1f-4c13-a102-2e81378bd899" x="30.3687" y="240"> </tspan><tspan x="32.6718" y="240">ad</tspan><tspan class="eaa22f6f-f38c-4db6-99b6-b44dbf726e26" x="40.7805" y="240"> </tspan><tspan x="43.0826" y="240">minim</tspan><tspan class="eaa22f6f-f38c-4db6-99b6-b44dbf726e26" x="63.2148" y="240"> </tspan><tspan x="65.5169" y="240">veniam,</tspan><tspan class="b6c6cd5a-ee1f-4c13-a102-2e81378bd899" x="90.841" y="240"> </tspan><tspan x="93.144" y="240">quis</tspan><tspan class="eaa22f6f-f38c-4db6-99b6-b44dbf726e26" x="106.1124" y="240"> </tspan><tspan x="108.4145" y="240">no</tspan><tspan class="e7a29248-a5c3-4297-abd7-c9ecaa2cab04" x="116.5155" y="240">s</tspan><tspan x="119.5117" y="240">trud</tspan><tspan class="eaa22f6f-f38c-4db6-99b6-b44dbf726e26" x="132.9525" y="240"> </tspan><tspan class="a774d48f-5ec3-4ba1-a35c-42116d964e8d" x="135.2546" y="240">e</tspan><tspan class="ab017972-2b14-44f9-85e7-cd7bbd56371e" x="138.8569" y="240">x</tspan><tspan x="142.0283" y="240">erci</tspan><tspan class="b6c6cd5a-ee1f-4c13-a102-2e81378bd899" x="153.6027" y="240"> </tspan><tspan class="b474fbe9-80d4-4890-9e8f-e9f03bbf836a" x="155.9058" y="240">t</tspan><tspan x="158.4179" y="240">ation</tspan><tspan class="eaa22f6f-f38c-4db6-99b6-b44dbf726e26" x="174.9053" y="240"> </tspan><tspan x="177.2074" y="240">ullam</tspan><tspan class="e34edc1b-2f53-4a37-814b-5cd17956378f" x="195.1208" y="240">c</tspan><tspan x="198.4104" y="240">orper</tspan><tspan class="eaa22f6f-f38c-4db6-99b6-b44dbf726e26" x="215.6751" y="240"> </tspan><tspan x="217.9772" y="240">suscipit </tspan><tspan x="0" y="249.6006">lobortis</tspan><tspan class="fb619a29-967d-4b37-9dcd-47a083549166" x="24.0423" y="249.6006"> </tspan><tspan x="26.9107" y="249.6006">nisl</tspan><tspan class="fb619a29-967d-4b37-9dcd-47a083549166" x="37.5906" y="249.6006"> </tspan><tspan x="40.4591" y="249.6006">ut</tspan><tspan class="aeeafe27-30e5-46a9-b5fb-e0c3f8a03ef1" x="47.1427" y="249.6006"> </tspan><tspan x="50.0121" y="249.6006">aliquip</tspan><tspan class="fb619a29-967d-4b37-9dcd-47a083549166" x="71.5267" y="249.6006"> </tspan><tspan class="a774d48f-5ec3-4ba1-a35c-42116d964e8d" x="74.3952" y="249.6006">e</tspan><tspan x="77.9974" y="249.6006">x</tspan><tspan class="fb619a29-967d-4b37-9dcd-47a083549166" x="81.345" y="249.6006"> </tspan><tspan x="84.2135" y="249.6006">ea</tspan><tspan class="fb619a29-967d-4b37-9dcd-47a083549166" x="92.0259" y="249.6006"> </tspan><tspan class="b5037dbb-6a83-480b-b5ca-c9e7dfb7687f" x="94.8943" y="249.6006">c</tspan><tspan x="98.1829" y="249.6006">ommodo</tspan><tspan class="aeeafe27-30e5-46a9-b5fb-e0c3f8a03ef1" x="126.9233" y="249.6006"> </tspan><tspan class="e34edc1b-2f53-4a37-814b-5cd17956378f" x="129.7927" y="249.6006">c</tspan><tspan x="133.0822" y="249.6006">onsequatit</tspan><tspan class="fb619a29-967d-4b37-9dcd-47a083549166" x="167.1597" y="249.6006"> </tspan><tspan x="170.0281" y="249.6006">in</tspan><tspan class="fb619a29-967d-4b37-9dcd-47a083549166" x="175.8482" y="249.6006"> </tspan><tspan x="178.7167" y="249.6006">vulpu</tspan><tspan class="b474fbe9-80d4-4890-9e8f-e9f03bbf836a" x="196.1063" y="249.6006">t</tspan><tspan x="198.6185" y="249.6006">a</tspan><tspan class="e7a29248-a5c3-4297-abd7-c9ecaa2cab04" x="202.6728" y="249.6006">t</tspan><tspan x="205.2044" y="249.6006">e</tspan><tspan class="fb619a29-967d-4b37-9dcd-47a083549166" x="208.9625" y="249.6006"> </tspan><tspan x="211.8309" y="249.6006">velit</tspan><tspan class="aeeafe27-30e5-46a9-b5fb-e0c3f8a03ef1" x="225.2108" y="249.6006"> </tspan><tspan x="228.0801" y="249.6006">esse </tspan><tspan x="0" y="259.2002">mole</tspan><tspan class="e7a29248-a5c3-4297-abd7-c9ecaa2cab04" x="15.8436" y="259.2002">s</tspan><tspan x="18.8398" y="259.2002">tie</tspan><tspan class="f4a0e2b8-8f50-4dcd-a009-885caa13d58b" x="26.9301" y="259.2002"> </tspan><tspan class="e34edc1b-2f53-4a37-814b-5cd17956378f" x="29.0357" y="259.2002">c</tspan><tspan x="32.3252" y="259.2002">onsequat,</tspan><tspan class="b180f77c-d2b8-47ef-afa1-be81c6a347a1" x="64.028" y="259.2002"> </tspan><tspan x="66.1345" y="259.2002">vel</tspan><tspan class="f4a0e2b8-8f50-4dcd-a009-885caa13d58b" x="75.1193" y="259.2002"> </tspan><tspan x="77.2249" y="259.2002">illum</tspan><tspan class="b180f77c-d2b8-47ef-afa1-be81c6a347a1" x="92.8497" y="259.2002"> </tspan><tspan x="94.9563" y="259.2002">dolore</tspan><tspan class="f4a0e2b8-8f50-4dcd-a009-885caa13d58b" x="115.3305" y="259.2002"> </tspan><tspan x="117.4361" y="259.2002">eu</tspan><tspan class="b180f77c-d2b8-47ef-afa1-be81c6a347a1" x="125.2485" y="259.2002"> </tspan><tspan class="b78e35f5-1f31-4ed9-9013-6cfbf06cdea1" x="127.3551" y="259.2002">f</tspan><tspan x="129.6078" y="259.2002">eugiat</tspan><tspan class="f4a0e2b8-8f50-4dcd-a009-885caa13d58b" x="149.924" y="259.2002"> </tspan><tspan x="152.0296" y="259.2002">nulla</tspan><tspan class="b180f77c-d2b8-47ef-afa1-be81c6a347a1" x="167.7241" y="259.2002"> </tspan><tspan class="b474fbe9-80d4-4890-9e8f-e9f03bbf836a" x="169.8306" y="259.2002">f</tspan><tspan x="172.1037" y="259.2002">acilisis</tspan><tspan class="f4a0e2b8-8f50-4dcd-a009-885caa13d58b" x="192.7568" y="259.2002"> </tspan><tspan x="194.8623" y="259.2002">at</tspan><tspan class="b180f77c-d2b8-47ef-afa1-be81c6a347a1" x="201.546" y="259.2002"> </tspan><tspan x="203.6525" y="259.2002">vero</tspan><tspan class="f4a0e2b8-8f50-4dcd-a009-885caa13d58b" x="217.621" y="259.2002"> </tspan><tspan x="219.7266" y="259.2002">eros</tspan><tspan class="b180f77c-d2b8-47ef-afa1-be81c6a347a1" x="233.3281" y="259.2002"> </tspan><tspan class="be5768bc-483c-43a7-8586-d9e320cc56b3" x="235.4347" y="259.2002">e</tspan><tspan x="239.154" y="259.2002">t </tspan><tspan x="0" y="268.7998">a</tspan><tspan class="b5037dbb-6a83-480b-b5ca-c9e7dfb7687f" x="4.0543" y="268.7998">c</tspan><tspan x="7.3429" y="268.7998">cumsan </tspan><tspan class="be5768bc-483c-43a7-8586-d9e320cc56b3" x="34.0291" y="268.7998">e</tspan><tspan x="37.7484" y="268.7998">t iu</tspan><tspan class="e7a29248-a5c3-4297-abd7-c9ecaa2cab04" x="48.0062" y="268.7998">st</tspan><tspan x="53.534" y="268.7998">o odio dignissim qui blandit praese</tspan><tspan class="a69b183f-b7c4-4919-8b24-b5899ce6a03c" x="164.1315" y="268.7998">n</tspan><tspan x="168.1084" y="268.7998">t lup</tspan></text><polygon class="b4399295-4537-4302-8ace-aa1e31838d5e" points="633.257 350.776 633.257 350.799 633.257 361.417 637.799 361.417 637.799 350.799 637.799 350.776 637.799 340.157 633.257 340.157 633.257 350.776"/></g></svg>