<svg xmlns="http://www.w3.org/2000/svg" viewBox="0 0 85 85"><defs><style>.b3ee5852-3ad0-495d-90af-63d7dfd30f0b{fill:#006837;}.bf566dc8-4551-452a-a61d-75952bce4039{fill:#39b34a;}.b80624eb-583e-43b6-8647-3e6e2080d9b8{fill:#fff;}</style></defs><title>S</title><g id="ba98cb52-2571-48e1-9034-843c4da1e444" data-name="Grafica"><rect class="b3ee5852-3ad0-495d-90af-63d7dfd30f0b" width="85" height="85"/><rect class="bf566dc8-4551-452a-a61d-75952bce4039" y="78.8612" width="85" height="6.1388"/><path class="b80624eb-583e-43b6-8647-3e6e2080d9b8" d="M52.6892,22.51a10.2507,10.2507,0,1,0,10.2769,10.25A10.2643,10.2643,0,0,0,52.6892,22.51Zm0,16.7769a6.5263,6.5263,0,1,1,6.5422-6.5264A6.5336,6.5336,0,0,1,52.6892,39.2873Z"/><path class="b80624eb-583e-43b6-8647-3e6e2080d9b8" d="M74.3029,60.0274a22.7595,22.7595,0,0,0-43.2261,0Z"/><path class="b80624eb-583e-43b6-8647-3e6e2080d9b8" d="M30.5965,27.141a8.9855,8.9855,0,1,0,9.0084,8.985A8.9975,8.9975,0,0,0,30.5965,27.141Zm0,14.7062a5.7208,5.7208,0,1,1,5.7347-5.7208A5.7272,5.7272,0,0,1,30.5965,41.8472Z"/><path class="b80624eb-583e-43b6-8647-3e6e2080d9b8" d="M35.9639,47.0741A19.9105,19.9105,0,0,0,11.6517,60.0274h15.25A27.891,27.891,0,0,1,35.9639,47.0741Z"/></g></svg>