<svg xmlns="http://www.w3.org/2000/svg" viewBox="0 0 85 85"><defs><style>.f14db2b2-466c-4e41-bf9c-34deec031d2c{fill:#006837;}.b4b57bbe-e16f-410c-a046-26012e060a50{fill:red;}.b61fa937-0469-43ad-bfc1-63985d1e9c1c{fill:#fff;}</style></defs><title>S</title><g id="bef60e26-d66f-4645-bfdb-bb94ee65e918" data-name="Grafica"><rect class="f14db2b2-466c-4e41-bf9c-34deec031d2c" width="85" height="85"/><rect class="b4b57bbe-e16f-410c-a046-26012e060a50" y="78.8612" width="85" height="6.1388"/><path class="b61fa937-0469-43ad-bfc1-63985d1e9c1c" d="M42.5013,31.66a8.6,8.6,0,1,0,8.756,8.5984A8.6759,8.6759,0,0,0,42.5013,31.66Zm-.057,12.4222a3.9287,3.9287,0,1,1,4.0015-3.9284A3.9656,3.9656,0,0,1,42.4443,44.0824Z"/><path class="b61fa937-0469-43ad-bfc1-63985d1e9c1c" d="M42.6536,26.998c11.5738,0,17.1678,8.7027,19.0627,12.5151-2.146,4.118-8.4092,14.006-19.0627,14.006-11.82,0-17.3345-9.7028-19.1122-13.7239,2.0161-3.8175,7.9458-12.7972,19.1122-12.7972m0-4.9977C25.0707,22,18.1069,39.6019,18.1069,39.6019s5.9582,18.9149,24.5467,18.9149c17.06,0,24.5467-18.9149,24.5467-18.9149S61.054,22,42.6536,22Z"/></g></svg>