<svg xmlns="http://www.w3.org/2000/svg" viewBox="0 0 1023.9999 768"><defs><style>.b6000657-1aad-4419-99b0-cd4234ecc554,.bd57b50c-f5f5-4af9-be1d-ba59b9dc53ba,.f24b1804-cfcf-47ed-9499-c64cc513880a{fill:red;}.a1d91653-0288-43e9-9376-5f81284e701e,.e39703dc-86dc-4c9d-9790-049b2e004ec0,.f353f741-59e0-4fb4-bf3b-109bc237a6ca,.f99a5505-18b1-4b71-8d69-bff27047a47c{fill:#006837;}.aa683ebd-0a56-40c5-9421-50b2151c6014,.bbc7ae30-86ea-484b-9066-07dddba3e4fd,.bcd3adc4-0c8f-4480-b69f-2559cb8a33fc,.bf70c4c3-de27-454a-a4eb-b0b6013d41a6,.e0b04798-014a-4542-907b-fc16e16a962f,.edb128ef-034e-4832-859d-4b6e5585b806{fill:none;}.bbc7ae30-86ea-484b-9066-07dddba3e4fd{stroke:#fff;stroke-linecap:round;stroke-width:4px;}.aa683ebd-0a56-40c5-9421-50b2151c6014,.bbc7ae30-86ea-484b-9066-07dddba3e4fd,.bf70c4c3-de27-454a-a4eb-b0b6013d41a6,.e0b04798-014a-4542-907b-fc16e16a962f,.edb128ef-034e-4832-859d-4b6e5585b806{stroke-miterlimit:10;}.a7ce5f97-38f6-4d5e-b63f-4e66c146a1d7{fill:#ccc;}.eec769b5-a7c4-46c1-83df-7cba59842860{fill:#979797;}.a78439ec-1d7d-444f-91fe-13a265c7a127{fill:#efefef;}.a1d91653-0288-43e9-9376-5f81284e701e,.b6000657-1aad-4419-99b0-cd4234ecc554,.e39703dc-86dc-4c9d-9790-049b2e004ec0{font-size:11px;}.e39703dc-86dc-4c9d-9790-049b2e004ec0{font-family:Calibri;}.b9c91561-e704-43ff-a87e-6ef1e89fab4b{letter-spacing:-0.0498em;}.b7d39d75-7eeb-4aef-9441-b10aeefe61f2{letter-spacing:-0.0171em;}.f389ac0b-e387-4be1-a660-91c0acb4dc6d{letter-spacing:-0.0205em;}.ef91944a-61f5-4d54-9857-89596bfb98d0{letter-spacing:-0.0055em;}.ed9d7435-2a15-4b6f-b231-77a4342e06b1{letter-spacing:-0.0121em;}.bf6ac7b8-21df-4407-9648-c85615b433ba{letter-spacing:-0.0001em;}.f24b1804-cfcf-47ed-9499-c64cc513880a,.f99a5505-18b1-4b71-8d69-bff27047a47c{fill-rule:evenodd;}.aa683ebd-0a56-40c5-9421-50b2151c6014{stroke:#006837;stroke-width:0.5px;}.f8480760-59dc-44e2-91b5-d471fdbfec66{fill:#39b54a;}.b083dbe5-23ad-4285-bf89-b4232fb7ec2d{font-size:11.0395px;font-family:MyriadPro-Regular, Myriad Pro;}.b083dbe5-23ad-4285-bf89-b4232fb7ec2d,.e03eb6d4-03f1-46f6-b3f6-b69b6f5151a4{fill:#0071bc;}.bf70c4c3-de27-454a-a4eb-b0b6013d41a6,.e0b04798-014a-4542-907b-fc16e16a962f{stroke:#0071bc;}.bf70c4c3-de27-454a-a4eb-b0b6013d41a6,.edb128ef-034e-4832-859d-4b6e5585b806{stroke-width:0.25px;}.b95f9ceb-fef7-4dc4-a903-c88450b67d05{fill:#fff;}.a1d91653-0288-43e9-9376-5f81284e701e,.b6000657-1aad-4419-99b0-cd4234ecc554{font-family:Calibri-Light, Calibri;font-weight:300;}.aaa55ed0-e287-4ae4-9fb7-39220f728055{letter-spacing:-0.0195em;}.b5fabfc6-98c2-4661-869d-d6e68d52ee19{letter-spacing:-0.0147em;}.b5f07924-5321-4b77-b453-e94e19c3f1ff{letter-spacing:-0.0097em;}.b8c54c09-d990-4cfd-ae08-447d22dddfe0{font-size:10px;}.b8c54c09-d990-4cfd-ae08-447d22dddfe0,.e06f8a63-d800-4e67-b219-4c0068db7cf7{fill:#999;font-family:Calibri-Italic, Calibri;font-style:italic;}.b320414a-ab47-42f6-a370-817dab2512cd{letter-spacing:-0.0044em;}.bc8a25b2-2fc1-4487-9000-70ea00f682c7{letter-spacing:-0.0097em;}.a7ab1fc7-4cc6-407c-8d89-0761a3abc5a3{fill:#666;}.fc562218-95fc-4330-adce-e6ed1bdd33e0{fill:#4d4d4d;}.e06f8a63-d800-4e67-b219-4c0068db7cf7{font-size:9px;}.edb128ef-034e-4832-859d-4b6e5585b806{stroke:gray;}</style></defs><title>S</title><g id="f10dfd89-9991-4f5b-a124-f0f0fcf68d8f" data-name="Grafica"><rect class="bd57b50c-f5f5-4af9-be1d-ba59b9dc53ba" y="0.381" width="930.5466" height="42.1387"/><rect class="f353f741-59e0-4fb4-bf3b-109bc237a6ca" y="37.1801" width="930.5466" height="5.3396"/><line class="bbc7ae30-86ea-484b-9066-07dddba3e4fd" x1="23.6289" y1="11.6108" x2="40.3991" y2="11.6108"/><line class="bbc7ae30-86ea-484b-9066-07dddba3e4fd" x1="23.6289" y1="19.6139" x2="40.3991" y2="19.6139"/><line class="bbc7ae30-86ea-484b-9066-07dddba3e4fd" x1="23.6289" y1="27.617" x2="40.3991" y2="27.617"/><path class="bd57b50c-f5f5-4af9-be1d-ba59b9dc53ba" d="M941.7267,29.4514V23.482h19.9167V21.4893H941.7267v-3.984l1.9854-1.9927h23.9092V29.4514ZM945.7023,13.52,951.68,7.5421h15.9411V13.52Z"/><path class="bd57b50c-f5f5-4af9-be1d-ba59b9dc53ba" d="M969.6139,27.4587V7.5421h5.9682V21.4905Z"/><polygon class="bd57b50c-f5f5-4af9-be1d-ba59b9dc53ba" points="997.491 29.451 1002.52 29.427 1003.469 28.478 1003.469 28.443 1003.469 15.513 991.513 15.513 991.513 21.489 997.491 21.489 997.491 23.482 990.521 23.482 983.543 16.504 983.543 13.52 1003.469 13.52 997.501 7.542 977.575 7.542 977.575 19.498 987.528 29.451 997.491 29.451"/><polygon class="bd57b50c-f5f5-4af9-be1d-ba59b9dc53ba" points="1011.42 31.212 1011.42 13.509 1005.451 7.571 1005.451 28.75 1003.016 31.212 941.727 31.212 947.705 37.18 1005.451 37.18 1011.43 31.212 1011.42 31.212"/><rect class="a7ce5f97-38f6-4d5e-b63f-4e66c146a1d7" x="361.4271" y="191.3551" width="85.0394" height="85.0394"/><path class="eec769b5-a7c4-46c1-83df-7cba59842860" d="M422.7385,258.7463c-1.9672,1.0029-5.0869.7391-7.2955-.39-3.0433-1.5559-4.7662-1.1754-7.9558.2153a8.3426,8.3426,0,0,1-7.1624,0c-3.1874-1.3947-4.8311-1.7712-7.8744-.2153-2.2085,1.1291-5.3741,1.3929-7.3413.39-3.4491-1.7591-5.9138-2.0872-8.6528-.4294a6.6811,6.6811,0,0,1-3.7871.8794v6.224a7.5406,7.5406,0,0,0,4.03-.9783,7.2244,7.2244,0,0,1,7.1279-.166c3.111,1.556,5.7485,1.556,8.386.2028s4.0992-1.5969,7.3037-.2364a9.4661,9.4661,0,0,0,8.8253.06c3.2046-1.3605,4.7-1.1764,7.3377.1766s5.2745,1.3532,8.3858-.2028a7.087,7.087,0,0,1,7.0468.166,7.4232,7.4232,0,0,0,4.1115.9783v-6.224a6.4642,6.4642,0,0,1-3.7874-.8794C428.6982,256.6591,426.1876,256.9872,422.7385,258.7463Z"/><path class="eec769b5-a7c4-46c1-83df-7cba59842860" d="M431.4711,249.236c-5.3828-2.8791-7.7244.6264-10.6176.6264V235.8279l4.4633-10.0807a2.6267,2.6267,0,0,0-1.6231-3.6531l-2.705-1.0825v-8.7272h-5.211v-4.5982h-7.3v-6.159H399.416v6.159h-7.3v4.5982H386.905v8.7272L384.2,222.0941a2.6267,2.6267,0,0,0-1.6231,3.6531l4.4632,10.0807v14.0344c-2.892-.0011-5.3525-3.45-10.6157-.5716h-.0018a8.9819,8.9819,0,0,1-3.7869.8794v6.0155a8.2477,8.2477,0,0,0,3.99-1.15,7.5561,7.5561,0,0,1,7.1685.0059c3.1113,1.556,5.7486,1.556,8.3859.203a7.6084,7.6084,0,0,1,7.4053-.203,8.71,8.71,0,0,0,8.6865.036,7.57,7.57,0,0,1,7.4423.167c2.6375,1.353,5.275,1.353,8.3858-.203a7.6238,7.6238,0,0,1,7.1685-.0059,8.6041,8.6041,0,0,0,3.99,1.15v-6.07A8.7168,8.7168,0,0,1,431.4711,249.236Zm-14.3372-29.8481-13.1872-5.3329L390.76,219.3879v-3.52h5.2074v-4.53h15.9595v4.53h5.2074Z"/><rect class="a7ce5f97-38f6-4d5e-b63f-4e66c146a1d7" x="467.7462" y="191.3583" width="85" height="85"/><path class="eec769b5-a7c4-46c1-83df-7cba59842860" d="M533.9439,243.5216a5.2257,5.2257,0,1,0,5.31,5.2251A5.2684,5.2684,0,0,0,533.9439,243.5216Z"/><path class="eec769b5-a7c4-46c1-83df-7cba59842860" d="M490.5244,243.5216a5.2257,5.2257,0,1,0,5.3093,5.2251A5.2689,5.2689,0,0,0,490.5244,243.5216Z"/><path class="eec769b5-a7c4-46c1-83df-7cba59842860" d="M535.9064,221.2862l-9.3583.0061c-.8937,0-1.6124,5.5679-1.6278,12.4788h-.39a4.05,4.05,0,0,0-.4807.0477c.1509-1.7973.2386-3.8775.2386-6.1027,0-6.7516-.7949-12.2247-1.7754-12.2247H506.51v-.9655a.7874.7874,0,0,0-.7939-.7809h-9.0644a.7876.7876,0,0,0-.7941.7809v.9655h-19.53c-.98,0-1.7754,5.4731-1.7754,12.2247s.7951,12.2248,1.7754,12.2248h3.5771c-1.7023.2182-2.9759,1.1248-2.9759,2.91a3.7966,3.7966,0,0,0,3.8253,3.7689h2.8938a7.2448,7.2448,0,0,1,13.75,0h29.6753a7.241,7.241,0,0,1,13.7442,0h3.5719c.9,0,1.6278-5.6706,1.6278-12.6616C546.0172,226.9584,536.8125,221.2862,535.9064,221.2862Zm-.5313,10.5391h-6.3822v-7.8065h6.3822Zm1.2285,0v-7.2764c1.8459,1.1,5.3288,3.8535,6.4437,7.2764Z"/><rect class="a7ce5f97-38f6-4d5e-b63f-4e66c146a1d7" x="574.0454" y="191.7476" width="85" height="85"/><path class="eec769b5-a7c4-46c1-83df-7cba59842860" d="M629.3593,253.8341H595.2629a1.3546,1.3546,0,1,0,0,2.7088h34.0964a1.3546,1.3546,0,1,0,0-2.7088Z"/><path class="eec769b5-a7c4-46c1-83df-7cba59842860" d="M643.8012,242.7232l-7.3625-13.7852a5.16,5.16,0,0,1-.6077-2.4232v-4.5991a1.3781,1.3781,0,0,0-2.7557,0v4.5991a7.8466,7.8466,0,0,0,.9231,3.6823l7.3631,13.7863a2.8841,2.8841,0,0,1,.3406,1.3566,2.9507,2.9507,0,0,1-2.9719,2.9219h-3.3776A2.9509,2.9509,0,0,1,632.38,245.34V218.8651h-4.0072a1.3822,1.3822,0,0,0-.594.1373v-7.767a5.6708,5.6708,0,0,0-5.7121-5.6149h-19.102a5.6705,5.6705,0,0,0-5.7116,5.6149v40.9464h30.5257V221.4367a1.3851,1.3851,0,0,0,.594.1372h1.2513V245.34a5.6865,5.6865,0,0,0,5.7281,5.6307H638.73a5.6863,5.6863,0,0,0,5.7279-5.6307A5.5672,5.5672,0,0,0,643.8012,242.7232Zm-22.02-20.5377a3.4609,3.4609,0,0,1-3.4862,3.4267H606.3263a3.461,3.461,0,0,1-3.4861-3.4267v-7.228a3.4611,3.4611,0,0,1,3.4861-3.4269h11.9689a3.461,3.461,0,0,1,3.4862,3.4269Z"/><path class="eec769b5-a7c4-46c1-83df-7cba59842860" d="M632.4213,215.777a2.1627,2.1627,0,0,1,.654,1.5517v1.68a1.3781,1.3781,0,0,0,2.7558,0v-1.68a4.8283,4.8283,0,0,0-1.4613-3.4669l-3.8646-3.7992a1.3942,1.3942,0,0,0-1.9484,0,1.3375,1.3375,0,0,0,0,1.9152Z"/><path class="eec769b5-a7c4-46c1-83df-7cba59842860" d="M619.0256,222.1855a.7253.7253,0,0,1-.73.718H606.3264a.7253.7253,0,0,1-.73-.718v-7.228a.7253.7253,0,0,1,.73-.718h11.9688a.7253.7253,0,0,1,.73.718Z"/><rect class="a7ce5f97-38f6-4d5e-b63f-4e66c146a1d7" x="361.4293" y="297.6329" width="85" height="85"/><path class="eec769b5-a7c4-46c1-83df-7cba59842860" d="M395.1347,325.3119h-5.8954A1.8337,1.8337,0,0,0,387.39,327.13v5.7947a1.8335,1.8335,0,0,0,1.8492,1.8176h5.8954a1.8338,1.8338,0,0,0,1.8495-1.8176V327.13A1.834,1.834,0,0,0,395.1347,325.3119Z"/><path class="eec769b5-a7c4-46c1-83df-7cba59842860" d="M406.3736,325.3119h-5.8955a1.8337,1.8337,0,0,0-1.8493,1.8178v5.7947a1.8335,1.8335,0,0,0,1.8493,1.8176h5.8955a1.8338,1.8338,0,0,0,1.8493-1.8176V327.13A1.8339,1.8339,0,0,0,406.3736,325.3119Z"/><path class="eec769b5-a7c4-46c1-83df-7cba59842860" d="M411.7168,334.742h5.8955a1.8336,1.8336,0,0,0,1.8493-1.8176V327.13a1.8338,1.8338,0,0,0-1.8493-1.8178h-5.8955a1.8337,1.8337,0,0,0-1.8493,1.8178v5.7947A1.8335,1.8335,0,0,0,411.7168,334.742Z"/><path class="eec769b5-a7c4-46c1-83df-7cba59842860" d="M395.1347,336.2688h-5.8954a1.8337,1.8337,0,0,0-1.8492,1.8178v5.7947a1.8335,1.8335,0,0,0,1.8492,1.8176h5.8954a1.8338,1.8338,0,0,0,1.8495-1.8176v-5.7947A1.834,1.834,0,0,0,395.1347,336.2688Z"/><path class="eec769b5-a7c4-46c1-83df-7cba59842860" d="M406.3736,336.2688h-5.8955a1.8337,1.8337,0,0,0-1.8493,1.8178v5.7947a1.8335,1.8335,0,0,0,1.8493,1.8176h5.8955a1.8338,1.8338,0,0,0,1.8493-1.8176v-5.7947A1.8339,1.8339,0,0,0,406.3736,336.2688Z"/><path class="eec769b5-a7c4-46c1-83df-7cba59842860" d="M411.7168,345.6989h5.8955a1.8336,1.8336,0,0,0,1.8493-1.8176v-5.7947a1.8338,1.8338,0,0,0-1.8493-1.8178h-5.8955a1.8337,1.8337,0,0,0-1.8493,1.8178v5.7947A1.8335,1.8335,0,0,0,411.7168,345.6989Z"/><path class="eec769b5-a7c4-46c1-83df-7cba59842860" d="M395.1347,347.2257h-5.8954a1.8337,1.8337,0,0,0-1.8492,1.8178v5.7947a1.8335,1.8335,0,0,0,1.8492,1.8176h5.8954a1.8338,1.8338,0,0,0,1.8495-1.8176v-5.7947A1.834,1.834,0,0,0,395.1347,347.2257Z"/><path class="eec769b5-a7c4-46c1-83df-7cba59842860" d="M406.3736,347.2257h-5.8955a1.8337,1.8337,0,0,0-1.8493,1.8178v5.7947a1.8335,1.8335,0,0,0,1.8493,1.8176h5.8955a1.8338,1.8338,0,0,0,1.8493-1.8176v-5.7947A1.8339,1.8339,0,0,0,406.3736,347.2257Z"/><path class="eec769b5-a7c4-46c1-83df-7cba59842860" d="M411.7168,356.6558h5.8955a1.8336,1.8336,0,0,0,1.8493-1.8176v-5.7947a1.8338,1.8338,0,0,0-1.8493-1.8178h-5.8955a1.8337,1.8337,0,0,0-1.8493,1.8178v5.7947A1.8335,1.8335,0,0,0,411.7168,356.6558Z"/><path class="eec769b5-a7c4-46c1-83df-7cba59842860" d="M429.8705,321.1267l-3.488-1.5317v0l-22.454-9.8608-22.4523,9.8608h0l-3.4881,1.5318a1.5648,1.5648,0,0,0-.809,2.0811,1.6185,1.6185,0,0,0,2.1172.7952l2.18-.9573V363.18h44.9063V323.0457l2.18.9573a1.6186,1.6186,0,0,0,2.1173-.7952A1.5649,1.5649,0,0,0,429.8705,321.1267ZM423.1777,360.03H384.681v-38.392l13.341-5.859,5.9065-2.5936,5.4371,2.3872,13.8121,6.0656Z"/><rect class="a7ce5f97-38f6-4d5e-b63f-4e66c146a1d7" x="467.7659" y="297.6575" width="85" height="85"/><path class="eec769b5-a7c4-46c1-83df-7cba59842860" d="M510.45,352.6768a9.5552,9.5552,0,0,0,1.3351.0882c.0965,0,.192-.008.2878-.01v-5.8824l-1.6229-.3729Z"/><path class="eec769b5-a7c4-46c1-83df-7cba59842860" d="M510.45,336.5846v5.3226l1.6229.3919v-5.7047c-.2925-.0269-.5991-.0454-.9367-.0454A6.8256,6.8256,0,0,0,510.45,336.5846Z"/><path class="eec769b5-a7c4-46c1-83df-7cba59842860" d="M507.45,338.0014a2.1756,2.1756,0,0,0-.3737,1.2927,2.2185,2.2185,0,0,0,.2435,1.1017,2.0147,2.0147,0,0,0,.6168.686,2.8006,2.8006,0,0,0,.8125.3829c.1239.0364.223.0627.3372.0949v-4.6948a4.2447,4.2447,0,0,0-.6782.2908A2.7912,2.7912,0,0,0,507.45,338.0014Z"/><path class="eec769b5-a7c4-46c1-83df-7cba59842860" d="M515.4709,347.93a6.8921,6.8921,0,0,0-1.3472-.5269c-.22-.063-.4521-.126-.6872-.189v5.4338c.0287-.0041.0577-.0052.0865-.01a5.7628,5.7628,0,0,0,1.5585-.4474,2.9329,2.9329,0,0,0,1.1364-.8938,2.4021,2.4021,0,0,0,.4391-1.5,1.9163,1.9163,0,0,0-.3092-1.1172A2.43,2.43,0,0,0,515.4709,347.93Z"/><path class="eec769b5-a7c4-46c1-83df-7cba59842860" d="M515.75,321.3309a9.9793,9.9793,0,0,1,3.3581-6.16c2.7284-2.1473-1.8173-1.97-4.915-1.611-3.089.357-9.822-1.4313-11.274-.1776-1.4563,1.2483-.915,3.2183.726,4.289a13.0611,13.0611,0,0,1,2.8769,3.6674c-9.292,3.3008-16.2334,16.3109-16.2334,31.8725a50.9155,50.9155,0,0,0,.3333,5.8128c.3967,1.2956,1.6527,4.2949,4.8145,4.2949H526.322s4.4495-.14,5.2883-3.7525c.0521-.4456.1042-.8892.1483-1.3389a4.6,4.6,0,0,1,.0441-.5245c.1326-1.4689.2044-2.9675.2044-4.4918C532.0071,337.6378,525.0543,324.6161,515.75,321.3309Zm5.0474,30.8438a6.3506,6.3506,0,0,1-1.3959,2.06,7.1572,7.1572,0,0,1-1.9008,1.3244,10.9727,10.9727,0,0,1-2.0618.75,12.7046,12.7046,0,0,1-1.9.3353c-.0381.0035-.0658.0046-.1025.0077v3.4032h-1.3639v-3.3337c-.5724-.0017-1.11-.0263-1.6229-.0672v3.4009h-1.3636v-3.5674a10.066,10.066,0,0,1-2.0915-.5618,8.29,8.29,0,0,1-3.0362-1.9632,5.9612,5.9612,0,0,1-1.429-2.506,9.3736,9.3736,0,0,1-.3573-2.394h4.6763a4.2172,4.2172,0,0,0,.1786,1.1172,3.0387,3.0387,0,0,0,.6983,1.2133,3.9337,3.9337,0,0,0,1.3608.9122v-6.1263c-.6515-.1574-1.2933-.3217-1.9128-.5a7.8132,7.8132,0,0,1-2.3546-1.1013,5.4327,5.4327,0,0,1-1.6564-1.8834,6.3707,6.3707,0,0,1-.6329-3.0487,7.5124,7.5124,0,0,1,.1463-1.4044,6.7764,6.7764,0,0,1,.5026-1.5481,6.6974,6.6974,0,0,1,.9912-1.5323,5.7979,5.7979,0,0,1,1.64-1.309,9.9556,9.9556,0,0,1,2.4031-.91c.2752-.0693.57-.1249.8732-.1738v-3.8788H510.45v3.7335c.3352-.0195.68-.0321,1.0432-.0321.202,0,.386.0152.58.0218v-3.7232h1.3639v3.832a9.1974,9.1974,0,0,1,2.4735.6358,8.2783,8.2783,0,0,1,2.7928,1.883,6.5025,6.5025,0,0,1,1.4613,2.41,7.6486,7.6486,0,0,1,.4222,2.3463H515.91c-.0444-.2554-.1139-.58-.211-.9737a2.666,2.666,0,0,0-.6339-1.133,3.9934,3.9934,0,0,0-1.4129-.942c-.0661-.0284-.1449-.0492-.2157-.0745v5.7552l1.7913.4324a19.4516,19.4516,0,0,1,2.3062.7025,6.714,6.714,0,0,1,1.9482,1.1175,5.13,5.13,0,0,1,1.3482,1.7551,5.9815,5.9815,0,0,1,.5026,2.5862A7.3572,7.3572,0,0,1,520.7973,352.1747Z"/><rect class="a7ce5f97-38f6-4d5e-b63f-4e66c146a1d7" x="574.3068" y="297.6575" width="85" height="85"/><path class="eec769b5-a7c4-46c1-83df-7cba59842860" d="M626.7149,320.1678a10.2507,10.2507,0,1,0,10.2769,10.25A10.2643,10.2643,0,0,0,626.7149,320.1678Zm0,16.777a6.5263,6.5263,0,1,1,6.5422-6.5264A6.5337,6.5337,0,0,1,626.7149,336.9448Z"/><path class="eec769b5-a7c4-46c1-83df-7cba59842860" d="M648.3286,357.6849a22.7595,22.7595,0,0,0-43.2261,0Z"/><path class="eec769b5-a7c4-46c1-83df-7cba59842860" d="M604.6222,324.7985a8.9855,8.9855,0,1,0,9.0084,8.985A8.9974,8.9974,0,0,0,604.6222,324.7985Zm0,14.7062a5.7208,5.7208,0,1,1,5.7347-5.7208A5.7272,5.7272,0,0,1,604.6222,339.5047Z"/><path class="eec769b5-a7c4-46c1-83df-7cba59842860" d="M609.99,344.7316a19.9105,19.9105,0,0,0-24.3122,12.9533h15.25A27.89,27.89,0,0,1,609.99,344.7316Z"/><rect class="a78439ec-1d7d-444f-91fe-13a265c7a127" x="361.4271" y="191.3583" width="297.8797" height="148.7747"/><text class="e39703dc-86dc-4c9d-9790-049b2e004ec0" transform="translate(540.776 257.308) scale(1.0088 1)"><tspan class="b9c91561-e704-43ff-a87e-6ef1e89fab4b">V</tspan><tspan x="5.6933" y="0">e</tspan><tspan class="b7d39d75-7eeb-4aef-9441-b10aeefe61f2" x="11.1668" y="0">r</tspan><tspan x="14.8136" y="0">sión 1.2</tspan></text><text class="e39703dc-86dc-4c9d-9790-049b2e004ec0" transform="translate(540.3287 278.2274) scale(1.0088 1)">Libe<tspan class="f389ac0b-e387-4be1-a660-91c0acb4dc6d" x="18.4013" y="0">r</tspan><tspan x="22.0103" y="0">ada 01/09/2019</tspan></text><text class="e39703dc-86dc-4c9d-9790-049b2e004ec0" transform="translate(539.8258 318.8482) scale(1.0088 1)">D<tspan class="ef91944a-61f5-4d54-9857-89596bfb98d0" x="6.7679" y="0">e</tspan><tspan class="ed9d7435-2a15-4b6f-b231-77a4342e06b1" x="12.1814" y="0">t</tspan><tspan class="bf6ac7b8-21df-4407-9648-c85615b433ba" x="15.7323" y="0">alles </tspan></text><path class="bd57b50c-f5f5-4af9-be1d-ba59b9dc53ba" d="M588.4686,308.7924a.5.5,0,0,0,0,1h3.2353l-1.6743,1.6743h-7v7.708h7.708v-7.0015l1.6738-1.6738v3.1216a.5.5,0,0,0,1,0v-4.8286Zm1.2685,9.3823h-5.708v-5.708h5l-2.5,2.5a.5.5,0,1,0,.707.707l2.501-2.501Z"/><path class="f353f741-59e0-4fb4-bf3b-109bc237a6ca" d="M384.8515,318.8713h-2.1743v-9.6541h2.1743Z"/><path class="f353f741-59e0-4fb4-bf3b-109bc237a6ca" d="M386.3866,318.6894v-1.7232a4.5256,4.5256,0,0,0,1.047.4711,3.47,3.47,0,0,0,.986.1547,2.1161,2.1161,0,0,0,.8922-.1547.5.5,0,0,0,.3265-.4711.4359.4359,0,0,0-.1482-.3366,1.3681,1.3681,0,0,0-.38-.2356,4.35,4.35,0,0,0-.5085-.1819q-.2758-.081-.532-.182a5.084,5.084,0,0,1-.7237-.333,2.0915,2.0915,0,0,1-.5251-.4142,1.6226,1.6226,0,0,1-.3228-.545,2.1714,2.1714,0,0,1-.1113-.7339,1.8885,1.8885,0,0,1,.2526-.9966,2.06,2.06,0,0,1,.6729-.683,3.0772,3.0772,0,0,1,.9629-.3907,5.0283,5.0283,0,0,1,1.1278-.1247,6.2573,6.2573,0,0,1,.9288.0707,6.9922,6.9922,0,0,1,.9292.2055v1.6427a3.3434,3.3434,0,0,0-.8651-.3533,3.6361,3.6361,0,0,0-.9056-.1178,2,2,0,0,0-.3939.037,1.3024,1.3024,0,0,0-.3265.1076.5981.5981,0,0,0-.2222.1819.4191.4191,0,0,0-.0808.2522.4665.4665,0,0,0,.1214.3233,1.0493,1.0493,0,0,0,.3164.2323,3.1408,3.1408,0,0,0,.4341.175q.2388.0774.4748.158a6.273,6.273,0,0,1,.7675.3232,2.4739,2.4739,0,0,1,.5889.4106,1.6141,1.6141,0,0,1,.3773.5523,2.2092,2.2092,0,0,1-.1349,1.8007,2.1319,2.1319,0,0,1-.707.7071,3.2178,3.2178,0,0,1-1.0165.3972,5.6517,5.6517,0,0,1-1.1948.1242A6.1586,6.1586,0,0,1,386.3866,318.6894Z"/><path class="f353f741-59e0-4fb4-bf3b-109bc237a6ca" d="M395.0307,318.8713h-2.1272v-10.206h2.1272Z"/><path class="f353f741-59e0-4fb4-bf3b-109bc237a6ca" d="M402.5576,318.8713h-2.0131v-.99h-.0268a2.247,2.247,0,0,1-2.0533,1.1578,2.1479,2.1479,0,0,1-1.579-.5685,2.0386,2.0386,0,0,1-.5754-1.5185q0-2.006,2.3765-2.3156l1.8714-.249q0-1.1312-1.2252-1.131a4.1851,4.1851,0,0,0-2.3429.7334v-1.6021a5.2854,5.2854,0,0,1,1.2151-.4041,6.4024,6.4024,0,0,1,1.4039-.175,2.6036,2.6036,0,0,1,2.9488,2.9423Zm-2-2.8006v-.4645l-1.2521.1616q-1.0368.1345-1.0368.9357a.7723.7723,0,0,0,.2526.5957.97.97,0,0,0,.6831.2323,1.26,1.26,0,0,0,.9763-.4138A1.4954,1.4954,0,0,0,400.5579,316.0707Z"/><path class="f353f741-59e0-4fb4-bf3b-109bc237a6ca" d="M414.35,318.8713h-2.1272v-.9491h-.0273a2.3852,2.3852,0,0,1-2.1341,1.1172,2.613,2.613,0,0,1-2.08-.9121,3.7755,3.7755,0,0,1-.7874-2.5479,4.11,4.11,0,0,1,.8682-2.74,2.833,2.833,0,0,1,2.2755-1.03,1.9355,1.9355,0,0,1,1.8579.956h.0273v-4.1H414.35Zm-2.087-3.3525V315a1.632,1.632,0,0,0-.39-1.1176,1.38,1.38,0,0,0-2.1207.1113,2.5784,2.5784,0,0,0-.3972,1.5249,2.232,2.232,0,0,0,.3838,1.4,1.362,1.362,0,0,0,2.117-.0272A2.1593,2.1593,0,0,0,412.2634,315.5188Z"/><path class="f353f741-59e0-4fb4-bf3b-109bc237a6ca" d="M422.362,316.03h-4.4973q.1078,1.5016,1.8917,1.5014a3.6948,3.6948,0,0,0,2-.5385v1.5351a5.2512,5.2512,0,0,1-2.4842.5113,3.2084,3.2084,0,0,1-3.5141-3.5072,3.69,3.69,0,0,1,.9962-2.72,3.32,3.32,0,0,1,2.45-1.0031,3.0139,3.0139,0,0,1,2.3327.8955,3.4484,3.4484,0,0,1,.8248,2.4306Zm-1.9725-1.306q0-1.481-1.1984-1.4811a1.1443,1.1443,0,0,0-.8853.4244,1.9264,1.9264,0,0,0-.4545,1.0567Z"/><path class="f353f741-59e0-4fb4-bf3b-109bc237a6ca" d="M429.4213,318.8713h-2.1272v-10.206h2.1272Z"/><path class="f353f741-59e0-4fb4-bf3b-109bc237a6ca" d="M436.9482,318.8713h-2.0131v-.99h-.0268a2.247,2.247,0,0,1-2.0533,1.1578,2.1479,2.1479,0,0,1-1.579-.5685,2.039,2.039,0,0,1-.5754-1.5185q0-2.006,2.3765-2.3156l1.8714-.249q0-1.1312-1.2252-1.131a4.1851,4.1851,0,0,0-2.3429.7334v-1.6021a5.2871,5.2871,0,0,1,1.2151-.4041,6.4024,6.4024,0,0,1,1.4039-.175,2.6036,2.6036,0,0,1,2.9488,2.9423Zm-2-2.8006v-.4645l-1.252.1616q-1.0368.1345-1.0368.9357a.7719.7719,0,0,0,.2526.5957.9693.9693,0,0,0,.683.2323,1.26,1.26,0,0,0,.9763-.4138A1.4954,1.4954,0,0,0,434.9485,316.0707Z"/><path class="f353f741-59e0-4fb4-bf3b-109bc237a6ca" d="M446.5319,315.0408a4.3847,4.3847,0,0,1-.8987,2.9687,3.2675,3.2675,0,0,1-2.602,1.03,3.7048,3.7048,0,0,1-1.4072-.2623v-2.04a2.02,2.02,0,0,0,1.2521.424q1.4881,0,1.488-2.2081v-5.7359h2.1678Z"/><path class="f353f741-59e0-4fb4-bf3b-109bc237a6ca" d="M454.85,318.8713h-2.12v-1.05h-.0337a2.4061,2.4061,0,0,1-2.1073,1.2183q-2.3964,0-2.3965-2.9012v-4.1607h2.12v3.9718q0,1.4615,1.1583,1.4612a1.1447,1.1447,0,0,0,.9154-.4008,1.6144,1.6144,0,0,0,.3435-1.0872v-3.945h2.12Z"/><path class="f353f741-59e0-4fb4-bf3b-109bc237a6ca" d="M463.2051,311.9775l-2.565,6.8938h-2.4237l-2.444-6.8938h2.2755l1.1984,4.248a6.1912,6.1912,0,0,1,.2356,1.2252h.0272a6.9527,6.9527,0,0,1,.2489-1.1846l1.2253-4.2886Z"/><path class="f353f741-59e0-4fb4-bf3b-109bc237a6ca" d="M470.1728,316.03h-4.4973q.1079,1.5016,1.8916,1.5014a3.6943,3.6943,0,0,0,2-.5385v1.5351a5.25,5.25,0,0,1-2.4841.5113,3.2082,3.2082,0,0,1-3.5141-3.5072,3.69,3.69,0,0,1,.9962-2.72,3.32,3.32,0,0,1,2.45-1.0031,3.014,3.014,0,0,1,2.3328.8955,3.4488,3.4488,0,0,1,.8248,2.4306Zm-1.9725-1.306q0-1.481-1.1985-1.4811a1.1445,1.1445,0,0,0-.8853.4244,1.927,1.927,0,0,0-.4544,1.0567Z"/><path class="f353f741-59e0-4fb4-bf3b-109bc237a6ca" d="M477.822,318.8713h-2.1207v-3.8305q0-1.6026-1.1445-1.6025a1.1349,1.1349,0,0,0-.9088.424,1.6166,1.6166,0,0,0-.357,1.0774v3.9316h-2.1272v-6.8938h2.1272v1.09h.0272a2.4373,2.4373,0,0,1,2.2145-1.259q2.2893,0,2.2893,2.8412Z"/><path class="f353f741-59e0-4fb4-bf3b-109bc237a6ca" d="M483.672,318.7905a3.1439,3.1439,0,0,1-1.4205.2489q-2.2485,0-2.2483-2.3359v-3.1576h-1.1176v-1.5684h1.1176V310.49l2.12-.6059v2.0939h1.5485v1.5684h-1.5485v2.7872q0,1.0776.8553,1.0774a1.44,1.44,0,0,0,.6932-.1953Z"/><path class="f353f741-59e0-4fb4-bf3b-109bc237a6ca" d="M491.4207,318.8713H489.3v-1.05h-.0338a2.406,2.406,0,0,1-2.1073,1.2183q-2.3964,0-2.3964-2.9012v-4.1607h2.12v3.9718q0,1.4615,1.1582,1.4612a1.1447,1.1447,0,0,0,.9154-.4008,1.6144,1.6144,0,0,0,.3436-1.0872v-3.945h2.12Z"/><path class="f353f741-59e0-4fb4-bf3b-109bc237a6ca" d="M499.82,318.8713h-2.1272v-.9491h-.0272a2.3852,2.3852,0,0,1-2.1341,1.1172,2.6129,2.6129,0,0,1-2.08-.9121,3.7755,3.7755,0,0,1-.7875-2.5479,4.11,4.11,0,0,1,.8683-2.74,2.8328,2.8328,0,0,1,2.2754-1.03,1.9358,1.9358,0,0,1,1.858.956h.0272v-4.1H499.82Zm-2.087-3.3525V315a1.6315,1.6315,0,0,0-.39-1.1176,1.38,1.38,0,0,0-2.1207.1113,2.5784,2.5784,0,0,0-.3972,1.5249,2.2327,2.2327,0,0,0,.3838,1.4,1.3621,1.3621,0,0,0,2.1171-.0272A2.1593,2.1593,0,0,0,497.7327,315.5188Z"/><path class="f24b1804-cfcf-47ed-9499-c64cc513880a" d="M472.0818,270.55a11.9684,11.9684,0,0,1-5.2513,1.1135,5.8113,5.8113,0,0,1-3.5531-.965,2.7447,2.7447,0,0,1-.8233-1.1877c7.8834.2225,11.9784-1.67,11.3538-6.2355-.5076-3.7114-3.9018-5.79-7.9063-5.79-7.1917,0-10.6237,5.6043-9.8621,11.1717.6955,5.0847,4.1474,7.8682,9.7845,7.8682a17.2547,17.2547,0,0,0,7.266-1.4472l-1.0082-4.5282Zm-4.4548-7.2747c.1574,1.1508-1.1661,1.7074-5.2143,1.67a3.0787,3.0787,0,0,1,3.3361-2.8951c1.0884,0,1.7866.5569,1.8731,1.1877Z"/><path class="f24b1804-cfcf-47ed-9499-c64cc513880a" d="M434.789,286.35l5.5281-1.435a1.5814,1.5814,0,0,0,1.0969-1.389v-8.9033h.073a3.34,3.34,0,0,0,.9458.8541,5.5672,5.5672,0,0,0,1.464.6222,7.1314,7.1314,0,0,0,1.8728.2439,7.8381,7.8381,0,0,0,2.3545-.366,7.9683,7.9683,0,0,0,2.2267-1.1223,8.2555,8.2555,0,0,0,1.8607-1.9032,9.1635,9.1635,0,0,0,1.2809-2.7026,12.495,12.495,0,0,0,.4759-3.532,11.646,11.646,0,0,0-.6285-3.9041,8.87,8.87,0,0,0-1.6652-2.8855,7.3157,7.3157,0,0,0-2.3668-1.7873,6.49,6.49,0,0,0-2.7329-.61,7.8883,7.8883,0,0,0-3.3553.6833,6.5152,6.5152,0,0,0-2.5012,2.0254h-.073l-.2927-2.1648h-5.71c.0368.8419.077,1.6345.1039,2.6589s.0426,2.1423.0426,3.3491V286.35Zm6.625-20.5115c0-.1466,0-.293.006-.4334a2.1329,2.1329,0,0,1,.067-.4085,2.7333,2.7333,0,0,1,.5-1.1651,2.85,2.85,0,0,1,.94-.83,2.6515,2.6515,0,0,1,1.2322-.3112,2.7307,2.7307,0,0,1,1.7326.5611,3.2764,3.2764,0,0,1,1.037,1.5252,6.9354,6.9354,0,0,1,.3415,2.2692,6.0384,6.0384,0,0,1-.3843,2.2633,3.3469,3.3469,0,0,1-1.0981,1.4886,2.8262,2.8262,0,0,1-1.7021.5306,2.5144,2.5144,0,0,1-1.1953-.2989,2.6345,2.6345,0,0,1-.8787-.7809,2.7974,2.7974,0,0,1-.4879-1.08,5.0725,5.0725,0,0,1-.11-1.0983Z"/><path class="f99a5505-18b1-4b71-8d69-bff27047a47c" d="M429.92,293.5385a71.5107,71.5107,0,0,0,11.7369.7648c15.67-.438,29.4458-5.8432,38.1293-13.05H446.9845a1.4171,1.4171,0,0,0-1.4479.7917,6.6,6.6,0,0,0-.2631,2.35,4.0684,4.0684,0,0,1-.4352,2.0206,2.8307,2.8307,0,0,1-1.734,1.2167l-11.6532,3.1084v-7.2568c0-1.3438-.6914-2.2308-1.7954-2.2308l-28.4226-.0594C407.7949,286.9824,418.3491,291.727,429.92,293.5385Z"/><path class="f99a5505-18b1-4b71-8d69-bff27047a47c" d="M483.5487,249.4194v0h-9.011a1.52,1.52,0,0,1-1.2691-1.0045l-3.0346-8.5942.2193.1008a40.0313,40.0313,0,0,1,13.0954,9.4976Zm-84.3284,0v0c8.0958-9.2832,23.9415-15.5912,42.1612-15.5912a73.3036,73.3036,0,0,1,19.7744,2.6416l.2105.0568-4.4972,11.9916a1.6215,1.6215,0,0,1-1.45.9015H399.22Z"/><path class="f24b1804-cfcf-47ed-9499-c64cc513880a" d="M475.7757,255.4355l0,.7011,0,13.5368a13.76,13.76,0,0,0,.114,1.84,8.4188,8.4188,0,0,0,.339,1.5221h0l.0223.0661h0c.66,1.9042,2.5923,2.8177,4.4982,3.1148a13.6507,13.6507,0,0,0,5.9641-.7293c.0795-.0262.1317-.0439.1663-.0557v0l.17-.0668-1.0149-4.4888a3.7337,3.7337,0,0,1-2.953.546c-.7337-.2019-.8806-1.2216-.8614-3.3051l.0425-4.3995.0015-.14h3.7913V258.9h-3.8129l0-.1413.0079-5.07-5.7608,1.554Z"/><path class="f24b1804-cfcf-47ed-9499-c64cc513880a" d="M465.1311,237.0165l6.5741,18.9927c-4.383-2.6739-8.7652-2.512-13.1484,0Z"/><path class="f24b1804-cfcf-47ed-9499-c64cc513880a" d="M430.9866,258.0741h-6.6248v10.473a3.4856,3.4856,0,0,1-.0305.5185,1.7941,1.7941,0,0,1-.1158.4331,2.5078,2.5078,0,0,1-.3966.7078,2.2,2.2,0,0,1-.6955.5857,2.1656,2.1656,0,0,1-1.0308.2439,1.9277,1.9277,0,0,1-1.7447-.909,5.0193,5.0193,0,0,1-.5613-2.6415v-9.4115h-6.6248v10.473a10.7973,10.7973,0,0,0,.7686,4.3312,5.5413,5.5413,0,0,0,2.1838,2.5987,6.537,6.537,0,0,0,3.4527.8662c1.72-.013,4.5277-.6723,5.4938-2.1768h.11l.2524,1.7742h5.71q-.0549-1.1529-.0976-2.69c-.0274-1.0248-.0488-2.1779-.0488-3.4589Z"/><path class="f24b1804-cfcf-47ed-9499-c64cc513880a" d="M409.88,270.4771a12.7135,12.7135,0,0,1-4.2612.6416c-10.3984-.0394-8.5844-15.544,2.4087-13.1188a10.77,10.77,0,0,1,1.8881.5573l.2571-5.1751c-.0687-.019-.3208-.1019-.3934-.1209a16.15,16.15,0,0,0-2.0476-.4367,21.2479,21.2479,0,0,0-2.5389-.1461,17.6181,17.6181,0,0,0-4.2051.33,13.92,13.92,0,0,0-3.6457,1.5282,11.94,11.94,0,0,0-4.767,5.968,13.07,13.07,0,0,0-.6985,4.3334,12.6851,12.6851,0,0,0,.4795,3.5008,10.4952,10.4952,0,0,0,1.48,3.1066,10.3282,10.3282,0,0,0,2.527,2.5674,12.0186,12.0186,0,0,0,3.6278,1.649,17.622,17.622,0,0,0,4.7762.593,15.3675,15.3675,0,0,0,6.2657-.9927Z"/><line class="aa683ebd-0a56-40c5-9421-50b2151c6014" x1="521.333" y1="233.8748" x2="521.333" y2="319.0394"/><rect class="bd57b50c-f5f5-4af9-be1d-ba59b9dc53ba" x="361.4271" y="191.3583" width="254.8704" height="18.6749"/><rect class="f353f741-59e0-4fb4-bf3b-109bc237a6ca" x="361.4271" y="209.9778" width="254.8704" height="2.6528"/><path class="bd57b50c-f5f5-4af9-be1d-ba59b9dc53ba" d="M619.5471,205.6443v-3.1836h10.6218V201.398H619.5471v-2.1247l1.0588-1.0627H633.357v7.4337Zm2.12-8.4964,3.1881-3.1882h8.5016v3.1882Z"/><path class="bd57b50c-f5f5-4af9-be1d-ba59b9dc53ba" d="M634.42,204.5816V193.96h3.1829v7.439Z"/><polygon class="bd57b50c-f5f5-4af9-be1d-ba59b9dc53ba" points="649.287 205.644 651.969 205.631 652.475 205.125 652.475 205.106 652.475 198.211 646.099 198.211 646.099 201.398 649.287 201.398 649.287 202.461 645.57 202.461 641.848 198.739 641.848 197.148 652.475 197.148 649.292 193.96 638.665 193.96 638.665 200.336 643.974 205.644 649.287 205.644"/><polygon class="bd57b50c-f5f5-4af9-be1d-ba59b9dc53ba" points="656.715 206.583 656.715 197.142 653.532 193.975 653.532 205.27 652.234 206.583 619.547 206.583 622.736 209.766 653.532 209.766 656.721 206.583 656.715 206.583"/><polygon class="f8480760-59dc-44e2-91b5-d471fdbfec66" points="627.165 329.546 616.535 329.546 616.535 340.157 627.165 340.157 637.795 340.157 637.795 329.546 627.165 329.546"/><rect class="a7ce5f97-38f6-4d5e-b63f-4e66c146a1d7" x="361.4473" y="403.9567" width="85" height="85"/><path class="eec769b5-a7c4-46c1-83df-7cba59842860" d="M433.6263,424.6672l-3.2607-3.2607-5.455,5.455H380.2657v44.6454h44.6451V433.3826Zm-12.4318,43.1233H383.982V430.5778h37.2123l-22.5867,22.5867-3.26-3.26-3.2607-3.2607-3.2607,3.2607,3.2607,3.2607,3.2607,3.2607,3.2606,3.2607,3.2607-3.2607,0,0,19.3262-19.3262Z"/><rect class="a7ce5f97-38f6-4d5e-b63f-4e66c146a1d7" x="467.7265" y="403.9567" width="85" height="85"/><path class="eec769b5-a7c4-46c1-83df-7cba59842860" d="M520.2022,427.4481l-4.4466-4.6748h-25.421v39.0739h29.8676Zm-14.2945,27.2754H495.816a.675.675,0,1,1,0-1.35h10.0917a.675.675,0,1,1,0,1.35Zm8.59-4.9979H495.816a.675.675,0,1,1,0-1.35h18.6814a.675.675,0,1,1,0,1.35Zm0-4.9971H495.816a.675.675,0,1,1,0-1.35h18.6814a.675.675,0,1,1,0,1.35Zm0-4.9971H495.816a.6751.6751,0,1,1,0-1.35h18.6814a.6751.6751,0,1,1,0,1.35Zm0-4.9979H495.816a.6751.6751,0,1,1,0-1.35h18.6814a.6751.6751,0,1,1,0,1.35Zm.7188-6.6721v-4.3893l4.1752,4.3893Z"/><path class="eec769b5-a7c4-46c1-83df-7cba59842860" d="M525.6719,429.0671H522.186V464.17H500.2508v3.971h29.8675V433.7419Zm-.5394,5.288v-4.3892l4.1748,4.3892Z"/><rect class="a7ce5f97-38f6-4d5e-b63f-4e66c146a1d7" x="574.3068" y="403.9567" width="85" height="85"/><path class="eec769b5-a7c4-46c1-83df-7cba59842860" d="M616.8081,435.6169a8.6,8.6,0,1,0,8.756,8.5984A8.6758,8.6758,0,0,0,616.8081,435.6169Zm-.0571,12.4223a3.9287,3.9287,0,1,1,4.0016-3.9285A3.9657,3.9657,0,0,1,616.751,448.0392Z"/><path class="eec769b5-a7c4-46c1-83df-7cba59842860" d="M616.96,430.9547c11.5737,0,17.1678,8.7027,19.0627,12.5151-2.146,4.1181-8.4092,14.006-19.0627,14.006-11.82,0-17.3345-9.7028-19.1123-13.7239,2.0162-3.8175,7.9458-12.7972,19.1123-12.7972m0-4.9977c-17.583,0-24.5468,17.6016-24.5468,17.6016s5.9582,18.9149,24.5468,18.9149c17.0594,0,24.5467-18.9149,24.5467-18.9149S635.3608,425.957,616.96,425.957Z"/><rect class="bcd3adc4-0c8f-4480-b69f-2559cb8a33fc" x="467.7462" y="510.2378" width="85" height="85"/><path class="eec769b5-a7c4-46c1-83df-7cba59842860" d="M513.4082,569.1457l.0187-2.4492a13.9792,13.9792,0,0,0,3.62-1.3455l1.895,1.8777a1.1448,1.1448,0,0,0,1.6224-.0028l3.4614-3.4791a1.15,1.15,0,0,0-.0055-1.6282l-1.6779-1.6609a14.4913,14.4913,0,0,0,1.5883-3.3527l2.6165.047a1.1469,1.1469,0,0,0,1.1646-1.1315l.07-4.907a1.1455,1.1455,0,0,0-1.1258-1.1671l-2.3263-.0454a14.1337,14.1337,0,0,0-1.6-4.2721l1.86-1.7845a1.152,1.152,0,0,0-.002-1.6274l-3.4773-3.461a1.1588,1.1588,0,0,0-1.63.0032l-1.7814,1.7049a14.3867,14.3867,0,0,0-3.857-1.62l.0629-2.4062a1.1519,1.1519,0,0,0-1.1325-1.1682l-4.91-.0744a1.1524,1.1524,0,0,0-1.1652,1.1351l-.06,2.5358a14.3248,14.3248,0,0,0-4.1606,1.8369l-1.6867-1.6644a1.15,1.15,0,0,0-1.6267.0075l-3.4611,3.4772a1.155,1.155,0,0,0,.0015,1.6294l1.9079,1.88a14.4037,14.4037,0,0,0-1.286,3.4517l-2.3725-.0262a1.1512,1.1512,0,0,0-1.1686,1.1345l-.0735,4.9046a1.1535,1.1535,0,0,0,1.136,1.1707l2.6735.03a14.1425,14.1425,0,0,0,1.5525,3.5121l-1.778,1.6914a1.1536,1.1536,0,0,0,.0017,1.6292l3.4774,3.4613a1.158,1.158,0,0,0,1.6333-.0047l1.85-1.7757a14.36,14.36,0,0,0,2.9737,1.25l-.0268,2.5788a1.1533,1.1533,0,0,0,1.1326,1.1681l4.9033.0714A1.1513,1.1513,0,0,0,513.4082,569.1457Zm-12.623-16.5644a9.5,9.5,0,1,1,9.3593,9.6371A9.5047,9.5047,0,0,1,500.7852,552.5813Z"/><path class="bd57b50c-f5f5-4af9-be1d-ba59b9dc53ba" d="M574.6667,204.98V202.56h8.0759v-.808h-8.0759v-1.6154l.8051-.808h9.6947V204.98Zm1.6121-6.46,2.4239-2.4239h6.4638V198.52Z"/><path class="bd57b50c-f5f5-4af9-be1d-ba59b9dc53ba" d="M585.9745,204.1721v-8.0758h2.42v5.6558Z"/><polygon class="bd57b50c-f5f5-4af9-be1d-ba59b9dc53ba" points="597.278 204.98 599.317 204.97 599.702 204.585 599.702 204.571 599.702 199.328 594.854 199.328 594.854 201.752 597.278 201.752 597.278 202.56 594.452 202.56 591.622 199.73 591.622 198.52 599.702 198.52 597.282 196.096 589.202 196.096 589.202 200.944 593.238 204.98 597.278 204.98"/><polygon class="bd57b50c-f5f5-4af9-be1d-ba59b9dc53ba" points="602.926 205.694 602.926 198.516 600.506 196.108 600.506 204.696 599.518 205.694 574.667 205.694 577.091 208.114 600.506 208.114 602.93 205.694 602.926 205.694"/><text class="b083dbe5-23ad-4285-bf89-b4232fb7ec2d" transform="translate(333.179 234.6317) rotate(-90) scale(0.583)">1</text><text class="b083dbe5-23ad-4285-bf89-b4232fb7ec2d" transform="translate(336.1195 231.3299) rotate(-90)">/</text><text class="b083dbe5-23ad-4285-bf89-b4232fb7ec2d" transform="translate(336.1156 227.5438) rotate(-90) scale(0.583)">8</text><text class="b083dbe5-23ad-4285-bf89-b4232fb7ec2d" transform="translate(336.1195 224.242) rotate(-90)"><tspan xml:space="preserve"> a</tspan></text><text class="b083dbe5-23ad-4285-bf89-b4232fb7ec2d" transform="translate(342.7193 209.9735) rotate(-90) scale(0.583)">7</text><text class="b083dbe5-23ad-4285-bf89-b4232fb7ec2d" transform="translate(345.6597 206.6717) rotate(-90)">/</text><text class="b083dbe5-23ad-4285-bf89-b4232fb7ec2d" transform="translate(345.6558 202.8856) rotate(-90) scale(0.583)">8</text><text class="b083dbe5-23ad-4285-bf89-b4232fb7ec2d" transform="translate(345.6597 199.5838) rotate(-90)"><tspan xml:space="preserve"> a</tspan></text><polyline class="bf70c4c3-de27-454a-a4eb-b0b6013d41a6" points="338.717 233.533 338.717 216.077 350.314 210.718"/><line class="bf70c4c3-de27-454a-a4eb-b0b6013d41a6" x1="346.8075" y1="209.9735" x2="359.1056" y2="209.9735"/><line class="bf70c4c3-de27-454a-a4eb-b0b6013d41a6" x1="346.8075" y1="191.3583" x2="359.1056" y2="191.3583"/><line class="bf70c4c3-de27-454a-a4eb-b0b6013d41a6" x1="346.8075" y1="212.622" x2="359.1056" y2="212.622"/><line class="bf70c4c3-de27-454a-a4eb-b0b6013d41a6" x1="350.3142" y1="209.9735" x2="350.3142" y2="191.3583"/><circle class="b95f9ceb-fef7-4dc4-a903-c88450b67d05" cx="350.3142" cy="209.9735" r="0.9399"/><path class="e03eb6d4-03f1-46f6-b3f6-b69b6f5151a4" d="M351.3791,209.9735a1.065,1.065,0,1,0-1.0649,1.0649,1.0662,1.0662,0,0,0,1.0649-1.0649Zm-1.88,0a.815.815,0,1,1,.815.8149.8158.8158,0,0,1-.815-.8149Z"/><circle class="b95f9ceb-fef7-4dc4-a903-c88450b67d05" cx="350.3142" cy="191.3583" r="0.9399"/><path class="e03eb6d4-03f1-46f6-b3f6-b69b6f5151a4" d="M351.3791,191.3583a1.065,1.065,0,1,1-1.0649-1.065,1.0662,1.0662,0,0,1,1.0649,1.065Zm-1.88,0a.815.815,0,1,0,.815-.815.8158.8158,0,0,0-.815.815Z"/><line class="bf70c4c3-de27-454a-a4eb-b0b6013d41a6" x1="350.3142" y1="212.622" x2="350.3142" y2="209.9735"/><circle class="b95f9ceb-fef7-4dc4-a903-c88450b67d05" cx="350.3142" cy="212.622" r="0.9399"/><path class="e03eb6d4-03f1-46f6-b3f6-b69b6f5151a4" d="M351.3791,212.622a1.065,1.065,0,1,0-1.0649,1.065,1.0662,1.0662,0,0,0,1.0649-1.065Zm-1.88,0a.815.815,0,1,1,.815.815.8158.8158,0,0,1-.815-.815Z"/><circle class="b95f9ceb-fef7-4dc4-a903-c88450b67d05" cx="350.3142" cy="209.9735" r="0.9399"/><path class="e03eb6d4-03f1-46f6-b3f6-b69b6f5151a4" d="M351.3791,209.9735a1.065,1.065,0,1,1-1.0649-1.065,1.0662,1.0662,0,0,1,1.0649,1.065Zm-1.88,0a.815.815,0,1,0,.815-.815.8157.8157,0,0,0-.815.815Z"/><text class="b083dbe5-23ad-4285-bf89-b4232fb7ec2d" transform="translate(594.2867 165.412) scale(0.583)">1</text><text class="b083dbe5-23ad-4285-bf89-b4232fb7ec2d" transform="translate(597.5885 168.3525)">/</text><text class="b083dbe5-23ad-4285-bf89-b4232fb7ec2d" transform="translate(601.3746 168.3486) scale(0.583)">8</text><text class="b083dbe5-23ad-4285-bf89-b4232fb7ec2d" transform="translate(604.6764 168.3525)"><tspan xml:space="preserve"> a</tspan></text><polyline class="bf70c4c3-de27-454a-a4eb-b0b6013d41a6" points="595.386 170.95 612.842 170.95 618.201 182.547"/><line class="bf70c4c3-de27-454a-a4eb-b0b6013d41a6" x1="618.9459" y1="179.0404" x2="618.9459" y2="191.3386"/><line class="bf70c4c3-de27-454a-a4eb-b0b6013d41a6" x1="616.2974" y1="179.0404" x2="616.2974" y2="191.3386"/><line class="bf70c4c3-de27-454a-a4eb-b0b6013d41a6" x1="616.2973" y1="182.5471" x2="618.946" y2="182.5471"/><circle class="b95f9ceb-fef7-4dc4-a903-c88450b67d05" cx="616.2973" cy="182.5471" r="0.9399"/><path class="e03eb6d4-03f1-46f6-b3f6-b69b6f5151a4" d="M616.2973,183.612a1.0649,1.0649,0,1,0-1.0649-1.0649,1.0662,1.0662,0,0,0,1.0649,1.0649Zm0-1.88a.8149.8149,0,1,1-.8149.8149.8157.8157,0,0,1,.8149-.8149Z"/><circle class="b95f9ceb-fef7-4dc4-a903-c88450b67d05" cx="618.946" cy="182.5471" r="0.9399"/><path class="e03eb6d4-03f1-46f6-b3f6-b69b6f5151a4" d="M618.946,183.612a1.0649,1.0649,0,1,1,1.0649-1.0649,1.0661,1.0661,0,0,1-1.0649,1.0649Zm0-1.88a.8149.8149,0,1,0,.8149.8149.8156.8156,0,0,0-.8149-.8149Z"/><text class="b083dbe5-23ad-4285-bf89-b4232fb7ec2d" transform="translate(634.6475 165.412) scale(0.583)">1</text><text class="b083dbe5-23ad-4285-bf89-b4232fb7ec2d" transform="translate(637.9492 168.3525)">/</text><text class="b083dbe5-23ad-4285-bf89-b4232fb7ec2d" transform="translate(641.7353 168.3486) scale(0.583)">8</text><text class="b083dbe5-23ad-4285-bf89-b4232fb7ec2d" transform="translate(645.0371 168.3525)"><tspan xml:space="preserve"> a</tspan></text><polyline class="bf70c4c3-de27-454a-a4eb-b0b6013d41a6" points="635.747 170.95 653.203 170.95 658.562 182.547"/><line class="bf70c4c3-de27-454a-a4eb-b0b6013d41a6" x1="659.3068" y1="179.0404" x2="659.3068" y2="191.3386"/><line class="bf70c4c3-de27-454a-a4eb-b0b6013d41a6" x1="656.6582" y1="179.0404" x2="656.6582" y2="191.3386"/><line class="bf70c4c3-de27-454a-a4eb-b0b6013d41a6" x1="656.6582" y1="182.5471" x2="659.3068" y2="182.5471"/><circle class="b95f9ceb-fef7-4dc4-a903-c88450b67d05" cx="656.6582" cy="182.5471" r="0.9399"/><path class="e03eb6d4-03f1-46f6-b3f6-b69b6f5151a4" d="M656.6582,183.612a1.0649,1.0649,0,1,0-1.065-1.0649,1.0662,1.0662,0,0,0,1.065,1.0649Zm0-1.88a.8149.8149,0,1,1-.815.8149.8157.8157,0,0,1,.815-.8149Z"/><circle class="b95f9ceb-fef7-4dc4-a903-c88450b67d05" cx="659.3068" cy="182.5471" r="0.9399"/><path class="e03eb6d4-03f1-46f6-b3f6-b69b6f5151a4" d="M659.3068,183.612a1.0649,1.0649,0,1,1,1.065-1.0649,1.0662,1.0662,0,0,1-1.065,1.0649Zm0-1.88a.8149.8149,0,1,0,.815.8149.8157.8157,0,0,0-.815-.8149Z"/><text class="a1d91653-0288-43e9-9376-5f81284e701e" transform="translate(32.2252 57.005) scale(1.0088 1)">Desar<tspan class="aaa55ed0-e287-4ae4-9fb7-39220f728055" x="25.3357" y="0">r</tspan><tspan x="28.9127" y="0">ollado por</tspan></text><text class="b6000657-1aad-4419-99b0-cd4234ecc554" transform="translate(32.2252 77.987) scale(1.0088 1)">Ace<tspan class="b5fabfc6-98c2-4661-869d-d6e68d52ee19" x="16.3122" y="0">r</tspan><tspan class="b5f07924-5321-4b77-b453-e94e19c3f1ff" x="19.9425" y="0">c</tspan><tspan x="24.5138" y="0">a de</tspan></text><rect class="f353f741-59e0-4fb4-bf3b-109bc237a6ca" x="21.2598" y="47.8167" width="5.3056" height="10.6113"/><rect class="bd57b50c-f5f5-4af9-be1d-ba59b9dc53ba" x="21.2598" y="68.7983" width="5.3056" height="10.6113"/><text class="b8c54c09-d990-4cfd-ae08-447d22dddfe0" transform="translate(125.9343 89.0469) scale(1.0088 1)">11 <tspan class="b320414a-ab47-42f6-a370-817dab2512cd" x="12.3973" y="0">p</tspan><tspan x="17.4952" y="0">t</tspan></text><text class="b8c54c09-d990-4cfd-ae08-447d22dddfe0" transform="translate(152.3825 101.2709) scale(1.0088 1)">Calibri Lig<tspan class="bc8a25b2-2fc1-4487-9000-70ea00f682c7" x="39.7214" y="0">h</tspan><tspan x="44.7656" y="0">t</tspan></text><rect class="a7ab1fc7-4cc6-407c-8d89-0761a3abc5a3" x="156.0283" y="88.2433" width="6.5225" height="2.3301"/><path class="fc562218-95fc-4330-adce-e6ed1bdd33e0" d="M138.0557,101.926l-.0086.2285H134.34l.0281-.2285a2.1777,2.1777,0,0,0,.7133-.0879.6125.6125,0,0,0,.35-.29,2.9179,2.9179,0,0,0,.1566-1.04l.1338-5.0645a3.3416,3.3416,0,0,0-.0708-.9531.5853.5853,0,0,0-.164-.2724.7588.7588,0,0,0-.3111-.1709,2.8026,2.8026,0,0,0-.7041-.0586l.0153-.2286h3.48l-.0075.2286a1.3834,1.3834,0,0,0-.6063.0869.6588.6588,0,0,0-.3552.3525,3.6825,3.6825,0,0,0-.1147,1.0156l-.126,5.0645a3.9672,3.9672,0,0,0,.0394.8906.5765.5765,0,0,0,.1567.2637.77.77,0,0,0,.3141.168A4.5012,4.5012,0,0,0,138.0557,101.926Z"/><rect class="e0b04798-014a-4542-907b-fc16e16a962f" x="150.4373" y="79.5295" width="28.2637" height="13.0381"/><text class="b8c54c09-d990-4cfd-ae08-447d22dddfe0" transform="translate(178.7008 119.3863) scale(1.0088 1)">#FF0000</text><rect class="e0b04798-014a-4542-907b-fc16e16a962f" x="122.5903" y="103.4299" width="47.9524" height="23.9762"/><rect class="bd57b50c-f5f5-4af9-be1d-ba59b9dc53ba" x="122.7435" y="103.9356" width="47.3005" height="22.9565"/><rect class="e0b04798-014a-4542-907b-fc16e16a962f" x="122.1717" y="79.5295" width="28.2656" height="13.0381"/><rect class="e0b04798-014a-4542-907b-fc16e16a962f" x="178.701" y="79.5295" width="27.5078" height="13.0381"/><rect class="e0b04798-014a-4542-907b-fc16e16a962f" x="122.1717" y="92.4807" width="28.2656" height="10.9492"/><rect class="e0b04798-014a-4542-907b-fc16e16a962f" x="150.4373" y="92.4807" width="72.7359" height="10.9492"/><rect class="e0b04798-014a-4542-907b-fc16e16a962f" x="122.1717" y="103.4299" width="101.0015" height="23.9762"/><rect class="a7ab1fc7-4cc6-407c-8d89-0761a3abc5a3" x="189.2244" y="88.1711" width="6.5235" height="2.3301"/><polyline class="e0b04798-014a-4542-907b-fc16e16a962f" points="74.903 74.653 122.172 79.53 122.172 92.568"/><path class="b95f9ceb-fef7-4dc4-a903-c88450b67d05" d="M74.71,76.5233a1.88,1.88,0,1,1,2.0627-1.677A1.88,1.88,0,0,1,74.71,76.5233Z"/><path class="e03eb6d4-03f1-46f6-b3f6-b69b6f5151a4" d="M74.6845,76.772a2.13,2.13,0,1,0-1.9-2.3372,2.1327,2.1327,0,0,0,1.9,2.3372Zm.3858-3.74a1.63,1.63,0,1,1-1.7886,1.454,1.6312,1.6312,0,0,1,1.7886-1.454C75.9643,73.1242,74.176,72.94,75.07,73.0321Z"/><text class="e06f8a63-d800-4e67-b219-4c0068db7cf7" transform="translate(31.9448 111.2042) scale(1.0088 1)">onMouseOver</text><text class="e06f8a63-d800-4e67-b219-4c0068db7cf7" transform="translate(32.7258 121.3511) scale(1.0088 1)">onMouseClick</text><line class="edb128ef-034e-4832-859d-4b6e5585b806" x1="96.4542" y1="114.9634" x2="112.3524" y2="114.9634"/><polyline class="edb128ef-034e-4832-859d-4b6e5585b806" points="90.286 109.485 96.454 109.485 96.454 119.478 90.286 119.478"/></g></svg>