<svg xmlns="http://www.w3.org/2000/svg" viewBox="0 0 116.7905 77.4881"><defs><style>.a3e07c2a-70b0-48c3-8980-0ed44a91f769,.b6fd99ff-1697-47d3-a097-a26aad13a87d{fill:#006837;}.fe0126c8-4eff-44c2-a0b7-9dd33516fc79{fill:red;}.a3e07c2a-70b0-48c3-8980-0ed44a91f769,.fe0126c8-4eff-44c2-a0b7-9dd33516fc79{fill-rule:evenodd;}</style></defs><title>S</title><g id="bb82a958-d7ed-4885-87a9-9fcd6ae6b86d" data-name="Grafica"><path class="b6fd99ff-1697-47d3-a097-a26aad13a87d" d="M2.1678,77.3205H0V67.6954H2.1678Z"/><path class="b6fd99ff-1697-47d3-a097-a26aad13a87d" d="M3.6983,77.1391V75.4212a4.5145,4.5145,0,0,0,1.0438.47,3.4594,3.4594,0,0,0,.9831.1543,2.1094,2.1094,0,0,0,.89-.1543.4986.4986,0,0,0,.3256-.47.4348.4348,0,0,0-.1478-.3357,1.3638,1.3638,0,0,0-.379-.2348,4.3352,4.3352,0,0,0-.5069-.1814q-.2753-.0809-.53-.1814a5.087,5.087,0,0,1-.7216-.332,2.0853,2.0853,0,0,1-.5235-.413A1.6175,1.6175,0,0,1,3.8092,73.2a2.1641,2.1641,0,0,1-.1109-.7316,1.8824,1.8824,0,0,1,.2518-.9936,2.055,2.055,0,0,1,.6709-.6811,3.07,3.07,0,0,1,.96-.3895,5.0162,5.0162,0,0,1,1.1244-.1243,6.2321,6.2321,0,0,1,.926.0705,6.9817,6.9817,0,0,1,.9264.2049v1.6378a3.3348,3.3348,0,0,0-.8624-.3523,3.6243,3.6243,0,0,0-.9029-.1174A1.9969,1.9969,0,0,0,6.4,71.76a1.3039,1.3039,0,0,0-.3255.1073.5979.5979,0,0,0-.2215.1814.4181.4181,0,0,0-.0806.2514.4646.4646,0,0,0,.1211.3223,1.0436,1.0436,0,0,0,.3154.2316,3.1146,3.1146,0,0,0,.4328.1745q.2382.0773.4734.1576a6.2331,6.2331,0,0,1,.7652.3222,2.4659,2.4659,0,0,1,.5871.4094,1.6065,1.6065,0,0,1,.3761.5506,2.202,2.202,0,0,1-.1344,1.7953,2.1259,2.1259,0,0,1-.7049.705,3.2081,3.2081,0,0,1-1.0134.3959,5.6322,5.6322,0,0,1-1.1912.1239A6.14,6.14,0,0,1,3.6983,77.1391Z"/><path class="b6fd99ff-1697-47d3-a097-a26aad13a87d" d="M12.3164,77.3205H10.1956V67.1452h2.1208Z"/><path class="b6fd99ff-1697-47d3-a097-a26aad13a87d" d="M19.8207,77.3205H17.8136v-.9867h-.0267A2.24,2.24,0,0,1,15.74,77.4881a2.1415,2.1415,0,0,1-1.5743-.5668,2.0326,2.0326,0,0,1-.5737-1.5139q0-2,2.3694-2.3087l1.8658-.2482q0-1.1278-1.2216-1.1276a4.1719,4.1719,0,0,0-2.3358.7312V70.8568a5.2759,5.2759,0,0,1,1.2114-.4029,6.381,6.381,0,0,1,1.4-.1745,2.5959,2.5959,0,0,1,2.94,2.9335ZM17.827,74.5284v-.4632l-1.2483.1611q-1.0337.1342-1.0337.9329a.77.77,0,0,0,.2519.594.9671.9671,0,0,0,.681.2316,1.2565,1.2565,0,0,0,.9733-.4126A1.4906,1.4906,0,0,0,17.827,74.5284Z"/><path class="b6fd99ff-1697-47d3-a097-a26aad13a87d" d="M31.578,77.3205H29.4572v-.9462H29.43a2.3781,2.3781,0,0,1-2.1277,1.1138,2.605,2.605,0,0,1-2.0738-.9094,3.7642,3.7642,0,0,1-.7851-2.54,4.0972,4.0972,0,0,1,.8657-2.7319,2.8243,2.8243,0,0,1,2.2686-1.0272,1.93,1.93,0,0,1,1.8523.9532h.0272V67.1452H31.578Zm-2.0807-3.3424v-.517a1.6272,1.6272,0,0,0-.3891-1.1143,1.3757,1.3757,0,0,0-2.1144.111,2.57,2.57,0,0,0-.396,1.52,2.2259,2.2259,0,0,0,.3827,1.3961,1.358,1.358,0,0,0,2.1107-.0271A2.1534,2.1534,0,0,0,29.4973,73.9781Z"/><path class="b6fd99ff-1697-47d3-a097-a26aad13a87d" d="M39.5656,74.4879H35.0818q.1076,1.497,1.886,1.4969a3.6841,3.6841,0,0,0,1.9937-.5369v1.53a5.2365,5.2365,0,0,1-2.4768.51,3.1987,3.1987,0,0,1-3.5035-3.4966,3.6786,3.6786,0,0,1,.9932-2.712,3.31,3.31,0,0,1,2.4431-1,3.0048,3.0048,0,0,1,2.3257.8928,3.4378,3.4378,0,0,1,.8224,2.4233ZM37.599,73.1858q0-1.4764-1.1948-1.4767a1.1412,1.1412,0,0,0-.8827.4231,1.9219,1.9219,0,0,0-.4531,1.0536Z"/><path class="b6fd99ff-1697-47d3-a097-a26aad13a87d" d="M46.6036,77.3205H44.4828V67.1452h2.1208Z"/><path class="b6fd99ff-1697-47d3-a097-a26aad13a87d" d="M54.1079,77.3205h-2.007v-.9867h-.0268a2.24,2.24,0,0,1-2.0471,1.1543,2.1411,2.1411,0,0,1-1.5742-.5668,2.0326,2.0326,0,0,1-.5737-1.5139q0-2,2.3694-2.3087l1.8657-.2482q0-1.1278-1.2215-1.1276a4.1725,4.1725,0,0,0-2.3359.7312V70.8568a5.2752,5.2752,0,0,1,1.2115-.4029,6.38,6.38,0,0,1,1.4-.1745,2.5958,2.5958,0,0,1,2.94,2.9335Zm-1.9937-2.7921v-.4632l-1.2483.1611q-1.0337.1342-1.0337.9329a.77.77,0,0,0,.2519.594.9673.9673,0,0,0,.681.2316,1.2567,1.2567,0,0,0,.9734-.4126A1.491,1.491,0,0,0,52.1142,74.5284Z"/><path class="b6fd99ff-1697-47d3-a097-a26aad13a87d" d="M63.6628,73.5016a4.3714,4.3714,0,0,1-.896,2.96,3.2578,3.2578,0,0,1-2.5942,1.0268,3.6927,3.6927,0,0,1-1.4029-.2615V75.1928a2.0139,2.0139,0,0,0,1.2483.4227q1.4836,0,1.4835-2.2014V67.6954h2.1613Z"/><path class="b6fd99ff-1697-47d3-a097-a26aad13a87d" d="M71.956,77.3205H69.8421v-1.047h-.0336a2.3989,2.3989,0,0,1-2.101,1.2146q-2.3892,0-2.3893-2.8925V70.4475h2.114v3.96q0,1.4569,1.1547,1.4568a1.1413,1.1413,0,0,0,.9127-.4,1.61,1.61,0,0,0,.3425-1.0839V70.4475H71.956Z"/><path class="b6fd99ff-1697-47d3-a097-a26aad13a87d" d="M80.2859,70.4475l-2.5573,6.873H75.3122l-2.4367-6.873h2.2687l1.1948,4.2351a6.1613,6.1613,0,0,1,.2348,1.2216h.0272a6.9235,6.9235,0,0,1,.2482-1.1811l1.2215-4.2756Z"/><path class="b6fd99ff-1697-47d3-a097-a26aad13a87d" d="M87.2326,74.4879H82.7488q.1075,1.497,1.886,1.4969a3.6836,3.6836,0,0,0,1.9937-.5369v1.53a5.236,5.236,0,0,1-2.4767.51,3.1987,3.1987,0,0,1-3.5035-3.4966,3.6786,3.6786,0,0,1,.9932-2.712,3.31,3.31,0,0,1,2.4431-1,3.0049,3.0049,0,0,1,2.3257.8928,3.4383,3.4383,0,0,1,.8223,2.4233ZM85.266,73.1858q0-1.4764-1.1948-1.4767a1.1412,1.1412,0,0,0-.8827.4231,1.921,1.921,0,0,0-.453,1.0536Z"/><path class="b6fd99ff-1697-47d3-a097-a26aad13a87d" d="M94.8588,77.3205H92.7445V73.5016q0-1.5979-1.141-1.5977a1.1314,1.1314,0,0,0-.9061.4227,1.6114,1.6114,0,0,0-.3559,1.0741v3.92H88.2206v-6.873h2.1209v1.0871h.0271a2.43,2.43,0,0,1,2.2079-1.2552q2.2823,0,2.2823,2.8327Z"/><path class="b6fd99ff-1697-47d3-a097-a26aad13a87d" d="M100.6913,77.24a3.1348,3.1348,0,0,1-1.4163.2482q-2.2417,0-2.2415-2.3289v-3.148H95.9192V70.4475h1.1143V68.9639l2.114-.6041v2.0877h1.5438v1.5637H99.1475V74.79q0,1.0744.8527,1.0742a1.436,1.436,0,0,0,.6911-.1947Z"/><path class="b6fd99ff-1697-47d3-a097-a26aad13a87d" d="M108.4166,77.3205h-2.1139v-1.047h-.0336a2.3989,2.3989,0,0,1-2.101,1.2146q-2.3892,0-2.3893-2.8925V70.4475h2.114v3.96q0,1.4569,1.1547,1.4568a1.1413,1.1413,0,0,0,.9127-.4,1.61,1.61,0,0,0,.3425-1.0839V70.4475h2.1139Z"/><path class="b6fd99ff-1697-47d3-a097-a26aad13a87d" d="M116.7905,77.3205H114.67v-.9462h-.0271a2.3781,2.3781,0,0,1-2.1277,1.1138,2.6052,2.6052,0,0,1-2.0739-.9094,3.7642,3.7642,0,0,1-.785-2.54,4.0971,4.0971,0,0,1,.8656-2.7319,2.8245,2.8245,0,0,1,2.2686-1.0272,1.93,1.93,0,0,1,1.8524.9532h.0271V67.1452h2.1209ZM114.71,73.9781v-.517a1.6267,1.6267,0,0,0-.3891-1.1143,1.3756,1.3756,0,0,0-2.1143.111,2.57,2.57,0,0,0-.396,1.52,2.2259,2.2259,0,0,0,.3826,1.3961,1.358,1.358,0,0,0,2.1107-.0271A2.1528,2.1528,0,0,0,114.71,73.9781Z"/><path class="fe0126c8-4eff-44c2-a0b7-9dd33516fc79" d="M89.1359,36.6116a11.9332,11.9332,0,0,1-5.2355,1.11,5.7943,5.7943,0,0,1-3.5424-.962,2.7366,2.7366,0,0,1-.8209-1.1842c7.86.2219,11.9424-1.6653,11.32-6.2168-.5061-3.7-3.89-5.7724-7.8825-5.7724-7.17,0-10.5918,5.5875-9.8325,11.1381.6934,5.0694,4.135,7.8446,9.7551,7.8446a17.2036,17.2036,0,0,0,7.2442-1.4429l-1.0052-4.5145Zm-4.4414-7.2529c.1569,1.1474-1.1626,1.7023-5.1987,1.6654a3.07,3.07,0,0,1,3.3261-2.8864c1.0852,0,1.7813.5552,1.8675,1.1842Z"/><path class="fe0126c8-4eff-44c2-a0b7-9dd33516fc79" d="M51.9552,52.3643l5.5115-1.4306A1.5768,1.5768,0,0,0,58.56,49.5489V40.6723h.0728a3.3275,3.3275,0,0,0,.9429.8515,5.55,5.55,0,0,0,1.46.62,7.1107,7.1107,0,0,0,1.8671.2432,7.8137,7.8137,0,0,0,2.3474-.3649,7.9488,7.9488,0,0,0,2.22-1.1189,8.2328,8.2328,0,0,0,1.8551-1.8976,9.1353,9.1353,0,0,0,1.2771-2.6944,12.4608,12.4608,0,0,0,.4745-3.5214,11.6109,11.6109,0,0,0-.6267-3.8924,8.84,8.84,0,0,0-1.66-2.8768,7.2937,7.2937,0,0,0-2.36-1.782,6.4711,6.4711,0,0,0-2.7246-.6082,7.8654,7.8654,0,0,0-3.3453.6813,6.4962,6.4962,0,0,0-2.4936,2.0192H57.794l-.2918-2.1582h-5.693c.0367.8394.0767,1.63.1035,2.6509s.0425,2.1358.0425,3.339V52.3643Zm6.6051-20.45c0-.1462,0-.2921.006-.432a2.1215,2.1215,0,0,1,.0668-.4074,2.7248,2.7248,0,0,1,.4989-1.1616,2.8419,2.8419,0,0,1,.9366-.8272,2.644,2.644,0,0,1,1.2285-.31,2.7226,2.7226,0,0,1,1.7274.5594,3.2667,3.2667,0,0,1,1.0339,1.5206,6.9157,6.9157,0,0,1,.34,2.2624,6.0213,6.0213,0,0,1-.383,2.2565,3.3374,3.3374,0,0,1-1.0949,1.4841,2.818,2.818,0,0,1-1.6969.529,2.5065,2.5065,0,0,1-1.1918-.298,2.628,2.628,0,0,1-.8761-.7785,2.79,2.79,0,0,1-.4863-1.0764,5.05,5.05,0,0,1-.11-1.095Z"/><path class="a3e07c2a-70b0-48c3-8980-0ed44a91f769" d="M47.1009,59.5308a71.2863,71.2863,0,0,0,11.7017.7626C74.425,59.8567,88.16,54.4678,96.8172,47.2828H64.114a1.4129,1.4129,0,0,0-1.4435.7893,6.58,6.58,0,0,0-.2623,2.3432,4.0551,4.0551,0,0,1-.4339,2.0144,2.8221,2.8221,0,0,1-1.7288,1.2131L48.6273,56.7419v-7.235c0-1.34-.6892-2.2241-1.79-2.2241L18.5,47.2236C25.0423,52.9945,35.5647,57.7248,47.1009,59.5308Z"/><path class="a3e07c2a-70b0-48c3-8980-0ed44a91f769" d="M100.5684,15.5444v0h-8.984a1.5157,1.5157,0,0,1-1.2653-1.0015L87.2936,5.9748l.2187.1005a39.9108,39.9108,0,0,1,13.0561,9.4691Zm-84.075,0v0C24.5649,6.2891,40.3629,0,58.5278,0a73.0826,73.0826,0,0,1,19.715,2.6337l.21.0566L73.9691,14.6459a1.6168,1.6168,0,0,1-1.4454.8988h-56.03Z"/><path class="fe0126c8-4eff-44c2-a0b7-9dd33516fc79" d="M92.8187,21.5424l0,.6989,0,13.4962a13.7317,13.7317,0,0,0,.1136,1.8349A8.3942,8.3942,0,0,0,93.27,39.09h0l.0222.0659h0c.6585,1.8985,2.5845,2.8092,4.4846,3.1054a13.6092,13.6092,0,0,0,5.9462-.7271c.0793-.0261.1313-.0437.1658-.0555v0l.1694-.0667-1.0119-4.4752a3.7227,3.7227,0,0,1-2.9441.5444c-.7315-.2013-.8779-1.2179-.8588-3.2952l.0424-4.3863.0015-.14h3.78V24.9969H99.2657l0-.1409.0078-5.0546L93.53,21.3507Z"/><path class="fe0126c8-4eff-44c2-a0b7-9dd33516fc79" d="M82.2061,3.1788l6.5544,18.9356c-4.37-2.6659-8.739-2.5045-13.109,0Z"/><path class="fe0126c8-4eff-44c2-a0b7-9dd33516fc79" d="M48.1642,24.1731H41.5594V34.6146a3.4772,3.4772,0,0,1-.03.5169,1.7834,1.7834,0,0,1-.1154.4318,2.5007,2.5007,0,0,1-.3955.7057,2.1921,2.1921,0,0,1-.6934.5839,2.1589,2.1589,0,0,1-1.0277.2432,1.9216,1.9216,0,0,1-1.7393-.9063,5.0036,5.0036,0,0,1-.56-2.6335V24.1731H30.393V34.6146a10.7657,10.7657,0,0,0,.7662,4.3181,5.5255,5.5255,0,0,0,2.1774,2.591,6.5174,6.5174,0,0,0,3.4423.8635c1.7148-.0129,4.514-.67,5.4772-2.17h.11l.2516,1.7689H48.31q-.0546-1.15-.0972-2.6821c-.0273-1.0217-.0487-2.1713-.0487-3.4484Z"/><path class="fe0126c8-4eff-44c2-a0b7-9dd33516fc79" d="M27.1211,36.5388a12.6767,12.6767,0,0,1-4.2484.64c-10.3672-.0393-8.5586-15.4973,2.4014-13.0794a10.72,10.72,0,0,1,1.8824.5557l.2564-5.16c-.0685-.0189-.32-.1016-.3922-.12a16.1162,16.1162,0,0,0-2.0415-.4353,21.1851,21.1851,0,0,0-2.5312-.1458,17.5709,17.5709,0,0,0-4.1925.3289,13.8772,13.8772,0,0,0-3.6347,1.5236,11.9041,11.9041,0,0,0-4.7527,5.95,13.0264,13.0264,0,0,0-.6964,4.32,12.6484,12.6484,0,0,0,.478,3.49,10.4653,10.4653,0,0,0,1.4753,3.0972,10.296,10.296,0,0,0,2.5194,2.56,11.9834,11.9834,0,0,0,3.6169,1.644,17.5693,17.5693,0,0,0,4.7618.5913,15.3214,15.3214,0,0,0,6.2469-.99Z"/></g></svg>