<svg xmlns="http://www.w3.org/2000/svg" viewBox="0 0 59.6867 59.6867"><defs><style>.a9dee8a2-56f7-4fc8-a8da-98d13643ecef{fill:#fff;}.f0ad602b-988e-42c5-8e76-56f6ccfb60c5{fill:red;}</style></defs><title>S</title><g id="e2e7003b-49d8-4f54-9a58-da0cc95f36e8" data-name="Grafica"><path class="a9dee8a2-56f7-4fc8-a8da-98d13643ecef" d="M31.2723,58.1873a28.3763,28.3763,0,0,0,26.915-26.9149h.07a1.429,1.429,0,1,0,0-2.858h-.07A28.3763,28.3763,0,0,0,31.2724,1.4994v-.07a1.4291,1.4291,0,0,0-2.8581,0V1.5A28.3761,28.3761,0,0,0,1.5,28.4144h-.07a1.429,1.429,0,1,0,0,2.858h.07a28.3761,28.3761,0,0,0,26.915,26.9149v.07a1.429,1.429,0,1,0,2.8579,0Zm18.1622-8.7528a27.5955,27.5955,0,0,1-18.1622,8.0632v-1.18a26.5035,26.5035,0,0,0,25.0451-25.045h1.18A27.5953,27.5953,0,0,1,49.4345,49.4345Zm0-39.1822a27.5953,27.5953,0,0,1,8.0631,18.162h-1.18a26.5037,26.5037,0,0,0-25.045-25.045v-1.18A27.5953,27.5953,0,0,1,49.4344,10.2523ZM39.824,39.824a14.1148,14.1148,0,1,1,0-19.9613A14.1308,14.1308,0,0,1,39.824,39.824ZM10.2523,10.2523A27.5958,27.5958,0,0,1,28.4142,2.1891v1.18A26.5041,26.5041,0,0,0,3.3692,28.4144H2.189A27.596,27.596,0,0,1,10.2523,10.2523Zm0,39.1822A27.5943,27.5943,0,0,1,2.1891,31.2724h1.18a26.5035,26.5035,0,0,0,25.0451,25.045v1.18A27.5955,27.5955,0,0,1,10.2522,49.4345Z"/><path class="f0ad602b-988e-42c5-8e76-56f6ccfb60c5" d="M42.0777,6.3136,36.3111,17.3018a14.0553,14.0553,0,0,1,5.9934,5.9164l10.9979-5.7469A26.6343,26.6343,0,0,0,42.0777,6.3136Z"/><path class="f0ad602b-988e-42c5-8e76-56f6ccfb60c5" d="M39.824,39.824a14.0608,14.0608,0,0,1-3.4727,2.5423l5.7463,10.997A26.64,26.64,0,0,0,53.3423,42.14l-10.9867-5.766A14.0626,14.0626,0,0,1,39.824,39.824Z"/><path class="f0ad602b-988e-42c5-8e76-56f6ccfb60c5" d="M17.43,53.2794l5.7663-10.9876a14.0316,14.0316,0,0,1-5.9052-6.0034L6.2926,42.0354A26.6106,26.6106,0,0,0,17.43,53.2794Z"/><path class="f0ad602b-988e-42c5-8e76-56f6ccfb60c5" d="M19.8627,19.8627a14.0621,14.0621,0,0,1,3.4152-2.5157L17.5323,6.3515A26.662,26.662,0,0,0,6.3735,17.4907L17.36,23.2563A14.0675,14.0675,0,0,1,19.8627,19.8627Z"/><path class="f0ad602b-988e-42c5-8e76-56f6ccfb60c5" d="M26.314,46.9866l-.0014-.0014a1.564,1.564,0,0,0-.6379-.276,1.5458,1.5458,0,0,0-.6969-.0353,1.1277,1.1277,0,0,0-.4688.2142.992.992,0,0,0-.2739.3343,1.836,1.836,0,0,0-.1075.2607l-.3869,1.2926a1.13,1.13,0,0,0,.009.6775,1.2671,1.2671,0,0,0,.588.6629c.2032.1359.3065.2025.5.3231a1.4243,1.4243,0,0,0,.1463.0978l.0811.05c.0534.0339.1179.0846.1283.1393a.433.433,0,0,1,.0083.1665l-.0159.079-.1574.7836a.3851.3851,0,0,1-.0354.0922.1833.1833,0,0,1-.0686.0645.4784.4784,0,0,1-.1741.0534.8859.8859,0,0,1-.3217-.0312.81.81,0,0,1-.2788-.1089.3941.3941,0,0,1-.1221-.1206A.1677.1677,0,0,1,24,51.6167a.4962.4962,0,0,1,.0146-.1151l.061-.242-.1685-.0451c-.2628-.0707-.3939-.1075-.6553-.1858l-.1706-.0513-.1082.3619a1.49,1.49,0,0,0-.0478.2885.8764.8764,0,0,0,.0936.457,1.2643,1.2643,0,0,0,.3973.4493,2.1944,2.1944,0,0,0,.819.3412,2.7249,2.7249,0,0,0,.6137.08,1.4946,1.4946,0,0,0,.27-.0228,1.2771,1.2771,0,0,0,.5534-.2289.8756.8756,0,0,0,.2836-.3626,1.6467,1.6467,0,0,0,.086-.2843l.1837-1.0887a1.0832,1.0832,0,0,0-.07-.6137,1.2356,1.2356,0,0,0-.16-.2837,1.0808,1.0808,0,0,0-.2455-.2212c-.0631-.0437-.1546-.1-.2413-.1518-.0443-.0271-.0929-.0611-.1442-.0971-.0451-.0312-.0922-.0645-.14-.0957l-.35-.23a.6263.6263,0,0,1-.0617-.0486.2525.2525,0,0,1-.1144-.1352.4485.4485,0,0,1,.0035-.1692l.2614-.9826.0187-.07a.61.61,0,0,1,.0451-.1145.2318.2318,0,0,1,.0679-.08.29.29,0,0,1,.1228-.052.5334.5334,0,0,1,.2184.0159.6063.6063,0,0,1,.2205.0881.3452.3452,0,0,1,.1.1061.1812.1812,0,0,1,.0277.0881.5226.5226,0,0,1-.0083.1172l-.052.2614.1741.0347c.23.0464.3453.0672.5769.1061l.1754.03.0645-.3821a2.0119,2.0119,0,0,0,.0187-.2829,1.0054,1.0054,0,0,0-.0963-.4209A1.1347,1.1347,0,0,0,26.314,46.9866Z"/><path class="f0ad602b-988e-42c5-8e76-56f6ccfb60c5" d="M31,48.2757a1.9753,1.9753,0,0,0-.0458-.2781,1.0073,1.0073,0,0,0-.1886-.3883,1.1344,1.1344,0,0,0-.405-.3148,1.9247,1.9247,0,0,0-1.3654.0007,1.1155,1.1155,0,0,0-.4035.3148,1.0016,1.0016,0,0,0-.1887.3876,1.8225,1.8225,0,0,0-.0457.2864l-.2448,4.0123a1.6272,1.6272,0,0,0,.0187.29.88.88,0,0,0,.1935.4223,1.2666,1.2666,0,0,0,.4847.3482,2.6676,2.6676,0,0,0,1.7385,0,1.2832,1.2832,0,0,0,.4854-.3482.8821.8821,0,0,0,.1927-.4174,1.5907,1.5907,0,0,0,.0174-.32l-.2386-3.9131ZM30.1924,52.23a.3641.3641,0,0,1-.0132.0985.1919.1919,0,0,1-.0506.0825.4219.4219,0,0,1-.1532.0874A1.1391,1.1391,0,0,1,29.36,52.5a.398.398,0,0,1-.1449-.0909.1736.1736,0,0,1-.0458-.079.4706.4706,0,0,1-.0118-.1152l.0021-.0735.113-3.6856a.5588.5588,0,0,1,.0181-.122.22.22,0,0,1,.0471-.0923.2763.2763,0,0,1,.1068-.0783.5476.5476,0,0,1,.2143-.034.6023.6023,0,0,1,.2378.0368.32.32,0,0,1,.1151.0748.21.21,0,0,1,.0465.0839.4716.4716,0,0,1,.0187.1145l.0028.0922.0139.2122.1012,3.2883-.0083.0041Z"/><path class="f0ad602b-988e-42c5-8e76-56f6ccfb60c5" d="M36.3842,51.34l-.3163-1.0582a1.09,1.09,0,0,0-.3377-.5207,1.2568,1.2568,0,0,0-.2683-.181,1.0676,1.0676,0,0,0-.32-.0888c-.0763-.0118-.1831-.0215-.2836-.03-.0555-.0049-.1172-.0146-.1831-.0243l-.1581-.0222c-.1227-.0138-.23-.0277-.3224-.04l-.0923-.0118a.6728.6728,0,0,1-.0769-.0152.2424.2424,0,0,1-.1616-.0715.4382.4382,0,0,1-.0721-.1539l-.215-1.0658a.6968.6968,0,0,1-.01-.1262.2335.2335,0,0,1,.0257-.1006.28.28,0,0,1,.0859-.1.5659.5659,0,0,1,.2032-.0825.6124.6124,0,0,1,.2351-.02.3869.3869,0,0,1,.138.0507.2.2,0,0,1,.0645.0679.5077.5077,0,0,1,.0444.1089l.0721.2559.1678-.0451c.2281-.06.3412-.0922.5679-.16l.17-.0513-.1116-.3717a2.1813,2.1813,0,0,0-.1082-.2607.9974.9974,0,0,0-.2746-.3356,1.1373,1.1373,0,0,0-.4667-.2122,1.9506,1.9506,0,0,0-1.3356.3113,1.1122,1.1122,0,0,0-.3238.3987,1,1,0,0,0-.0964.42,1.8026,1.8026,0,0,0,.0187.2829l.2178,1.2822.0083.0464a1.1345,1.1345,0,0,0,.3065.6047,1.2009,1.2009,0,0,0,.776.3287l.0263.0028.0153.0034c.242.0319.364.0458.5929.0687q.0645.0125.1477.0208c.0506.0048.0943.009.1213.0111a.27.27,0,0,1,.1762.0659.47.47,0,0,1,.0818.1484l.2253.8473a.3793.3793,0,0,1,.0091.1013.1745.1745,0,0,1-.0312.0867.49.49,0,0,1-.1346.1262.92.92,0,0,1-.3016.1144.8717.8717,0,0,1-.2982.0256.4107.4107,0,0,1-.1616-.0534.1863.1863,0,0,1-.0645-.0693.4628.4628,0,0,1-.0381-.1116l-.0472-.2427-.1761.0353c-.2656.0534-.3987.0784-.6664.1241l-.174.0292.0624.373a1.5869,1.5869,0,0,0,.0846.28.8743.8743,0,0,0,.2843.3668,1.2766,1.2766,0,0,0,.5533.2289,1.4942,1.4942,0,0,0,.27.0228,2.7312,2.7312,0,0,0,.6144-.08,2.2131,2.2131,0,0,0,.82-.3412,1.2881,1.2881,0,0,0,.396-.4493.8806.8806,0,0,0,.095-.4528A1.4872,1.4872,0,0,0,36.3842,51.34Zm-2.78-2.2528v0h0Z"/></g></svg>