<svg xmlns="http://www.w3.org/2000/svg" viewBox="0 0 85 85"><defs><style>.a4f4a40a-ee6e-437e-9f24-bef1ebd6f513{fill:#006837;}.aa470592-2579-48f6-9b0f-9e646fe392d3{fill:#39b34a;}.ac4f6343-76a0-459f-ba11-c03395efcdf4{fill:#fff;}</style></defs><title>S</title><g id="fbda3a82-df93-4fd1-a204-ce504165e423" data-name="Grafica"><rect class="a4f4a40a-ee6e-437e-9f24-bef1ebd6f513" width="85" height="85"/><rect class="aa470592-2579-48f6-9b0f-9e646fe392d3" y="78.8612" width="85" height="6.1388"/><path class="ac4f6343-76a0-459f-ba11-c03395efcdf4" d="M52.4757,23.4914l-4.4466-4.6748H22.6082V57.8905H52.4757ZM38.1812,50.7668H28.09a.675.675,0,1,1,0-1.35H38.1812a.675.675,0,1,1,0,1.35Zm8.59-4.9979H28.09a.675.675,0,1,1,0-1.35H46.7709a.675.675,0,1,1,0,1.35Zm0-4.9971H28.09a.675.675,0,1,1,0-1.35H46.7709a.675.675,0,1,1,0,1.35Zm0-4.9971H28.09a.6751.6751,0,1,1,0-1.35H46.7709a.6751.6751,0,1,1,0,1.35Zm0-4.9979H28.09a.6751.6751,0,1,1,0-1.35H46.7709a.6751.6751,0,1,1,0,1.35Zm.7188-6.6721V19.7154l4.1752,4.3893Z"/><path class="ac4f6343-76a0-459f-ba11-c03395efcdf4" d="M57.9455,25.11H54.46V60.2133H32.5243v3.971H62.3918V29.7852Zm-.54,5.288V26.0092l4.1748,4.3892Z"/></g></svg>