<svg xmlns="http://www.w3.org/2000/svg" viewBox="0 0 85 85"><defs><style>.fc06cb17-4965-4df2-8981-9b9778ea1ee9{fill:#006837;}.f5339e56-5f2b-4ced-bdae-f87eba7781be{fill:#39b34a;}.f99f14a8-3eab-4ff1-ba9c-c268bc7c1543{fill:#fff;}</style></defs><title>S</title><g id="ff31502b-eeb8-4f5f-883c-d06dd82b9506" data-name="Grafica"><rect class="fc06cb17-4965-4df2-8981-9b9778ea1ee9" x="0.0197" y="0.0098" width="84.9606" height="84.9803"/><rect class="f5339e56-5f2b-4ced-bdae-f87eba7781be" y="78.8696" width="85" height="6.1402"/><path class="f99f14a8-3eab-4ff1-ba9c-c268bc7c1543" d="M66.1867,52.1611a5.2245,5.2245,0,1,0,5.3079,5.2238A5.2665,5.2665,0,0,0,66.1867,52.1611Z"/><path class="f99f14a8-3eab-4ff1-ba9c-c268bc7c1543" d="M22.7873,52.1611a5.2245,5.2245,0,1,0,5.3069,5.2238A5.267,5.267,0,0,0,22.7873,52.1611Z"/><path class="f99f14a8-3eab-4ff1-ba9c-c268bc7c1543" d="M68.1484,29.9309l-9.354.006c-.8933,0-1.6117,5.5666-1.6271,12.4759h-.39a4.0468,4.0468,0,0,0-.4805.0477c.1508-1.7969.2385-3.8765.2385-6.1012,0-6.75-.7945-12.222-1.7746-12.222H38.7656v-.9652a.7871.7871,0,0,0-.7936-.7807h-9.06a.7873.7873,0,0,0-.7938.7807v.9652H8.5975c-.98,0-1.7746,5.4719-1.7746,12.222s.7947,12.2219,1.7746,12.2219H12.173c-1.7015.2182-2.9746,1.1246-2.9746,2.9094a3.7953,3.7953,0,0,0,3.8236,3.768h2.8924a7.241,7.241,0,0,1,13.7434,0H59.3193a7.2371,7.2371,0,0,1,13.7378,0h3.57c.9,0,1.6271-5.6694,1.6271-12.6587C78.2545,35.6017,69.054,29.9309,68.1484,29.9309Zm-.5311,10.5366H61.238V32.6628h6.3793Zm1.2279,0V33.1928c1.8451,1.1,5.3263,3.8526,6.4407,7.2747Z"/></g></svg>