<svg xmlns="http://www.w3.org/2000/svg" viewBox="0 0 85 85"><defs><style>.f74dacfe-90cf-4df4-ada1-b89af448f3c5{fill:#006837;}.b163948d-f282-4a2d-8a6c-49683697f6a3{fill:red;}.f7161f4c-004d-4d8b-9fdc-3d6704013976{fill:#fff;}</style></defs><title>S</title><g id="a1dc9bc2-a699-4aa5-8294-d07dc4a3bc66" data-name="Grafica"><rect class="f74dacfe-90cf-4df4-ada1-b89af448f3c5" width="85" height="85"/><rect class="b163948d-f282-4a2d-8a6c-49683697f6a3" y="78.8612" width="85" height="6.1388"/><path class="f7161f4c-004d-4d8b-9fdc-3d6704013976" d="M52.6892,22.51a10.2507,10.2507,0,1,0,10.2769,10.25A10.2643,10.2643,0,0,0,52.6892,22.51Zm0,16.7769a6.5263,6.5263,0,1,1,6.5422-6.5264A6.5336,6.5336,0,0,1,52.6892,39.2873Z"/><path class="f7161f4c-004d-4d8b-9fdc-3d6704013976" d="M74.3029,60.0274a22.7595,22.7595,0,0,0-43.2261,0Z"/><path class="f7161f4c-004d-4d8b-9fdc-3d6704013976" d="M30.5965,27.141a8.9855,8.9855,0,1,0,9.0084,8.985A8.9975,8.9975,0,0,0,30.5965,27.141Zm0,14.7062a5.7208,5.7208,0,1,1,5.7347-5.7208A5.7272,5.7272,0,0,1,30.5965,41.8472Z"/><path class="f7161f4c-004d-4d8b-9fdc-3d6704013976" d="M35.9639,47.0741A19.9105,19.9105,0,0,0,11.6517,60.0274h15.25A27.891,27.891,0,0,1,35.9639,47.0741Z"/></g></svg>