<svg xmlns="http://www.w3.org/2000/svg" viewBox="0 0 95.9 95.79"><defs><style>.cls-1{fill:#006837;}.cls-2{fill:#fff;}</style></defs><title>SVG</title><g id="Grafica"><rect class="cls-1" x="0.04" y="-0.17" width="95.82" height="96.12"/><path class="cls-2" d="M58.16,48.72A26.62,26.62,0,0,0,33.71,64.57H82.62A26.62,26.62,0,0,0,58.16,48.72Z"/><path class="cls-2" d="M58.17,44.37a10,10,0,1,0-10.12-10A10,10,0,0,0,58.17,44.37Z"/><path class="cls-2" d="M39.25,52.87a22.23,22.23,0,0,0-28.19,11.7H29A32.33,32.33,0,0,1,39.25,52.87Z"/><path class="cls-2" d="M31.34,47.82A8.26,8.26,0,1,0,23,39.56,8.33,8.33,0,0,0,31.34,47.82Z"/></g></svg>