<svg xmlns="http://www.w3.org/2000/svg" viewBox="0 0 95.9 95.79"><defs><style>.cls-1{fill:red;}.cls-2{fill:#fff;}</style></defs><title>SVG</title><g id="Grafica"><rect class="cls-1" x="0.04" y="-0.11" width="95.82" height="96"/><path class="cls-2" d="M74.37,62.76a5.83,5.83,0,1,0,5.92,5.83A5.88,5.88,0,0,0,74.37,62.76Z"/><path class="cls-2" d="M26,62.76a5.83,5.83,0,1,0,5.92,5.83A5.88,5.88,0,0,0,26,62.76Z"/><path class="cls-2" d="M76.55,38H66.12c-1,0-1.8,6.21-1.81,13.91h-.44a4.52,4.52,0,0,0-.53.06c.16-2,.26-4.33.26-6.81,0-7.52-.88-13.62-2-13.62H43.78V30.44a.87.87,0,0,0-.88-.87H32.79a.87.87,0,0,0-.88.87v1.08H10.13c-1.09,0-2,6.1-2,13.62s.89,13.63,2,13.63h4C12.22,59,10.8,60,10.8,62a4.23,4.23,0,0,0,4.27,4.2h3.22a8.08,8.08,0,0,1,15.33,0H66.71a8.07,8.07,0,0,1,15.32,0h4c1,0,1.82-6.32,1.82-14.12S77.56,38,76.55,38ZM76,49.73H68.85V41H76Zm1.37,0V41.61c2.06,1.23,5.94,4.3,7.18,8.12Z"/></g></svg>