<svg xmlns="http://www.w3.org/2000/svg" viewBox="0 0 95.9 95.79"><defs><style>.cls-1{fill:red;}.cls-2{fill:#fff;}</style></defs><title>SVG</title><g id="Grafica"><rect class="cls-1" x="0.04" y="-0.02" width="95.82" height="95.82"/><path class="cls-2" d="M60.89,24.53l-5.77-6.06h-33V69.16H60.89ZM42.35,59.92H29.26a.88.88,0,1,1,0-1.76H42.35a.88.88,0,1,1,0,1.76Zm11.14-6.49H29.26a.88.88,0,1,1,0-1.75H53.49a.88.88,0,1,1,0,1.75Zm0-6.48H29.26a.88.88,0,1,1,0-1.75H53.49a.88.88,0,1,1,0,1.75Zm0-6.48H29.26a.88.88,0,1,1,0-1.75H53.49a.88.88,0,1,1,0,1.75Zm0-6.49H29.26a.88.88,0,1,1,0-1.75H53.49a.88.88,0,1,1,0,1.75Zm.93-8.65v-5.7l5.42,5.7Z"/><path class="cls-2" d="M68,26.63H63.47V72.17H35v5.15H73.76V32.7Zm-.7,6.86V27.8l5.41,5.69Z"/></g></svg>