<svg xmlns="http://www.w3.org/2000/svg" viewBox="0 0 35.09 35.1"><defs><style>.cls-1{fill:red;}</style></defs><title>SVG</title><g id="Grafica"><path class="cls-1" d="M20.71,34l0-2.45a14.58,14.58,0,0,0,3.62-1.35l1.89,1.88a1.15,1.15,0,0,0,1.63,0l3.46-3.49a1.14,1.14,0,0,0,0-1.62l-1.67-1.67a14.28,14.28,0,0,0,1.58-3.35l2.62,0A1.15,1.15,0,0,0,35,20.83l.07-4.9A1.15,1.15,0,0,0,34,14.76l-2.33,0A14.09,14.09,0,0,0,30,10.44l1.86-1.79a1.15,1.15,0,0,0,0-1.63L28.41,3.56a1.16,1.16,0,0,0-1.63,0L25,5.27a14.48,14.48,0,0,0-3.86-1.62l.06-2.41A1.16,1.16,0,0,0,20.07.07L15.16,0A1.15,1.15,0,0,0,14,1.14l-.06,2.53A14.39,14.39,0,0,0,9.77,5.51L8.08,3.85a1.14,1.14,0,0,0-1.62,0L3,7.33A1.16,1.16,0,0,0,3,9L4.9,10.84A14.64,14.64,0,0,0,3.62,14.3l-2.38,0A1.16,1.16,0,0,0,.07,15.41L0,20.31a1.15,1.15,0,0,0,1.14,1.17l2.67,0A14.23,14.23,0,0,0,5.36,25L3.59,26.72a1.15,1.15,0,0,0,0,1.63l3.48,3.46a1.15,1.15,0,0,0,1.63,0L10.55,30a14.54,14.54,0,0,0,3,1.25l0,2.58A1.15,1.15,0,0,0,14.63,35l4.91.07A1.15,1.15,0,0,0,20.71,34ZM8.08,17.39A9.51,9.51,0,1,1,17.44,27,9.51,9.51,0,0,1,8.08,17.39Z"/></g></svg>