<svg xmlns="http://www.w3.org/2000/svg" viewBox="0 0 71.27 30.3"><defs><style>.cls-1{fill:red;}</style></defs><title>SVG</title><g id="Grafica"><path class="cls-1" d="M0,22.4V16.3H20.36v-2H0V10.19l2-2H26.48V22.4ZM4.06,6.11,10.18,0h16.3V6.11Z"/><path class="cls-1" d="M28.51,20.22V0h6.11V14.12Z"/><polygon class="cls-1" points="57.02 22.4 62.16 22.38 63.13 21.41 63.13 21.37 63.13 8.15 50.91 8.15 50.91 14.26 57.02 14.26 57.02 16.3 49.89 16.3 42.76 9.16 42.76 6.11 63.13 6.11 57.03 0 36.65 0 36.65 12.22 46.83 22.4 57.02 22.4"/><polygon class="cls-1" points="71.26 24.2 71.26 6.1 65.16 0.03 65.16 21.68 62.67 24.2 0 24.2 6.11 30.3 65.16 30.3 71.27 24.2 71.26 24.2"/></g></svg>