<svg xmlns="http://www.w3.org/2000/svg" viewBox="0 0 95.9 95.79"><defs><style>.cls-1{fill:red;}.cls-2{fill:#fff;}</style></defs><title>SVG</title><g id="Grafica"><rect class="cls-1" x="0.04" y="-0.07" width="95.82" height="95.93"/><path class="cls-2" d="M48.13,63.62a9.21,9.21,0,0,0,1.34.09h.29V57.81l-1.63-.37Z"/><path class="cls-2" d="M48.13,47.52v5.32l1.63.4V47.53a9,9,0,0,0-.94-.05C48.6,47.48,48.37,47.5,48.13,47.52Z"/><path class="cls-2" d="M45.13,48.94a2.16,2.16,0,0,0-.37,1.29,2.24,2.24,0,0,0,.24,1.1,2.08,2.08,0,0,0,.62.69,2.73,2.73,0,0,0,.81.38l.34.1V47.8a4.63,4.63,0,0,0-.68.29A2.81,2.81,0,0,0,45.13,48.94Z"/><path class="cls-2" d="M53.16,58.87a7.17,7.17,0,0,0-1.35-.53l-.69-.19v5.44h.09a5.78,5.78,0,0,0,1.56-.45,3,3,0,0,0,1.14-.89,2.41,2.41,0,0,0,.44-1.5A2,2,0,0,0,54,59.62,2.42,2.42,0,0,0,53.16,58.87Z"/><path class="cls-2" d="M53.44,32.26A9.91,9.91,0,0,1,56.8,26.1c2.73-2.15-1.82-2-4.92-1.62s-9.83-1.43-11.28-.17-.91,3.22.73,4.29a13.07,13.07,0,0,1,2.88,3.67C34.91,35.57,28,48.59,28,64.15A50.29,50.29,0,0,0,28.3,70c.39,1.3,1.65,4.3,4.81,4.3H64s4.46-.14,5.3-3.76c0-.44.1-.89.14-1.34,0-.2,0-.37,0-.52.13-1.47.2-3,.2-4.5C69.7,48.57,62.75,35.55,53.44,32.26Zm5.05,30.86a6.52,6.52,0,0,1-1.4,2.06,7.21,7.21,0,0,1-1.9,1.32,10.93,10.93,0,0,1-2.06.75,14,14,0,0,1-1.9.34h-.11V71H49.76V67.67c-.57,0-1.11,0-1.63-.07V71H46.77V67.43a9.77,9.77,0,0,1-2.09-.56,8.41,8.41,0,0,1-3-2,6.09,6.09,0,0,1-1.43-2.51,9.38,9.38,0,0,1-.36-2.4h4.68a4.17,4.17,0,0,0,.18,1.12,2.94,2.94,0,0,0,.7,1.21,4,4,0,0,0,1.36.92V57.12c-.65-.16-1.29-.32-1.91-.5a7.89,7.89,0,0,1-2.36-1.1,5.54,5.54,0,0,1-1.66-1.89,6.4,6.4,0,0,1-.63-3.05,7.35,7.35,0,0,1,.15-1.4,6.35,6.35,0,0,1,.5-1.55,7.14,7.14,0,0,1,1-1.54,5.72,5.72,0,0,1,1.64-1.3,9.78,9.78,0,0,1,2.41-.92l.87-.17V39.82h1.36v3.74c.34,0,.69,0,1,0,.2,0,.38,0,.58,0V39.82h1.36v3.83a9.56,9.56,0,0,1,2.48.64,8.28,8.28,0,0,1,2.79,1.88,6.52,6.52,0,0,1,1.46,2.42,7.67,7.67,0,0,1,.43,2.34H53.6c-.05-.25-.12-.58-.21-1a2.65,2.65,0,0,0-.64-1.13,3.87,3.87,0,0,0-1.41-.95l-.22-.07v5.76l1.8.43a19.89,19.89,0,0,1,2.3.7,6.67,6.67,0,0,1,2,1.12,5.17,5.17,0,0,1,1.35,1.76,5.88,5.88,0,0,1,.5,2.58A7.53,7.53,0,0,1,58.49,63.12Z"/></g></svg>